%TF.GenerationSoftware,KiCad,Pcbnew,(6.0.9)*%
%TF.CreationDate,2023-03-20T14:35:20+01:00*%
%TF.ProjectId,BLDC_driver_small,424c4443-5f64-4726-9976-65725f736d61,rev?*%
%TF.SameCoordinates,Original*%
%TF.FileFunction,Legend,Bot*%
%TF.FilePolarity,Positive*%
%FSLAX46Y46*%
G04 Gerber Fmt 4.6, Leading zero omitted, Abs format (unit mm)*
G04 Created by KiCad (PCBNEW (6.0.9)) date 2023-03-20 14:35:20*
%MOMM*%
%LPD*%
G01*
G04 APERTURE LIST*
%ADD10C,0.150000*%
%ADD11C,0.010000*%
G04 APERTURE END LIST*
D10*
X140000000Y-74500000D02*
X132000000Y-74500000D01*
X132000000Y-74500000D02*
X132000000Y-78000000D01*
X132000000Y-78000000D02*
X140000000Y-78000000D01*
X140000000Y-78000000D02*
X140000000Y-74500000D01*
G36*
X140000000Y-74500000D02*
G01*
X132000000Y-74500000D01*
X132000000Y-78000000D01*
X140000000Y-78000000D01*
X140000000Y-74500000D01*
G37*
%TO.C,kibuzzard-64185F07*%
G36*
X139997575Y-74428923D02*
G01*
X145202425Y-74428923D01*
X145202425Y-78071077D01*
X139997575Y-78071077D01*
X139997575Y-77378613D01*
X140659033Y-77378613D01*
X141124121Y-77378613D01*
X142029492Y-75893433D01*
X142029492Y-77378613D01*
X142494580Y-77378613D01*
X142494580Y-76783301D01*
X142809290Y-76783301D01*
X142833922Y-76964599D01*
X142907819Y-77117820D01*
X143030981Y-77242963D01*
X143195829Y-77335550D01*
X143394784Y-77391102D01*
X143627844Y-77409619D01*
X143876666Y-77385783D01*
X144102234Y-77314276D01*
X144290788Y-77201299D01*
X144428571Y-77053052D01*
X144512868Y-76873993D01*
X144540967Y-76668579D01*
X144074329Y-76668579D01*
X144046423Y-76832038D01*
X143962708Y-76948795D01*
X143823181Y-77018848D01*
X143627844Y-77042200D01*
X143480179Y-77025340D01*
X143368945Y-76974762D01*
X143275928Y-76786401D01*
X143368945Y-76584088D01*
X143499170Y-76511612D01*
X143703809Y-76435260D01*
X143920462Y-76357552D01*
X144086731Y-76281006D01*
X144300327Y-76126493D01*
X144428484Y-75939941D01*
X144471204Y-75721350D01*
X144445430Y-75548299D01*
X144368109Y-75395013D01*
X144242535Y-75267308D01*
X144072003Y-75170996D01*
X143867171Y-75110535D01*
X143638696Y-75090381D01*
X143410028Y-75112279D01*
X143207715Y-75177972D01*
X143039702Y-75283586D01*
X142913934Y-75425244D01*
X142835451Y-75595776D01*
X142809290Y-75788013D01*
X143274377Y-75788013D01*
X143298795Y-75650230D01*
X143372046Y-75546942D01*
X143489481Y-75482411D01*
X143646448Y-75460901D01*
X143797989Y-75478923D01*
X143911548Y-75532990D01*
X144006116Y-75722900D01*
X143895270Y-75907385D01*
X143758263Y-75979474D01*
X143568933Y-76046912D01*
X143328293Y-76132867D01*
X143135540Y-76231569D01*
X142990674Y-76343018D01*
X142854636Y-76541455D01*
X142809290Y-76783301D01*
X142494580Y-76783301D01*
X142494580Y-75121387D01*
X142029492Y-75121387D01*
X141122571Y-76609668D01*
X141122571Y-75121387D01*
X140659033Y-75121387D01*
X140659033Y-77378613D01*
X139997575Y-77378613D01*
X139997575Y-74428923D01*
G37*
%TO.C,REF\u002A\u002A*%
G36*
X104672971Y-108667822D02*
G01*
X101152178Y-108667822D01*
X101152178Y-107800198D01*
X104672971Y-107800198D01*
X104672971Y-108667822D01*
G37*
D11*
X104672971Y-108667822D02*
X101152178Y-108667822D01*
X101152178Y-107800198D01*
X104672971Y-107800198D01*
X104672971Y-108667822D01*
G36*
X103911662Y-103410696D02*
G01*
X103951314Y-103411782D01*
X104019109Y-103411782D01*
X104019109Y-103524951D01*
X103859577Y-103524951D01*
X103844682Y-103702732D01*
X103842682Y-103727037D01*
X103838023Y-103787880D01*
X103834731Y-103837389D01*
X103833092Y-103870992D01*
X103833390Y-103884116D01*
X103837724Y-103880343D01*
X103857496Y-103860676D01*
X103891679Y-103825818D01*
X103938541Y-103777576D01*
X103996354Y-103717757D01*
X104063387Y-103648167D01*
X104137912Y-103570615D01*
X104218197Y-103486907D01*
X104302513Y-103398849D01*
X104389130Y-103308250D01*
X104476319Y-103216915D01*
X104562349Y-103126653D01*
X104645492Y-103039269D01*
X104724016Y-102956572D01*
X104796192Y-102880368D01*
X104860291Y-102812463D01*
X104914583Y-102754666D01*
X105011592Y-102651040D01*
X105012034Y-102739315D01*
X105012475Y-102827589D01*
X104411938Y-103459158D01*
X103811401Y-104090726D01*
X103799396Y-104234674D01*
X103751365Y-104810635D01*
X103742876Y-104912791D01*
X103732343Y-105040612D01*
X103722621Y-105159767D01*
X103713898Y-105267914D01*
X103706358Y-105362713D01*
X103700187Y-105441819D01*
X103695573Y-105502892D01*
X103692700Y-105543590D01*
X103691754Y-105561570D01*
X103694251Y-105569808D01*
X103705471Y-105587599D01*
X103726751Y-105614411D01*
X103737021Y-105626129D01*
X103759225Y-105651466D01*
X103804023Y-105699986D01*
X103862281Y-105761192D01*
X103935129Y-105836307D01*
X104023703Y-105926550D01*
X104129134Y-106033145D01*
X104198492Y-106103093D01*
X104295179Y-106200658D01*
X104391526Y-106297941D01*
X104484638Y-106392014D01*
X104571618Y-106479950D01*
X104649569Y-106558820D01*
X104715596Y-106625699D01*
X104766802Y-106677658D01*
X104967514Y-106881620D01*
X104931058Y-106919671D01*
X104922460Y-106928245D01*
X104897095Y-106949297D01*
X104879695Y-106957723D01*
X104866071Y-106950530D01*
X104840743Y-106928944D01*
X104810379Y-106897995D01*
X104791896Y-106878448D01*
X104757427Y-106842752D01*
X104708712Y-106792684D01*
X104647469Y-106730001D01*
X104575420Y-106656457D01*
X104494285Y-106573810D01*
X104405784Y-106483815D01*
X104311637Y-106388228D01*
X104213565Y-106288805D01*
X103671161Y-105739343D01*
X103649066Y-106024746D01*
X103644250Y-106085662D01*
X103637216Y-106167548D01*
X103630872Y-106229569D01*
X103624748Y-106274987D01*
X103618373Y-106307062D01*
X103611277Y-106329052D01*
X103602991Y-106344219D01*
X103591393Y-106365416D01*
X103581850Y-106404386D01*
X103579010Y-106460531D01*
X103579010Y-106542773D01*
X103352674Y-106542773D01*
X103352674Y-106366733D01*
X102507082Y-106366733D01*
X102458203Y-106422262D01*
X102444836Y-106436722D01*
X102372388Y-106494813D01*
X102290532Y-106530576D01*
X102201900Y-106542773D01*
X102123692Y-106536306D01*
X102035233Y-106509047D01*
X101959507Y-106460328D01*
X101944748Y-106446403D01*
X101907864Y-106401328D01*
X101875503Y-106348819D01*
X101852297Y-106297061D01*
X101842879Y-106254239D01*
X101842697Y-106248023D01*
X101841342Y-106225246D01*
X101837800Y-106209513D01*
X101830390Y-106202068D01*
X101817431Y-106204156D01*
X101797243Y-106217020D01*
X101768145Y-106241905D01*
X101728456Y-106280053D01*
X101676496Y-106332710D01*
X101610584Y-106401119D01*
X101529040Y-106486524D01*
X101485604Y-106532112D01*
X101413000Y-106608441D01*
X101344309Y-106680808D01*
X101282223Y-106746366D01*
X101229434Y-106802274D01*
X101188634Y-106845686D01*
X101162515Y-106873758D01*
X101091119Y-106951436D01*
X101002863Y-106863416D01*
X101548690Y-106291287D01*
X101583105Y-106255188D01*
X101705546Y-106126272D01*
X101810651Y-106014754D01*
X101898736Y-105920288D01*
X101970116Y-105842529D01*
X102020588Y-105786174D01*
X102227247Y-105786174D01*
X102228872Y-105799434D01*
X102229156Y-105800819D01*
X102242698Y-105832228D01*
X102269748Y-105846863D01*
X102353129Y-105878063D01*
X102427418Y-105930038D01*
X102485846Y-105998791D01*
X102525890Y-106081315D01*
X102545026Y-106174606D01*
X102551364Y-106253565D01*
X103500838Y-106253565D01*
X103507458Y-106225273D01*
X103508629Y-106218329D01*
X103512268Y-106187281D01*
X103517234Y-106137081D01*
X103523157Y-106071727D01*
X103529669Y-105995219D01*
X103536401Y-105911555D01*
X103558724Y-105626129D01*
X103257826Y-105320565D01*
X103202636Y-105264704D01*
X103135109Y-105196888D01*
X103074529Y-105136643D01*
X103023021Y-105086052D01*
X102982710Y-105047200D01*
X102955722Y-105022170D01*
X102944182Y-105013046D01*
X102936444Y-105017405D01*
X102913395Y-105037241D01*
X102878709Y-105070375D01*
X102835487Y-105113820D01*
X102786832Y-105164587D01*
X102774140Y-105178051D01*
X102717229Y-105238275D01*
X102649414Y-105309864D01*
X102575800Y-105387437D01*
X102501493Y-105465611D01*
X102431599Y-105539005D01*
X102427401Y-105543409D01*
X102362420Y-105611785D01*
X102312836Y-105664732D01*
X102276688Y-105704767D01*
X102252016Y-105734411D01*
X102236858Y-105756181D01*
X102229256Y-105772595D01*
X102227247Y-105786174D01*
X102020588Y-105786174D01*
X102025105Y-105781131D01*
X102064019Y-105735748D01*
X102087173Y-105706035D01*
X102094882Y-105691644D01*
X102094883Y-105691559D01*
X102093825Y-105673624D01*
X102090737Y-105633421D01*
X102085858Y-105573687D01*
X102079432Y-105497158D01*
X102071700Y-105406569D01*
X102062905Y-105304657D01*
X102053287Y-105194159D01*
X102043091Y-105077811D01*
X102032556Y-104958348D01*
X102021926Y-104838507D01*
X102011442Y-104721025D01*
X102001346Y-104608637D01*
X101991881Y-104504081D01*
X101983288Y-104410091D01*
X101975809Y-104329405D01*
X101969687Y-104264759D01*
X101965162Y-104218888D01*
X101962478Y-104194530D01*
X101957067Y-104153732D01*
X102086253Y-104153732D01*
X102087908Y-104184653D01*
X102091549Y-104236653D01*
X102096995Y-104307487D01*
X102104063Y-104394911D01*
X102112570Y-104496681D01*
X102122335Y-104610552D01*
X102133174Y-104734279D01*
X102144907Y-104865618D01*
X102154079Y-104966908D01*
X102165566Y-105092526D01*
X102176322Y-105208762D01*
X102186131Y-105313380D01*
X102194781Y-105404140D01*
X102202057Y-105478804D01*
X102207746Y-105535134D01*
X102211634Y-105570891D01*
X102213506Y-105583837D01*
X102219188Y-105579826D01*
X102240020Y-105560138D01*
X102273872Y-105526322D01*
X102318412Y-105480837D01*
X102371310Y-105426146D01*
X102430236Y-105364710D01*
X102492858Y-105298990D01*
X102556848Y-105231449D01*
X102619874Y-105164547D01*
X102679606Y-105100746D01*
X102733713Y-105042507D01*
X102779865Y-104992292D01*
X102815733Y-104952563D01*
X102838984Y-104925780D01*
X102845778Y-104916477D01*
X103027601Y-104916477D01*
X103303305Y-105191968D01*
X103370726Y-105259224D01*
X103434267Y-105322162D01*
X103483490Y-105370100D01*
X103520196Y-105404594D01*
X103546190Y-105427199D01*
X103563276Y-105439471D01*
X103573256Y-105442966D01*
X103577935Y-105439238D01*
X103579116Y-105429844D01*
X103579873Y-105414749D01*
X103582601Y-105375883D01*
X103587108Y-105316895D01*
X103593179Y-105240473D01*
X103600596Y-105149305D01*
X103609142Y-105046080D01*
X103618602Y-104933483D01*
X103628758Y-104814205D01*
X103637723Y-104709077D01*
X103647066Y-104598351D01*
X103655443Y-104497814D01*
X103662653Y-104409943D01*
X103668496Y-104337215D01*
X103672769Y-104282110D01*
X103675273Y-104247104D01*
X103675805Y-104234674D01*
X103675384Y-104234908D01*
X103663509Y-104246350D01*
X103637130Y-104273198D01*
X103598570Y-104313018D01*
X103550153Y-104363372D01*
X103494203Y-104421828D01*
X103433042Y-104485948D01*
X103368995Y-104553298D01*
X103304385Y-104621443D01*
X103241535Y-104687948D01*
X103182768Y-104750377D01*
X103130409Y-104806295D01*
X103029533Y-104914406D01*
X103027601Y-104916477D01*
X102845778Y-104916477D01*
X102847290Y-104914406D01*
X102839148Y-104903383D01*
X102815478Y-104876999D01*
X102778478Y-104837527D01*
X102730350Y-104787191D01*
X102673296Y-104728217D01*
X102609520Y-104662830D01*
X102541222Y-104593255D01*
X102470605Y-104521716D01*
X102399871Y-104450438D01*
X102331222Y-104381647D01*
X102266861Y-104317566D01*
X102208989Y-104260422D01*
X102159810Y-104212439D01*
X102121524Y-104175841D01*
X102096334Y-104152854D01*
X102086442Y-104145703D01*
X102086253Y-104153732D01*
X101957067Y-104153732D01*
X101955390Y-104141089D01*
X101680297Y-104141089D01*
X101680140Y-104040495D01*
X101780891Y-104040495D01*
X101862624Y-104040495D01*
X101869895Y-104040489D01*
X101910950Y-104039613D01*
X101933277Y-104035867D01*
X101942529Y-104027270D01*
X101944357Y-104011840D01*
X101936306Y-103989159D01*
X101908730Y-103951428D01*
X101862624Y-103902179D01*
X101780891Y-103821172D01*
X101780891Y-104040495D01*
X101680140Y-104040495D01*
X101679968Y-103930471D01*
X101679639Y-103719852D01*
X101227914Y-103260891D01*
X100776189Y-102801931D01*
X100775570Y-102714848D01*
X100774951Y-102627767D01*
X101316769Y-103176952D01*
X101369137Y-103229998D01*
X101477803Y-103339772D01*
X101570709Y-103433114D01*
X101649055Y-103511173D01*
X101714043Y-103575097D01*
X101766872Y-103626035D01*
X101808743Y-103665135D01*
X101840855Y-103693548D01*
X101864410Y-103712420D01*
X101880608Y-103722901D01*
X101890649Y-103726139D01*
X101907579Y-103725158D01*
X101917084Y-103717996D01*
X101918723Y-103698401D01*
X101914782Y-103660124D01*
X101912065Y-103636025D01*
X101908284Y-103595744D01*
X101906760Y-103568961D01*
X101906015Y-103559728D01*
X101898746Y-103549839D01*
X101878668Y-103546562D01*
X101839689Y-103547992D01*
X101829737Y-103548553D01*
X101789898Y-103547921D01*
X101761560Y-103539167D01*
X101741586Y-103524951D01*
X102024852Y-103524951D01*
X102029013Y-103572104D01*
X102030935Y-103593498D01*
X102036924Y-103651909D01*
X102042826Y-103690381D01*
X102049727Y-103712912D01*
X102058712Y-103723498D01*
X102070870Y-103726139D01*
X102081801Y-103727937D01*
X102089050Y-103736530D01*
X102093100Y-103756505D01*
X102094863Y-103792450D01*
X102095248Y-103848952D01*
X102095248Y-103971766D01*
X102135447Y-104011840D01*
X102233565Y-104109654D01*
X102371881Y-104247542D01*
X102371881Y-104141089D01*
X103126337Y-104141089D01*
X103126337Y-104380000D01*
X102507831Y-104380000D01*
X102717592Y-104596906D01*
X102757770Y-104638334D01*
X102813328Y-104695200D01*
X102861570Y-104744082D01*
X102899971Y-104782441D01*
X102926003Y-104807741D01*
X102937140Y-104817442D01*
X102941373Y-104814767D01*
X102961224Y-104796782D01*
X102995451Y-104763481D01*
X103042227Y-104716712D01*
X103099724Y-104658325D01*
X103166112Y-104590169D01*
X103239564Y-104514094D01*
X103318251Y-104431950D01*
X103397341Y-104348943D01*
X103474871Y-104267136D01*
X103537746Y-104200083D01*
X103587502Y-104146007D01*
X103625678Y-104103129D01*
X103653811Y-104069673D01*
X103673440Y-104043861D01*
X103686101Y-104023914D01*
X103693334Y-104008056D01*
X103696675Y-103994509D01*
X103697561Y-103987910D01*
X103701488Y-103951548D01*
X103706459Y-103898018D01*
X103711927Y-103833421D01*
X103717344Y-103763862D01*
X103719181Y-103739635D01*
X103724488Y-103674178D01*
X103729548Y-103617717D01*
X103733863Y-103575618D01*
X103736934Y-103553243D01*
X103742955Y-103524951D01*
X102024852Y-103524951D01*
X101741586Y-103524951D01*
X101733630Y-103519289D01*
X101728820Y-103515104D01*
X101689482Y-103464427D01*
X101673903Y-103411782D01*
X102014698Y-103411782D01*
X103429221Y-103411782D01*
X103641881Y-103411782D01*
X103698908Y-103411782D01*
X103715993Y-103411662D01*
X103741308Y-103409462D01*
X103748616Y-103402334D01*
X103742943Y-103387508D01*
X103741267Y-103384682D01*
X103722448Y-103362944D01*
X103695183Y-103338820D01*
X103667987Y-103319254D01*
X103649371Y-103311188D01*
X103647697Y-103312463D01*
X103643544Y-103329976D01*
X103641881Y-103361485D01*
X103641881Y-103411782D01*
X103429221Y-103411782D01*
X103425526Y-103321095D01*
X103421832Y-103230407D01*
X103346386Y-103215252D01*
X103308551Y-103208379D01*
X103245368Y-103198756D01*
X103186065Y-103191496D01*
X103101188Y-103182893D01*
X103101188Y-103286040D01*
X102522773Y-103286040D01*
X102522773Y-103195122D01*
X102450471Y-103203753D01*
X102339998Y-103222249D01*
X102228816Y-103255691D01*
X102136850Y-103302324D01*
X102062542Y-103362786D01*
X102014698Y-103411782D01*
X101673903Y-103411782D01*
X101672172Y-103405934D01*
X101677474Y-103344575D01*
X101705975Y-103285297D01*
X101708733Y-103281606D01*
X101746822Y-103249851D01*
X101796476Y-103231067D01*
X101850002Y-103226071D01*
X101899707Y-103235678D01*
X101937900Y-103260704D01*
X101950831Y-103273480D01*
X101963428Y-103276576D01*
X101981467Y-103266998D01*
X102011928Y-103243082D01*
X102021274Y-103235731D01*
X102093430Y-103189339D01*
X102178915Y-103148084D01*
X102248830Y-103122575D01*
X102623367Y-103122575D01*
X102623367Y-103185446D01*
X103000594Y-103185446D01*
X103000594Y-103122575D01*
X102623367Y-103122575D01*
X102248830Y-103122575D01*
X102269767Y-103114936D01*
X102358027Y-103092868D01*
X102435736Y-103084852D01*
X102443991Y-103084788D01*
X102489879Y-103080321D01*
X102515079Y-103067795D01*
X102522773Y-103045784D01*
X102523676Y-103038849D01*
X102528615Y-103032885D01*
X102540611Y-103028519D01*
X102562680Y-103025503D01*
X102597836Y-103023590D01*
X102649094Y-103022530D01*
X102719471Y-103022077D01*
X102811980Y-103021980D01*
X102898660Y-103022150D01*
X102972332Y-103022834D01*
X103026265Y-103024215D01*
X103063288Y-103026470D01*
X103086230Y-103029778D01*
X103097920Y-103034320D01*
X103101188Y-103040272D01*
X103111937Y-103054888D01*
X103142055Y-103064215D01*
X103153582Y-103065847D01*
X103192886Y-103071591D01*
X103245188Y-103079378D01*
X103302376Y-103088003D01*
X103333916Y-103092393D01*
X103380074Y-103097148D01*
X103412641Y-103098295D01*
X103426023Y-103095495D01*
X103428308Y-103093671D01*
X103449405Y-103089165D01*
X103487355Y-103086029D01*
X103536048Y-103084852D01*
X103641881Y-103084852D01*
X103641894Y-103122575D01*
X103641894Y-103125718D01*
X103642388Y-103138668D01*
X103648819Y-103160411D01*
X103667123Y-103178851D01*
X103702830Y-103200801D01*
X103734174Y-103220854D01*
X103781893Y-103259356D01*
X103825138Y-103302579D01*
X103858219Y-103344627D01*
X103875442Y-103379604D01*
X103879662Y-103393081D01*
X103887480Y-103402334D01*
X103890116Y-103405454D01*
X103911662Y-103410696D01*
G37*
X103911662Y-103410696D02*
X103951314Y-103411782D01*
X104019109Y-103411782D01*
X104019109Y-103524951D01*
X103859577Y-103524951D01*
X103844682Y-103702732D01*
X103842682Y-103727037D01*
X103838023Y-103787880D01*
X103834731Y-103837389D01*
X103833092Y-103870992D01*
X103833390Y-103884116D01*
X103837724Y-103880343D01*
X103857496Y-103860676D01*
X103891679Y-103825818D01*
X103938541Y-103777576D01*
X103996354Y-103717757D01*
X104063387Y-103648167D01*
X104137912Y-103570615D01*
X104218197Y-103486907D01*
X104302513Y-103398849D01*
X104389130Y-103308250D01*
X104476319Y-103216915D01*
X104562349Y-103126653D01*
X104645492Y-103039269D01*
X104724016Y-102956572D01*
X104796192Y-102880368D01*
X104860291Y-102812463D01*
X104914583Y-102754666D01*
X105011592Y-102651040D01*
X105012034Y-102739315D01*
X105012475Y-102827589D01*
X104411938Y-103459158D01*
X103811401Y-104090726D01*
X103799396Y-104234674D01*
X103751365Y-104810635D01*
X103742876Y-104912791D01*
X103732343Y-105040612D01*
X103722621Y-105159767D01*
X103713898Y-105267914D01*
X103706358Y-105362713D01*
X103700187Y-105441819D01*
X103695573Y-105502892D01*
X103692700Y-105543590D01*
X103691754Y-105561570D01*
X103694251Y-105569808D01*
X103705471Y-105587599D01*
X103726751Y-105614411D01*
X103737021Y-105626129D01*
X103759225Y-105651466D01*
X103804023Y-105699986D01*
X103862281Y-105761192D01*
X103935129Y-105836307D01*
X104023703Y-105926550D01*
X104129134Y-106033145D01*
X104198492Y-106103093D01*
X104295179Y-106200658D01*
X104391526Y-106297941D01*
X104484638Y-106392014D01*
X104571618Y-106479950D01*
X104649569Y-106558820D01*
X104715596Y-106625699D01*
X104766802Y-106677658D01*
X104967514Y-106881620D01*
X104931058Y-106919671D01*
X104922460Y-106928245D01*
X104897095Y-106949297D01*
X104879695Y-106957723D01*
X104866071Y-106950530D01*
X104840743Y-106928944D01*
X104810379Y-106897995D01*
X104791896Y-106878448D01*
X104757427Y-106842752D01*
X104708712Y-106792684D01*
X104647469Y-106730001D01*
X104575420Y-106656457D01*
X104494285Y-106573810D01*
X104405784Y-106483815D01*
X104311637Y-106388228D01*
X104213565Y-106288805D01*
X103671161Y-105739343D01*
X103649066Y-106024746D01*
X103644250Y-106085662D01*
X103637216Y-106167548D01*
X103630872Y-106229569D01*
X103624748Y-106274987D01*
X103618373Y-106307062D01*
X103611277Y-106329052D01*
X103602991Y-106344219D01*
X103591393Y-106365416D01*
X103581850Y-106404386D01*
X103579010Y-106460531D01*
X103579010Y-106542773D01*
X103352674Y-106542773D01*
X103352674Y-106366733D01*
X102507082Y-106366733D01*
X102458203Y-106422262D01*
X102444836Y-106436722D01*
X102372388Y-106494813D01*
X102290532Y-106530576D01*
X102201900Y-106542773D01*
X102123692Y-106536306D01*
X102035233Y-106509047D01*
X101959507Y-106460328D01*
X101944748Y-106446403D01*
X101907864Y-106401328D01*
X101875503Y-106348819D01*
X101852297Y-106297061D01*
X101842879Y-106254239D01*
X101842697Y-106248023D01*
X101841342Y-106225246D01*
X101837800Y-106209513D01*
X101830390Y-106202068D01*
X101817431Y-106204156D01*
X101797243Y-106217020D01*
X101768145Y-106241905D01*
X101728456Y-106280053D01*
X101676496Y-106332710D01*
X101610584Y-106401119D01*
X101529040Y-106486524D01*
X101485604Y-106532112D01*
X101413000Y-106608441D01*
X101344309Y-106680808D01*
X101282223Y-106746366D01*
X101229434Y-106802274D01*
X101188634Y-106845686D01*
X101162515Y-106873758D01*
X101091119Y-106951436D01*
X101002863Y-106863416D01*
X101548690Y-106291287D01*
X101583105Y-106255188D01*
X101705546Y-106126272D01*
X101810651Y-106014754D01*
X101898736Y-105920288D01*
X101970116Y-105842529D01*
X102020588Y-105786174D01*
X102227247Y-105786174D01*
X102228872Y-105799434D01*
X102229156Y-105800819D01*
X102242698Y-105832228D01*
X102269748Y-105846863D01*
X102353129Y-105878063D01*
X102427418Y-105930038D01*
X102485846Y-105998791D01*
X102525890Y-106081315D01*
X102545026Y-106174606D01*
X102551364Y-106253565D01*
X103500838Y-106253565D01*
X103507458Y-106225273D01*
X103508629Y-106218329D01*
X103512268Y-106187281D01*
X103517234Y-106137081D01*
X103523157Y-106071727D01*
X103529669Y-105995219D01*
X103536401Y-105911555D01*
X103558724Y-105626129D01*
X103257826Y-105320565D01*
X103202636Y-105264704D01*
X103135109Y-105196888D01*
X103074529Y-105136643D01*
X103023021Y-105086052D01*
X102982710Y-105047200D01*
X102955722Y-105022170D01*
X102944182Y-105013046D01*
X102936444Y-105017405D01*
X102913395Y-105037241D01*
X102878709Y-105070375D01*
X102835487Y-105113820D01*
X102786832Y-105164587D01*
X102774140Y-105178051D01*
X102717229Y-105238275D01*
X102649414Y-105309864D01*
X102575800Y-105387437D01*
X102501493Y-105465611D01*
X102431599Y-105539005D01*
X102427401Y-105543409D01*
X102362420Y-105611785D01*
X102312836Y-105664732D01*
X102276688Y-105704767D01*
X102252016Y-105734411D01*
X102236858Y-105756181D01*
X102229256Y-105772595D01*
X102227247Y-105786174D01*
X102020588Y-105786174D01*
X102025105Y-105781131D01*
X102064019Y-105735748D01*
X102087173Y-105706035D01*
X102094882Y-105691644D01*
X102094883Y-105691559D01*
X102093825Y-105673624D01*
X102090737Y-105633421D01*
X102085858Y-105573687D01*
X102079432Y-105497158D01*
X102071700Y-105406569D01*
X102062905Y-105304657D01*
X102053287Y-105194159D01*
X102043091Y-105077811D01*
X102032556Y-104958348D01*
X102021926Y-104838507D01*
X102011442Y-104721025D01*
X102001346Y-104608637D01*
X101991881Y-104504081D01*
X101983288Y-104410091D01*
X101975809Y-104329405D01*
X101969687Y-104264759D01*
X101965162Y-104218888D01*
X101962478Y-104194530D01*
X101957067Y-104153732D01*
X102086253Y-104153732D01*
X102087908Y-104184653D01*
X102091549Y-104236653D01*
X102096995Y-104307487D01*
X102104063Y-104394911D01*
X102112570Y-104496681D01*
X102122335Y-104610552D01*
X102133174Y-104734279D01*
X102144907Y-104865618D01*
X102154079Y-104966908D01*
X102165566Y-105092526D01*
X102176322Y-105208762D01*
X102186131Y-105313380D01*
X102194781Y-105404140D01*
X102202057Y-105478804D01*
X102207746Y-105535134D01*
X102211634Y-105570891D01*
X102213506Y-105583837D01*
X102219188Y-105579826D01*
X102240020Y-105560138D01*
X102273872Y-105526322D01*
X102318412Y-105480837D01*
X102371310Y-105426146D01*
X102430236Y-105364710D01*
X102492858Y-105298990D01*
X102556848Y-105231449D01*
X102619874Y-105164547D01*
X102679606Y-105100746D01*
X102733713Y-105042507D01*
X102779865Y-104992292D01*
X102815733Y-104952563D01*
X102838984Y-104925780D01*
X102845778Y-104916477D01*
X103027601Y-104916477D01*
X103303305Y-105191968D01*
X103370726Y-105259224D01*
X103434267Y-105322162D01*
X103483490Y-105370100D01*
X103520196Y-105404594D01*
X103546190Y-105427199D01*
X103563276Y-105439471D01*
X103573256Y-105442966D01*
X103577935Y-105439238D01*
X103579116Y-105429844D01*
X103579873Y-105414749D01*
X103582601Y-105375883D01*
X103587108Y-105316895D01*
X103593179Y-105240473D01*
X103600596Y-105149305D01*
X103609142Y-105046080D01*
X103618602Y-104933483D01*
X103628758Y-104814205D01*
X103637723Y-104709077D01*
X103647066Y-104598351D01*
X103655443Y-104497814D01*
X103662653Y-104409943D01*
X103668496Y-104337215D01*
X103672769Y-104282110D01*
X103675273Y-104247104D01*
X103675805Y-104234674D01*
X103675384Y-104234908D01*
X103663509Y-104246350D01*
X103637130Y-104273198D01*
X103598570Y-104313018D01*
X103550153Y-104363372D01*
X103494203Y-104421828D01*
X103433042Y-104485948D01*
X103368995Y-104553298D01*
X103304385Y-104621443D01*
X103241535Y-104687948D01*
X103182768Y-104750377D01*
X103130409Y-104806295D01*
X103029533Y-104914406D01*
X103027601Y-104916477D01*
X102845778Y-104916477D01*
X102847290Y-104914406D01*
X102839148Y-104903383D01*
X102815478Y-104876999D01*
X102778478Y-104837527D01*
X102730350Y-104787191D01*
X102673296Y-104728217D01*
X102609520Y-104662830D01*
X102541222Y-104593255D01*
X102470605Y-104521716D01*
X102399871Y-104450438D01*
X102331222Y-104381647D01*
X102266861Y-104317566D01*
X102208989Y-104260422D01*
X102159810Y-104212439D01*
X102121524Y-104175841D01*
X102096334Y-104152854D01*
X102086442Y-104145703D01*
X102086253Y-104153732D01*
X101957067Y-104153732D01*
X101955390Y-104141089D01*
X101680297Y-104141089D01*
X101680140Y-104040495D01*
X101780891Y-104040495D01*
X101862624Y-104040495D01*
X101869895Y-104040489D01*
X101910950Y-104039613D01*
X101933277Y-104035867D01*
X101942529Y-104027270D01*
X101944357Y-104011840D01*
X101936306Y-103989159D01*
X101908730Y-103951428D01*
X101862624Y-103902179D01*
X101780891Y-103821172D01*
X101780891Y-104040495D01*
X101680140Y-104040495D01*
X101679968Y-103930471D01*
X101679639Y-103719852D01*
X101227914Y-103260891D01*
X100776189Y-102801931D01*
X100775570Y-102714848D01*
X100774951Y-102627767D01*
X101316769Y-103176952D01*
X101369137Y-103229998D01*
X101477803Y-103339772D01*
X101570709Y-103433114D01*
X101649055Y-103511173D01*
X101714043Y-103575097D01*
X101766872Y-103626035D01*
X101808743Y-103665135D01*
X101840855Y-103693548D01*
X101864410Y-103712420D01*
X101880608Y-103722901D01*
X101890649Y-103726139D01*
X101907579Y-103725158D01*
X101917084Y-103717996D01*
X101918723Y-103698401D01*
X101914782Y-103660124D01*
X101912065Y-103636025D01*
X101908284Y-103595744D01*
X101906760Y-103568961D01*
X101906015Y-103559728D01*
X101898746Y-103549839D01*
X101878668Y-103546562D01*
X101839689Y-103547992D01*
X101829737Y-103548553D01*
X101789898Y-103547921D01*
X101761560Y-103539167D01*
X101741586Y-103524951D01*
X102024852Y-103524951D01*
X102029013Y-103572104D01*
X102030935Y-103593498D01*
X102036924Y-103651909D01*
X102042826Y-103690381D01*
X102049727Y-103712912D01*
X102058712Y-103723498D01*
X102070870Y-103726139D01*
X102081801Y-103727937D01*
X102089050Y-103736530D01*
X102093100Y-103756505D01*
X102094863Y-103792450D01*
X102095248Y-103848952D01*
X102095248Y-103971766D01*
X102135447Y-104011840D01*
X102233565Y-104109654D01*
X102371881Y-104247542D01*
X102371881Y-104141089D01*
X103126337Y-104141089D01*
X103126337Y-104380000D01*
X102507831Y-104380000D01*
X102717592Y-104596906D01*
X102757770Y-104638334D01*
X102813328Y-104695200D01*
X102861570Y-104744082D01*
X102899971Y-104782441D01*
X102926003Y-104807741D01*
X102937140Y-104817442D01*
X102941373Y-104814767D01*
X102961224Y-104796782D01*
X102995451Y-104763481D01*
X103042227Y-104716712D01*
X103099724Y-104658325D01*
X103166112Y-104590169D01*
X103239564Y-104514094D01*
X103318251Y-104431950D01*
X103397341Y-104348943D01*
X103474871Y-104267136D01*
X103537746Y-104200083D01*
X103587502Y-104146007D01*
X103625678Y-104103129D01*
X103653811Y-104069673D01*
X103673440Y-104043861D01*
X103686101Y-104023914D01*
X103693334Y-104008056D01*
X103696675Y-103994509D01*
X103697561Y-103987910D01*
X103701488Y-103951548D01*
X103706459Y-103898018D01*
X103711927Y-103833421D01*
X103717344Y-103763862D01*
X103719181Y-103739635D01*
X103724488Y-103674178D01*
X103729548Y-103617717D01*
X103733863Y-103575618D01*
X103736934Y-103553243D01*
X103742955Y-103524951D01*
X102024852Y-103524951D01*
X101741586Y-103524951D01*
X101733630Y-103519289D01*
X101728820Y-103515104D01*
X101689482Y-103464427D01*
X101673903Y-103411782D01*
X102014698Y-103411782D01*
X103429221Y-103411782D01*
X103641881Y-103411782D01*
X103698908Y-103411782D01*
X103715993Y-103411662D01*
X103741308Y-103409462D01*
X103748616Y-103402334D01*
X103742943Y-103387508D01*
X103741267Y-103384682D01*
X103722448Y-103362944D01*
X103695183Y-103338820D01*
X103667987Y-103319254D01*
X103649371Y-103311188D01*
X103647697Y-103312463D01*
X103643544Y-103329976D01*
X103641881Y-103361485D01*
X103641881Y-103411782D01*
X103429221Y-103411782D01*
X103425526Y-103321095D01*
X103421832Y-103230407D01*
X103346386Y-103215252D01*
X103308551Y-103208379D01*
X103245368Y-103198756D01*
X103186065Y-103191496D01*
X103101188Y-103182893D01*
X103101188Y-103286040D01*
X102522773Y-103286040D01*
X102522773Y-103195122D01*
X102450471Y-103203753D01*
X102339998Y-103222249D01*
X102228816Y-103255691D01*
X102136850Y-103302324D01*
X102062542Y-103362786D01*
X102014698Y-103411782D01*
X101673903Y-103411782D01*
X101672172Y-103405934D01*
X101677474Y-103344575D01*
X101705975Y-103285297D01*
X101708733Y-103281606D01*
X101746822Y-103249851D01*
X101796476Y-103231067D01*
X101850002Y-103226071D01*
X101899707Y-103235678D01*
X101937900Y-103260704D01*
X101950831Y-103273480D01*
X101963428Y-103276576D01*
X101981467Y-103266998D01*
X102011928Y-103243082D01*
X102021274Y-103235731D01*
X102093430Y-103189339D01*
X102178915Y-103148084D01*
X102248830Y-103122575D01*
X102623367Y-103122575D01*
X102623367Y-103185446D01*
X103000594Y-103185446D01*
X103000594Y-103122575D01*
X102623367Y-103122575D01*
X102248830Y-103122575D01*
X102269767Y-103114936D01*
X102358027Y-103092868D01*
X102435736Y-103084852D01*
X102443991Y-103084788D01*
X102489879Y-103080321D01*
X102515079Y-103067795D01*
X102522773Y-103045784D01*
X102523676Y-103038849D01*
X102528615Y-103032885D01*
X102540611Y-103028519D01*
X102562680Y-103025503D01*
X102597836Y-103023590D01*
X102649094Y-103022530D01*
X102719471Y-103022077D01*
X102811980Y-103021980D01*
X102898660Y-103022150D01*
X102972332Y-103022834D01*
X103026265Y-103024215D01*
X103063288Y-103026470D01*
X103086230Y-103029778D01*
X103097920Y-103034320D01*
X103101188Y-103040272D01*
X103111937Y-103054888D01*
X103142055Y-103064215D01*
X103153582Y-103065847D01*
X103192886Y-103071591D01*
X103245188Y-103079378D01*
X103302376Y-103088003D01*
X103333916Y-103092393D01*
X103380074Y-103097148D01*
X103412641Y-103098295D01*
X103426023Y-103095495D01*
X103428308Y-103093671D01*
X103449405Y-103089165D01*
X103487355Y-103086029D01*
X103536048Y-103084852D01*
X103641881Y-103084852D01*
X103641894Y-103122575D01*
X103641894Y-103125718D01*
X103642388Y-103138668D01*
X103648819Y-103160411D01*
X103667123Y-103178851D01*
X103702830Y-103200801D01*
X103734174Y-103220854D01*
X103781893Y-103259356D01*
X103825138Y-103302579D01*
X103858219Y-103344627D01*
X103875442Y-103379604D01*
X103879662Y-103393081D01*
X103887480Y-103402334D01*
X103890116Y-103405454D01*
X103911662Y-103410696D01*
G36*
X124991121Y-84546350D02*
G01*
X125014186Y-84581023D01*
X125065001Y-84664324D01*
X125141015Y-84791823D01*
X125239674Y-84959091D01*
X125358426Y-85161699D01*
X125494719Y-85395218D01*
X125646001Y-85655216D01*
X125809719Y-85937266D01*
X125983320Y-86236937D01*
X126164253Y-86549801D01*
X126349964Y-86871427D01*
X126537902Y-87197386D01*
X126725515Y-87523248D01*
X126910249Y-87844584D01*
X127089552Y-88156965D01*
X127260872Y-88455961D01*
X127421657Y-88737143D01*
X127569354Y-88996080D01*
X127701411Y-89228344D01*
X127815275Y-89429505D01*
X127908395Y-89595134D01*
X127978217Y-89720800D01*
X128022189Y-89802075D01*
X128037759Y-89834529D01*
X128037774Y-89834776D01*
X128012666Y-89868832D01*
X127940517Y-89926559D01*
X127828834Y-90002494D01*
X127685122Y-90091175D01*
X127588746Y-90147905D01*
X127450065Y-90226793D01*
X127353469Y-90276509D01*
X127292485Y-90299849D01*
X127260640Y-90299612D01*
X127251464Y-90278594D01*
X127250765Y-90275167D01*
X127224537Y-90233364D01*
X127168000Y-90162279D01*
X127091572Y-90075167D01*
X127056311Y-90037750D01*
X126946964Y-89937024D01*
X126826044Y-89850931D01*
X126686365Y-89776947D01*
X126520741Y-89712546D01*
X126321985Y-89655204D01*
X126082910Y-89602397D01*
X125796332Y-89551600D01*
X125455063Y-89500290D01*
X125062269Y-89442454D01*
X124682549Y-89380346D01*
X124350521Y-89318088D01*
X124058764Y-89253884D01*
X123799854Y-89185938D01*
X123566367Y-89112453D01*
X123350881Y-89031635D01*
X123145971Y-88941687D01*
X122995377Y-88867509D01*
X122851530Y-88789450D01*
X122737773Y-88719764D01*
X122662998Y-88663930D01*
X122636098Y-88627429D01*
X122636892Y-88624740D01*
X122658561Y-88581724D01*
X122707690Y-88491645D01*
X122781371Y-88359544D01*
X122876695Y-88190466D01*
X122990753Y-87989455D01*
X123120637Y-87761552D01*
X123263438Y-87511802D01*
X123416248Y-87245248D01*
X123576158Y-86966934D01*
X123740260Y-86681902D01*
X123905644Y-86395197D01*
X124069403Y-86111860D01*
X124228627Y-85836937D01*
X124380408Y-85575469D01*
X124521838Y-85332501D01*
X124650008Y-85113076D01*
X124762009Y-84922237D01*
X124854933Y-84765028D01*
X124925871Y-84646491D01*
X124971915Y-84571671D01*
X124990155Y-84545610D01*
X124991121Y-84546350D01*
G37*
X124991121Y-84546350D02*
X125014186Y-84581023D01*
X125065001Y-84664324D01*
X125141015Y-84791823D01*
X125239674Y-84959091D01*
X125358426Y-85161699D01*
X125494719Y-85395218D01*
X125646001Y-85655216D01*
X125809719Y-85937266D01*
X125983320Y-86236937D01*
X126164253Y-86549801D01*
X126349964Y-86871427D01*
X126537902Y-87197386D01*
X126725515Y-87523248D01*
X126910249Y-87844584D01*
X127089552Y-88156965D01*
X127260872Y-88455961D01*
X127421657Y-88737143D01*
X127569354Y-88996080D01*
X127701411Y-89228344D01*
X127815275Y-89429505D01*
X127908395Y-89595134D01*
X127978217Y-89720800D01*
X128022189Y-89802075D01*
X128037759Y-89834529D01*
X128037774Y-89834776D01*
X128012666Y-89868832D01*
X127940517Y-89926559D01*
X127828834Y-90002494D01*
X127685122Y-90091175D01*
X127588746Y-90147905D01*
X127450065Y-90226793D01*
X127353469Y-90276509D01*
X127292485Y-90299849D01*
X127260640Y-90299612D01*
X127251464Y-90278594D01*
X127250765Y-90275167D01*
X127224537Y-90233364D01*
X127168000Y-90162279D01*
X127091572Y-90075167D01*
X127056311Y-90037750D01*
X126946964Y-89937024D01*
X126826044Y-89850931D01*
X126686365Y-89776947D01*
X126520741Y-89712546D01*
X126321985Y-89655204D01*
X126082910Y-89602397D01*
X125796332Y-89551600D01*
X125455063Y-89500290D01*
X125062269Y-89442454D01*
X124682549Y-89380346D01*
X124350521Y-89318088D01*
X124058764Y-89253884D01*
X123799854Y-89185938D01*
X123566367Y-89112453D01*
X123350881Y-89031635D01*
X123145971Y-88941687D01*
X122995377Y-88867509D01*
X122851530Y-88789450D01*
X122737773Y-88719764D01*
X122662998Y-88663930D01*
X122636098Y-88627429D01*
X122636892Y-88624740D01*
X122658561Y-88581724D01*
X122707690Y-88491645D01*
X122781371Y-88359544D01*
X122876695Y-88190466D01*
X122990753Y-87989455D01*
X123120637Y-87761552D01*
X123263438Y-87511802D01*
X123416248Y-87245248D01*
X123576158Y-86966934D01*
X123740260Y-86681902D01*
X123905644Y-86395197D01*
X124069403Y-86111860D01*
X124228627Y-85836937D01*
X124380408Y-85575469D01*
X124521838Y-85332501D01*
X124650008Y-85113076D01*
X124762009Y-84922237D01*
X124854933Y-84765028D01*
X124925871Y-84646491D01*
X124971915Y-84571671D01*
X124990155Y-84545610D01*
X124991121Y-84546350D01*
G36*
X121465672Y-90884726D02*
G01*
X121494047Y-90912065D01*
X121576784Y-90995439D01*
X121686214Y-91108945D01*
X121817021Y-91246795D01*
X121963886Y-91403198D01*
X122121492Y-91572365D01*
X122284521Y-91748506D01*
X122447655Y-91925832D01*
X122605576Y-92098553D01*
X122752966Y-92260879D01*
X122884508Y-92407020D01*
X122994883Y-92531188D01*
X123078773Y-92627591D01*
X123130862Y-92690441D01*
X123145830Y-92713948D01*
X123140693Y-92716544D01*
X123091570Y-92743957D01*
X122994409Y-92799227D01*
X122853304Y-92879996D01*
X122672347Y-92983910D01*
X122455630Y-93108610D01*
X122207248Y-93251743D01*
X121931291Y-93410950D01*
X121631853Y-93583877D01*
X121313026Y-93768167D01*
X120978903Y-93961464D01*
X120854016Y-94033735D01*
X120525767Y-94223613D01*
X120214716Y-94403428D01*
X119924909Y-94570848D01*
X119660391Y-94723542D01*
X119425208Y-94859178D01*
X119223405Y-94975422D01*
X119059027Y-95069942D01*
X118936119Y-95140407D01*
X118858728Y-95184484D01*
X118830898Y-95199841D01*
X118832150Y-95191663D01*
X118854986Y-95144661D01*
X118896987Y-95069573D01*
X118922752Y-95025128D01*
X118977545Y-94930347D01*
X119058174Y-94790755D01*
X119162019Y-94610889D01*
X119286462Y-94395284D01*
X119428886Y-94148480D01*
X119586670Y-93875012D01*
X119757197Y-93579418D01*
X119937848Y-93266235D01*
X120126005Y-92940000D01*
X120310243Y-92620646D01*
X120489360Y-92310374D01*
X120657787Y-92018824D01*
X120812994Y-91750367D01*
X120952451Y-91509370D01*
X121073628Y-91300204D01*
X121173996Y-91127238D01*
X121251025Y-90994843D01*
X121302184Y-90907386D01*
X121324944Y-90869238D01*
X121371641Y-90796403D01*
X121465672Y-90884726D01*
G37*
X121465672Y-90884726D02*
X121494047Y-90912065D01*
X121576784Y-90995439D01*
X121686214Y-91108945D01*
X121817021Y-91246795D01*
X121963886Y-91403198D01*
X122121492Y-91572365D01*
X122284521Y-91748506D01*
X122447655Y-91925832D01*
X122605576Y-92098553D01*
X122752966Y-92260879D01*
X122884508Y-92407020D01*
X122994883Y-92531188D01*
X123078773Y-92627591D01*
X123130862Y-92690441D01*
X123145830Y-92713948D01*
X123140693Y-92716544D01*
X123091570Y-92743957D01*
X122994409Y-92799227D01*
X122853304Y-92879996D01*
X122672347Y-92983910D01*
X122455630Y-93108610D01*
X122207248Y-93251743D01*
X121931291Y-93410950D01*
X121631853Y-93583877D01*
X121313026Y-93768167D01*
X120978903Y-93961464D01*
X120854016Y-94033735D01*
X120525767Y-94223613D01*
X120214716Y-94403428D01*
X119924909Y-94570848D01*
X119660391Y-94723542D01*
X119425208Y-94859178D01*
X119223405Y-94975422D01*
X119059027Y-95069942D01*
X118936119Y-95140407D01*
X118858728Y-95184484D01*
X118830898Y-95199841D01*
X118832150Y-95191663D01*
X118854986Y-95144661D01*
X118896987Y-95069573D01*
X118922752Y-95025128D01*
X118977545Y-94930347D01*
X119058174Y-94790755D01*
X119162019Y-94610889D01*
X119286462Y-94395284D01*
X119428886Y-94148480D01*
X119586670Y-93875012D01*
X119757197Y-93579418D01*
X119937848Y-93266235D01*
X120126005Y-92940000D01*
X120310243Y-92620646D01*
X120489360Y-92310374D01*
X120657787Y-92018824D01*
X120812994Y-91750367D01*
X120952451Y-91509370D01*
X121073628Y-91300204D01*
X121173996Y-91127238D01*
X121251025Y-90994843D01*
X121302184Y-90907386D01*
X121324944Y-90869238D01*
X121371641Y-90796403D01*
X121465672Y-90884726D01*
G36*
X128720095Y-90992080D02*
G01*
X128731604Y-91009250D01*
X128772730Y-91076692D01*
X128840359Y-91190401D01*
X128931901Y-91345937D01*
X129044767Y-91538864D01*
X129176368Y-91764743D01*
X129324116Y-92019136D01*
X129485422Y-92297606D01*
X129657696Y-92595715D01*
X129838351Y-92909025D01*
X129887895Y-92995043D01*
X130083800Y-93335151D01*
X130281018Y-93677509D01*
X130475520Y-94015125D01*
X130663277Y-94341007D01*
X130840262Y-94648164D01*
X131002444Y-94929603D01*
X131145796Y-95178332D01*
X131266289Y-95387360D01*
X131359894Y-95549695D01*
X131802061Y-96316342D01*
X125602152Y-96316342D01*
X125345843Y-96316319D01*
X124735000Y-96316085D01*
X124142864Y-96315604D01*
X123572319Y-96314889D01*
X123026247Y-96313952D01*
X122507531Y-96312807D01*
X122019054Y-96311464D01*
X121563699Y-96309937D01*
X121144348Y-96308238D01*
X120763886Y-96306379D01*
X120425194Y-96304373D01*
X120131156Y-96302231D01*
X119884654Y-96299966D01*
X119688572Y-96297592D01*
X119545792Y-96295118D01*
X119459197Y-96292560D01*
X119431671Y-96289927D01*
X119452109Y-96276608D01*
X119522622Y-96234167D01*
X119638443Y-96165841D01*
X119794861Y-96074342D01*
X119987166Y-95962380D01*
X120210646Y-95832666D01*
X120460592Y-95687908D01*
X120732292Y-95530819D01*
X121021036Y-95364109D01*
X121322112Y-95190487D01*
X121630811Y-95012665D01*
X121942421Y-94833352D01*
X122252232Y-94655259D01*
X122555533Y-94481097D01*
X122847613Y-94313576D01*
X123123762Y-94155406D01*
X123379268Y-94009298D01*
X123609422Y-93877962D01*
X123809512Y-93764109D01*
X123974828Y-93670449D01*
X124100659Y-93599692D01*
X124182294Y-93554548D01*
X124215022Y-93537729D01*
X124236379Y-93541898D01*
X124300716Y-93579817D01*
X124392443Y-93650065D01*
X124501480Y-93745339D01*
X124599690Y-93840713D01*
X124724778Y-93970633D01*
X124864737Y-94122311D01*
X125012393Y-94287396D01*
X125160571Y-94457536D01*
X125302097Y-94624381D01*
X125429797Y-94779578D01*
X125536495Y-94914778D01*
X125615018Y-95021628D01*
X125658191Y-95091778D01*
X125687012Y-95143010D01*
X125765287Y-95249032D01*
X125865917Y-95361825D01*
X125974553Y-95466924D01*
X126076848Y-95549861D01*
X126158455Y-95596172D01*
X126248584Y-95606876D01*
X126368853Y-95577291D01*
X126483158Y-95509453D01*
X126571866Y-95412106D01*
X126587227Y-95386850D01*
X126606784Y-95345487D01*
X126619531Y-95295708D01*
X126626285Y-95226819D01*
X126627863Y-95128124D01*
X126625082Y-94988929D01*
X126618762Y-94798537D01*
X126614233Y-94688404D01*
X126604609Y-94514234D01*
X126593251Y-94361799D01*
X126581217Y-94244498D01*
X126569566Y-94175732D01*
X126541358Y-94097176D01*
X126457733Y-93942480D01*
X126327790Y-93759183D01*
X126149941Y-93545134D01*
X125922600Y-93298180D01*
X125823944Y-93194132D01*
X125709876Y-93071393D01*
X125615729Y-92967330D01*
X125549248Y-92890533D01*
X125518178Y-92849593D01*
X125514984Y-92843092D01*
X125511154Y-92815107D01*
X125530290Y-92784078D01*
X125580230Y-92743319D01*
X125668813Y-92686143D01*
X125803876Y-92605864D01*
X125918695Y-92538844D01*
X126129984Y-92416247D01*
X126296342Y-92321018D01*
X126423356Y-92250066D01*
X126516613Y-92200299D01*
X126581701Y-92168626D01*
X126624208Y-92151954D01*
X126668194Y-92133456D01*
X126693903Y-92108615D01*
X126696308Y-92102756D01*
X126733923Y-92070168D01*
X126802670Y-92028196D01*
X126911438Y-91969621D01*
X126991748Y-92044384D01*
X127020115Y-92074673D01*
X127086111Y-92156987D01*
X127166693Y-92266891D01*
X127250365Y-92389062D01*
X127428672Y-92658978D01*
X127414678Y-94058470D01*
X127312787Y-94157467D01*
X127278549Y-94192759D01*
X127168753Y-94351320D01*
X127104661Y-94539870D01*
X127082824Y-94767561D01*
X127088247Y-94889559D01*
X127126522Y-95104756D01*
X127196282Y-95301166D01*
X127291484Y-95458764D01*
X127357590Y-95516228D01*
X127475099Y-95559875D01*
X127608122Y-95564909D01*
X127739632Y-95533656D01*
X127852603Y-95468440D01*
X127930007Y-95371586D01*
X127932540Y-95366337D01*
X127979327Y-95270451D01*
X128028879Y-95170244D01*
X128070945Y-95076174D01*
X128131288Y-94917621D01*
X128197864Y-94722145D01*
X128268359Y-94498457D01*
X128340458Y-94255269D01*
X128411850Y-94001290D01*
X128480220Y-93745232D01*
X128543254Y-93495804D01*
X128598640Y-93261719D01*
X128644064Y-93051687D01*
X128677212Y-92874418D01*
X128695771Y-92738624D01*
X128697428Y-92653014D01*
X128693695Y-92633565D01*
X128657317Y-92535112D01*
X128589814Y-92403398D01*
X128497110Y-92250331D01*
X128461529Y-92195170D01*
X128318565Y-91970245D01*
X128197040Y-91773544D01*
X128099634Y-91609665D01*
X128029029Y-91483210D01*
X127987904Y-91398780D01*
X127978939Y-91360974D01*
X127979977Y-91359641D01*
X128017090Y-91332410D01*
X128096404Y-91282638D01*
X128207053Y-91216952D01*
X128338168Y-91141977D01*
X128349253Y-91135752D01*
X128491615Y-91057425D01*
X128590763Y-91007473D01*
X128655813Y-90982317D01*
X128695885Y-90978379D01*
X128720095Y-90992080D01*
G37*
X128720095Y-90992080D02*
X128731604Y-91009250D01*
X128772730Y-91076692D01*
X128840359Y-91190401D01*
X128931901Y-91345937D01*
X129044767Y-91538864D01*
X129176368Y-91764743D01*
X129324116Y-92019136D01*
X129485422Y-92297606D01*
X129657696Y-92595715D01*
X129838351Y-92909025D01*
X129887895Y-92995043D01*
X130083800Y-93335151D01*
X130281018Y-93677509D01*
X130475520Y-94015125D01*
X130663277Y-94341007D01*
X130840262Y-94648164D01*
X131002444Y-94929603D01*
X131145796Y-95178332D01*
X131266289Y-95387360D01*
X131359894Y-95549695D01*
X131802061Y-96316342D01*
X125602152Y-96316342D01*
X125345843Y-96316319D01*
X124735000Y-96316085D01*
X124142864Y-96315604D01*
X123572319Y-96314889D01*
X123026247Y-96313952D01*
X122507531Y-96312807D01*
X122019054Y-96311464D01*
X121563699Y-96309937D01*
X121144348Y-96308238D01*
X120763886Y-96306379D01*
X120425194Y-96304373D01*
X120131156Y-96302231D01*
X119884654Y-96299966D01*
X119688572Y-96297592D01*
X119545792Y-96295118D01*
X119459197Y-96292560D01*
X119431671Y-96289927D01*
X119452109Y-96276608D01*
X119522622Y-96234167D01*
X119638443Y-96165841D01*
X119794861Y-96074342D01*
X119987166Y-95962380D01*
X120210646Y-95832666D01*
X120460592Y-95687908D01*
X120732292Y-95530819D01*
X121021036Y-95364109D01*
X121322112Y-95190487D01*
X121630811Y-95012665D01*
X121942421Y-94833352D01*
X122252232Y-94655259D01*
X122555533Y-94481097D01*
X122847613Y-94313576D01*
X123123762Y-94155406D01*
X123379268Y-94009298D01*
X123609422Y-93877962D01*
X123809512Y-93764109D01*
X123974828Y-93670449D01*
X124100659Y-93599692D01*
X124182294Y-93554548D01*
X124215022Y-93537729D01*
X124236379Y-93541898D01*
X124300716Y-93579817D01*
X124392443Y-93650065D01*
X124501480Y-93745339D01*
X124599690Y-93840713D01*
X124724778Y-93970633D01*
X124864737Y-94122311D01*
X125012393Y-94287396D01*
X125160571Y-94457536D01*
X125302097Y-94624381D01*
X125429797Y-94779578D01*
X125536495Y-94914778D01*
X125615018Y-95021628D01*
X125658191Y-95091778D01*
X125687012Y-95143010D01*
X125765287Y-95249032D01*
X125865917Y-95361825D01*
X125974553Y-95466924D01*
X126076848Y-95549861D01*
X126158455Y-95596172D01*
X126248584Y-95606876D01*
X126368853Y-95577291D01*
X126483158Y-95509453D01*
X126571866Y-95412106D01*
X126587227Y-95386850D01*
X126606784Y-95345487D01*
X126619531Y-95295708D01*
X126626285Y-95226819D01*
X126627863Y-95128124D01*
X126625082Y-94988929D01*
X126618762Y-94798537D01*
X126614233Y-94688404D01*
X126604609Y-94514234D01*
X126593251Y-94361799D01*
X126581217Y-94244498D01*
X126569566Y-94175732D01*
X126541358Y-94097176D01*
X126457733Y-93942480D01*
X126327790Y-93759183D01*
X126149941Y-93545134D01*
X125922600Y-93298180D01*
X125823944Y-93194132D01*
X125709876Y-93071393D01*
X125615729Y-92967330D01*
X125549248Y-92890533D01*
X125518178Y-92849593D01*
X125514984Y-92843092D01*
X125511154Y-92815107D01*
X125530290Y-92784078D01*
X125580230Y-92743319D01*
X125668813Y-92686143D01*
X125803876Y-92605864D01*
X125918695Y-92538844D01*
X126129984Y-92416247D01*
X126296342Y-92321018D01*
X126423356Y-92250066D01*
X126516613Y-92200299D01*
X126581701Y-92168626D01*
X126624208Y-92151954D01*
X126668194Y-92133456D01*
X126693903Y-92108615D01*
X126696308Y-92102756D01*
X126733923Y-92070168D01*
X126802670Y-92028196D01*
X126911438Y-91969621D01*
X126991748Y-92044384D01*
X127020115Y-92074673D01*
X127086111Y-92156987D01*
X127166693Y-92266891D01*
X127250365Y-92389062D01*
X127428672Y-92658978D01*
X127414678Y-94058470D01*
X127312787Y-94157467D01*
X127278549Y-94192759D01*
X127168753Y-94351320D01*
X127104661Y-94539870D01*
X127082824Y-94767561D01*
X127088247Y-94889559D01*
X127126522Y-95104756D01*
X127196282Y-95301166D01*
X127291484Y-95458764D01*
X127357590Y-95516228D01*
X127475099Y-95559875D01*
X127608122Y-95564909D01*
X127739632Y-95533656D01*
X127852603Y-95468440D01*
X127930007Y-95371586D01*
X127932540Y-95366337D01*
X127979327Y-95270451D01*
X128028879Y-95170244D01*
X128070945Y-95076174D01*
X128131288Y-94917621D01*
X128197864Y-94722145D01*
X128268359Y-94498457D01*
X128340458Y-94255269D01*
X128411850Y-94001290D01*
X128480220Y-93745232D01*
X128543254Y-93495804D01*
X128598640Y-93261719D01*
X128644064Y-93051687D01*
X128677212Y-92874418D01*
X128695771Y-92738624D01*
X128697428Y-92653014D01*
X128693695Y-92633565D01*
X128657317Y-92535112D01*
X128589814Y-92403398D01*
X128497110Y-92250331D01*
X128461529Y-92195170D01*
X128318565Y-91970245D01*
X128197040Y-91773544D01*
X128099634Y-91609665D01*
X128029029Y-91483210D01*
X127987904Y-91398780D01*
X127978939Y-91360974D01*
X127979977Y-91359641D01*
X128017090Y-91332410D01*
X128096404Y-91282638D01*
X128207053Y-91216952D01*
X128338168Y-91141977D01*
X128349253Y-91135752D01*
X128491615Y-91057425D01*
X128590763Y-91007473D01*
X128655813Y-90982317D01*
X128695885Y-90978379D01*
X128720095Y-90992080D01*
G36*
X141445628Y-111462454D02*
G01*
X141442138Y-111644895D01*
X141437898Y-111800241D01*
X141432838Y-111930750D01*
X141426887Y-112038680D01*
X141419973Y-112126291D01*
X141412026Y-112195839D01*
X141402973Y-112249585D01*
X141392745Y-112289785D01*
X141381270Y-112318700D01*
X141368477Y-112338586D01*
X141354295Y-112351703D01*
X141338653Y-112360309D01*
X141321480Y-112366663D01*
X141302705Y-112373022D01*
X141282256Y-112381646D01*
X141270750Y-112385968D01*
X141249645Y-112390687D01*
X141218284Y-112395011D01*
X141174451Y-112398957D01*
X141115927Y-112402542D01*
X141040493Y-112405784D01*
X140945930Y-112408700D01*
X140830020Y-112411307D01*
X140690545Y-112413622D01*
X140525287Y-112415663D01*
X140332026Y-112417447D01*
X140108545Y-112418992D01*
X139852625Y-112420315D01*
X139562047Y-112421433D01*
X139234593Y-112422364D01*
X138868044Y-112423124D01*
X138460183Y-112423732D01*
X138008790Y-112424204D01*
X137511648Y-112424559D01*
X136966537Y-112424812D01*
X136371240Y-112424982D01*
X135723537Y-112425086D01*
X135518282Y-112425106D01*
X134884636Y-112425119D01*
X134302749Y-112425040D01*
X133770428Y-112424851D01*
X133285481Y-112424538D01*
X132845715Y-112424085D01*
X132448940Y-112423475D01*
X132092961Y-112422693D01*
X131775587Y-112421723D01*
X131494627Y-112420549D01*
X131247886Y-112419155D01*
X131033174Y-112417525D01*
X130848299Y-112415643D01*
X130691067Y-112413493D01*
X130559287Y-112411060D01*
X130450766Y-112408327D01*
X130363313Y-112405279D01*
X130294735Y-112401899D01*
X130242839Y-112398172D01*
X130205434Y-112394082D01*
X130180327Y-112389612D01*
X130165327Y-112384748D01*
X130160554Y-112382583D01*
X130141016Y-112375472D01*
X130123099Y-112370279D01*
X130106730Y-112364742D01*
X130091836Y-112356599D01*
X130078346Y-112343590D01*
X130066186Y-112323452D01*
X130055283Y-112293924D01*
X130045566Y-112252744D01*
X130036961Y-112197650D01*
X130029395Y-112126381D01*
X130022797Y-112036675D01*
X130017093Y-111926270D01*
X130012211Y-111792906D01*
X130008078Y-111634319D01*
X130004622Y-111448249D01*
X130001769Y-111232434D01*
X130000833Y-111132497D01*
X130721046Y-111132497D01*
X130721836Y-111142067D01*
X130736323Y-111149823D01*
X130769055Y-111155955D01*
X130824578Y-111160652D01*
X130907441Y-111164106D01*
X131022191Y-111166506D01*
X131173375Y-111168041D01*
X131365540Y-111168903D01*
X131603234Y-111169280D01*
X131891004Y-111169364D01*
X133096441Y-111169364D01*
X132892635Y-110800654D01*
X132892635Y-105447536D01*
X133096441Y-105078826D01*
X130941764Y-105078826D01*
X130933974Y-107912428D01*
X130926184Y-110746031D01*
X130849801Y-110909161D01*
X130809530Y-110990016D01*
X130763929Y-111071013D01*
X130729492Y-111120827D01*
X130729406Y-111120923D01*
X130721046Y-111132497D01*
X130000833Y-111132497D01*
X129999448Y-110984612D01*
X129997586Y-110702521D01*
X129996109Y-110383901D01*
X129994946Y-110026488D01*
X129994024Y-109628023D01*
X129993269Y-109186242D01*
X129992610Y-108698884D01*
X129991974Y-108163688D01*
X129991288Y-107578393D01*
X129990480Y-106940735D01*
X129990375Y-106863539D01*
X129989474Y-106229923D01*
X129988612Y-105648404D01*
X129987853Y-105116720D01*
X129987261Y-104632608D01*
X129986900Y-104193806D01*
X129986833Y-103798052D01*
X129987125Y-103443081D01*
X129987840Y-103126633D01*
X129989040Y-102846443D01*
X129990790Y-102600250D01*
X129993153Y-102385790D01*
X129996195Y-102200802D01*
X129999977Y-102043022D01*
X130004564Y-101910188D01*
X130010020Y-101800036D01*
X130016409Y-101710305D01*
X130023794Y-101638732D01*
X130032239Y-101583053D01*
X130041808Y-101541007D01*
X130052565Y-101510331D01*
X130064574Y-101488761D01*
X130077898Y-101474036D01*
X130092601Y-101463893D01*
X130108748Y-101456068D01*
X130126401Y-101448300D01*
X130145624Y-101438325D01*
X130151249Y-101435146D01*
X130236363Y-101404379D01*
X130329538Y-101391734D01*
X130434571Y-101391738D01*
X130436321Y-101630712D01*
X130436765Y-101658212D01*
X130470149Y-101937749D01*
X130555177Y-102200767D01*
X130690666Y-102444482D01*
X130875436Y-102666107D01*
X130974589Y-102756499D01*
X131195362Y-102906323D01*
X131436246Y-103010803D01*
X131690226Y-103069882D01*
X131950286Y-103083505D01*
X132209410Y-103051616D01*
X132460583Y-102974158D01*
X132667059Y-102866568D01*
X133580891Y-102866568D01*
X133701064Y-102953027D01*
X133802698Y-103034286D01*
X133945909Y-103166826D01*
X134108345Y-103332936D01*
X134283856Y-103526286D01*
X134466291Y-103740547D01*
X134513272Y-103797844D01*
X134593259Y-103896116D01*
X134697814Y-104025045D01*
X134823472Y-104180327D01*
X134966770Y-104357660D01*
X135124243Y-104552739D01*
X135292429Y-104761263D01*
X135467862Y-104978927D01*
X135548328Y-105078826D01*
X135647080Y-105201429D01*
X135826619Y-105424465D01*
X136003014Y-105643733D01*
X136172802Y-105854928D01*
X136332519Y-106053749D01*
X136478701Y-106235890D01*
X136607885Y-106397051D01*
X136716606Y-106532926D01*
X136801401Y-106639214D01*
X136858806Y-106711610D01*
X136885357Y-106745812D01*
X136887548Y-106758665D01*
X136880259Y-106783110D01*
X136861370Y-106821569D01*
X136828996Y-106876768D01*
X136781250Y-106951437D01*
X136716248Y-107048302D01*
X136632105Y-107170092D01*
X136526934Y-107319536D01*
X136398850Y-107499360D01*
X136245968Y-107712293D01*
X136066401Y-107961063D01*
X135858265Y-108248398D01*
X135619675Y-108577026D01*
X135429568Y-108838610D01*
X135197633Y-109157503D01*
X134993615Y-109437552D01*
X134815144Y-109681866D01*
X134659845Y-109893552D01*
X134525347Y-110075720D01*
X134409276Y-110231476D01*
X134309260Y-110363929D01*
X134222927Y-110476187D01*
X134147904Y-110571357D01*
X134081818Y-110652549D01*
X134022297Y-110722870D01*
X133966969Y-110785428D01*
X133913459Y-110843331D01*
X133859397Y-110899688D01*
X133802409Y-110957606D01*
X133592398Y-111169364D01*
X135004129Y-111169421D01*
X136415861Y-111169478D01*
X136406990Y-110998380D01*
X136406560Y-110989783D01*
X136404876Y-110921383D01*
X136408068Y-110855848D01*
X136418271Y-110789586D01*
X136437621Y-110719009D01*
X136468252Y-110640526D01*
X136512300Y-110550547D01*
X136571900Y-110445484D01*
X136649188Y-110321746D01*
X136746298Y-110175743D01*
X136865366Y-110003886D01*
X137008528Y-109802584D01*
X137177918Y-109568249D01*
X137375672Y-109297289D01*
X137603926Y-108986116D01*
X138409625Y-107889229D01*
X138416723Y-109161038D01*
X138417352Y-109279672D01*
X138418462Y-109599218D01*
X138417957Y-109871013D01*
X138415245Y-110100201D01*
X138409730Y-110291926D01*
X138400819Y-110451331D01*
X138387918Y-110583559D01*
X138370433Y-110693754D01*
X138347770Y-110787059D01*
X138319334Y-110868618D01*
X138284533Y-110943575D01*
X138242771Y-111017074D01*
X138193454Y-111094256D01*
X138143880Y-111169364D01*
X140720254Y-111169364D01*
X140653704Y-111080600D01*
X140643282Y-111066558D01*
X140559957Y-110937856D01*
X140502517Y-110807753D01*
X140464798Y-110658674D01*
X140440638Y-110473047D01*
X140439975Y-110464955D01*
X140436469Y-110388389D01*
X140433303Y-110260641D01*
X140430492Y-110084633D01*
X140428049Y-109863283D01*
X140425987Y-109599510D01*
X140424322Y-109296233D01*
X140423065Y-108956371D01*
X140422231Y-108582844D01*
X140421834Y-108178570D01*
X140421887Y-107746468D01*
X140422405Y-107289459D01*
X140423401Y-106810460D01*
X140424455Y-106380797D01*
X140425583Y-105913100D01*
X140426694Y-105494649D01*
X140427926Y-105122515D01*
X140429420Y-104793764D01*
X140431315Y-104505465D01*
X140433750Y-104254687D01*
X140436864Y-104038499D01*
X140440797Y-103853967D01*
X140445689Y-103698161D01*
X140451679Y-103568149D01*
X140458906Y-103461000D01*
X140467509Y-103373781D01*
X140477629Y-103303561D01*
X140489404Y-103247409D01*
X140502974Y-103202392D01*
X140518479Y-103165580D01*
X140536057Y-103134039D01*
X140555848Y-103104840D01*
X140577992Y-103075050D01*
X140602628Y-103041737D01*
X140626457Y-103008354D01*
X140672513Y-102942349D01*
X140700101Y-102900708D01*
X140700767Y-102898964D01*
X140691134Y-102891089D01*
X140657141Y-102884519D01*
X140595004Y-102879151D01*
X140500941Y-102874886D01*
X140371169Y-102871623D01*
X140201907Y-102869260D01*
X139989370Y-102867697D01*
X139729778Y-102866834D01*
X139419346Y-102866568D01*
X138117995Y-102866568D01*
X138186580Y-102948078D01*
X138226330Y-103004060D01*
X138292495Y-103136056D01*
X138350477Y-103300223D01*
X138394731Y-103482326D01*
X138397552Y-103499614D01*
X138405944Y-103590750D01*
X138412300Y-103731599D01*
X138416635Y-103923136D01*
X138418967Y-104166336D01*
X138419313Y-104462175D01*
X138417689Y-104811628D01*
X138409625Y-105978301D01*
X137576614Y-104924889D01*
X137552755Y-104894715D01*
X137341511Y-104627291D01*
X137161166Y-104398266D01*
X137008848Y-104203748D01*
X136881689Y-104039841D01*
X136776816Y-103902653D01*
X136691362Y-103788287D01*
X136622454Y-103692852D01*
X136567224Y-103612451D01*
X136522802Y-103543192D01*
X136486316Y-103481180D01*
X136454897Y-103422522D01*
X136425675Y-103363322D01*
X136380721Y-103258532D01*
X136351681Y-103147989D01*
X136343957Y-103028752D01*
X136344733Y-102866568D01*
X133580891Y-102866568D01*
X132667059Y-102866568D01*
X132696788Y-102851077D01*
X132911011Y-102682316D01*
X132970563Y-102622820D01*
X133146579Y-102402530D01*
X133271477Y-102163465D01*
X133345925Y-101904082D01*
X133370592Y-101622840D01*
X133370592Y-101391729D01*
X137291196Y-101391729D01*
X137536137Y-101391719D01*
X138062339Y-101391647D01*
X138537687Y-101391596D01*
X138964811Y-101391667D01*
X139346338Y-101391966D01*
X139684897Y-101392597D01*
X139983117Y-101393662D01*
X140243626Y-101395267D01*
X140469054Y-101397515D01*
X140662028Y-101400510D01*
X140825177Y-101404356D01*
X140961131Y-101409156D01*
X141072517Y-101415016D01*
X141161964Y-101422038D01*
X141232101Y-101430327D01*
X141285556Y-101439986D01*
X141324958Y-101451120D01*
X141352936Y-101463832D01*
X141372119Y-101478227D01*
X141385134Y-101494407D01*
X141394611Y-101512478D01*
X141403178Y-101532543D01*
X141413463Y-101554706D01*
X141413648Y-101555068D01*
X141418642Y-101569576D01*
X141423223Y-101593870D01*
X141427408Y-101630190D01*
X141431214Y-101680780D01*
X141434660Y-101747881D01*
X141437762Y-101833735D01*
X141440538Y-101940584D01*
X141443006Y-102070670D01*
X141445181Y-102226234D01*
X141447083Y-102409519D01*
X141448729Y-102622767D01*
X141450135Y-102868219D01*
X141451319Y-103148118D01*
X141452299Y-103464705D01*
X141453091Y-103820222D01*
X141453715Y-104216911D01*
X141454185Y-104657015D01*
X141454521Y-105142774D01*
X141454740Y-105676431D01*
X141454858Y-106260228D01*
X141454893Y-106896407D01*
X141454895Y-107021385D01*
X141454955Y-107650934D01*
X141455049Y-108228544D01*
X141455104Y-108756474D01*
X141455049Y-109236983D01*
X141454815Y-109672329D01*
X141454328Y-110064770D01*
X141453518Y-110416565D01*
X141452314Y-110729973D01*
X141450645Y-111007251D01*
X141449176Y-111169364D01*
X141448440Y-111250659D01*
X141445628Y-111462454D01*
G37*
X141445628Y-111462454D02*
X141442138Y-111644895D01*
X141437898Y-111800241D01*
X141432838Y-111930750D01*
X141426887Y-112038680D01*
X141419973Y-112126291D01*
X141412026Y-112195839D01*
X141402973Y-112249585D01*
X141392745Y-112289785D01*
X141381270Y-112318700D01*
X141368477Y-112338586D01*
X141354295Y-112351703D01*
X141338653Y-112360309D01*
X141321480Y-112366663D01*
X141302705Y-112373022D01*
X141282256Y-112381646D01*
X141270750Y-112385968D01*
X141249645Y-112390687D01*
X141218284Y-112395011D01*
X141174451Y-112398957D01*
X141115927Y-112402542D01*
X141040493Y-112405784D01*
X140945930Y-112408700D01*
X140830020Y-112411307D01*
X140690545Y-112413622D01*
X140525287Y-112415663D01*
X140332026Y-112417447D01*
X140108545Y-112418992D01*
X139852625Y-112420315D01*
X139562047Y-112421433D01*
X139234593Y-112422364D01*
X138868044Y-112423124D01*
X138460183Y-112423732D01*
X138008790Y-112424204D01*
X137511648Y-112424559D01*
X136966537Y-112424812D01*
X136371240Y-112424982D01*
X135723537Y-112425086D01*
X135518282Y-112425106D01*
X134884636Y-112425119D01*
X134302749Y-112425040D01*
X133770428Y-112424851D01*
X133285481Y-112424538D01*
X132845715Y-112424085D01*
X132448940Y-112423475D01*
X132092961Y-112422693D01*
X131775587Y-112421723D01*
X131494627Y-112420549D01*
X131247886Y-112419155D01*
X131033174Y-112417525D01*
X130848299Y-112415643D01*
X130691067Y-112413493D01*
X130559287Y-112411060D01*
X130450766Y-112408327D01*
X130363313Y-112405279D01*
X130294735Y-112401899D01*
X130242839Y-112398172D01*
X130205434Y-112394082D01*
X130180327Y-112389612D01*
X130165327Y-112384748D01*
X130160554Y-112382583D01*
X130141016Y-112375472D01*
X130123099Y-112370279D01*
X130106730Y-112364742D01*
X130091836Y-112356599D01*
X130078346Y-112343590D01*
X130066186Y-112323452D01*
X130055283Y-112293924D01*
X130045566Y-112252744D01*
X130036961Y-112197650D01*
X130029395Y-112126381D01*
X130022797Y-112036675D01*
X130017093Y-111926270D01*
X130012211Y-111792906D01*
X130008078Y-111634319D01*
X130004622Y-111448249D01*
X130001769Y-111232434D01*
X130000833Y-111132497D01*
X130721046Y-111132497D01*
X130721836Y-111142067D01*
X130736323Y-111149823D01*
X130769055Y-111155955D01*
X130824578Y-111160652D01*
X130907441Y-111164106D01*
X131022191Y-111166506D01*
X131173375Y-111168041D01*
X131365540Y-111168903D01*
X131603234Y-111169280D01*
X131891004Y-111169364D01*
X133096441Y-111169364D01*
X132892635Y-110800654D01*
X132892635Y-105447536D01*
X133096441Y-105078826D01*
X130941764Y-105078826D01*
X130933974Y-107912428D01*
X130926184Y-110746031D01*
X130849801Y-110909161D01*
X130809530Y-110990016D01*
X130763929Y-111071013D01*
X130729492Y-111120827D01*
X130729406Y-111120923D01*
X130721046Y-111132497D01*
X130000833Y-111132497D01*
X129999448Y-110984612D01*
X129997586Y-110702521D01*
X129996109Y-110383901D01*
X129994946Y-110026488D01*
X129994024Y-109628023D01*
X129993269Y-109186242D01*
X129992610Y-108698884D01*
X129991974Y-108163688D01*
X129991288Y-107578393D01*
X129990480Y-106940735D01*
X129990375Y-106863539D01*
X129989474Y-106229923D01*
X129988612Y-105648404D01*
X129987853Y-105116720D01*
X129987261Y-104632608D01*
X129986900Y-104193806D01*
X129986833Y-103798052D01*
X129987125Y-103443081D01*
X129987840Y-103126633D01*
X129989040Y-102846443D01*
X129990790Y-102600250D01*
X129993153Y-102385790D01*
X129996195Y-102200802D01*
X129999977Y-102043022D01*
X130004564Y-101910188D01*
X130010020Y-101800036D01*
X130016409Y-101710305D01*
X130023794Y-101638732D01*
X130032239Y-101583053D01*
X130041808Y-101541007D01*
X130052565Y-101510331D01*
X130064574Y-101488761D01*
X130077898Y-101474036D01*
X130092601Y-101463893D01*
X130108748Y-101456068D01*
X130126401Y-101448300D01*
X130145624Y-101438325D01*
X130151249Y-101435146D01*
X130236363Y-101404379D01*
X130329538Y-101391734D01*
X130434571Y-101391738D01*
X130436321Y-101630712D01*
X130436765Y-101658212D01*
X130470149Y-101937749D01*
X130555177Y-102200767D01*
X130690666Y-102444482D01*
X130875436Y-102666107D01*
X130974589Y-102756499D01*
X131195362Y-102906323D01*
X131436246Y-103010803D01*
X131690226Y-103069882D01*
X131950286Y-103083505D01*
X132209410Y-103051616D01*
X132460583Y-102974158D01*
X132667059Y-102866568D01*
X133580891Y-102866568D01*
X133701064Y-102953027D01*
X133802698Y-103034286D01*
X133945909Y-103166826D01*
X134108345Y-103332936D01*
X134283856Y-103526286D01*
X134466291Y-103740547D01*
X134513272Y-103797844D01*
X134593259Y-103896116D01*
X134697814Y-104025045D01*
X134823472Y-104180327D01*
X134966770Y-104357660D01*
X135124243Y-104552739D01*
X135292429Y-104761263D01*
X135467862Y-104978927D01*
X135548328Y-105078826D01*
X135647080Y-105201429D01*
X135826619Y-105424465D01*
X136003014Y-105643733D01*
X136172802Y-105854928D01*
X136332519Y-106053749D01*
X136478701Y-106235890D01*
X136607885Y-106397051D01*
X136716606Y-106532926D01*
X136801401Y-106639214D01*
X136858806Y-106711610D01*
X136885357Y-106745812D01*
X136887548Y-106758665D01*
X136880259Y-106783110D01*
X136861370Y-106821569D01*
X136828996Y-106876768D01*
X136781250Y-106951437D01*
X136716248Y-107048302D01*
X136632105Y-107170092D01*
X136526934Y-107319536D01*
X136398850Y-107499360D01*
X136245968Y-107712293D01*
X136066401Y-107961063D01*
X135858265Y-108248398D01*
X135619675Y-108577026D01*
X135429568Y-108838610D01*
X135197633Y-109157503D01*
X134993615Y-109437552D01*
X134815144Y-109681866D01*
X134659845Y-109893552D01*
X134525347Y-110075720D01*
X134409276Y-110231476D01*
X134309260Y-110363929D01*
X134222927Y-110476187D01*
X134147904Y-110571357D01*
X134081818Y-110652549D01*
X134022297Y-110722870D01*
X133966969Y-110785428D01*
X133913459Y-110843331D01*
X133859397Y-110899688D01*
X133802409Y-110957606D01*
X133592398Y-111169364D01*
X135004129Y-111169421D01*
X136415861Y-111169478D01*
X136406990Y-110998380D01*
X136406560Y-110989783D01*
X136404876Y-110921383D01*
X136408068Y-110855848D01*
X136418271Y-110789586D01*
X136437621Y-110719009D01*
X136468252Y-110640526D01*
X136512300Y-110550547D01*
X136571900Y-110445484D01*
X136649188Y-110321746D01*
X136746298Y-110175743D01*
X136865366Y-110003886D01*
X137008528Y-109802584D01*
X137177918Y-109568249D01*
X137375672Y-109297289D01*
X137603926Y-108986116D01*
X138409625Y-107889229D01*
X138416723Y-109161038D01*
X138417352Y-109279672D01*
X138418462Y-109599218D01*
X138417957Y-109871013D01*
X138415245Y-110100201D01*
X138409730Y-110291926D01*
X138400819Y-110451331D01*
X138387918Y-110583559D01*
X138370433Y-110693754D01*
X138347770Y-110787059D01*
X138319334Y-110868618D01*
X138284533Y-110943575D01*
X138242771Y-111017074D01*
X138193454Y-111094256D01*
X138143880Y-111169364D01*
X140720254Y-111169364D01*
X140653704Y-111080600D01*
X140643282Y-111066558D01*
X140559957Y-110937856D01*
X140502517Y-110807753D01*
X140464798Y-110658674D01*
X140440638Y-110473047D01*
X140439975Y-110464955D01*
X140436469Y-110388389D01*
X140433303Y-110260641D01*
X140430492Y-110084633D01*
X140428049Y-109863283D01*
X140425987Y-109599510D01*
X140424322Y-109296233D01*
X140423065Y-108956371D01*
X140422231Y-108582844D01*
X140421834Y-108178570D01*
X140421887Y-107746468D01*
X140422405Y-107289459D01*
X140423401Y-106810460D01*
X140424455Y-106380797D01*
X140425583Y-105913100D01*
X140426694Y-105494649D01*
X140427926Y-105122515D01*
X140429420Y-104793764D01*
X140431315Y-104505465D01*
X140433750Y-104254687D01*
X140436864Y-104038499D01*
X140440797Y-103853967D01*
X140445689Y-103698161D01*
X140451679Y-103568149D01*
X140458906Y-103461000D01*
X140467509Y-103373781D01*
X140477629Y-103303561D01*
X140489404Y-103247409D01*
X140502974Y-103202392D01*
X140518479Y-103165580D01*
X140536057Y-103134039D01*
X140555848Y-103104840D01*
X140577992Y-103075050D01*
X140602628Y-103041737D01*
X140626457Y-103008354D01*
X140672513Y-102942349D01*
X140700101Y-102900708D01*
X140700767Y-102898964D01*
X140691134Y-102891089D01*
X140657141Y-102884519D01*
X140595004Y-102879151D01*
X140500941Y-102874886D01*
X140371169Y-102871623D01*
X140201907Y-102869260D01*
X139989370Y-102867697D01*
X139729778Y-102866834D01*
X139419346Y-102866568D01*
X138117995Y-102866568D01*
X138186580Y-102948078D01*
X138226330Y-103004060D01*
X138292495Y-103136056D01*
X138350477Y-103300223D01*
X138394731Y-103482326D01*
X138397552Y-103499614D01*
X138405944Y-103590750D01*
X138412300Y-103731599D01*
X138416635Y-103923136D01*
X138418967Y-104166336D01*
X138419313Y-104462175D01*
X138417689Y-104811628D01*
X138409625Y-105978301D01*
X137576614Y-104924889D01*
X137552755Y-104894715D01*
X137341511Y-104627291D01*
X137161166Y-104398266D01*
X137008848Y-104203748D01*
X136881689Y-104039841D01*
X136776816Y-103902653D01*
X136691362Y-103788287D01*
X136622454Y-103692852D01*
X136567224Y-103612451D01*
X136522802Y-103543192D01*
X136486316Y-103481180D01*
X136454897Y-103422522D01*
X136425675Y-103363322D01*
X136380721Y-103258532D01*
X136351681Y-103147989D01*
X136343957Y-103028752D01*
X136344733Y-102866568D01*
X133580891Y-102866568D01*
X132667059Y-102866568D01*
X132696788Y-102851077D01*
X132911011Y-102682316D01*
X132970563Y-102622820D01*
X133146579Y-102402530D01*
X133271477Y-102163465D01*
X133345925Y-101904082D01*
X133370592Y-101622840D01*
X133370592Y-101391729D01*
X137291196Y-101391729D01*
X137536137Y-101391719D01*
X138062339Y-101391647D01*
X138537687Y-101391596D01*
X138964811Y-101391667D01*
X139346338Y-101391966D01*
X139684897Y-101392597D01*
X139983117Y-101393662D01*
X140243626Y-101395267D01*
X140469054Y-101397515D01*
X140662028Y-101400510D01*
X140825177Y-101404356D01*
X140961131Y-101409156D01*
X141072517Y-101415016D01*
X141161964Y-101422038D01*
X141232101Y-101430327D01*
X141285556Y-101439986D01*
X141324958Y-101451120D01*
X141352936Y-101463832D01*
X141372119Y-101478227D01*
X141385134Y-101494407D01*
X141394611Y-101512478D01*
X141403178Y-101532543D01*
X141413463Y-101554706D01*
X141413648Y-101555068D01*
X141418642Y-101569576D01*
X141423223Y-101593870D01*
X141427408Y-101630190D01*
X141431214Y-101680780D01*
X141434660Y-101747881D01*
X141437762Y-101833735D01*
X141440538Y-101940584D01*
X141443006Y-102070670D01*
X141445181Y-102226234D01*
X141447083Y-102409519D01*
X141448729Y-102622767D01*
X141450135Y-102868219D01*
X141451319Y-103148118D01*
X141452299Y-103464705D01*
X141453091Y-103820222D01*
X141453715Y-104216911D01*
X141454185Y-104657015D01*
X141454521Y-105142774D01*
X141454740Y-105676431D01*
X141454858Y-106260228D01*
X141454893Y-106896407D01*
X141454895Y-107021385D01*
X141454955Y-107650934D01*
X141455049Y-108228544D01*
X141455104Y-108756474D01*
X141455049Y-109236983D01*
X141454815Y-109672329D01*
X141454328Y-110064770D01*
X141453518Y-110416565D01*
X141452314Y-110729973D01*
X141450645Y-111007251D01*
X141449176Y-111169364D01*
X141448440Y-111250659D01*
X141445628Y-111462454D01*
G36*
X117683678Y-113346039D02*
G01*
X117735351Y-113377575D01*
X117788891Y-113420929D01*
X117788891Y-114721622D01*
X117735351Y-114764976D01*
X117672350Y-114800081D01*
X117600430Y-114801760D01*
X117537272Y-114760591D01*
X117529485Y-114751219D01*
X117518504Y-114732199D01*
X117510052Y-114704714D01*
X117503801Y-114663492D01*
X117499422Y-114603265D01*
X117496588Y-114518761D01*
X117494970Y-114404710D01*
X117494240Y-114255844D01*
X117494069Y-114066891D01*
X117494069Y-113420929D01*
X117547608Y-113377575D01*
X117595246Y-113347903D01*
X117641480Y-113334222D01*
X117683678Y-113346039D01*
G37*
X117683678Y-113346039D02*
X117735351Y-113377575D01*
X117788891Y-113420929D01*
X117788891Y-114721622D01*
X117735351Y-114764976D01*
X117672350Y-114800081D01*
X117600430Y-114801760D01*
X117537272Y-114760591D01*
X117529485Y-114751219D01*
X117518504Y-114732199D01*
X117510052Y-114704714D01*
X117503801Y-114663492D01*
X117499422Y-114603265D01*
X117496588Y-114518761D01*
X117494970Y-114404710D01*
X117494240Y-114255844D01*
X117494069Y-114066891D01*
X117494069Y-113420929D01*
X117547608Y-113377575D01*
X117595246Y-113347903D01*
X117641480Y-113334222D01*
X117683678Y-113346039D01*
G36*
X123113580Y-109523784D02*
G01*
X123087070Y-109728682D01*
X123047068Y-109899364D01*
X122983240Y-110074970D01*
X122835287Y-110364367D01*
X122646172Y-110618982D01*
X122417854Y-110837080D01*
X122152290Y-111016925D01*
X121851439Y-111156782D01*
X121517259Y-111254917D01*
X121380989Y-111277051D01*
X121186261Y-111292433D01*
X120974189Y-111295893D01*
X120762496Y-111287708D01*
X120568902Y-111268157D01*
X120411130Y-111237520D01*
X120331850Y-111213399D01*
X120151793Y-111142812D01*
X119968760Y-111053195D01*
X119801636Y-110954266D01*
X119669304Y-110855744D01*
X119667678Y-110854322D01*
X119595162Y-110792837D01*
X119539370Y-110749056D01*
X119512261Y-110732375D01*
X119509297Y-110736357D01*
X119502591Y-110779377D01*
X119497930Y-110859613D01*
X119496184Y-110964525D01*
X119496184Y-111196676D01*
X118471990Y-111196676D01*
X118444726Y-111196671D01*
X118216061Y-111196271D01*
X118006193Y-111195276D01*
X117821093Y-111193759D01*
X117666732Y-111191795D01*
X117549082Y-111189457D01*
X117474113Y-111186821D01*
X117447797Y-111183960D01*
X117448410Y-111181460D01*
X117465627Y-111144554D01*
X117501718Y-111075217D01*
X117550216Y-110985949D01*
X117652635Y-110800654D01*
X117667653Y-108971261D01*
X119605431Y-108971261D01*
X119606193Y-109115798D01*
X119609884Y-109267666D01*
X119617115Y-109377439D01*
X119628412Y-109452263D01*
X119644302Y-109499287D01*
X119664742Y-109532866D01*
X119741718Y-109624401D01*
X119844856Y-109719695D01*
X119957898Y-109804602D01*
X120064587Y-109864975D01*
X120123781Y-109887127D01*
X120260079Y-109916620D01*
X120438095Y-109931699D01*
X120625780Y-109929415D01*
X120804008Y-109898400D01*
X120952773Y-109834327D01*
X121081482Y-109734309D01*
X121117689Y-109697314D01*
X121211958Y-109571148D01*
X121262963Y-109435159D01*
X121278281Y-109271526D01*
X121274131Y-109185078D01*
X121233092Y-109007116D01*
X121146879Y-108854368D01*
X121013920Y-108725116D01*
X120832647Y-108617641D01*
X120601491Y-108530224D01*
X120508302Y-108507283D01*
X120395486Y-108491575D01*
X120253507Y-108482852D01*
X120069732Y-108479919D01*
X120039879Y-108479921D01*
X119902393Y-108481599D01*
X119784293Y-108485656D01*
X119697323Y-108491559D01*
X119653227Y-108498776D01*
X119648153Y-108501119D01*
X119631747Y-108515832D01*
X119620128Y-108545398D01*
X119612491Y-108597772D01*
X119608033Y-108680905D01*
X119605947Y-108802750D01*
X119605431Y-108971261D01*
X117667653Y-108971261D01*
X117668442Y-108875170D01*
X117670791Y-108594724D01*
X117674078Y-108237053D01*
X117677528Y-107926543D01*
X117681420Y-107658804D01*
X117686032Y-107429442D01*
X117691645Y-107234068D01*
X117698535Y-107068289D01*
X117706982Y-106927715D01*
X117717266Y-106807953D01*
X117729663Y-106704614D01*
X117744454Y-106613305D01*
X117761916Y-106529635D01*
X117782329Y-106449213D01*
X117805972Y-106367647D01*
X117833122Y-106280547D01*
X117940082Y-106007490D01*
X118086559Y-105755128D01*
X118268977Y-105539068D01*
X118489005Y-105358178D01*
X118748313Y-105211328D01*
X119048572Y-105097389D01*
X119391451Y-105015228D01*
X119778621Y-104963717D01*
X119913942Y-104953474D01*
X120141844Y-104945984D01*
X120367731Y-104952729D01*
X120602178Y-104974844D01*
X120855761Y-105013468D01*
X121139055Y-105069737D01*
X121462635Y-105144789D01*
X121537430Y-105162948D01*
X121725260Y-105207634D01*
X121903285Y-105248779D01*
X122060710Y-105283953D01*
X122186739Y-105310725D01*
X122270574Y-105326665D01*
X122463996Y-105358434D01*
X122192069Y-106017501D01*
X122124051Y-106182055D01*
X122057136Y-106343296D01*
X121999723Y-106480961D01*
X121954631Y-106588316D01*
X121924678Y-106658624D01*
X121912682Y-106685149D01*
X121910796Y-106685529D01*
X121876035Y-106673686D01*
X121807682Y-106643337D01*
X121718069Y-106599884D01*
X121531811Y-106515261D01*
X121275508Y-106422735D01*
X121013183Y-106351878D01*
X120755093Y-106304469D01*
X120511499Y-106282289D01*
X120292658Y-106287116D01*
X120108829Y-106320730D01*
X119980529Y-106374066D01*
X119834820Y-106483368D01*
X119722652Y-106631649D01*
X119647236Y-106814349D01*
X119611784Y-107026904D01*
X119599299Y-107222805D01*
X120251021Y-107224589D01*
X120470806Y-107226432D01*
X120713904Y-107232977D01*
X120921576Y-107245330D01*
X121104564Y-107264691D01*
X121273611Y-107292261D01*
X121439459Y-107329242D01*
X121612850Y-107376833D01*
X121872286Y-107467420D01*
X122177436Y-107616598D01*
X122445245Y-107799327D01*
X122673070Y-108013038D01*
X122858270Y-108255160D01*
X122998203Y-108523123D01*
X123090229Y-108814358D01*
X123104641Y-108892795D01*
X123123117Y-109086940D01*
X123125443Y-109271526D01*
X123125846Y-109303570D01*
X123113580Y-109523784D01*
G37*
X123113580Y-109523784D02*
X123087070Y-109728682D01*
X123047068Y-109899364D01*
X122983240Y-110074970D01*
X122835287Y-110364367D01*
X122646172Y-110618982D01*
X122417854Y-110837080D01*
X122152290Y-111016925D01*
X121851439Y-111156782D01*
X121517259Y-111254917D01*
X121380989Y-111277051D01*
X121186261Y-111292433D01*
X120974189Y-111295893D01*
X120762496Y-111287708D01*
X120568902Y-111268157D01*
X120411130Y-111237520D01*
X120331850Y-111213399D01*
X120151793Y-111142812D01*
X119968760Y-111053195D01*
X119801636Y-110954266D01*
X119669304Y-110855744D01*
X119667678Y-110854322D01*
X119595162Y-110792837D01*
X119539370Y-110749056D01*
X119512261Y-110732375D01*
X119509297Y-110736357D01*
X119502591Y-110779377D01*
X119497930Y-110859613D01*
X119496184Y-110964525D01*
X119496184Y-111196676D01*
X118471990Y-111196676D01*
X118444726Y-111196671D01*
X118216061Y-111196271D01*
X118006193Y-111195276D01*
X117821093Y-111193759D01*
X117666732Y-111191795D01*
X117549082Y-111189457D01*
X117474113Y-111186821D01*
X117447797Y-111183960D01*
X117448410Y-111181460D01*
X117465627Y-111144554D01*
X117501718Y-111075217D01*
X117550216Y-110985949D01*
X117652635Y-110800654D01*
X117667653Y-108971261D01*
X119605431Y-108971261D01*
X119606193Y-109115798D01*
X119609884Y-109267666D01*
X119617115Y-109377439D01*
X119628412Y-109452263D01*
X119644302Y-109499287D01*
X119664742Y-109532866D01*
X119741718Y-109624401D01*
X119844856Y-109719695D01*
X119957898Y-109804602D01*
X120064587Y-109864975D01*
X120123781Y-109887127D01*
X120260079Y-109916620D01*
X120438095Y-109931699D01*
X120625780Y-109929415D01*
X120804008Y-109898400D01*
X120952773Y-109834327D01*
X121081482Y-109734309D01*
X121117689Y-109697314D01*
X121211958Y-109571148D01*
X121262963Y-109435159D01*
X121278281Y-109271526D01*
X121274131Y-109185078D01*
X121233092Y-109007116D01*
X121146879Y-108854368D01*
X121013920Y-108725116D01*
X120832647Y-108617641D01*
X120601491Y-108530224D01*
X120508302Y-108507283D01*
X120395486Y-108491575D01*
X120253507Y-108482852D01*
X120069732Y-108479919D01*
X120039879Y-108479921D01*
X119902393Y-108481599D01*
X119784293Y-108485656D01*
X119697323Y-108491559D01*
X119653227Y-108498776D01*
X119648153Y-108501119D01*
X119631747Y-108515832D01*
X119620128Y-108545398D01*
X119612491Y-108597772D01*
X119608033Y-108680905D01*
X119605947Y-108802750D01*
X119605431Y-108971261D01*
X117667653Y-108971261D01*
X117668442Y-108875170D01*
X117670791Y-108594724D01*
X117674078Y-108237053D01*
X117677528Y-107926543D01*
X117681420Y-107658804D01*
X117686032Y-107429442D01*
X117691645Y-107234068D01*
X117698535Y-107068289D01*
X117706982Y-106927715D01*
X117717266Y-106807953D01*
X117729663Y-106704614D01*
X117744454Y-106613305D01*
X117761916Y-106529635D01*
X117782329Y-106449213D01*
X117805972Y-106367647D01*
X117833122Y-106280547D01*
X117940082Y-106007490D01*
X118086559Y-105755128D01*
X118268977Y-105539068D01*
X118489005Y-105358178D01*
X118748313Y-105211328D01*
X119048572Y-105097389D01*
X119391451Y-105015228D01*
X119778621Y-104963717D01*
X119913942Y-104953474D01*
X120141844Y-104945984D01*
X120367731Y-104952729D01*
X120602178Y-104974844D01*
X120855761Y-105013468D01*
X121139055Y-105069737D01*
X121462635Y-105144789D01*
X121537430Y-105162948D01*
X121725260Y-105207634D01*
X121903285Y-105248779D01*
X122060710Y-105283953D01*
X122186739Y-105310725D01*
X122270574Y-105326665D01*
X122463996Y-105358434D01*
X122192069Y-106017501D01*
X122124051Y-106182055D01*
X122057136Y-106343296D01*
X121999723Y-106480961D01*
X121954631Y-106588316D01*
X121924678Y-106658624D01*
X121912682Y-106685149D01*
X121910796Y-106685529D01*
X121876035Y-106673686D01*
X121807682Y-106643337D01*
X121718069Y-106599884D01*
X121531811Y-106515261D01*
X121275508Y-106422735D01*
X121013183Y-106351878D01*
X120755093Y-106304469D01*
X120511499Y-106282289D01*
X120292658Y-106287116D01*
X120108829Y-106320730D01*
X119980529Y-106374066D01*
X119834820Y-106483368D01*
X119722652Y-106631649D01*
X119647236Y-106814349D01*
X119611784Y-107026904D01*
X119599299Y-107222805D01*
X120251021Y-107224589D01*
X120470806Y-107226432D01*
X120713904Y-107232977D01*
X120921576Y-107245330D01*
X121104564Y-107264691D01*
X121273611Y-107292261D01*
X121439459Y-107329242D01*
X121612850Y-107376833D01*
X121872286Y-107467420D01*
X122177436Y-107616598D01*
X122445245Y-107799327D01*
X122673070Y-108013038D01*
X122858270Y-108255160D01*
X122998203Y-108523123D01*
X123090229Y-108814358D01*
X123104641Y-108892795D01*
X123123117Y-109086940D01*
X123125443Y-109271526D01*
X123125846Y-109303570D01*
X123113580Y-109523784D01*
G36*
X135766704Y-113334254D02*
G01*
X135921586Y-113334640D01*
X136040005Y-113335815D01*
X136127568Y-113338208D01*
X136189882Y-113342251D01*
X136232557Y-113348374D01*
X136261198Y-113357009D01*
X136281414Y-113368584D01*
X136298813Y-113383532D01*
X136302398Y-113386909D01*
X136316951Y-113402054D01*
X136328285Y-113420170D01*
X136336804Y-113446556D01*
X136342909Y-113486509D01*
X136347002Y-113545328D01*
X136349486Y-113628311D01*
X136350763Y-113740757D01*
X136351234Y-113887963D01*
X136351301Y-114075229D01*
X136351228Y-114221457D01*
X136350729Y-114378507D01*
X136349450Y-114499473D01*
X136347045Y-114589632D01*
X136343166Y-114654259D01*
X136337464Y-114698630D01*
X136329592Y-114728022D01*
X136319201Y-114747711D01*
X136305944Y-114762972D01*
X136299246Y-114769354D01*
X136282126Y-114781630D01*
X136258015Y-114791021D01*
X136221432Y-114797912D01*
X136166895Y-114802688D01*
X136088925Y-114805733D01*
X135982041Y-114807431D01*
X135840761Y-114808169D01*
X135659605Y-114808329D01*
X135575011Y-114808305D01*
X135411993Y-114807940D01*
X135286451Y-114806829D01*
X135192903Y-114804588D01*
X135125870Y-114800832D01*
X135079871Y-114795177D01*
X135049424Y-114787239D01*
X135029049Y-114776632D01*
X135013266Y-114762972D01*
X134983682Y-114719580D01*
X134967908Y-114660918D01*
X134978955Y-114612892D01*
X135013266Y-114558865D01*
X135023268Y-114549608D01*
X135042906Y-114536977D01*
X135071263Y-114527686D01*
X135114445Y-114521224D01*
X135178559Y-114517085D01*
X135269710Y-114514758D01*
X135394006Y-114513735D01*
X135557551Y-114513508D01*
X136056480Y-114513508D01*
X136056480Y-114196008D01*
X135732687Y-114196008D01*
X135660731Y-114195716D01*
X135528897Y-114192255D01*
X135433993Y-114183345D01*
X135370240Y-114167064D01*
X135331857Y-114141489D01*
X135313066Y-114104697D01*
X135308087Y-114054766D01*
X135309689Y-114014073D01*
X135320240Y-113970227D01*
X135345942Y-113939387D01*
X135392830Y-113919307D01*
X135466937Y-113907743D01*
X135574299Y-113902451D01*
X135720948Y-113901186D01*
X136058743Y-113901186D01*
X136051942Y-113770784D01*
X136045141Y-113640383D01*
X135547496Y-113634258D01*
X135421755Y-113632493D01*
X135284222Y-113629591D01*
X135181959Y-113625712D01*
X135109129Y-113620388D01*
X135059896Y-113613149D01*
X135028425Y-113603527D01*
X135008880Y-113591056D01*
X134996796Y-113578193D01*
X134970662Y-113514547D01*
X134977815Y-113442856D01*
X135017542Y-113380462D01*
X135024074Y-113374590D01*
X135042114Y-113361830D01*
X135066430Y-113352082D01*
X135102603Y-113344942D01*
X135156217Y-113340006D01*
X135232856Y-113336869D01*
X135338103Y-113335129D01*
X135477539Y-113334381D01*
X135656750Y-113334222D01*
X135766704Y-113334254D01*
G37*
X135766704Y-113334254D02*
X135921586Y-113334640D01*
X136040005Y-113335815D01*
X136127568Y-113338208D01*
X136189882Y-113342251D01*
X136232557Y-113348374D01*
X136261198Y-113357009D01*
X136281414Y-113368584D01*
X136298813Y-113383532D01*
X136302398Y-113386909D01*
X136316951Y-113402054D01*
X136328285Y-113420170D01*
X136336804Y-113446556D01*
X136342909Y-113486509D01*
X136347002Y-113545328D01*
X136349486Y-113628311D01*
X136350763Y-113740757D01*
X136351234Y-113887963D01*
X136351301Y-114075229D01*
X136351228Y-114221457D01*
X136350729Y-114378507D01*
X136349450Y-114499473D01*
X136347045Y-114589632D01*
X136343166Y-114654259D01*
X136337464Y-114698630D01*
X136329592Y-114728022D01*
X136319201Y-114747711D01*
X136305944Y-114762972D01*
X136299246Y-114769354D01*
X136282126Y-114781630D01*
X136258015Y-114791021D01*
X136221432Y-114797912D01*
X136166895Y-114802688D01*
X136088925Y-114805733D01*
X135982041Y-114807431D01*
X135840761Y-114808169D01*
X135659605Y-114808329D01*
X135575011Y-114808305D01*
X135411993Y-114807940D01*
X135286451Y-114806829D01*
X135192903Y-114804588D01*
X135125870Y-114800832D01*
X135079871Y-114795177D01*
X135049424Y-114787239D01*
X135029049Y-114776632D01*
X135013266Y-114762972D01*
X134983682Y-114719580D01*
X134967908Y-114660918D01*
X134978955Y-114612892D01*
X135013266Y-114558865D01*
X135023268Y-114549608D01*
X135042906Y-114536977D01*
X135071263Y-114527686D01*
X135114445Y-114521224D01*
X135178559Y-114517085D01*
X135269710Y-114514758D01*
X135394006Y-114513735D01*
X135557551Y-114513508D01*
X136056480Y-114513508D01*
X136056480Y-114196008D01*
X135732687Y-114196008D01*
X135660731Y-114195716D01*
X135528897Y-114192255D01*
X135433993Y-114183345D01*
X135370240Y-114167064D01*
X135331857Y-114141489D01*
X135313066Y-114104697D01*
X135308087Y-114054766D01*
X135309689Y-114014073D01*
X135320240Y-113970227D01*
X135345942Y-113939387D01*
X135392830Y-113919307D01*
X135466937Y-113907743D01*
X135574299Y-113902451D01*
X135720948Y-113901186D01*
X136058743Y-113901186D01*
X136051942Y-113770784D01*
X136045141Y-113640383D01*
X135547496Y-113634258D01*
X135421755Y-113632493D01*
X135284222Y-113629591D01*
X135181959Y-113625712D01*
X135109129Y-113620388D01*
X135059896Y-113613149D01*
X135028425Y-113603527D01*
X135008880Y-113591056D01*
X134996796Y-113578193D01*
X134970662Y-113514547D01*
X134977815Y-113442856D01*
X135017542Y-113380462D01*
X135024074Y-113374590D01*
X135042114Y-113361830D01*
X135066430Y-113352082D01*
X135102603Y-113344942D01*
X135156217Y-113340006D01*
X135232856Y-113336869D01*
X135338103Y-113335129D01*
X135477539Y-113334381D01*
X135656750Y-113334222D01*
X135766704Y-113334254D01*
G36*
X125874428Y-102753066D02*
G01*
X126241445Y-102786759D01*
X126582404Y-102854709D01*
X126909989Y-102959776D01*
X127236880Y-103104820D01*
X127560467Y-103290010D01*
X127907739Y-103542472D01*
X128229778Y-103834366D01*
X128519491Y-104158466D01*
X128769787Y-104507546D01*
X128973576Y-104874381D01*
X128992074Y-104913624D01*
X129146990Y-105292410D01*
X129264704Y-105686011D01*
X129346737Y-106101948D01*
X129394610Y-106547740D01*
X129409844Y-107030905D01*
X129391321Y-107530373D01*
X129332529Y-108022252D01*
X129232555Y-108482706D01*
X129090504Y-108915001D01*
X128905482Y-109322404D01*
X128676594Y-109708181D01*
X128461593Y-110002911D01*
X128164721Y-110334530D01*
X127841145Y-110618572D01*
X127491005Y-110854945D01*
X127114444Y-111043555D01*
X126711602Y-111184311D01*
X126282623Y-111277118D01*
X126277727Y-111277841D01*
X126195116Y-111285090D01*
X126070450Y-111290466D01*
X125915260Y-111293720D01*
X125741070Y-111294600D01*
X125559410Y-111292855D01*
X125432092Y-111290298D01*
X125243190Y-111284376D01*
X125091820Y-111275897D01*
X124967061Y-111263957D01*
X124857998Y-111247652D01*
X124753711Y-111226075D01*
X124636380Y-111198192D01*
X124513967Y-111166439D01*
X124403257Y-111133129D01*
X124294202Y-111094359D01*
X124176754Y-111046228D01*
X124040866Y-110984835D01*
X123876489Y-110906278D01*
X123673576Y-110806655D01*
X123112367Y-110529307D01*
X123561860Y-109791002D01*
X123620707Y-109694371D01*
X123726431Y-109520906D01*
X123821060Y-109365827D01*
X123901136Y-109234791D01*
X123963201Y-109133454D01*
X124003796Y-109067473D01*
X124019463Y-109042504D01*
X124023821Y-109043250D01*
X124058923Y-109067685D01*
X124120592Y-109118397D01*
X124199084Y-109187518D01*
X124338873Y-109306943D01*
X124588427Y-109483542D01*
X124830553Y-109606653D01*
X125005520Y-109668132D01*
X125301464Y-109730963D01*
X125592237Y-109742100D01*
X125873623Y-109702301D01*
X126141405Y-109612326D01*
X126391368Y-109472934D01*
X126619293Y-109284881D01*
X126746119Y-109146374D01*
X126924790Y-108890184D01*
X127071398Y-108592889D01*
X127186642Y-108252966D01*
X127271226Y-107868892D01*
X127275063Y-107845049D01*
X127292792Y-107690508D01*
X127305990Y-107498495D01*
X127314550Y-107282128D01*
X127318366Y-107054528D01*
X127317330Y-106828815D01*
X127311337Y-106618110D01*
X127300279Y-106435532D01*
X127284048Y-106294203D01*
X127221839Y-105974061D01*
X127117164Y-105600093D01*
X126985518Y-105272690D01*
X126827077Y-104992105D01*
X126642017Y-104758591D01*
X126430515Y-104572402D01*
X126192746Y-104433791D01*
X125928886Y-104343011D01*
X125870345Y-104331744D01*
X125723637Y-104317032D01*
X125552186Y-104312230D01*
X125375200Y-104317073D01*
X125211886Y-104331299D01*
X125081453Y-104354643D01*
X124864167Y-104428974D01*
X124612011Y-104564674D01*
X124387487Y-104743253D01*
X124347859Y-104780871D01*
X124276054Y-104847426D01*
X124225305Y-104892223D01*
X124204688Y-104907124D01*
X124199612Y-104899997D01*
X124168368Y-104854996D01*
X124111924Y-104773284D01*
X124034010Y-104660274D01*
X123938354Y-104521376D01*
X123828687Y-104362001D01*
X123708738Y-104187559D01*
X123218119Y-103473820D01*
X123327720Y-103440982D01*
X123339157Y-103437261D01*
X123413606Y-103407705D01*
X123520942Y-103360045D01*
X123648569Y-103300016D01*
X123783892Y-103233349D01*
X123842859Y-103203873D01*
X124170297Y-103051699D01*
X124472093Y-102934023D01*
X124759854Y-102847835D01*
X125045187Y-102790125D01*
X125339700Y-102757883D01*
X125655001Y-102748098D01*
X125874428Y-102753066D01*
G37*
X125874428Y-102753066D02*
X126241445Y-102786759D01*
X126582404Y-102854709D01*
X126909989Y-102959776D01*
X127236880Y-103104820D01*
X127560467Y-103290010D01*
X127907739Y-103542472D01*
X128229778Y-103834366D01*
X128519491Y-104158466D01*
X128769787Y-104507546D01*
X128973576Y-104874381D01*
X128992074Y-104913624D01*
X129146990Y-105292410D01*
X129264704Y-105686011D01*
X129346737Y-106101948D01*
X129394610Y-106547740D01*
X129409844Y-107030905D01*
X129391321Y-107530373D01*
X129332529Y-108022252D01*
X129232555Y-108482706D01*
X129090504Y-108915001D01*
X128905482Y-109322404D01*
X128676594Y-109708181D01*
X128461593Y-110002911D01*
X128164721Y-110334530D01*
X127841145Y-110618572D01*
X127491005Y-110854945D01*
X127114444Y-111043555D01*
X126711602Y-111184311D01*
X126282623Y-111277118D01*
X126277727Y-111277841D01*
X126195116Y-111285090D01*
X126070450Y-111290466D01*
X125915260Y-111293720D01*
X125741070Y-111294600D01*
X125559410Y-111292855D01*
X125432092Y-111290298D01*
X125243190Y-111284376D01*
X125091820Y-111275897D01*
X124967061Y-111263957D01*
X124857998Y-111247652D01*
X124753711Y-111226075D01*
X124636380Y-111198192D01*
X124513967Y-111166439D01*
X124403257Y-111133129D01*
X124294202Y-111094359D01*
X124176754Y-111046228D01*
X124040866Y-110984835D01*
X123876489Y-110906278D01*
X123673576Y-110806655D01*
X123112367Y-110529307D01*
X123561860Y-109791002D01*
X123620707Y-109694371D01*
X123726431Y-109520906D01*
X123821060Y-109365827D01*
X123901136Y-109234791D01*
X123963201Y-109133454D01*
X124003796Y-109067473D01*
X124019463Y-109042504D01*
X124023821Y-109043250D01*
X124058923Y-109067685D01*
X124120592Y-109118397D01*
X124199084Y-109187518D01*
X124338873Y-109306943D01*
X124588427Y-109483542D01*
X124830553Y-109606653D01*
X125005520Y-109668132D01*
X125301464Y-109730963D01*
X125592237Y-109742100D01*
X125873623Y-109702301D01*
X126141405Y-109612326D01*
X126391368Y-109472934D01*
X126619293Y-109284881D01*
X126746119Y-109146374D01*
X126924790Y-108890184D01*
X127071398Y-108592889D01*
X127186642Y-108252966D01*
X127271226Y-107868892D01*
X127275063Y-107845049D01*
X127292792Y-107690508D01*
X127305990Y-107498495D01*
X127314550Y-107282128D01*
X127318366Y-107054528D01*
X127317330Y-106828815D01*
X127311337Y-106618110D01*
X127300279Y-106435532D01*
X127284048Y-106294203D01*
X127221839Y-105974061D01*
X127117164Y-105600093D01*
X126985518Y-105272690D01*
X126827077Y-104992105D01*
X126642017Y-104758591D01*
X126430515Y-104572402D01*
X126192746Y-104433791D01*
X125928886Y-104343011D01*
X125870345Y-104331744D01*
X125723637Y-104317032D01*
X125552186Y-104312230D01*
X125375200Y-104317073D01*
X125211886Y-104331299D01*
X125081453Y-104354643D01*
X124864167Y-104428974D01*
X124612011Y-104564674D01*
X124387487Y-104743253D01*
X124347859Y-104780871D01*
X124276054Y-104847426D01*
X124225305Y-104892223D01*
X124204688Y-104907124D01*
X124199612Y-104899997D01*
X124168368Y-104854996D01*
X124111924Y-104773284D01*
X124034010Y-104660274D01*
X123938354Y-104521376D01*
X123828687Y-104362001D01*
X123708738Y-104187559D01*
X123218119Y-103473820D01*
X123327720Y-103440982D01*
X123339157Y-103437261D01*
X123413606Y-103407705D01*
X123520942Y-103360045D01*
X123648569Y-103300016D01*
X123783892Y-103233349D01*
X123842859Y-103203873D01*
X124170297Y-103051699D01*
X124472093Y-102934023D01*
X124759854Y-102847835D01*
X125045187Y-102790125D01*
X125339700Y-102757883D01*
X125655001Y-102748098D01*
X125874428Y-102753066D01*
G36*
X116278155Y-113334225D02*
G01*
X116467241Y-113334405D01*
X116616935Y-113335088D01*
X116732261Y-113336578D01*
X116818243Y-113339180D01*
X116879903Y-113343201D01*
X116922265Y-113348946D01*
X116950353Y-113356721D01*
X116969191Y-113366830D01*
X116983801Y-113379579D01*
X117021581Y-113445306D01*
X117024487Y-113520796D01*
X116991626Y-113587570D01*
X116988893Y-113590490D01*
X116966387Y-113607285D01*
X116932030Y-113618445D01*
X116877448Y-113625062D01*
X116794271Y-113628230D01*
X116674126Y-113629043D01*
X116394158Y-113629043D01*
X116394158Y-114158931D01*
X116394007Y-114311264D01*
X116393187Y-114445192D01*
X116391214Y-114545204D01*
X116387606Y-114617359D01*
X116381879Y-114667715D01*
X116373550Y-114702331D01*
X116362136Y-114727264D01*
X116347155Y-114748574D01*
X116342553Y-114754211D01*
X116279919Y-114799698D01*
X116210854Y-114802840D01*
X116144694Y-114762972D01*
X116130675Y-114746748D01*
X116119682Y-114725457D01*
X116111606Y-114693629D01*
X116105999Y-114645462D01*
X116102415Y-114575151D01*
X116100407Y-114476895D01*
X116099530Y-114344888D01*
X116099337Y-114173329D01*
X116099337Y-113629043D01*
X115806162Y-113629043D01*
X115783863Y-113629041D01*
X115670323Y-113628589D01*
X115592287Y-113626301D01*
X115541276Y-113620676D01*
X115508808Y-113610216D01*
X115486405Y-113593418D01*
X115465586Y-113568783D01*
X115433750Y-113507134D01*
X115439982Y-113439271D01*
X115491499Y-113373909D01*
X115501425Y-113366441D01*
X115521936Y-113356726D01*
X115552925Y-113349166D01*
X115599374Y-113343496D01*
X115666267Y-113339451D01*
X115758585Y-113336766D01*
X115881312Y-113335176D01*
X116039430Y-113334416D01*
X116237921Y-113334222D01*
X116278155Y-113334225D01*
G37*
X116278155Y-113334225D02*
X116467241Y-113334405D01*
X116616935Y-113335088D01*
X116732261Y-113336578D01*
X116818243Y-113339180D01*
X116879903Y-113343201D01*
X116922265Y-113348946D01*
X116950353Y-113356721D01*
X116969191Y-113366830D01*
X116983801Y-113379579D01*
X117021581Y-113445306D01*
X117024487Y-113520796D01*
X116991626Y-113587570D01*
X116988893Y-113590490D01*
X116966387Y-113607285D01*
X116932030Y-113618445D01*
X116877448Y-113625062D01*
X116794271Y-113628230D01*
X116674126Y-113629043D01*
X116394158Y-113629043D01*
X116394158Y-114158931D01*
X116394007Y-114311264D01*
X116393187Y-114445192D01*
X116391214Y-114545204D01*
X116387606Y-114617359D01*
X116381879Y-114667715D01*
X116373550Y-114702331D01*
X116362136Y-114727264D01*
X116347155Y-114748574D01*
X116342553Y-114754211D01*
X116279919Y-114799698D01*
X116210854Y-114802840D01*
X116144694Y-114762972D01*
X116130675Y-114746748D01*
X116119682Y-114725457D01*
X116111606Y-114693629D01*
X116105999Y-114645462D01*
X116102415Y-114575151D01*
X116100407Y-114476895D01*
X116099530Y-114344888D01*
X116099337Y-114173329D01*
X116099337Y-113629043D01*
X115806162Y-113629043D01*
X115783863Y-113629041D01*
X115670323Y-113628589D01*
X115592287Y-113626301D01*
X115541276Y-113620676D01*
X115508808Y-113610216D01*
X115486405Y-113593418D01*
X115465586Y-113568783D01*
X115433750Y-113507134D01*
X115439982Y-113439271D01*
X115491499Y-113373909D01*
X115501425Y-113366441D01*
X115521936Y-113356726D01*
X115552925Y-113349166D01*
X115599374Y-113343496D01*
X115666267Y-113339451D01*
X115758585Y-113336766D01*
X115881312Y-113335176D01*
X116039430Y-113334416D01*
X116237921Y-113334222D01*
X116278155Y-113334225D01*
G36*
X116946675Y-108696897D02*
G01*
X116930104Y-108919796D01*
X116901475Y-109124973D01*
X116859504Y-109324551D01*
X116802909Y-109530654D01*
X116717087Y-109777010D01*
X116559463Y-110109578D01*
X116366115Y-110407457D01*
X116140001Y-110667832D01*
X115884079Y-110887886D01*
X115601306Y-111064806D01*
X115294640Y-111195775D01*
X114967040Y-111277979D01*
X114963098Y-111278638D01*
X114723682Y-111301675D01*
X114460627Y-111298600D01*
X114192686Y-111271310D01*
X113938619Y-111221701D01*
X113717180Y-111151667D01*
X113622662Y-111109049D01*
X113499562Y-111044273D01*
X113373068Y-110970186D01*
X113256380Y-110894943D01*
X113162696Y-110826697D01*
X113105216Y-110773604D01*
X113092021Y-110759028D01*
X113076290Y-110753933D01*
X113065776Y-110779228D01*
X113058028Y-110842979D01*
X113050592Y-110953248D01*
X113036937Y-111183020D01*
X111990917Y-111190174D01*
X110944897Y-111197327D01*
X111017274Y-111073826D01*
X111021588Y-111066524D01*
X111042635Y-111032247D01*
X111061728Y-111001710D01*
X111078970Y-110972262D01*
X111094465Y-110941249D01*
X111108314Y-110906018D01*
X111120621Y-110863917D01*
X111131488Y-110812293D01*
X111141018Y-110748492D01*
X111149313Y-110669862D01*
X111156477Y-110573750D01*
X111162613Y-110457504D01*
X111167822Y-110318469D01*
X111172208Y-110153993D01*
X111175873Y-109961424D01*
X111178921Y-109738108D01*
X111181379Y-109488911D01*
X113173496Y-109488911D01*
X113310055Y-109578482D01*
X113362570Y-109610749D01*
X113482818Y-109675208D01*
X113596829Y-109726539D01*
X113646759Y-109743919D01*
X113805632Y-109778616D01*
X114006506Y-109796334D01*
X114108651Y-109800021D01*
X114203466Y-109799183D01*
X114274046Y-109789713D01*
X114337353Y-109769015D01*
X114410347Y-109734491D01*
X114550627Y-109642012D01*
X114672155Y-109511192D01*
X114769435Y-109342608D01*
X114843390Y-109133616D01*
X114894947Y-108881573D01*
X114925031Y-108583838D01*
X114934568Y-108237768D01*
X114934104Y-108159090D01*
X114920393Y-107794547D01*
X114887100Y-107477345D01*
X114833416Y-107204137D01*
X114758529Y-106971577D01*
X114661631Y-106776317D01*
X114541912Y-106615012D01*
X114492244Y-106565782D01*
X114338316Y-106463219D01*
X114157620Y-106400807D01*
X113957984Y-106378902D01*
X113747235Y-106397857D01*
X113533201Y-106458029D01*
X113323711Y-106559771D01*
X113173496Y-106649812D01*
X113173496Y-109488911D01*
X111181379Y-109488911D01*
X111181453Y-109481392D01*
X111183573Y-109188625D01*
X111185384Y-108857151D01*
X111186987Y-108484320D01*
X111188487Y-108067477D01*
X111189985Y-107603970D01*
X111191585Y-107091147D01*
X111193388Y-106526353D01*
X111207044Y-102361299D01*
X112292689Y-102354158D01*
X112371639Y-102353677D01*
X112603926Y-102352724D01*
X112816387Y-102352530D01*
X113003224Y-102353057D01*
X113158636Y-102354264D01*
X113276824Y-102356112D01*
X113351990Y-102358561D01*
X113378334Y-102361572D01*
X113374964Y-102371114D01*
X113349822Y-102416351D01*
X113308180Y-102482137D01*
X113304026Y-102488427D01*
X113271739Y-102539221D01*
X113244668Y-102588642D01*
X113222354Y-102641780D01*
X113204338Y-102703726D01*
X113190160Y-102779571D01*
X113179362Y-102874405D01*
X113171484Y-102993318D01*
X113166068Y-103141402D01*
X113162655Y-103323747D01*
X113160785Y-103545443D01*
X113159999Y-103811582D01*
X113159840Y-104127253D01*
X113160126Y-104373713D01*
X113161002Y-104615680D01*
X113162405Y-104835079D01*
X113164272Y-105026568D01*
X113166538Y-105184804D01*
X113169140Y-105304445D01*
X113172014Y-105380147D01*
X113175097Y-105406568D01*
X113185040Y-105402467D01*
X113228749Y-105373590D01*
X113291172Y-105326164D01*
X113381669Y-105262386D01*
X113551698Y-105168413D01*
X113746036Y-105084588D01*
X113946541Y-105019401D01*
X114115001Y-104986161D01*
X114324809Y-104964972D01*
X114551879Y-104957631D01*
X114778688Y-104964147D01*
X114987715Y-104984528D01*
X115161434Y-105018784D01*
X115338319Y-105076488D01*
X115633406Y-105216374D01*
X115906634Y-105402343D01*
X116152963Y-105630113D01*
X116367353Y-105895402D01*
X116544762Y-106193928D01*
X116588806Y-106285469D01*
X116712232Y-106594243D01*
X116808729Y-106929363D01*
X116879515Y-107296734D01*
X116925811Y-107702264D01*
X116948835Y-108151862D01*
X116949904Y-108237768D01*
X116952470Y-108444151D01*
X116946675Y-108696897D01*
G37*
X116946675Y-108696897D02*
X116930104Y-108919796D01*
X116901475Y-109124973D01*
X116859504Y-109324551D01*
X116802909Y-109530654D01*
X116717087Y-109777010D01*
X116559463Y-110109578D01*
X116366115Y-110407457D01*
X116140001Y-110667832D01*
X115884079Y-110887886D01*
X115601306Y-111064806D01*
X115294640Y-111195775D01*
X114967040Y-111277979D01*
X114963098Y-111278638D01*
X114723682Y-111301675D01*
X114460627Y-111298600D01*
X114192686Y-111271310D01*
X113938619Y-111221701D01*
X113717180Y-111151667D01*
X113622662Y-111109049D01*
X113499562Y-111044273D01*
X113373068Y-110970186D01*
X113256380Y-110894943D01*
X113162696Y-110826697D01*
X113105216Y-110773604D01*
X113092021Y-110759028D01*
X113076290Y-110753933D01*
X113065776Y-110779228D01*
X113058028Y-110842979D01*
X113050592Y-110953248D01*
X113036937Y-111183020D01*
X111990917Y-111190174D01*
X110944897Y-111197327D01*
X111017274Y-111073826D01*
X111021588Y-111066524D01*
X111042635Y-111032247D01*
X111061728Y-111001710D01*
X111078970Y-110972262D01*
X111094465Y-110941249D01*
X111108314Y-110906018D01*
X111120621Y-110863917D01*
X111131488Y-110812293D01*
X111141018Y-110748492D01*
X111149313Y-110669862D01*
X111156477Y-110573750D01*
X111162613Y-110457504D01*
X111167822Y-110318469D01*
X111172208Y-110153993D01*
X111175873Y-109961424D01*
X111178921Y-109738108D01*
X111181379Y-109488911D01*
X113173496Y-109488911D01*
X113310055Y-109578482D01*
X113362570Y-109610749D01*
X113482818Y-109675208D01*
X113596829Y-109726539D01*
X113646759Y-109743919D01*
X113805632Y-109778616D01*
X114006506Y-109796334D01*
X114108651Y-109800021D01*
X114203466Y-109799183D01*
X114274046Y-109789713D01*
X114337353Y-109769015D01*
X114410347Y-109734491D01*
X114550627Y-109642012D01*
X114672155Y-109511192D01*
X114769435Y-109342608D01*
X114843390Y-109133616D01*
X114894947Y-108881573D01*
X114925031Y-108583838D01*
X114934568Y-108237768D01*
X114934104Y-108159090D01*
X114920393Y-107794547D01*
X114887100Y-107477345D01*
X114833416Y-107204137D01*
X114758529Y-106971577D01*
X114661631Y-106776317D01*
X114541912Y-106615012D01*
X114492244Y-106565782D01*
X114338316Y-106463219D01*
X114157620Y-106400807D01*
X113957984Y-106378902D01*
X113747235Y-106397857D01*
X113533201Y-106458029D01*
X113323711Y-106559771D01*
X113173496Y-106649812D01*
X113173496Y-109488911D01*
X111181379Y-109488911D01*
X111181453Y-109481392D01*
X111183573Y-109188625D01*
X111185384Y-108857151D01*
X111186987Y-108484320D01*
X111188487Y-108067477D01*
X111189985Y-107603970D01*
X111191585Y-107091147D01*
X111193388Y-106526353D01*
X111207044Y-102361299D01*
X112292689Y-102354158D01*
X112371639Y-102353677D01*
X112603926Y-102352724D01*
X112816387Y-102352530D01*
X113003224Y-102353057D01*
X113158636Y-102354264D01*
X113276824Y-102356112D01*
X113351990Y-102358561D01*
X113378334Y-102361572D01*
X113374964Y-102371114D01*
X113349822Y-102416351D01*
X113308180Y-102482137D01*
X113304026Y-102488427D01*
X113271739Y-102539221D01*
X113244668Y-102588642D01*
X113222354Y-102641780D01*
X113204338Y-102703726D01*
X113190160Y-102779571D01*
X113179362Y-102874405D01*
X113171484Y-102993318D01*
X113166068Y-103141402D01*
X113162655Y-103323747D01*
X113160785Y-103545443D01*
X113159999Y-103811582D01*
X113159840Y-104127253D01*
X113160126Y-104373713D01*
X113161002Y-104615680D01*
X113162405Y-104835079D01*
X113164272Y-105026568D01*
X113166538Y-105184804D01*
X113169140Y-105304445D01*
X113172014Y-105380147D01*
X113175097Y-105406568D01*
X113185040Y-105402467D01*
X113228749Y-105373590D01*
X113291172Y-105326164D01*
X113381669Y-105262386D01*
X113551698Y-105168413D01*
X113746036Y-105084588D01*
X113946541Y-105019401D01*
X114115001Y-104986161D01*
X114324809Y-104964972D01*
X114551879Y-104957631D01*
X114778688Y-104964147D01*
X114987715Y-104984528D01*
X115161434Y-105018784D01*
X115338319Y-105076488D01*
X115633406Y-105216374D01*
X115906634Y-105402343D01*
X116152963Y-105630113D01*
X116367353Y-105895402D01*
X116544762Y-106193928D01*
X116588806Y-106285469D01*
X116712232Y-106594243D01*
X116808729Y-106929363D01*
X116879515Y-107296734D01*
X116925811Y-107702264D01*
X116948835Y-108151862D01*
X116949904Y-108237768D01*
X116952470Y-108444151D01*
X116946675Y-108696897D01*
G36*
X128685551Y-113331861D02*
G01*
X128708468Y-113344191D01*
X128729659Y-113365609D01*
X128752334Y-113393977D01*
X128761279Y-113405952D01*
X128773330Y-113427036D01*
X128782530Y-113454810D01*
X128789262Y-113494797D01*
X128793912Y-113552522D01*
X128796860Y-113633509D01*
X128798492Y-113743281D01*
X128799190Y-113887362D01*
X128799337Y-114071275D01*
X128799291Y-114188858D01*
X128798852Y-114347740D01*
X128797629Y-114470168D01*
X128795237Y-114561669D01*
X128791293Y-114627764D01*
X128785414Y-114673978D01*
X128777217Y-114705835D01*
X128766318Y-114728859D01*
X128752334Y-114748574D01*
X128691205Y-114797578D01*
X128621007Y-114803363D01*
X128546716Y-114765012D01*
X128538310Y-114758030D01*
X128521885Y-114740899D01*
X128509710Y-114717694D01*
X128500906Y-114681870D01*
X128494594Y-114626881D01*
X128489898Y-114546183D01*
X128485938Y-114433230D01*
X128481837Y-114281476D01*
X128470498Y-113841258D01*
X127937551Y-114324688D01*
X127789224Y-114458837D01*
X127658283Y-114575588D01*
X127553428Y-114665905D01*
X127470913Y-114732043D01*
X127406991Y-114776255D01*
X127357916Y-114800794D01*
X127319943Y-114807917D01*
X127289326Y-114799875D01*
X127262317Y-114778924D01*
X127235173Y-114747317D01*
X127222626Y-114730274D01*
X127211313Y-114709025D01*
X127202853Y-114680582D01*
X127196923Y-114639495D01*
X127193196Y-114580311D01*
X127191350Y-114497580D01*
X127191058Y-114385850D01*
X127191996Y-114239670D01*
X127193839Y-114053588D01*
X127200498Y-113420871D01*
X127254037Y-113377546D01*
X127306400Y-113345019D01*
X127372410Y-113339452D01*
X127441780Y-113377527D01*
X127450442Y-113384728D01*
X127466779Y-113401864D01*
X127478891Y-113425151D01*
X127487652Y-113461122D01*
X127493935Y-113516309D01*
X127498615Y-113597246D01*
X127502564Y-113710463D01*
X127506658Y-113862494D01*
X127517998Y-114304156D01*
X127880855Y-113975105D01*
X128055105Y-113817136D01*
X128207325Y-113679739D01*
X128332153Y-113568546D01*
X128432796Y-113481418D01*
X128512465Y-113416214D01*
X128574366Y-113370796D01*
X128621708Y-113343024D01*
X128657701Y-113330759D01*
X128685551Y-113331861D01*
G37*
X128685551Y-113331861D02*
X128708468Y-113344191D01*
X128729659Y-113365609D01*
X128752334Y-113393977D01*
X128761279Y-113405952D01*
X128773330Y-113427036D01*
X128782530Y-113454810D01*
X128789262Y-113494797D01*
X128793912Y-113552522D01*
X128796860Y-113633509D01*
X128798492Y-113743281D01*
X128799190Y-113887362D01*
X128799337Y-114071275D01*
X128799291Y-114188858D01*
X128798852Y-114347740D01*
X128797629Y-114470168D01*
X128795237Y-114561669D01*
X128791293Y-114627764D01*
X128785414Y-114673978D01*
X128777217Y-114705835D01*
X128766318Y-114728859D01*
X128752334Y-114748574D01*
X128691205Y-114797578D01*
X128621007Y-114803363D01*
X128546716Y-114765012D01*
X128538310Y-114758030D01*
X128521885Y-114740899D01*
X128509710Y-114717694D01*
X128500906Y-114681870D01*
X128494594Y-114626881D01*
X128489898Y-114546183D01*
X128485938Y-114433230D01*
X128481837Y-114281476D01*
X128470498Y-113841258D01*
X127937551Y-114324688D01*
X127789224Y-114458837D01*
X127658283Y-114575588D01*
X127553428Y-114665905D01*
X127470913Y-114732043D01*
X127406991Y-114776255D01*
X127357916Y-114800794D01*
X127319943Y-114807917D01*
X127289326Y-114799875D01*
X127262317Y-114778924D01*
X127235173Y-114747317D01*
X127222626Y-114730274D01*
X127211313Y-114709025D01*
X127202853Y-114680582D01*
X127196923Y-114639495D01*
X127193196Y-114580311D01*
X127191350Y-114497580D01*
X127191058Y-114385850D01*
X127191996Y-114239670D01*
X127193839Y-114053588D01*
X127200498Y-113420871D01*
X127254037Y-113377546D01*
X127306400Y-113345019D01*
X127372410Y-113339452D01*
X127441780Y-113377527D01*
X127450442Y-113384728D01*
X127466779Y-113401864D01*
X127478891Y-113425151D01*
X127487652Y-113461122D01*
X127493935Y-113516309D01*
X127498615Y-113597246D01*
X127502564Y-113710463D01*
X127506658Y-113862494D01*
X127517998Y-114304156D01*
X127880855Y-113975105D01*
X128055105Y-113817136D01*
X128207325Y-113679739D01*
X128332153Y-113568546D01*
X128432796Y-113481418D01*
X128512465Y-113416214D01*
X128574366Y-113370796D01*
X128621708Y-113343024D01*
X128657701Y-113330759D01*
X128685551Y-113331861D01*
G36*
X126371084Y-113393977D02*
G01*
X126381026Y-113407404D01*
X126392767Y-113428641D01*
X126401729Y-113456940D01*
X126408286Y-113497772D01*
X126412812Y-113556607D01*
X126415681Y-113638917D01*
X126417267Y-113750171D01*
X126417944Y-113895841D01*
X126418087Y-114081397D01*
X126418029Y-114213819D01*
X126417563Y-114371153D01*
X126416316Y-114492226D01*
X126413920Y-114582423D01*
X126410009Y-114647127D01*
X126404213Y-114691722D01*
X126396165Y-114721593D01*
X126385499Y-114742123D01*
X126371846Y-114758695D01*
X126362776Y-114768052D01*
X126346243Y-114781083D01*
X126323422Y-114790950D01*
X126288732Y-114798092D01*
X126236590Y-114802950D01*
X126161417Y-114805963D01*
X126057631Y-114807571D01*
X125919649Y-114808213D01*
X125741893Y-114808329D01*
X125702368Y-114808316D01*
X125527540Y-114807781D01*
X125391632Y-114806242D01*
X125289268Y-114803401D01*
X125215075Y-114798958D01*
X125163678Y-114792614D01*
X125129703Y-114784069D01*
X125107776Y-114773025D01*
X125086698Y-114752964D01*
X125060057Y-114690453D01*
X125062433Y-114618355D01*
X125094906Y-114554981D01*
X125099304Y-114550408D01*
X125116757Y-114537816D01*
X125143560Y-114528443D01*
X125185713Y-114521821D01*
X125249218Y-114517483D01*
X125340076Y-114514963D01*
X125464287Y-114513794D01*
X125627852Y-114513508D01*
X126123266Y-114513508D01*
X126123266Y-114196008D01*
X125796939Y-114196008D01*
X125725283Y-114195846D01*
X125613245Y-114194244D01*
X125534620Y-114190217D01*
X125481476Y-114182902D01*
X125445883Y-114171434D01*
X125419908Y-114154950D01*
X125412589Y-114148554D01*
X125375610Y-114086327D01*
X125374336Y-114013330D01*
X125409571Y-113945792D01*
X125409695Y-113945654D01*
X125429123Y-113928324D01*
X125455829Y-113916159D01*
X125497428Y-113908261D01*
X125561536Y-113903732D01*
X125655766Y-113901673D01*
X125787734Y-113901186D01*
X126125529Y-113901186D01*
X126118728Y-113770784D01*
X126111926Y-113640383D01*
X125625610Y-113634249D01*
X125575354Y-113633590D01*
X125411386Y-113630618D01*
X125286191Y-113625828D01*
X125194557Y-113617802D01*
X125131271Y-113605118D01*
X125091122Y-113586357D01*
X125068898Y-113560098D01*
X125059385Y-113524920D01*
X125057373Y-113479404D01*
X125057385Y-113474652D01*
X125059703Y-113434411D01*
X125069341Y-113402685D01*
X125091053Y-113378464D01*
X125129593Y-113360739D01*
X125189717Y-113348501D01*
X125276178Y-113340740D01*
X125393731Y-113336446D01*
X125547130Y-113334609D01*
X125741130Y-113334222D01*
X126324081Y-113334222D01*
X126371084Y-113393977D01*
G37*
X126371084Y-113393977D02*
X126381026Y-113407404D01*
X126392767Y-113428641D01*
X126401729Y-113456940D01*
X126408286Y-113497772D01*
X126412812Y-113556607D01*
X126415681Y-113638917D01*
X126417267Y-113750171D01*
X126417944Y-113895841D01*
X126418087Y-114081397D01*
X126418029Y-114213819D01*
X126417563Y-114371153D01*
X126416316Y-114492226D01*
X126413920Y-114582423D01*
X126410009Y-114647127D01*
X126404213Y-114691722D01*
X126396165Y-114721593D01*
X126385499Y-114742123D01*
X126371846Y-114758695D01*
X126362776Y-114768052D01*
X126346243Y-114781083D01*
X126323422Y-114790950D01*
X126288732Y-114798092D01*
X126236590Y-114802950D01*
X126161417Y-114805963D01*
X126057631Y-114807571D01*
X125919649Y-114808213D01*
X125741893Y-114808329D01*
X125702368Y-114808316D01*
X125527540Y-114807781D01*
X125391632Y-114806242D01*
X125289268Y-114803401D01*
X125215075Y-114798958D01*
X125163678Y-114792614D01*
X125129703Y-114784069D01*
X125107776Y-114773025D01*
X125086698Y-114752964D01*
X125060057Y-114690453D01*
X125062433Y-114618355D01*
X125094906Y-114554981D01*
X125099304Y-114550408D01*
X125116757Y-114537816D01*
X125143560Y-114528443D01*
X125185713Y-114521821D01*
X125249218Y-114517483D01*
X125340076Y-114514963D01*
X125464287Y-114513794D01*
X125627852Y-114513508D01*
X126123266Y-114513508D01*
X126123266Y-114196008D01*
X125796939Y-114196008D01*
X125725283Y-114195846D01*
X125613245Y-114194244D01*
X125534620Y-114190217D01*
X125481476Y-114182902D01*
X125445883Y-114171434D01*
X125419908Y-114154950D01*
X125412589Y-114148554D01*
X125375610Y-114086327D01*
X125374336Y-114013330D01*
X125409571Y-113945792D01*
X125409695Y-113945654D01*
X125429123Y-113928324D01*
X125455829Y-113916159D01*
X125497428Y-113908261D01*
X125561536Y-113903732D01*
X125655766Y-113901673D01*
X125787734Y-113901186D01*
X126125529Y-113901186D01*
X126118728Y-113770784D01*
X126111926Y-113640383D01*
X125625610Y-113634249D01*
X125575354Y-113633590D01*
X125411386Y-113630618D01*
X125286191Y-113625828D01*
X125194557Y-113617802D01*
X125131271Y-113605118D01*
X125091122Y-113586357D01*
X125068898Y-113560098D01*
X125059385Y-113524920D01*
X125057373Y-113479404D01*
X125057385Y-113474652D01*
X125059703Y-113434411D01*
X125069341Y-113402685D01*
X125091053Y-113378464D01*
X125129593Y-113360739D01*
X125189717Y-113348501D01*
X125276178Y-113340740D01*
X125393731Y-113336446D01*
X125547130Y-113334609D01*
X125741130Y-113334222D01*
X126324081Y-113334222D01*
X126371084Y-113393977D01*
G36*
X114920051Y-113379579D02*
G01*
X114931366Y-113392015D01*
X114941593Y-113408499D01*
X114949802Y-113432158D01*
X114956186Y-113467232D01*
X114960940Y-113517965D01*
X114964256Y-113588599D01*
X114966328Y-113683377D01*
X114967349Y-113806541D01*
X114967512Y-113962334D01*
X114967011Y-114154998D01*
X114966039Y-114388775D01*
X114965902Y-114417252D01*
X114964724Y-114541328D01*
X114962068Y-114629084D01*
X114956954Y-114688107D01*
X114948405Y-114725983D01*
X114935445Y-114750299D01*
X114917094Y-114768641D01*
X114849881Y-114803631D01*
X114779672Y-114797802D01*
X114717590Y-114748574D01*
X114699491Y-114722050D01*
X114684522Y-114684814D01*
X114675747Y-114632524D01*
X114671619Y-114555088D01*
X114670587Y-114442413D01*
X114670587Y-114196008D01*
X113672730Y-114196008D01*
X113672730Y-114466864D01*
X113672583Y-114538766D01*
X113671051Y-114631839D01*
X113666679Y-114693181D01*
X113658047Y-114731411D01*
X113643736Y-114755152D01*
X113622327Y-114773025D01*
X113557536Y-114803299D01*
X113486648Y-114797941D01*
X113424912Y-114748574D01*
X113415559Y-114736009D01*
X113403635Y-114714866D01*
X113394532Y-114686883D01*
X113387871Y-114646555D01*
X113383273Y-114588382D01*
X113380356Y-114506861D01*
X113378743Y-114396489D01*
X113378054Y-114251765D01*
X113377908Y-114067186D01*
X113377908Y-113445553D01*
X113433574Y-113389887D01*
X113496611Y-113345203D01*
X113563366Y-113339800D01*
X113627373Y-113379579D01*
X113644018Y-113399207D01*
X113658908Y-113431133D01*
X113667622Y-113479282D01*
X113671712Y-113553357D01*
X113672730Y-113663061D01*
X113672730Y-113901186D01*
X114670587Y-113901186D01*
X114670587Y-113673370D01*
X114670588Y-113669128D01*
X114671467Y-113565272D01*
X114675412Y-113495914D01*
X114684484Y-113450561D01*
X114700744Y-113418716D01*
X114726253Y-113389887D01*
X114789290Y-113345203D01*
X114856044Y-113339800D01*
X114920051Y-113379579D01*
G37*
X114920051Y-113379579D02*
X114931366Y-113392015D01*
X114941593Y-113408499D01*
X114949802Y-113432158D01*
X114956186Y-113467232D01*
X114960940Y-113517965D01*
X114964256Y-113588599D01*
X114966328Y-113683377D01*
X114967349Y-113806541D01*
X114967512Y-113962334D01*
X114967011Y-114154998D01*
X114966039Y-114388775D01*
X114965902Y-114417252D01*
X114964724Y-114541328D01*
X114962068Y-114629084D01*
X114956954Y-114688107D01*
X114948405Y-114725983D01*
X114935445Y-114750299D01*
X114917094Y-114768641D01*
X114849881Y-114803631D01*
X114779672Y-114797802D01*
X114717590Y-114748574D01*
X114699491Y-114722050D01*
X114684522Y-114684814D01*
X114675747Y-114632524D01*
X114671619Y-114555088D01*
X114670587Y-114442413D01*
X114670587Y-114196008D01*
X113672730Y-114196008D01*
X113672730Y-114466864D01*
X113672583Y-114538766D01*
X113671051Y-114631839D01*
X113666679Y-114693181D01*
X113658047Y-114731411D01*
X113643736Y-114755152D01*
X113622327Y-114773025D01*
X113557536Y-114803299D01*
X113486648Y-114797941D01*
X113424912Y-114748574D01*
X113415559Y-114736009D01*
X113403635Y-114714866D01*
X113394532Y-114686883D01*
X113387871Y-114646555D01*
X113383273Y-114588382D01*
X113380356Y-114506861D01*
X113378743Y-114396489D01*
X113378054Y-114251765D01*
X113377908Y-114067186D01*
X113377908Y-113445553D01*
X113433574Y-113389887D01*
X113496611Y-113345203D01*
X113563366Y-113339800D01*
X113627373Y-113379579D01*
X113644018Y-113399207D01*
X113658908Y-113431133D01*
X113667622Y-113479282D01*
X113671712Y-113553357D01*
X113672730Y-113663061D01*
X113672730Y-113901186D01*
X114670587Y-113901186D01*
X114670587Y-113673370D01*
X114670588Y-113669128D01*
X114671467Y-113565272D01*
X114675412Y-113495914D01*
X114684484Y-113450561D01*
X114700744Y-113418716D01*
X114726253Y-113389887D01*
X114789290Y-113345203D01*
X114856044Y-113339800D01*
X114920051Y-113379579D01*
G36*
X133725872Y-113335968D02*
G01*
X133858956Y-113346876D01*
X133970051Y-113366158D01*
X134072271Y-113396013D01*
X134215532Y-113462574D01*
X134318302Y-113548320D01*
X134380224Y-113652914D01*
X134400944Y-113776018D01*
X134399062Y-113838794D01*
X134387425Y-113888610D01*
X134357679Y-113932143D01*
X134301484Y-113987088D01*
X134285456Y-114001811D01*
X134237826Y-114043804D01*
X134192838Y-114077897D01*
X134144556Y-114105928D01*
X134087044Y-114129736D01*
X134014368Y-114151159D01*
X133920590Y-114172035D01*
X133799777Y-114194202D01*
X133645991Y-114219499D01*
X133453297Y-114249765D01*
X133416405Y-114255860D01*
X133291189Y-114283223D01*
X133200350Y-114314830D01*
X133147548Y-114349125D01*
X133136441Y-114384551D01*
X133141706Y-114393130D01*
X133177730Y-114423394D01*
X133234233Y-114456811D01*
X133259946Y-114468846D01*
X133302733Y-114483295D01*
X133355741Y-114492892D01*
X133427749Y-114498555D01*
X133527539Y-114501202D01*
X133663891Y-114501752D01*
X133699619Y-114501605D01*
X133835465Y-114499373D01*
X133965922Y-114494903D01*
X134077670Y-114488743D01*
X134157385Y-114481442D01*
X134228725Y-114473269D01*
X134287491Y-114471696D01*
X134325461Y-114480936D01*
X134355823Y-114502382D01*
X134363168Y-114509600D01*
X134395998Y-114573431D01*
X134393347Y-114645058D01*
X134355263Y-114706568D01*
X134314340Y-114729884D01*
X134242052Y-114755387D01*
X134156826Y-114775576D01*
X134149893Y-114776779D01*
X134064174Y-114787259D01*
X133948888Y-114796045D01*
X133818274Y-114802248D01*
X133686569Y-114804978D01*
X133653959Y-114805062D01*
X133456457Y-114800085D01*
X133295638Y-114784001D01*
X133164697Y-114754808D01*
X133056825Y-114710503D01*
X132965217Y-114649083D01*
X132883066Y-114568545D01*
X132842644Y-114515859D01*
X132819288Y-114456500D01*
X132813444Y-114376712D01*
X132813727Y-114352668D01*
X132821508Y-114287013D01*
X132846387Y-114233724D01*
X132896942Y-114171752D01*
X132939555Y-114127274D01*
X132992583Y-114081981D01*
X133052283Y-114045082D01*
X133125064Y-114014434D01*
X133217339Y-113987892D01*
X133335518Y-113963313D01*
X133486011Y-113938552D01*
X133675230Y-113911465D01*
X133766258Y-113897383D01*
X133902774Y-113868135D01*
X134001484Y-113834989D01*
X134060883Y-113799033D01*
X134079466Y-113761356D01*
X134055728Y-113723046D01*
X133988164Y-113685191D01*
X133982045Y-113682752D01*
X133888913Y-113658488D01*
X133763053Y-113642014D01*
X133615529Y-113633656D01*
X133457407Y-113633742D01*
X133299750Y-113642598D01*
X133153623Y-113660550D01*
X133145734Y-113661853D01*
X133047665Y-113677336D01*
X132982874Y-113684592D01*
X132940692Y-113683391D01*
X132910450Y-113673505D01*
X132881480Y-113654704D01*
X132879130Y-113652956D01*
X132829877Y-113591937D01*
X132820248Y-113520617D01*
X132852002Y-113451146D01*
X132861134Y-113442193D01*
X132920627Y-113411779D01*
X133015010Y-113385416D01*
X133136156Y-113363720D01*
X133275941Y-113347309D01*
X133426239Y-113336802D01*
X133578925Y-113332816D01*
X133725872Y-113335968D01*
G37*
X133725872Y-113335968D02*
X133858956Y-113346876D01*
X133970051Y-113366158D01*
X134072271Y-113396013D01*
X134215532Y-113462574D01*
X134318302Y-113548320D01*
X134380224Y-113652914D01*
X134400944Y-113776018D01*
X134399062Y-113838794D01*
X134387425Y-113888610D01*
X134357679Y-113932143D01*
X134301484Y-113987088D01*
X134285456Y-114001811D01*
X134237826Y-114043804D01*
X134192838Y-114077897D01*
X134144556Y-114105928D01*
X134087044Y-114129736D01*
X134014368Y-114151159D01*
X133920590Y-114172035D01*
X133799777Y-114194202D01*
X133645991Y-114219499D01*
X133453297Y-114249765D01*
X133416405Y-114255860D01*
X133291189Y-114283223D01*
X133200350Y-114314830D01*
X133147548Y-114349125D01*
X133136441Y-114384551D01*
X133141706Y-114393130D01*
X133177730Y-114423394D01*
X133234233Y-114456811D01*
X133259946Y-114468846D01*
X133302733Y-114483295D01*
X133355741Y-114492892D01*
X133427749Y-114498555D01*
X133527539Y-114501202D01*
X133663891Y-114501752D01*
X133699619Y-114501605D01*
X133835465Y-114499373D01*
X133965922Y-114494903D01*
X134077670Y-114488743D01*
X134157385Y-114481442D01*
X134228725Y-114473269D01*
X134287491Y-114471696D01*
X134325461Y-114480936D01*
X134355823Y-114502382D01*
X134363168Y-114509600D01*
X134395998Y-114573431D01*
X134393347Y-114645058D01*
X134355263Y-114706568D01*
X134314340Y-114729884D01*
X134242052Y-114755387D01*
X134156826Y-114775576D01*
X134149893Y-114776779D01*
X134064174Y-114787259D01*
X133948888Y-114796045D01*
X133818274Y-114802248D01*
X133686569Y-114804978D01*
X133653959Y-114805062D01*
X133456457Y-114800085D01*
X133295638Y-114784001D01*
X133164697Y-114754808D01*
X133056825Y-114710503D01*
X132965217Y-114649083D01*
X132883066Y-114568545D01*
X132842644Y-114515859D01*
X132819288Y-114456500D01*
X132813444Y-114376712D01*
X132813727Y-114352668D01*
X132821508Y-114287013D01*
X132846387Y-114233724D01*
X132896942Y-114171752D01*
X132939555Y-114127274D01*
X132992583Y-114081981D01*
X133052283Y-114045082D01*
X133125064Y-114014434D01*
X133217339Y-113987892D01*
X133335518Y-113963313D01*
X133486011Y-113938552D01*
X133675230Y-113911465D01*
X133766258Y-113897383D01*
X133902774Y-113868135D01*
X134001484Y-113834989D01*
X134060883Y-113799033D01*
X134079466Y-113761356D01*
X134055728Y-113723046D01*
X133988164Y-113685191D01*
X133982045Y-113682752D01*
X133888913Y-113658488D01*
X133763053Y-113642014D01*
X133615529Y-113633656D01*
X133457407Y-113633742D01*
X133299750Y-113642598D01*
X133153623Y-113660550D01*
X133145734Y-113661853D01*
X133047665Y-113677336D01*
X132982874Y-113684592D01*
X132940692Y-113683391D01*
X132910450Y-113673505D01*
X132881480Y-113654704D01*
X132879130Y-113652956D01*
X132829877Y-113591937D01*
X132820248Y-113520617D01*
X132852002Y-113451146D01*
X132861134Y-113442193D01*
X132920627Y-113411779D01*
X133015010Y-113385416D01*
X133136156Y-113363720D01*
X133275941Y-113347309D01*
X133426239Y-113336802D01*
X133578925Y-113332816D01*
X133725872Y-113335968D01*
G36*
X130287183Y-113344492D02*
G01*
X130500142Y-113377268D01*
X130688605Y-113433621D01*
X130846899Y-113511781D01*
X130969352Y-113609981D01*
X131021725Y-113675998D01*
X131081004Y-113774835D01*
X131131773Y-113883032D01*
X131167229Y-113985823D01*
X131180569Y-114068440D01*
X131177436Y-114108046D01*
X131151437Y-114211169D01*
X131104904Y-114324727D01*
X131044854Y-114433042D01*
X130978301Y-114520438D01*
X130957817Y-114541227D01*
X130823047Y-114645239D01*
X130662081Y-114725380D01*
X130488891Y-114774401D01*
X130378471Y-114790698D01*
X130190731Y-114803966D01*
X130010369Y-114799773D01*
X129844653Y-114779191D01*
X129700848Y-114743291D01*
X129586223Y-114693145D01*
X129508042Y-114629822D01*
X129505279Y-114625853D01*
X129491040Y-114575176D01*
X129482525Y-114480252D01*
X129479694Y-114340704D01*
X129481422Y-114215683D01*
X129490903Y-114120495D01*
X129514387Y-114056002D01*
X129558120Y-114016722D01*
X129628350Y-113997175D01*
X129731324Y-113991877D01*
X129873288Y-113995349D01*
X129970963Y-114001400D01*
X130071803Y-114017858D01*
X130137081Y-114046090D01*
X130172154Y-114088751D01*
X130182383Y-114148496D01*
X130182169Y-114157619D01*
X130164687Y-114227518D01*
X130116454Y-114274561D01*
X130033555Y-114301079D01*
X129912078Y-114309400D01*
X129774516Y-114309400D01*
X129774516Y-114386447D01*
X129774617Y-114404799D01*
X129779078Y-114439455D01*
X129797695Y-114460135D01*
X129840647Y-114474072D01*
X129918114Y-114488501D01*
X129929111Y-114490377D01*
X130123878Y-114510272D01*
X130304664Y-114504408D01*
X130467202Y-114474816D01*
X130607222Y-114423527D01*
X130720455Y-114352571D01*
X130802632Y-114263979D01*
X130849484Y-114159782D01*
X130856741Y-114042011D01*
X130845654Y-113983963D01*
X130792049Y-113871685D01*
X130699259Y-113779958D01*
X130568716Y-113709975D01*
X130401851Y-113662929D01*
X130352282Y-113653992D01*
X130172827Y-113632899D01*
X130012499Y-113635369D01*
X129855617Y-113661355D01*
X129785016Y-113674994D01*
X129693735Y-113677039D01*
X129630826Y-113651864D01*
X129590339Y-113598051D01*
X129577514Y-113541304D01*
X129596572Y-113478577D01*
X129615313Y-113451607D01*
X129684087Y-113404334D01*
X129789801Y-113368431D01*
X129927446Y-113345335D01*
X130092016Y-113336483D01*
X130287183Y-113344492D01*
G37*
X130287183Y-113344492D02*
X130500142Y-113377268D01*
X130688605Y-113433621D01*
X130846899Y-113511781D01*
X130969352Y-113609981D01*
X131021725Y-113675998D01*
X131081004Y-113774835D01*
X131131773Y-113883032D01*
X131167229Y-113985823D01*
X131180569Y-114068440D01*
X131177436Y-114108046D01*
X131151437Y-114211169D01*
X131104904Y-114324727D01*
X131044854Y-114433042D01*
X130978301Y-114520438D01*
X130957817Y-114541227D01*
X130823047Y-114645239D01*
X130662081Y-114725380D01*
X130488891Y-114774401D01*
X130378471Y-114790698D01*
X130190731Y-114803966D01*
X130010369Y-114799773D01*
X129844653Y-114779191D01*
X129700848Y-114743291D01*
X129586223Y-114693145D01*
X129508042Y-114629822D01*
X129505279Y-114625853D01*
X129491040Y-114575176D01*
X129482525Y-114480252D01*
X129479694Y-114340704D01*
X129481422Y-114215683D01*
X129490903Y-114120495D01*
X129514387Y-114056002D01*
X129558120Y-114016722D01*
X129628350Y-113997175D01*
X129731324Y-113991877D01*
X129873288Y-113995349D01*
X129970963Y-114001400D01*
X130071803Y-114017858D01*
X130137081Y-114046090D01*
X130172154Y-114088751D01*
X130182383Y-114148496D01*
X130182169Y-114157619D01*
X130164687Y-114227518D01*
X130116454Y-114274561D01*
X130033555Y-114301079D01*
X129912078Y-114309400D01*
X129774516Y-114309400D01*
X129774516Y-114386447D01*
X129774617Y-114404799D01*
X129779078Y-114439455D01*
X129797695Y-114460135D01*
X129840647Y-114474072D01*
X129918114Y-114488501D01*
X129929111Y-114490377D01*
X130123878Y-114510272D01*
X130304664Y-114504408D01*
X130467202Y-114474816D01*
X130607222Y-114423527D01*
X130720455Y-114352571D01*
X130802632Y-114263979D01*
X130849484Y-114159782D01*
X130856741Y-114042011D01*
X130845654Y-113983963D01*
X130792049Y-113871685D01*
X130699259Y-113779958D01*
X130568716Y-113709975D01*
X130401851Y-113662929D01*
X130352282Y-113653992D01*
X130172827Y-113632899D01*
X130012499Y-113635369D01*
X129855617Y-113661355D01*
X129785016Y-113674994D01*
X129693735Y-113677039D01*
X129630826Y-113651864D01*
X129590339Y-113598051D01*
X129577514Y-113541304D01*
X129596572Y-113478577D01*
X129615313Y-113451607D01*
X129684087Y-113404334D01*
X129789801Y-113368431D01*
X129927446Y-113345335D01*
X130092016Y-113336483D01*
X130287183Y-113344492D01*
G36*
X138619658Y-113868546D02*
G01*
X138619158Y-114071275D01*
X138619079Y-114223273D01*
X138618567Y-114379788D01*
X138617273Y-114500343D01*
X138614854Y-114590198D01*
X138610964Y-114654609D01*
X138605258Y-114698834D01*
X138597393Y-114728131D01*
X138587022Y-114747758D01*
X138573801Y-114762972D01*
X138559805Y-114775495D01*
X138533693Y-114790161D01*
X138495226Y-114799710D01*
X138436155Y-114805210D01*
X138348233Y-114807727D01*
X138223210Y-114808329D01*
X138124880Y-114807575D01*
X137910207Y-114798678D01*
X137730955Y-114778413D01*
X137580691Y-114745089D01*
X137452981Y-114697015D01*
X137341392Y-114632500D01*
X137239490Y-114549856D01*
X137227460Y-114538098D01*
X137153397Y-114440648D01*
X137090920Y-114318488D01*
X137047763Y-114189428D01*
X137037154Y-114111595D01*
X137332903Y-114111595D01*
X137369630Y-114213920D01*
X137429236Y-114306164D01*
X137523047Y-114391362D01*
X137646373Y-114451233D01*
X137805373Y-114489675D01*
X137808366Y-114490154D01*
X137906745Y-114501789D01*
X138024657Y-114510107D01*
X138137239Y-114513336D01*
X138324337Y-114513508D01*
X138324337Y-113629043D01*
X138171257Y-113629014D01*
X138165174Y-113629033D01*
X138062478Y-113632979D01*
X137941736Y-113642472D01*
X137827812Y-113655587D01*
X137727450Y-113674262D01*
X137577279Y-113727033D01*
X137461747Y-113805982D01*
X137378375Y-113912525D01*
X137335751Y-114015515D01*
X137332903Y-114111595D01*
X137037154Y-114111595D01*
X137031658Y-114071275D01*
X137034228Y-114028653D01*
X137058962Y-113913309D01*
X137104221Y-113792952D01*
X137162942Y-113684371D01*
X137228064Y-113604354D01*
X137267322Y-113570156D01*
X137377234Y-113491431D01*
X137498379Y-113430903D01*
X137637389Y-113386786D01*
X137800899Y-113357291D01*
X137995542Y-113340634D01*
X138227953Y-113335026D01*
X138307270Y-113334220D01*
X138399100Y-113333390D01*
X138471021Y-113337015D01*
X138525444Y-113349635D01*
X138564783Y-113375792D01*
X138591451Y-113420026D01*
X138607859Y-113486877D01*
X138616422Y-113580888D01*
X138617621Y-113629043D01*
X138619550Y-113706597D01*
X138619658Y-113868546D01*
G37*
X138619658Y-113868546D02*
X138619158Y-114071275D01*
X138619079Y-114223273D01*
X138618567Y-114379788D01*
X138617273Y-114500343D01*
X138614854Y-114590198D01*
X138610964Y-114654609D01*
X138605258Y-114698834D01*
X138597393Y-114728131D01*
X138587022Y-114747758D01*
X138573801Y-114762972D01*
X138559805Y-114775495D01*
X138533693Y-114790161D01*
X138495226Y-114799710D01*
X138436155Y-114805210D01*
X138348233Y-114807727D01*
X138223210Y-114808329D01*
X138124880Y-114807575D01*
X137910207Y-114798678D01*
X137730955Y-114778413D01*
X137580691Y-114745089D01*
X137452981Y-114697015D01*
X137341392Y-114632500D01*
X137239490Y-114549856D01*
X137227460Y-114538098D01*
X137153397Y-114440648D01*
X137090920Y-114318488D01*
X137047763Y-114189428D01*
X137037154Y-114111595D01*
X137332903Y-114111595D01*
X137369630Y-114213920D01*
X137429236Y-114306164D01*
X137523047Y-114391362D01*
X137646373Y-114451233D01*
X137805373Y-114489675D01*
X137808366Y-114490154D01*
X137906745Y-114501789D01*
X138024657Y-114510107D01*
X138137239Y-114513336D01*
X138324337Y-114513508D01*
X138324337Y-113629043D01*
X138171257Y-113629014D01*
X138165174Y-113629033D01*
X138062478Y-113632979D01*
X137941736Y-113642472D01*
X137827812Y-113655587D01*
X137727450Y-113674262D01*
X137577279Y-113727033D01*
X137461747Y-113805982D01*
X137378375Y-113912525D01*
X137335751Y-114015515D01*
X137332903Y-114111595D01*
X137037154Y-114111595D01*
X137031658Y-114071275D01*
X137034228Y-114028653D01*
X137058962Y-113913309D01*
X137104221Y-113792952D01*
X137162942Y-113684371D01*
X137228064Y-113604354D01*
X137267322Y-113570156D01*
X137377234Y-113491431D01*
X137498379Y-113430903D01*
X137637389Y-113386786D01*
X137800899Y-113357291D01*
X137995542Y-113340634D01*
X138227953Y-113335026D01*
X138307270Y-113334220D01*
X138399100Y-113333390D01*
X138471021Y-113337015D01*
X138525444Y-113349635D01*
X138564783Y-113375792D01*
X138591451Y-113420026D01*
X138607859Y-113486877D01*
X138616422Y-113580888D01*
X138617621Y-113629043D01*
X138619550Y-113706597D01*
X138619658Y-113868546D01*
G36*
X132065293Y-100502240D02*
G01*
X132275206Y-100553672D01*
X132474180Y-100645982D01*
X132655945Y-100779186D01*
X132814231Y-100953296D01*
X132942766Y-101168329D01*
X132977226Y-101244080D01*
X133005143Y-101320859D01*
X133020807Y-101397615D01*
X133027673Y-101492554D01*
X133029195Y-101623880D01*
X133028275Y-101733186D01*
X133022732Y-101833641D01*
X133009142Y-101912016D01*
X132984110Y-101986311D01*
X132944245Y-102074525D01*
X132932713Y-102098033D01*
X132796408Y-102313289D01*
X132624974Y-102490396D01*
X132423278Y-102625197D01*
X132196184Y-102713536D01*
X132079660Y-102738188D01*
X131843268Y-102749723D01*
X131614307Y-102712398D01*
X131399491Y-102630039D01*
X131205535Y-102506473D01*
X131039151Y-102345528D01*
X130907055Y-102151030D01*
X130815960Y-101926805D01*
X130782631Y-101743311D01*
X130779628Y-101540817D01*
X130806735Y-101343849D01*
X130862661Y-101173235D01*
X130927280Y-101051257D01*
X131071136Y-100857731D01*
X131241678Y-100704995D01*
X131432635Y-100593063D01*
X131637737Y-100521950D01*
X131850714Y-100491671D01*
X132065293Y-100502240D01*
G37*
X132065293Y-100502240D02*
X132275206Y-100553672D01*
X132474180Y-100645982D01*
X132655945Y-100779186D01*
X132814231Y-100953296D01*
X132942766Y-101168329D01*
X132977226Y-101244080D01*
X133005143Y-101320859D01*
X133020807Y-101397615D01*
X133027673Y-101492554D01*
X133029195Y-101623880D01*
X133028275Y-101733186D01*
X133022732Y-101833641D01*
X133009142Y-101912016D01*
X132984110Y-101986311D01*
X132944245Y-102074525D01*
X132932713Y-102098033D01*
X132796408Y-102313289D01*
X132624974Y-102490396D01*
X132423278Y-102625197D01*
X132196184Y-102713536D01*
X132079660Y-102738188D01*
X131843268Y-102749723D01*
X131614307Y-102712398D01*
X131399491Y-102630039D01*
X131205535Y-102506473D01*
X131039151Y-102345528D01*
X130907055Y-102151030D01*
X130815960Y-101926805D01*
X130782631Y-101743311D01*
X130779628Y-101540817D01*
X130806735Y-101343849D01*
X130862661Y-101173235D01*
X130927280Y-101051257D01*
X131071136Y-100857731D01*
X131241678Y-100704995D01*
X131432635Y-100593063D01*
X131637737Y-100521950D01*
X131850714Y-100491671D01*
X132065293Y-100502240D01*
G36*
X132008807Y-113343054D02*
G01*
X132077421Y-113389887D01*
X132133087Y-113445553D01*
X132133087Y-114074452D01*
X132133005Y-114243263D01*
X132132485Y-114392369D01*
X132131138Y-114506380D01*
X132128571Y-114590697D01*
X132124395Y-114650718D01*
X132118218Y-114691844D01*
X132109650Y-114719473D01*
X132098300Y-114739006D01*
X132083777Y-114755840D01*
X132020569Y-114798960D01*
X131949924Y-114802509D01*
X131883623Y-114762972D01*
X131872962Y-114751182D01*
X131862014Y-114732933D01*
X131853645Y-114706131D01*
X131847509Y-114665519D01*
X131843262Y-114605838D01*
X131840559Y-114521830D01*
X131839055Y-114408239D01*
X131838406Y-114259807D01*
X131838266Y-114071275D01*
X131838345Y-113919277D01*
X131838857Y-113762763D01*
X131840151Y-113642207D01*
X131842570Y-113552353D01*
X131846460Y-113487942D01*
X131852166Y-113443717D01*
X131860032Y-113414420D01*
X131870402Y-113394793D01*
X131883623Y-113379579D01*
X131942250Y-113341367D01*
X132008807Y-113343054D01*
G37*
X132008807Y-113343054D02*
X132077421Y-113389887D01*
X132133087Y-113445553D01*
X132133087Y-114074452D01*
X132133005Y-114243263D01*
X132132485Y-114392369D01*
X132131138Y-114506380D01*
X132128571Y-114590697D01*
X132124395Y-114650718D01*
X132118218Y-114691844D01*
X132109650Y-114719473D01*
X132098300Y-114739006D01*
X132083777Y-114755840D01*
X132020569Y-114798960D01*
X131949924Y-114802509D01*
X131883623Y-114762972D01*
X131872962Y-114751182D01*
X131862014Y-114732933D01*
X131853645Y-114706131D01*
X131847509Y-114665519D01*
X131843262Y-114605838D01*
X131840559Y-114521830D01*
X131839055Y-114408239D01*
X131838406Y-114259807D01*
X131838266Y-114071275D01*
X131838345Y-113919277D01*
X131838857Y-113762763D01*
X131840151Y-113642207D01*
X131842570Y-113552353D01*
X131846460Y-113487942D01*
X131852166Y-113443717D01*
X131860032Y-113414420D01*
X131870402Y-113394793D01*
X131883623Y-113379579D01*
X131942250Y-113341367D01*
X132008807Y-113343054D01*
G36*
X118556149Y-113353129D02*
G01*
X118592230Y-113390316D01*
X118633615Y-113452757D01*
X118683501Y-113544535D01*
X118745085Y-113669736D01*
X118821564Y-113832445D01*
X118850962Y-113895492D01*
X118910725Y-114022422D01*
X118963148Y-114132122D01*
X119005324Y-114218599D01*
X119034347Y-114275860D01*
X119047310Y-114297912D01*
X119050040Y-114296745D01*
X119070113Y-114268726D01*
X119104849Y-114209386D01*
X119150245Y-114125781D01*
X119202293Y-114024964D01*
X119234381Y-113961706D01*
X119292539Y-113850504D01*
X119337717Y-113772122D01*
X119374311Y-113720940D01*
X119406717Y-113691338D01*
X119439331Y-113677698D01*
X119476549Y-113674400D01*
X119497648Y-113675355D01*
X119530024Y-113683807D01*
X119560789Y-113705631D01*
X119594133Y-113746358D01*
X119634249Y-113811517D01*
X119685328Y-113906641D01*
X119751562Y-114037258D01*
X119771114Y-114075940D01*
X119820248Y-114169694D01*
X119860900Y-114242342D01*
X119889291Y-114287319D01*
X119901644Y-114298061D01*
X119904391Y-114291490D01*
X119923223Y-114249484D01*
X119957096Y-114175277D01*
X120003133Y-114075129D01*
X120058461Y-113955301D01*
X120120206Y-113822052D01*
X120173874Y-113707100D01*
X120233385Y-113582569D01*
X120279733Y-113490681D01*
X120315851Y-113426313D01*
X120344673Y-113384340D01*
X120369134Y-113359636D01*
X120392169Y-113347078D01*
X120411072Y-113341267D01*
X120461507Y-113340969D01*
X120516034Y-113371791D01*
X120518647Y-113373769D01*
X120563012Y-113419243D01*
X120585208Y-113463891D01*
X120585301Y-113465176D01*
X120576178Y-113500658D01*
X120550335Y-113570098D01*
X120510641Y-113667220D01*
X120459967Y-113785746D01*
X120401183Y-113919399D01*
X120337159Y-114061903D01*
X120270766Y-114206981D01*
X120204874Y-114348355D01*
X120142353Y-114479749D01*
X120086074Y-114594885D01*
X120038907Y-114687487D01*
X120003722Y-114751278D01*
X119983389Y-114779981D01*
X119914267Y-114806838D01*
X119830500Y-114794058D01*
X119819723Y-114784622D01*
X119787924Y-114740122D01*
X119743322Y-114666273D01*
X119690252Y-114570412D01*
X119633050Y-114459878D01*
X119472791Y-114139969D01*
X119325763Y-114434462D01*
X119306285Y-114473215D01*
X119252087Y-114578378D01*
X119203815Y-114668357D01*
X119166119Y-114734621D01*
X119143647Y-114768641D01*
X119141345Y-114771139D01*
X119084853Y-114801849D01*
X119014415Y-114805231D01*
X118952056Y-114779981D01*
X118947182Y-114774257D01*
X118922552Y-114732822D01*
X118882902Y-114657385D01*
X118830861Y-114553266D01*
X118769062Y-114425786D01*
X118700134Y-114280264D01*
X118626709Y-114122022D01*
X118586047Y-114033381D01*
X118512173Y-113871205D01*
X118455006Y-113743280D01*
X118412769Y-113644974D01*
X118383685Y-113571657D01*
X118365978Y-113518697D01*
X118357871Y-113481466D01*
X118357586Y-113455330D01*
X118363348Y-113435661D01*
X118392793Y-113393710D01*
X118446235Y-113352926D01*
X118447754Y-113352238D01*
X118487108Y-113338174D01*
X118522174Y-113337110D01*
X118556149Y-113353129D01*
G37*
X118556149Y-113353129D02*
X118592230Y-113390316D01*
X118633615Y-113452757D01*
X118683501Y-113544535D01*
X118745085Y-113669736D01*
X118821564Y-113832445D01*
X118850962Y-113895492D01*
X118910725Y-114022422D01*
X118963148Y-114132122D01*
X119005324Y-114218599D01*
X119034347Y-114275860D01*
X119047310Y-114297912D01*
X119050040Y-114296745D01*
X119070113Y-114268726D01*
X119104849Y-114209386D01*
X119150245Y-114125781D01*
X119202293Y-114024964D01*
X119234381Y-113961706D01*
X119292539Y-113850504D01*
X119337717Y-113772122D01*
X119374311Y-113720940D01*
X119406717Y-113691338D01*
X119439331Y-113677698D01*
X119476549Y-113674400D01*
X119497648Y-113675355D01*
X119530024Y-113683807D01*
X119560789Y-113705631D01*
X119594133Y-113746358D01*
X119634249Y-113811517D01*
X119685328Y-113906641D01*
X119751562Y-114037258D01*
X119771114Y-114075940D01*
X119820248Y-114169694D01*
X119860900Y-114242342D01*
X119889291Y-114287319D01*
X119901644Y-114298061D01*
X119904391Y-114291490D01*
X119923223Y-114249484D01*
X119957096Y-114175277D01*
X120003133Y-114075129D01*
X120058461Y-113955301D01*
X120120206Y-113822052D01*
X120173874Y-113707100D01*
X120233385Y-113582569D01*
X120279733Y-113490681D01*
X120315851Y-113426313D01*
X120344673Y-113384340D01*
X120369134Y-113359636D01*
X120392169Y-113347078D01*
X120411072Y-113341267D01*
X120461507Y-113340969D01*
X120516034Y-113371791D01*
X120518647Y-113373769D01*
X120563012Y-113419243D01*
X120585208Y-113463891D01*
X120585301Y-113465176D01*
X120576178Y-113500658D01*
X120550335Y-113570098D01*
X120510641Y-113667220D01*
X120459967Y-113785746D01*
X120401183Y-113919399D01*
X120337159Y-114061903D01*
X120270766Y-114206981D01*
X120204874Y-114348355D01*
X120142353Y-114479749D01*
X120086074Y-114594885D01*
X120038907Y-114687487D01*
X120003722Y-114751278D01*
X119983389Y-114779981D01*
X119914267Y-114806838D01*
X119830500Y-114794058D01*
X119819723Y-114784622D01*
X119787924Y-114740122D01*
X119743322Y-114666273D01*
X119690252Y-114570412D01*
X119633050Y-114459878D01*
X119472791Y-114139969D01*
X119325763Y-114434462D01*
X119306285Y-114473215D01*
X119252087Y-114578378D01*
X119203815Y-114668357D01*
X119166119Y-114734621D01*
X119143647Y-114768641D01*
X119141345Y-114771139D01*
X119084853Y-114801849D01*
X119014415Y-114805231D01*
X118952056Y-114779981D01*
X118947182Y-114774257D01*
X118922552Y-114732822D01*
X118882902Y-114657385D01*
X118830861Y-114553266D01*
X118769062Y-114425786D01*
X118700134Y-114280264D01*
X118626709Y-114122022D01*
X118586047Y-114033381D01*
X118512173Y-113871205D01*
X118455006Y-113743280D01*
X118412769Y-113644974D01*
X118383685Y-113571657D01*
X118365978Y-113518697D01*
X118357871Y-113481466D01*
X118357586Y-113455330D01*
X118363348Y-113435661D01*
X118392793Y-113393710D01*
X118446235Y-113352926D01*
X118447754Y-113352238D01*
X118487108Y-113338174D01*
X118522174Y-113337110D01*
X118556149Y-113353129D01*
G36*
X124368906Y-114628188D02*
G01*
X124363022Y-114674235D01*
X124354832Y-114705979D01*
X124343955Y-114728925D01*
X124330012Y-114748574D01*
X124283009Y-114808329D01*
X123950146Y-114807136D01*
X123880244Y-114806537D01*
X123682398Y-114799645D01*
X123519752Y-114784212D01*
X123384964Y-114758985D01*
X123270689Y-114722714D01*
X123169586Y-114674148D01*
X123162839Y-114670297D01*
X123046699Y-114596533D01*
X122961613Y-114522271D01*
X122895687Y-114434912D01*
X122837027Y-114321855D01*
X122828425Y-114302539D01*
X122783068Y-114175603D01*
X122771548Y-114084086D01*
X123071371Y-114084086D01*
X123082646Y-114133764D01*
X123094150Y-114165661D01*
X123160303Y-114286013D01*
X123255403Y-114377928D01*
X123383503Y-114444494D01*
X123548655Y-114488800D01*
X123554268Y-114489809D01*
X123647252Y-114501787D01*
X123760548Y-114510280D01*
X123870913Y-114513508D01*
X124059516Y-114513508D01*
X124059516Y-113629043D01*
X123883757Y-113629943D01*
X123749320Y-113634918D01*
X123563699Y-113657521D01*
X123404361Y-113696774D01*
X123279858Y-113750963D01*
X123217702Y-113792605D01*
X123161211Y-113852403D01*
X123114324Y-113937638D01*
X123100006Y-113969713D01*
X123076253Y-114035006D01*
X123071371Y-114084086D01*
X122771548Y-114084086D01*
X122769064Y-114064352D01*
X122786344Y-113953808D01*
X122834843Y-113828989D01*
X122836442Y-113825588D01*
X122917706Y-113686125D01*
X123019527Y-113572422D01*
X123145538Y-113482889D01*
X123299374Y-113415934D01*
X123484667Y-113369969D01*
X123705052Y-113343401D01*
X123964163Y-113334640D01*
X123971338Y-113334630D01*
X124091915Y-113334911D01*
X124176150Y-113336993D01*
X124232629Y-113342204D01*
X124269932Y-113351872D01*
X124296645Y-113367324D01*
X124321350Y-113389887D01*
X124377016Y-113445553D01*
X124377016Y-114067186D01*
X124376965Y-114190947D01*
X124376512Y-114349221D01*
X124375271Y-114471184D01*
X124374152Y-114513508D01*
X124372862Y-114562339D01*
X124368906Y-114628188D01*
G37*
X124368906Y-114628188D02*
X124363022Y-114674235D01*
X124354832Y-114705979D01*
X124343955Y-114728925D01*
X124330012Y-114748574D01*
X124283009Y-114808329D01*
X123950146Y-114807136D01*
X123880244Y-114806537D01*
X123682398Y-114799645D01*
X123519752Y-114784212D01*
X123384964Y-114758985D01*
X123270689Y-114722714D01*
X123169586Y-114674148D01*
X123162839Y-114670297D01*
X123046699Y-114596533D01*
X122961613Y-114522271D01*
X122895687Y-114434912D01*
X122837027Y-114321855D01*
X122828425Y-114302539D01*
X122783068Y-114175603D01*
X122771548Y-114084086D01*
X123071371Y-114084086D01*
X123082646Y-114133764D01*
X123094150Y-114165661D01*
X123160303Y-114286013D01*
X123255403Y-114377928D01*
X123383503Y-114444494D01*
X123548655Y-114488800D01*
X123554268Y-114489809D01*
X123647252Y-114501787D01*
X123760548Y-114510280D01*
X123870913Y-114513508D01*
X124059516Y-114513508D01*
X124059516Y-113629043D01*
X123883757Y-113629943D01*
X123749320Y-113634918D01*
X123563699Y-113657521D01*
X123404361Y-113696774D01*
X123279858Y-113750963D01*
X123217702Y-113792605D01*
X123161211Y-113852403D01*
X123114324Y-113937638D01*
X123100006Y-113969713D01*
X123076253Y-114035006D01*
X123071371Y-114084086D01*
X122771548Y-114084086D01*
X122769064Y-114064352D01*
X122786344Y-113953808D01*
X122834843Y-113828989D01*
X122836442Y-113825588D01*
X122917706Y-113686125D01*
X123019527Y-113572422D01*
X123145538Y-113482889D01*
X123299374Y-113415934D01*
X123484667Y-113369969D01*
X123705052Y-113343401D01*
X123964163Y-113334640D01*
X123971338Y-113334630D01*
X124091915Y-113334911D01*
X124176150Y-113336993D01*
X124232629Y-113342204D01*
X124269932Y-113351872D01*
X124296645Y-113367324D01*
X124321350Y-113389887D01*
X124377016Y-113445553D01*
X124377016Y-114067186D01*
X124376965Y-114190947D01*
X124376512Y-114349221D01*
X124375271Y-114471184D01*
X124374152Y-114513508D01*
X124372862Y-114562339D01*
X124368906Y-114628188D01*
%TD*%
M02*
