%TF.GenerationSoftware,KiCad,Pcbnew,(6.0.7)*%
%TF.CreationDate,2023-03-20T18:09:00+01:00*%
%TF.ProjectId,BLDC_driver_small,424c4443-5f64-4726-9976-65725f736d61,1*%
%TF.SameCoordinates,Original*%
%TF.FileFunction,Copper,L6,Bot*%
%TF.FilePolarity,Positive*%
%FSLAX46Y46*%
G04 Gerber Fmt 4.6, Leading zero omitted, Abs format (unit mm)*
G04 Created by KiCad (PCBNEW (6.0.7)) date 2023-03-20 18:09:00*
%MOMM*%
%LPD*%
G01*
G04 APERTURE LIST*
%TA.AperFunction,ComponentPad*%
%ADD10R,1.700000X1.700000*%
%TD*%
%TA.AperFunction,ComponentPad*%
%ADD11O,1.700000X1.700000*%
%TD*%
%TA.AperFunction,ComponentPad*%
%ADD12R,1.980000X3.960000*%
%TD*%
%TA.AperFunction,ComponentPad*%
%ADD13O,1.980000X3.960000*%
%TD*%
%TA.AperFunction,ComponentPad*%
%ADD14R,3.960000X1.980000*%
%TD*%
%TA.AperFunction,ComponentPad*%
%ADD15O,3.960000X1.980000*%
%TD*%
%TA.AperFunction,ViaPad*%
%ADD16C,0.700000*%
%TD*%
%TA.AperFunction,ViaPad*%
%ADD17C,0.600000*%
%TD*%
%TA.AperFunction,ViaPad*%
%ADD18C,0.560000*%
%TD*%
%TA.AperFunction,Conductor*%
%ADD19C,0.203200*%
%TD*%
%TA.AperFunction,Conductor*%
%ADD20C,0.254000*%
%TD*%
%TA.AperFunction,Conductor*%
%ADD21C,0.508000*%
%TD*%
G04 APERTURE END LIST*
D10*
%TO.P,J3,1,Pin_1*%
%TO.N,+3V3*%
X147175000Y-111725000D03*
D11*
%TO.P,J3,2,Pin_2*%
%TO.N,/SWD_{IO}*%
X144635000Y-111725000D03*
%TO.P,J3,3,Pin_3*%
%TO.N,GND*%
X147175000Y-109185000D03*
%TO.P,J3,4,Pin_4*%
%TO.N,/SWD_{CLK}*%
X144635000Y-109185000D03*
%TO.P,J3,5,Pin_5*%
%TO.N,GND*%
X147175000Y-106645000D03*
%TO.P,J3,6,Pin_6*%
%TO.N,unconnected-(J3-Pad6)*%
X144635000Y-106645000D03*
%TO.P,J3,7,Pin_7*%
%TO.N,unconnected-(J3-Pad7)*%
X147175000Y-104105000D03*
%TO.P,J3,8,Pin_8*%
%TO.N,unconnected-(J3-Pad8)*%
X144635000Y-104105000D03*
%TO.P,J3,9,Pin_9*%
%TO.N,GND*%
X147175000Y-101565000D03*
%TO.P,J3,10,Pin_10*%
%TO.N,/NRST*%
X144635000Y-101565000D03*
%TD*%
D10*
%TO.P,J4,1,Pin_1*%
%TO.N,GND*%
X140990000Y-117500000D03*
D11*
%TO.P,J4,2,Pin_2*%
%TO.N,+3V3*%
X138450000Y-117500000D03*
%TO.P,J4,3,Pin_3*%
%TO.N,/I2C_{SCL}*%
X135910000Y-117500000D03*
%TO.P,J4,4,Pin_4*%
%TO.N,/I2C_{SDA}*%
X133370000Y-117500000D03*
%TD*%
D12*
%TO.P,J1,1,Pin_1*%
%TO.N,/V_{pwr}*%
X107365000Y-112900000D03*
D13*
%TO.P,J1,2,Pin_2*%
%TO.N,GNDREF*%
X102365000Y-112900000D03*
%TD*%
D14*
%TO.P,J2,1,Pin_1*%
%TO.N,/OUT_{U}*%
X105510000Y-88695000D03*
D15*
%TO.P,J2,2,Pin_2*%
%TO.N,/OUT_{V}*%
X105510000Y-83695000D03*
%TO.P,J2,3,Pin_3*%
%TO.N,/OUT_{W}*%
X105510000Y-78695000D03*
%TD*%
D16*
%TO.N,+3V3*%
X129800000Y-72950000D03*
X146950000Y-93050000D03*
X123850000Y-104200000D03*
D17*
X128400000Y-111250000D03*
D16*
X144399000Y-94107000D03*
X143050000Y-91100000D03*
X145288000Y-94996000D03*
X125000000Y-105300000D03*
D17*
X122350000Y-106550000D03*
D16*
%TO.N,GND*%
X125375000Y-100400000D03*
D17*
X125600000Y-75050000D03*
D16*
X123850000Y-110000000D03*
X139000000Y-107500000D03*
X125850000Y-115800000D03*
D17*
X120950000Y-97200000D03*
D16*
X146250000Y-90950000D03*
X145600000Y-75700000D03*
X139900000Y-107500000D03*
X134550000Y-90350000D03*
X146500000Y-75700000D03*
X128725000Y-95600000D03*
X131850000Y-102800000D03*
X137650000Y-72150000D03*
X124650000Y-82450000D03*
D18*
X125250000Y-90600000D03*
D17*
X132250000Y-110050000D03*
D16*
X138550000Y-73050000D03*
X146500000Y-76600000D03*
X129175000Y-94050000D03*
X139000000Y-106600000D03*
X131325000Y-90200000D03*
D17*
X120950000Y-99800000D03*
D16*
X143275000Y-96800000D03*
X128750000Y-105950000D03*
X124550000Y-101525000D03*
D17*
X131572000Y-74803000D03*
D16*
X139900000Y-106600000D03*
X133800000Y-100550000D03*
D17*
X134239000Y-72136000D03*
X122400000Y-111250000D03*
D16*
X126750000Y-115800000D03*
X146250000Y-90050000D03*
X147150000Y-90950000D03*
D17*
X120950000Y-98500000D03*
D16*
X125850000Y-116700000D03*
D17*
X120950000Y-95900000D03*
D16*
X126450000Y-79250000D03*
X145600000Y-76600000D03*
X137650000Y-73050000D03*
X144375000Y-96800000D03*
X130875000Y-91850000D03*
X126750000Y-116700000D03*
X147150000Y-90050000D03*
D17*
X142113000Y-72136000D03*
D16*
X139900000Y-112100000D03*
X138550000Y-72150000D03*
X139000000Y-113000000D03*
X139000000Y-112100000D03*
X139900000Y-113000000D03*
D17*
%TO.N,+3.3VA*%
X134175000Y-83225000D03*
D16*
X127950000Y-100800000D03*
X130950000Y-100850000D03*
D17*
X143350000Y-79600000D03*
X142500000Y-80100000D03*
X133300000Y-96050000D03*
%TO.N,/NRST*%
X135509000Y-91262200D03*
D18*
%TO.N,/SENSE_{U}+*%
X129900000Y-86750000D03*
D17*
X120200000Y-86750000D03*
D18*
%TO.N,/SENSE_{V}+*%
X129890000Y-82519000D03*
D17*
X116050000Y-86750000D03*
D18*
%TO.N,/SENSE_{W}+*%
X146550000Y-82600000D03*
D17*
X120900000Y-77050000D03*
D18*
%TO.N,/PWM_{U}*%
X124700000Y-84000000D03*
X140400000Y-97575000D03*
X133775000Y-98875000D03*
X117150000Y-85800000D03*
%TO.N,/PWM_{W}*%
X125800000Y-84000000D03*
X119950000Y-85150000D03*
X139875000Y-96925000D03*
X134375000Y-98225000D03*
%TO.N,/PWM_{V}*%
X127750000Y-77950000D03*
X119950000Y-77600000D03*
X134400000Y-96600000D03*
X140400000Y-96300000D03*
%TO.N,/SWD_{IO}*%
X143050000Y-93000000D03*
%TO.N,/I2C_{SDA}*%
X140100000Y-93650000D03*
%TO.N,/OUT_{W}*%
X116850000Y-80850000D03*
X116250000Y-80250000D03*
X116850000Y-80250000D03*
X116250000Y-80850000D03*
%TO.N,/OUT_{V}*%
X116250000Y-83050000D03*
X116850000Y-83050000D03*
X116250000Y-83650000D03*
X116850000Y-83650000D03*
%TO.N,/OUT_{U}*%
X121650000Y-88400000D03*
X121650000Y-89000000D03*
X122250000Y-89000000D03*
X122250000Y-88400000D03*
%TO.N,/ENABLE*%
X119200000Y-85500000D03*
X119523900Y-78200000D03*
X125650000Y-81250000D03*
D17*
%TO.N,/V_{CP}*%
X117700000Y-84300000D03*
X117700000Y-78200000D03*
D16*
%TO.N,GNDPWR*%
X115200000Y-90850000D03*
X118550000Y-90850000D03*
D17*
X120300000Y-81700000D03*
D16*
X106000000Y-93000000D03*
X107550000Y-106300000D03*
D17*
X121100000Y-82500000D03*
D16*
X114850000Y-102600000D03*
X101900000Y-89150000D03*
X102950000Y-97100000D03*
X114700000Y-98350000D03*
X102050000Y-100900000D03*
X116100000Y-72000000D03*
X115600000Y-96600000D03*
X116050000Y-90850000D03*
X109500000Y-86200000D03*
X101000000Y-83250000D03*
X107550000Y-107200000D03*
X114700000Y-96600000D03*
X118200000Y-107200000D03*
X101900000Y-88250000D03*
X120250000Y-90850000D03*
X105100000Y-92100000D03*
X101000000Y-79150000D03*
X118200000Y-106300000D03*
X120900000Y-72950000D03*
D17*
X119500000Y-80900000D03*
D16*
X106650000Y-106300000D03*
X115600000Y-97450000D03*
X115600000Y-99200000D03*
D17*
X121100000Y-81700000D03*
D16*
X101000000Y-89150000D03*
D17*
X120300000Y-80900000D03*
D16*
X119400000Y-90850000D03*
X109500000Y-81200000D03*
X114700000Y-99200000D03*
D17*
X119500000Y-82500000D03*
D16*
X119100000Y-107200000D03*
X108500000Y-72900000D03*
X115200000Y-84325000D03*
X103850000Y-100900000D03*
X117000000Y-72900000D03*
X101900000Y-79150000D03*
X120050000Y-72950000D03*
X107600000Y-72900000D03*
X114325000Y-80400000D03*
X103850000Y-97100000D03*
D17*
X121100000Y-80900000D03*
D16*
X101150000Y-97100000D03*
X101900000Y-83250000D03*
X116100000Y-72900000D03*
X114700000Y-97450000D03*
X116900000Y-90850000D03*
X101900000Y-84150000D03*
X102050000Y-97100000D03*
X119100000Y-106300000D03*
X101000000Y-78250000D03*
X106650000Y-107200000D03*
X105100000Y-93000000D03*
X107600000Y-72000000D03*
X101150000Y-100900000D03*
D17*
X120300000Y-82500000D03*
X119500000Y-81700000D03*
D16*
X102950000Y-100900000D03*
X121750000Y-72950000D03*
X106000000Y-92100000D03*
X101000000Y-84150000D03*
X101900000Y-78250000D03*
X117000000Y-72000000D03*
X115600000Y-98350000D03*
X108500000Y-72000000D03*
X101000000Y-88250000D03*
D17*
%TO.N,GNDA*%
X119950000Y-97200000D03*
D16*
X132475000Y-95000000D03*
X134700000Y-80600000D03*
X134600000Y-85900000D03*
X130850000Y-99800000D03*
X131000000Y-86300000D03*
X125600000Y-76350000D03*
X131953000Y-88011000D03*
X139900000Y-87300000D03*
X136017000Y-89357200D03*
D17*
X119950000Y-95900000D03*
D16*
X139750000Y-84800000D03*
X128000000Y-102025000D03*
X131125000Y-82700000D03*
X145175000Y-80475000D03*
X130900000Y-78700000D03*
X128050000Y-99800000D03*
X137300000Y-87300000D03*
X146050000Y-87630000D03*
X131125000Y-83750000D03*
X145175000Y-81575000D03*
D17*
X119950000Y-98500000D03*
X119950000Y-99800000D03*
D16*
X139900000Y-80850000D03*
%TO.N,GNDREF*%
X112400000Y-111200000D03*
X104500000Y-117400000D03*
X113700000Y-116500000D03*
X114600000Y-117400000D03*
X105400000Y-116500000D03*
X104500000Y-116500000D03*
X113700000Y-117400000D03*
X105400000Y-117400000D03*
X114600000Y-116500000D03*
D18*
%TO.N,/SENSE_{U}-*%
X129921000Y-87884000D03*
D17*
X120250000Y-92050000D03*
D18*
%TO.N,/SENSE_{V}-*%
X131300000Y-80600000D03*
D17*
X116850000Y-92050000D03*
%TO.N,/SENSE_{W}-*%
X121700000Y-71700000D03*
D18*
X145325000Y-84725000D03*
%TD*%
D19*
%TO.N,/SENSE_{U}+*%
X129900000Y-86750000D02*
X120200000Y-86750000D01*
%TO.N,/SENSE_{V}+*%
X119601600Y-86198400D02*
X119050000Y-86750000D01*
X120428481Y-86198400D02*
X119601600Y-86198400D01*
X126200000Y-86200000D02*
X120430081Y-86200000D01*
X129881000Y-82519000D02*
X126200000Y-86200000D01*
X119050000Y-86750000D02*
X116050000Y-86750000D01*
X120430081Y-86200000D02*
X120428481Y-86198400D01*
X129890000Y-82519000D02*
X129881000Y-82519000D01*
%TO.N,/SENSE_{W}+*%
X146550000Y-82600000D02*
X146550000Y-79750000D01*
X143850000Y-77050000D02*
X120900000Y-77050000D01*
X146550000Y-79750000D02*
X143850000Y-77050000D01*
%TO.N,/PWM_{U}*%
X117950000Y-85800000D02*
X117150000Y-85800000D01*
X124700000Y-84000000D02*
X124200000Y-84500000D01*
X138550000Y-98875000D02*
X133775000Y-98875000D01*
X124200000Y-84500000D02*
X119250000Y-84500000D01*
X140400000Y-97575000D02*
X139850000Y-97575000D01*
X139850000Y-97575000D02*
X138550000Y-98875000D01*
X119250000Y-84500000D02*
X117950000Y-85800000D01*
%TO.N,/PWM_{W}*%
X120100000Y-85000000D02*
X119950000Y-85150000D01*
X139425000Y-96925000D02*
X139875000Y-96925000D01*
X124800000Y-85000000D02*
X120100000Y-85000000D01*
X134375000Y-98225000D02*
X138125000Y-98225000D01*
X138125000Y-98225000D02*
X139425000Y-96925000D01*
X125800000Y-84000000D02*
X124800000Y-85000000D01*
%TO.N,/PWM_{V}*%
X119950000Y-77600000D02*
X119951600Y-77601600D01*
X119951600Y-77601600D02*
X124248400Y-77601600D01*
X127400000Y-77600000D02*
X127750000Y-77950000D01*
X124250000Y-77600000D02*
X127400000Y-77600000D01*
X124248400Y-77601600D02*
X124250000Y-77600000D01*
X134700000Y-96300000D02*
X140400000Y-96300000D01*
X134400000Y-96600000D02*
X134700000Y-96300000D01*
D20*
%TO.N,/SWD_{IO}*%
X145950000Y-97050000D02*
X145950000Y-110410000D01*
X143050000Y-94150000D02*
X145950000Y-97050000D01*
X143050000Y-93000000D02*
X143050000Y-94150000D01*
X145950000Y-110410000D02*
X144635000Y-111725000D01*
%TO.N,/I2C_{SDA}*%
X140100000Y-93650000D02*
X141450000Y-95000000D01*
X133370000Y-107330000D02*
X133370000Y-117500000D01*
X141450000Y-95000000D02*
X141450000Y-99250000D01*
X141450000Y-99250000D02*
X133370000Y-107330000D01*
D19*
%TO.N,/ENABLE*%
X125650000Y-80300000D02*
X123550000Y-78200000D01*
X126800000Y-82400000D02*
X126800000Y-84000000D01*
X120344725Y-85500000D02*
X120168125Y-85676600D01*
X123550000Y-78200000D02*
X119523900Y-78200000D01*
X125300000Y-85500000D02*
X120344725Y-85500000D01*
X125650000Y-81250000D02*
X125650000Y-80300000D01*
X120168125Y-85676600D02*
X119376600Y-85676600D01*
X119376600Y-85676600D02*
X119200000Y-85500000D01*
X126800000Y-84000000D02*
X125300000Y-85500000D01*
X125650000Y-81250000D02*
X126800000Y-82400000D01*
D21*
%TO.N,/V_{CP}*%
X117700000Y-78200000D02*
X117700000Y-84300000D01*
D19*
%TO.N,/SENSE_{U}-*%
X120250000Y-92050000D02*
X125755000Y-92050000D01*
X125755000Y-92050000D02*
X129921000Y-87884000D01*
%TO.N,/SENSE_{V}-*%
X117525000Y-92725000D02*
X126096000Y-92725000D01*
X126096000Y-92725000D02*
X131776600Y-87044400D01*
X131776600Y-81076600D02*
X131300000Y-80600000D01*
X117525000Y-92725000D02*
X116850000Y-92050000D01*
X131776600Y-87044400D02*
X131776600Y-81076600D01*
%TO.N,/SENSE_{W}-*%
X124275000Y-71700000D02*
X129175000Y-76600000D01*
X146400000Y-84725000D02*
X145325000Y-84725000D01*
X144025000Y-76600000D02*
X147350000Y-79925000D01*
X121700000Y-71700000D02*
X124275000Y-71700000D01*
X147350000Y-83775000D02*
X146400000Y-84725000D01*
X147350000Y-79925000D02*
X147350000Y-83775000D01*
X129175000Y-76600000D02*
X144025000Y-76600000D01*
%TD*%
%TA.AperFunction,Conductor*%
%TO.N,GNDREF*%
G36*
X119959191Y-108324407D02*
G01*
X119995155Y-108373907D01*
X120000000Y-108404500D01*
X120000000Y-119100500D01*
X119981093Y-119158691D01*
X119931593Y-119194655D01*
X119901000Y-119199500D01*
X99299500Y-119199500D01*
X99241309Y-119180593D01*
X99205345Y-119131093D01*
X99200500Y-119100500D01*
X99200500Y-114899748D01*
X106174500Y-114899748D01*
X106186133Y-114958231D01*
X106230448Y-115024552D01*
X106296769Y-115068867D01*
X106306332Y-115070769D01*
X106306334Y-115070770D01*
X106329005Y-115075279D01*
X106355252Y-115080500D01*
X108374748Y-115080500D01*
X108400995Y-115075279D01*
X108423666Y-115070770D01*
X108423668Y-115070769D01*
X108433231Y-115068867D01*
X108499552Y-115024552D01*
X108543867Y-114958231D01*
X108555500Y-114899748D01*
X108555500Y-110900252D01*
X108543867Y-110841769D01*
X108499552Y-110775448D01*
X108433231Y-110731133D01*
X108423668Y-110729231D01*
X108423666Y-110729230D01*
X108400995Y-110724721D01*
X108374748Y-110719500D01*
X106355252Y-110719500D01*
X106329005Y-110724721D01*
X106306334Y-110729230D01*
X106306332Y-110729231D01*
X106296769Y-110731133D01*
X106230448Y-110775448D01*
X106186133Y-110841769D01*
X106174500Y-110900252D01*
X106174500Y-114899748D01*
X99200500Y-114899748D01*
X99200500Y-108404500D01*
X99219407Y-108346309D01*
X99268907Y-108310345D01*
X99299500Y-108305500D01*
X119901000Y-108305500D01*
X119959191Y-108324407D01*
G37*
%TD.AperFunction*%
%TD*%
%TA.AperFunction,Conductor*%
%TO.N,GNDA*%
G36*
X143742049Y-77371007D02*
G01*
X143753862Y-77381096D01*
X146218904Y-79846138D01*
X146246681Y-79900655D01*
X146247900Y-79916142D01*
X146247900Y-82178679D01*
X146228993Y-82236870D01*
X146223104Y-82244213D01*
X146148932Y-82328197D01*
X146148930Y-82328199D01*
X146144265Y-82333482D01*
X146085770Y-82458071D01*
X146084685Y-82465042D01*
X146084684Y-82465044D01*
X146076283Y-82519000D01*
X146064595Y-82594069D01*
X146082441Y-82730545D01*
X146085282Y-82737001D01*
X146085282Y-82737002D01*
X146134698Y-82849307D01*
X146137874Y-82856526D01*
X146142411Y-82861923D01*
X146142412Y-82861925D01*
X146165209Y-82889045D01*
X146226438Y-82961885D01*
X146232309Y-82965793D01*
X146232310Y-82965794D01*
X146249430Y-82977190D01*
X146341012Y-83038152D01*
X146347739Y-83040254D01*
X146347742Y-83040255D01*
X146465655Y-83077093D01*
X146465656Y-83077093D01*
X146472387Y-83079196D01*
X146541194Y-83080457D01*
X146602947Y-83081590D01*
X146602949Y-83081590D01*
X146610001Y-83081719D01*
X146616804Y-83079864D01*
X146616806Y-83079864D01*
X146689145Y-83060142D01*
X146742792Y-83045516D01*
X146860084Y-82973498D01*
X146866536Y-82966370D01*
X146875503Y-82956464D01*
X146928572Y-82926011D01*
X146989405Y-82932566D01*
X147034767Y-82973627D01*
X147047900Y-83022901D01*
X147047900Y-83608858D01*
X147028993Y-83667049D01*
X147018904Y-83678862D01*
X146303862Y-84393904D01*
X146249345Y-84421681D01*
X146233858Y-84422900D01*
X145744391Y-84422900D01*
X145686200Y-84403993D01*
X145669393Y-84388524D01*
X145644117Y-84359189D01*
X145638200Y-84355354D01*
X145638198Y-84355352D01*
X145534541Y-84288166D01*
X145534539Y-84288165D01*
X145528619Y-84284328D01*
X145396753Y-84244891D01*
X145316888Y-84244403D01*
X145266169Y-84244093D01*
X145266168Y-84244093D01*
X145259118Y-84244050D01*
X145252341Y-84245987D01*
X145252340Y-84245987D01*
X145133560Y-84279935D01*
X145133559Y-84279936D01*
X145126780Y-84281873D01*
X145120818Y-84285635D01*
X145120815Y-84285636D01*
X145078470Y-84312354D01*
X145010376Y-84355318D01*
X145005707Y-84360605D01*
X144923932Y-84453197D01*
X144923930Y-84453199D01*
X144919265Y-84458482D01*
X144860770Y-84583071D01*
X144839595Y-84719069D01*
X144857441Y-84855545D01*
X144860282Y-84862001D01*
X144860282Y-84862002D01*
X144902290Y-84957471D01*
X144912874Y-84981526D01*
X144917411Y-84986923D01*
X144917412Y-84986925D01*
X144952957Y-85029210D01*
X145001438Y-85086885D01*
X145007309Y-85090793D01*
X145007310Y-85090794D01*
X145038778Y-85111741D01*
X145116012Y-85163152D01*
X145122739Y-85165254D01*
X145122742Y-85165255D01*
X145240655Y-85202093D01*
X145240656Y-85202093D01*
X145247387Y-85204196D01*
X145316194Y-85205458D01*
X145377947Y-85206590D01*
X145377949Y-85206590D01*
X145385001Y-85206719D01*
X145391804Y-85204864D01*
X145391806Y-85204864D01*
X145464145Y-85185142D01*
X145517792Y-85170516D01*
X145635084Y-85098498D01*
X145645596Y-85086885D01*
X145670236Y-85059663D01*
X145723304Y-85029210D01*
X145743633Y-85027100D01*
X146346180Y-85027100D01*
X146350359Y-85027407D01*
X146355104Y-85029036D01*
X146404810Y-85027170D01*
X146408523Y-85027100D01*
X146428097Y-85027100D01*
X146432535Y-85026274D01*
X146437801Y-85025932D01*
X146454369Y-85025310D01*
X146467566Y-85024814D01*
X146475962Y-85021207D01*
X146475965Y-85021206D01*
X146478254Y-85020222D01*
X146499206Y-85013857D01*
X146501649Y-85013402D01*
X146501653Y-85013400D01*
X146510639Y-85011727D01*
X146533469Y-84997654D01*
X146546331Y-84990974D01*
X146564545Y-84983149D01*
X146564548Y-84983147D01*
X146570968Y-84980389D01*
X146575877Y-84976357D01*
X146580310Y-84971924D01*
X146598367Y-84957652D01*
X146598660Y-84957471D01*
X146606442Y-84952674D01*
X146611972Y-84945401D01*
X146611976Y-84945398D01*
X146624226Y-84929288D01*
X146633026Y-84919208D01*
X147468196Y-84084038D01*
X147522713Y-84056261D01*
X147583145Y-84065832D01*
X147626410Y-84109097D01*
X147637200Y-84154042D01*
X147637200Y-88548000D01*
X147618293Y-88606191D01*
X147568793Y-88642155D01*
X147538200Y-88647000D01*
X141465000Y-88647000D01*
X139287000Y-90751000D01*
X139287040Y-90761249D01*
X139305848Y-95593070D01*
X139287168Y-95651334D01*
X139279595Y-95660605D01*
X138997646Y-95966050D01*
X138944283Y-95995984D01*
X138924900Y-95997900D01*
X135087000Y-95997900D01*
X135028809Y-95978993D01*
X134992845Y-95929493D01*
X134988000Y-95898900D01*
X134988000Y-95350000D01*
X135006907Y-95291809D01*
X135056407Y-95255845D01*
X135087000Y-95251000D01*
X137020000Y-95251000D01*
X137287000Y-95001000D01*
X137274000Y-91568000D01*
X134353000Y-88647000D01*
X130840242Y-88647000D01*
X130782051Y-88628093D01*
X130746087Y-88578593D01*
X130746087Y-88517407D01*
X130770238Y-88477996D01*
X131952163Y-87296071D01*
X131955333Y-87293335D01*
X131959840Y-87291132D01*
X131993667Y-87254666D01*
X131996244Y-87251990D01*
X132010085Y-87238149D01*
X132012642Y-87234421D01*
X132016105Y-87230477D01*
X132030163Y-87215323D01*
X132030164Y-87215322D01*
X132036377Y-87208624D01*
X132039763Y-87200138D01*
X132039765Y-87200134D01*
X132040687Y-87197822D01*
X132051000Y-87178506D01*
X132057581Y-87168913D01*
X132063772Y-87142823D01*
X132068145Y-87128997D01*
X132075491Y-87110585D01*
X132075491Y-87110583D01*
X132078080Y-87104095D01*
X132078700Y-87097772D01*
X132078700Y-87091509D01*
X132081375Y-87068650D01*
X132081457Y-87068306D01*
X132081457Y-87068304D01*
X132083567Y-87059413D01*
X132079604Y-87030292D01*
X132078700Y-87016943D01*
X132078700Y-83218823D01*
X133669391Y-83218823D01*
X133670306Y-83225820D01*
X133670306Y-83225821D01*
X133686500Y-83349662D01*
X133687980Y-83360979D01*
X133690821Y-83367435D01*
X133690821Y-83367436D01*
X133698586Y-83385082D01*
X133745720Y-83492203D01*
X133768994Y-83519891D01*
X133833431Y-83596549D01*
X133833434Y-83596551D01*
X133837970Y-83601948D01*
X133843841Y-83605856D01*
X133843842Y-83605857D01*
X133856143Y-83614045D01*
X133957313Y-83681390D01*
X134057920Y-83712821D01*
X134087425Y-83722039D01*
X134087426Y-83722039D01*
X134094157Y-83724142D01*
X134165828Y-83725456D01*
X134230445Y-83726641D01*
X134230447Y-83726641D01*
X134237499Y-83726770D01*
X134244302Y-83724915D01*
X134244304Y-83724915D01*
X134319503Y-83704413D01*
X134375817Y-83689060D01*
X134497991Y-83614045D01*
X134505403Y-83605857D01*
X134589468Y-83512982D01*
X134594200Y-83507754D01*
X134656710Y-83378733D01*
X134660875Y-83353982D01*
X134679862Y-83241124D01*
X134679862Y-83241120D01*
X134680496Y-83237354D01*
X134680647Y-83225000D01*
X134660323Y-83083082D01*
X134635391Y-83028246D01*
X134603905Y-82958996D01*
X134603904Y-82958995D01*
X134600984Y-82952572D01*
X134507400Y-82843963D01*
X134387095Y-82765985D01*
X134249739Y-82724907D01*
X134166497Y-82724398D01*
X134113427Y-82724074D01*
X134113426Y-82724074D01*
X134106376Y-82724031D01*
X134099599Y-82725968D01*
X134099598Y-82725968D01*
X133975309Y-82761490D01*
X133975307Y-82761491D01*
X133968529Y-82763428D01*
X133847280Y-82839930D01*
X133842613Y-82845214D01*
X133842611Y-82845216D01*
X133757044Y-82942103D01*
X133757042Y-82942105D01*
X133752377Y-82947388D01*
X133749381Y-82953770D01*
X133749380Y-82953771D01*
X133744549Y-82964060D01*
X133691447Y-83077163D01*
X133669391Y-83218823D01*
X132078700Y-83218823D01*
X132078700Y-81130416D01*
X132079007Y-81126240D01*
X132080636Y-81121495D01*
X132078770Y-81071790D01*
X132078700Y-81068077D01*
X132078700Y-81048503D01*
X132077874Y-81044065D01*
X132077532Y-81038799D01*
X132076757Y-81018170D01*
X132076414Y-81009034D01*
X132072807Y-81000638D01*
X132072806Y-81000635D01*
X132071822Y-80998346D01*
X132065457Y-80977394D01*
X132065002Y-80974951D01*
X132065000Y-80974947D01*
X132063327Y-80965961D01*
X132049254Y-80943131D01*
X132042574Y-80930269D01*
X132034749Y-80912055D01*
X132034747Y-80912052D01*
X132031989Y-80905632D01*
X132027957Y-80900723D01*
X132023524Y-80896290D01*
X132009252Y-80878233D01*
X132009071Y-80877940D01*
X132004274Y-80870158D01*
X131997001Y-80864628D01*
X131996998Y-80864624D01*
X131980888Y-80852374D01*
X131970808Y-80843574D01*
X131813958Y-80686724D01*
X131786181Y-80632207D01*
X131785492Y-80611862D01*
X131785296Y-80611860D01*
X131785394Y-80603826D01*
X131785441Y-80600000D01*
X131765929Y-80463753D01*
X131729101Y-80382754D01*
X131711882Y-80344883D01*
X131711881Y-80344882D01*
X131708961Y-80338459D01*
X131619117Y-80234189D01*
X131613200Y-80230354D01*
X131613198Y-80230352D01*
X131509541Y-80163166D01*
X131509539Y-80163165D01*
X131503619Y-80159328D01*
X131371753Y-80119891D01*
X131291888Y-80119403D01*
X131241169Y-80119093D01*
X131241168Y-80119093D01*
X131234118Y-80119050D01*
X131227341Y-80120987D01*
X131227340Y-80120987D01*
X131108560Y-80154935D01*
X131108559Y-80154936D01*
X131101780Y-80156873D01*
X131095818Y-80160635D01*
X131095815Y-80160636D01*
X131050289Y-80189361D01*
X130985376Y-80230318D01*
X130953426Y-80266495D01*
X130898932Y-80328197D01*
X130898930Y-80328199D01*
X130894265Y-80333482D01*
X130891269Y-80339864D01*
X130891268Y-80339865D01*
X130886259Y-80350533D01*
X130835770Y-80458071D01*
X130834685Y-80465042D01*
X130834684Y-80465044D01*
X130826917Y-80514930D01*
X130814595Y-80594069D01*
X130832441Y-80730545D01*
X130835282Y-80737001D01*
X130835282Y-80737002D01*
X130884261Y-80848314D01*
X130887874Y-80856526D01*
X130892411Y-80861923D01*
X130892412Y-80861925D01*
X130921299Y-80896290D01*
X130976438Y-80961885D01*
X131091012Y-81038152D01*
X131097739Y-81040254D01*
X131097742Y-81040255D01*
X131215655Y-81077093D01*
X131215656Y-81077093D01*
X131222387Y-81079196D01*
X131274011Y-81080142D01*
X131314440Y-81080884D01*
X131372274Y-81100855D01*
X131382629Y-81109863D01*
X131445504Y-81172738D01*
X131473281Y-81227255D01*
X131474500Y-81242742D01*
X131474500Y-86878258D01*
X131455593Y-86936449D01*
X131445504Y-86948262D01*
X130559331Y-87834435D01*
X130504814Y-87862212D01*
X130444382Y-87852641D01*
X130401117Y-87809376D01*
X130391327Y-87778464D01*
X130387930Y-87754738D01*
X130387929Y-87754733D01*
X130386929Y-87747753D01*
X130329961Y-87622459D01*
X130240117Y-87518189D01*
X130234200Y-87514354D01*
X130234198Y-87514352D01*
X130130541Y-87447166D01*
X130130539Y-87447165D01*
X130124619Y-87443328D01*
X130039291Y-87417809D01*
X129988958Y-87383021D01*
X129968685Y-87325292D01*
X129986217Y-87266672D01*
X129997252Y-87253361D01*
X129998608Y-87251990D01*
X130015854Y-87234543D01*
X130021581Y-87228750D01*
X130065946Y-87202835D01*
X130085992Y-87197370D01*
X130085993Y-87197370D01*
X130092792Y-87195516D01*
X130210084Y-87123498D01*
X130259730Y-87068650D01*
X130297717Y-87026683D01*
X130297717Y-87026682D01*
X130302449Y-87021455D01*
X130362461Y-86897590D01*
X130363631Y-86890637D01*
X130363632Y-86890633D01*
X130384662Y-86765630D01*
X130384662Y-86765627D01*
X130385296Y-86761860D01*
X130385441Y-86750000D01*
X130365929Y-86613753D01*
X130308961Y-86488459D01*
X130245178Y-86414434D01*
X130223722Y-86389533D01*
X130223721Y-86389532D01*
X130219117Y-86384189D01*
X130213200Y-86380354D01*
X130213198Y-86380352D01*
X130109541Y-86313166D01*
X130109539Y-86313165D01*
X130103619Y-86309328D01*
X129971753Y-86269891D01*
X129891888Y-86269403D01*
X129841169Y-86269093D01*
X129841168Y-86269093D01*
X129834118Y-86269050D01*
X129827341Y-86270987D01*
X129827340Y-86270987D01*
X129708560Y-86304935D01*
X129708559Y-86304936D01*
X129701780Y-86306873D01*
X129695818Y-86310635D01*
X129695815Y-86310636D01*
X129609454Y-86365126D01*
X129585376Y-86380318D01*
X129580709Y-86385602D01*
X129580707Y-86385604D01*
X129555246Y-86414434D01*
X129502554Y-86445534D01*
X129481042Y-86447900D01*
X126618342Y-86447900D01*
X126560151Y-86428993D01*
X126524187Y-86379493D01*
X126524187Y-86318307D01*
X126548338Y-86278896D01*
X129798987Y-83028246D01*
X129853504Y-83000469D01*
X129870804Y-82999267D01*
X129899331Y-82999790D01*
X129942947Y-83000590D01*
X129942949Y-83000590D01*
X129950001Y-83000719D01*
X129956804Y-82998864D01*
X129956806Y-82998864D01*
X130069037Y-82968266D01*
X130082792Y-82964516D01*
X130200084Y-82892498D01*
X130219131Y-82871455D01*
X130287717Y-82795683D01*
X130287717Y-82795682D01*
X130292449Y-82790455D01*
X130352461Y-82666590D01*
X130353631Y-82659637D01*
X130353632Y-82659633D01*
X130374662Y-82534630D01*
X130374662Y-82534627D01*
X130375296Y-82530860D01*
X130375441Y-82519000D01*
X130355929Y-82382753D01*
X130298961Y-82257459D01*
X130242732Y-82192201D01*
X130213722Y-82158533D01*
X130213721Y-82158532D01*
X130209117Y-82153189D01*
X130203200Y-82149354D01*
X130203198Y-82149352D01*
X130099541Y-82082166D01*
X130099539Y-82082165D01*
X130093619Y-82078328D01*
X129961753Y-82038891D01*
X129881888Y-82038403D01*
X129831169Y-82038093D01*
X129831168Y-82038093D01*
X129824118Y-82038050D01*
X129817341Y-82039987D01*
X129817340Y-82039987D01*
X129698560Y-82073935D01*
X129698559Y-82073936D01*
X129691780Y-82075873D01*
X129685818Y-82079635D01*
X129685815Y-82079636D01*
X129575376Y-82149318D01*
X129573722Y-82146697D01*
X129529337Y-82165003D01*
X129469864Y-82150628D01*
X129430198Y-82104042D01*
X129422721Y-82066763D01*
X129413415Y-80093823D01*
X141994391Y-80093823D01*
X141995306Y-80100820D01*
X141995306Y-80100821D01*
X142002382Y-80154935D01*
X142012980Y-80235979D01*
X142015821Y-80242435D01*
X142015821Y-80242436D01*
X142023586Y-80260082D01*
X142070720Y-80367203D01*
X142116845Y-80422076D01*
X142158431Y-80471549D01*
X142158434Y-80471551D01*
X142162970Y-80476948D01*
X142168841Y-80480856D01*
X142168842Y-80480857D01*
X142181143Y-80489045D01*
X142282313Y-80556390D01*
X142369031Y-80583482D01*
X142412425Y-80597039D01*
X142412426Y-80597039D01*
X142419157Y-80599142D01*
X142490828Y-80600456D01*
X142555445Y-80601641D01*
X142555447Y-80601641D01*
X142562499Y-80601770D01*
X142569302Y-80599915D01*
X142569304Y-80599915D01*
X142668623Y-80572837D01*
X142700817Y-80564060D01*
X142822991Y-80489045D01*
X142830403Y-80480857D01*
X142914468Y-80387982D01*
X142919200Y-80382754D01*
X142981710Y-80253733D01*
X142985650Y-80230318D01*
X143002028Y-80132966D01*
X143030328Y-80078719D01*
X143085108Y-80051466D01*
X143131671Y-80058444D01*
X143132313Y-80056390D01*
X143262425Y-80097039D01*
X143262426Y-80097039D01*
X143269157Y-80099142D01*
X143340828Y-80100456D01*
X143405445Y-80101641D01*
X143405447Y-80101641D01*
X143412499Y-80101770D01*
X143419302Y-80099915D01*
X143419304Y-80099915D01*
X143497049Y-80078719D01*
X143550817Y-80064060D01*
X143672991Y-79989045D01*
X143678027Y-79983482D01*
X143764468Y-79887982D01*
X143769200Y-79882754D01*
X143831710Y-79753733D01*
X143834610Y-79736499D01*
X143854862Y-79616124D01*
X143854862Y-79616120D01*
X143855496Y-79612354D01*
X143855647Y-79600000D01*
X143835323Y-79458082D01*
X143775984Y-79327572D01*
X143682400Y-79218963D01*
X143562095Y-79140985D01*
X143424739Y-79099907D01*
X143341497Y-79099398D01*
X143288427Y-79099074D01*
X143288426Y-79099074D01*
X143281376Y-79099031D01*
X143274599Y-79100968D01*
X143274598Y-79100968D01*
X143150309Y-79136490D01*
X143150307Y-79136491D01*
X143143529Y-79138428D01*
X143022280Y-79214930D01*
X143017613Y-79220214D01*
X143017611Y-79220216D01*
X142932044Y-79317103D01*
X142932042Y-79317105D01*
X142927377Y-79322388D01*
X142866447Y-79452163D01*
X142865362Y-79459134D01*
X142848695Y-79566179D01*
X142821061Y-79620768D01*
X142766617Y-79648688D01*
X142712504Y-79641250D01*
X142712095Y-79640985D01*
X142705339Y-79638965D01*
X142705338Y-79638964D01*
X142581500Y-79601929D01*
X142574739Y-79599907D01*
X142491497Y-79599398D01*
X142438427Y-79599074D01*
X142438426Y-79599074D01*
X142431376Y-79599031D01*
X142424599Y-79600968D01*
X142424598Y-79600968D01*
X142300309Y-79636490D01*
X142300307Y-79636491D01*
X142293529Y-79638428D01*
X142172280Y-79714930D01*
X142167613Y-79720214D01*
X142167611Y-79720216D01*
X142082044Y-79817103D01*
X142082042Y-79817105D01*
X142077377Y-79822388D01*
X142016447Y-79952163D01*
X142015362Y-79959132D01*
X142015361Y-79959135D01*
X142001193Y-80050133D01*
X141994391Y-80093823D01*
X129413415Y-80093823D01*
X129400951Y-77451567D01*
X129419584Y-77393288D01*
X129468914Y-77357091D01*
X129499950Y-77352100D01*
X143683858Y-77352100D01*
X143742049Y-77371007D01*
G37*
%TD.AperFunction*%
%TA.AperFunction,Conductor*%
G36*
X124167049Y-72021007D02*
G01*
X124178862Y-72031096D01*
X128726662Y-76578896D01*
X128754439Y-76633413D01*
X128744868Y-76693845D01*
X128701603Y-76737110D01*
X128656658Y-76747900D01*
X121345796Y-76747900D01*
X121287605Y-76728993D01*
X121270798Y-76713524D01*
X121237008Y-76674309D01*
X121237002Y-76674304D01*
X121232400Y-76668963D01*
X121112095Y-76590985D01*
X120974739Y-76549907D01*
X120891497Y-76549398D01*
X120838427Y-76549074D01*
X120838426Y-76549074D01*
X120831376Y-76549031D01*
X120824599Y-76550968D01*
X120824598Y-76550968D01*
X120700309Y-76586490D01*
X120700307Y-76586491D01*
X120693529Y-76588428D01*
X120572280Y-76664930D01*
X120567613Y-76670214D01*
X120567611Y-76670216D01*
X120482044Y-76767103D01*
X120482042Y-76767105D01*
X120477377Y-76772388D01*
X120416447Y-76902163D01*
X120415362Y-76909132D01*
X120415361Y-76909135D01*
X120402363Y-76992621D01*
X120394391Y-77043823D01*
X120395306Y-77050820D01*
X120395306Y-77050821D01*
X120405410Y-77128090D01*
X120394208Y-77188241D01*
X120349788Y-77230319D01*
X120289120Y-77238252D01*
X120253400Y-77224002D01*
X120159541Y-77163166D01*
X120159539Y-77163165D01*
X120153619Y-77159328D01*
X120021753Y-77119891D01*
X119941888Y-77119403D01*
X119891169Y-77119093D01*
X119891168Y-77119093D01*
X119884118Y-77119050D01*
X119877341Y-77120987D01*
X119877340Y-77120987D01*
X119758560Y-77154935D01*
X119758559Y-77154936D01*
X119751780Y-77156873D01*
X119745818Y-77160635D01*
X119745815Y-77160636D01*
X119635376Y-77230318D01*
X119634680Y-77229215D01*
X119584968Y-77249708D01*
X119577368Y-77250000D01*
X118549000Y-77250000D01*
X118490809Y-77231093D01*
X118454845Y-77181593D01*
X118450000Y-77151000D01*
X118450000Y-76199000D01*
X118468907Y-76140809D01*
X118518407Y-76104845D01*
X118549000Y-76100000D01*
X127800000Y-76100000D01*
X124000000Y-72250000D01*
X122100445Y-72250000D01*
X122042254Y-72231093D01*
X122006290Y-72181593D01*
X122006290Y-72120407D01*
X122027047Y-72084564D01*
X122072214Y-72034664D01*
X122125282Y-72004210D01*
X122145612Y-72002100D01*
X124108858Y-72002100D01*
X124167049Y-72021007D01*
G37*
%TD.AperFunction*%
%TD*%
%TA.AperFunction,Conductor*%
%TO.N,/OUT_{V}*%
G36*
X117109191Y-82668907D02*
G01*
X117145155Y-82718407D01*
X117150000Y-82749000D01*
X117150000Y-83801000D01*
X117131093Y-83859191D01*
X117081593Y-83895155D01*
X117051000Y-83900000D01*
X116049000Y-83900000D01*
X115990809Y-83881093D01*
X115954845Y-83831593D01*
X115950000Y-83801000D01*
X115950000Y-83700000D01*
X114600000Y-83700000D01*
X114600000Y-84651000D01*
X114581093Y-84709191D01*
X114531593Y-84745155D01*
X114501000Y-84750000D01*
X103549000Y-84750000D01*
X103490809Y-84731093D01*
X103454845Y-84681593D01*
X103450000Y-84651000D01*
X103450000Y-82749000D01*
X103468907Y-82690809D01*
X103518407Y-82654845D01*
X103549000Y-82650000D01*
X117051000Y-82650000D01*
X117109191Y-82668907D01*
G37*
%TD.AperFunction*%
%TD*%
%TA.AperFunction,Conductor*%
%TO.N,/OUT_{W}*%
G36*
X117109191Y-77668907D02*
G01*
X117145155Y-77718407D01*
X117150000Y-77749000D01*
X117150000Y-81000998D01*
X117131093Y-81059189D01*
X117081593Y-81095153D01*
X117050999Y-81099998D01*
X116550631Y-81099987D01*
X116049027Y-81099975D01*
X115990836Y-81081066D01*
X115954874Y-81031566D01*
X115950029Y-81000946D01*
X115950393Y-79765681D01*
X115950398Y-79750000D01*
X114989873Y-79750000D01*
X103549379Y-79750006D01*
X103491188Y-79731099D01*
X103455224Y-79681599D01*
X103450379Y-79651025D01*
X103450019Y-77749028D01*
X103468915Y-77690833D01*
X103518408Y-77654860D01*
X103549019Y-77650009D01*
X110300657Y-77650004D01*
X117051000Y-77650000D01*
X117109191Y-77668907D01*
G37*
%TD.AperFunction*%
%TD*%
%TA.AperFunction,Conductor*%
%TO.N,GNDPWR*%
G36*
X123359191Y-69619407D02*
G01*
X123395155Y-69668907D01*
X123400000Y-69699500D01*
X123400000Y-70845500D01*
X123381093Y-70903691D01*
X123331593Y-70939655D01*
X123301000Y-70944500D01*
X122101278Y-70944500D01*
X122097972Y-70944949D01*
X122097965Y-70944949D01*
X122054984Y-70950781D01*
X122046526Y-70951928D01*
X122043315Y-70952816D01*
X122043313Y-70952816D01*
X122037015Y-70954557D01*
X121995680Y-70965983D01*
X121984653Y-70969849D01*
X121976347Y-70972761D01*
X121976345Y-70972762D01*
X121969514Y-70975157D01*
X121933098Y-71001659D01*
X121900061Y-71025702D01*
X121900059Y-71025704D01*
X121895567Y-71028973D01*
X121891913Y-71033162D01*
X121891912Y-71033163D01*
X121856812Y-71073403D01*
X121856807Y-71073410D01*
X121855348Y-71075082D01*
X121833716Y-71104907D01*
X121829543Y-71117786D01*
X121825211Y-71131155D01*
X121789287Y-71180684D01*
X121730427Y-71199636D01*
X121667133Y-71199249D01*
X121609059Y-71179986D01*
X121576707Y-71139163D01*
X121558949Y-71097617D01*
X121522985Y-71048117D01*
X121498744Y-71020372D01*
X121420234Y-70973464D01*
X121397210Y-70965983D01*
X121365746Y-70955760D01*
X121365744Y-70955760D01*
X121362043Y-70954557D01*
X121358199Y-70953948D01*
X121358194Y-70953947D01*
X121302389Y-70945109D01*
X121302384Y-70945109D01*
X121298541Y-70944500D01*
X121099000Y-70944500D01*
X121066856Y-70947030D01*
X121036263Y-70951875D01*
X121030874Y-70954107D01*
X121030871Y-70954108D01*
X120953010Y-70986358D01*
X120953008Y-70986359D01*
X120947617Y-70988592D01*
X120898117Y-71024556D01*
X120870372Y-71048797D01*
X120823464Y-71127307D01*
X120804557Y-71185498D01*
X120803948Y-71189342D01*
X120803947Y-71189347D01*
X120797861Y-71227776D01*
X120794500Y-71249000D01*
X120794500Y-71662986D01*
X120794846Y-71665892D01*
X120797287Y-71686397D01*
X120796762Y-71713583D01*
X120794500Y-71727865D01*
X120794500Y-72151000D01*
X120797030Y-72183144D01*
X120801875Y-72213737D01*
X120804107Y-72219126D01*
X120804108Y-72219129D01*
X120833870Y-72290983D01*
X120838592Y-72302383D01*
X120874556Y-72351883D01*
X120898797Y-72379628D01*
X120977307Y-72426536D01*
X120982590Y-72428252D01*
X120982591Y-72428253D01*
X121031795Y-72444240D01*
X121035498Y-72445443D01*
X121039342Y-72446052D01*
X121039347Y-72446053D01*
X121095152Y-72454891D01*
X121095157Y-72454891D01*
X121099000Y-72455500D01*
X121298763Y-72455500D01*
X121352296Y-72448405D01*
X121380474Y-72440802D01*
X121400555Y-72435384D01*
X121400561Y-72435382D01*
X121402096Y-72434968D01*
X121427161Y-72426438D01*
X121501761Y-72373532D01*
X121505461Y-72369393D01*
X121505465Y-72369390D01*
X121541067Y-72329569D01*
X121541069Y-72329566D01*
X121542542Y-72327919D01*
X121564535Y-72298367D01*
X121574991Y-72267398D01*
X121611519Y-72218314D01*
X121670603Y-72200085D01*
X121731514Y-72201202D01*
X121733263Y-72201234D01*
X121791097Y-72221205D01*
X121822481Y-72261308D01*
X121840037Y-72302383D01*
X121876001Y-72351883D01*
X121900242Y-72379628D01*
X121978752Y-72426536D01*
X121984035Y-72428252D01*
X121984036Y-72428253D01*
X122033240Y-72444240D01*
X122036943Y-72445443D01*
X122040787Y-72446052D01*
X122040792Y-72446053D01*
X122096597Y-72454891D01*
X122096602Y-72454891D01*
X122100445Y-72455500D01*
X123301000Y-72455500D01*
X123359191Y-72474407D01*
X123395155Y-72523907D01*
X123400000Y-72554500D01*
X123400000Y-75795500D01*
X123381093Y-75853691D01*
X123331593Y-75889655D01*
X123301000Y-75894500D01*
X118549000Y-75894500D01*
X118516856Y-75897030D01*
X118486263Y-75901875D01*
X118480874Y-75904107D01*
X118480871Y-75904108D01*
X118403010Y-75936358D01*
X118403008Y-75936359D01*
X118397617Y-75938592D01*
X118348117Y-75974556D01*
X118320372Y-75998797D01*
X118273464Y-76077307D01*
X118254557Y-76135498D01*
X118244500Y-76199000D01*
X118244500Y-77151000D01*
X118247030Y-77183144D01*
X118251875Y-77213737D01*
X118254107Y-77219126D01*
X118254108Y-77219129D01*
X118286358Y-77296990D01*
X118288592Y-77302383D01*
X118324556Y-77351883D01*
X118348797Y-77379628D01*
X118355482Y-77383622D01*
X118361466Y-77388618D01*
X118359809Y-77390602D01*
X118392033Y-77427484D01*
X118400000Y-77466395D01*
X118400000Y-78167482D01*
X118389919Y-78198508D01*
X118400000Y-78241404D01*
X118400000Y-79250000D01*
X121245500Y-79250000D01*
X121303691Y-79268907D01*
X121339655Y-79318407D01*
X121344500Y-79349000D01*
X121344500Y-79701000D01*
X121347030Y-79733144D01*
X121351875Y-79763737D01*
X121354107Y-79769126D01*
X121354108Y-79769129D01*
X121386358Y-79846990D01*
X121388592Y-79852383D01*
X121424556Y-79901883D01*
X121430716Y-79908933D01*
X121443610Y-79923691D01*
X121448797Y-79929628D01*
X121527307Y-79976536D01*
X121532590Y-79978252D01*
X121532591Y-79978253D01*
X121581795Y-79994240D01*
X121585498Y-79995443D01*
X121589342Y-79996052D01*
X121589347Y-79996053D01*
X121645152Y-80004891D01*
X121645157Y-80004891D01*
X121649000Y-80005500D01*
X123301000Y-80005500D01*
X123359191Y-80024407D01*
X123395155Y-80073907D01*
X123400000Y-80104500D01*
X123400000Y-84051000D01*
X123381093Y-84109191D01*
X123331593Y-84145155D01*
X123301000Y-84150000D01*
X119000000Y-84150000D01*
X118128996Y-85021004D01*
X118074479Y-85048781D01*
X118058992Y-85050000D01*
X116200000Y-85050000D01*
X115550000Y-85700000D01*
X115550000Y-85710673D01*
X115542238Y-85725907D01*
X115531093Y-85760208D01*
X115500490Y-85787402D01*
X115497617Y-85788592D01*
X115448117Y-85824556D01*
X115420372Y-85848797D01*
X115373464Y-85927307D01*
X115354557Y-85985498D01*
X115344500Y-86049000D01*
X115344500Y-86298610D01*
X115348414Y-86338528D01*
X115355885Y-86376257D01*
X115358687Y-86388445D01*
X115400980Y-86469534D01*
X115440637Y-86516127D01*
X115466932Y-86541926D01*
X115473908Y-86545397D01*
X115473910Y-86545399D01*
X115495105Y-86555946D01*
X115538779Y-86598797D01*
X115550000Y-86644578D01*
X115550000Y-86700139D01*
X115548821Y-86715369D01*
X115544391Y-86743823D01*
X115545306Y-86750820D01*
X115545306Y-86750821D01*
X115549164Y-86780324D01*
X115550000Y-86793160D01*
X115550000Y-87200000D01*
X115798837Y-87200000D01*
X115831967Y-87207497D01*
X115832313Y-87206390D01*
X115962425Y-87247039D01*
X115962426Y-87247039D01*
X115969157Y-87249142D01*
X115969640Y-87249151D01*
X116021379Y-87275740D01*
X116048967Y-87330352D01*
X116039186Y-87390751D01*
X115995772Y-87433865D01*
X115951133Y-87444500D01*
X103549000Y-87444500D01*
X103516856Y-87447030D01*
X103486263Y-87451875D01*
X103480874Y-87454107D01*
X103480871Y-87454108D01*
X103403010Y-87486358D01*
X103403008Y-87486359D01*
X103397617Y-87488592D01*
X103348117Y-87524556D01*
X103320372Y-87548797D01*
X103273464Y-87627307D01*
X103254557Y-87685498D01*
X103253948Y-87689342D01*
X103253947Y-87689347D01*
X103249284Y-87718792D01*
X103244500Y-87749000D01*
X103244500Y-89651000D01*
X103247030Y-89683144D01*
X103251875Y-89713737D01*
X103254107Y-89719126D01*
X103254108Y-89719129D01*
X103286358Y-89796990D01*
X103288592Y-89802383D01*
X103324556Y-89851883D01*
X103348797Y-89879628D01*
X103427307Y-89926536D01*
X103485498Y-89945443D01*
X103489342Y-89946052D01*
X103489347Y-89946053D01*
X103545152Y-89954891D01*
X103545157Y-89954891D01*
X103549000Y-89955500D01*
X122401000Y-89955500D01*
X122433144Y-89952970D01*
X122463737Y-89948125D01*
X122469126Y-89945893D01*
X122469129Y-89945892D01*
X122546990Y-89913642D01*
X122546992Y-89913641D01*
X122552383Y-89911408D01*
X122601883Y-89875444D01*
X122629628Y-89851203D01*
X122676536Y-89772693D01*
X122695443Y-89714502D01*
X122696478Y-89707970D01*
X122704891Y-89654848D01*
X122704891Y-89654843D01*
X122705500Y-89651000D01*
X122705500Y-89181529D01*
X122709990Y-89152690D01*
X122712461Y-89147590D01*
X122735296Y-89011860D01*
X122735441Y-89000000D01*
X122715929Y-88863753D01*
X122713011Y-88857335D01*
X122711030Y-88850561D01*
X122712186Y-88850223D01*
X122705500Y-88819365D01*
X122705500Y-88581529D01*
X122709990Y-88552690D01*
X122712461Y-88547590D01*
X122735296Y-88411860D01*
X122735441Y-88400000D01*
X122715929Y-88263753D01*
X122713011Y-88257335D01*
X122711030Y-88250561D01*
X122712186Y-88250223D01*
X122705500Y-88219365D01*
X122705500Y-87749000D01*
X122702970Y-87716856D01*
X122698125Y-87686263D01*
X122693306Y-87674627D01*
X122663642Y-87603010D01*
X122663641Y-87603008D01*
X122661408Y-87597617D01*
X122625444Y-87548117D01*
X122601203Y-87520372D01*
X122522693Y-87473464D01*
X122464502Y-87454557D01*
X122460658Y-87453948D01*
X122460653Y-87453947D01*
X122404848Y-87445109D01*
X122404843Y-87445109D01*
X122401000Y-87444500D01*
X120295083Y-87444500D01*
X120236892Y-87425593D01*
X120200928Y-87376093D01*
X120200928Y-87314907D01*
X120236892Y-87265407D01*
X120269043Y-87249986D01*
X120394010Y-87215916D01*
X120394011Y-87215915D01*
X120400817Y-87214060D01*
X120406830Y-87210368D01*
X120411974Y-87208142D01*
X120451292Y-87200000D01*
X123301000Y-87200000D01*
X123359191Y-87218907D01*
X123395155Y-87268407D01*
X123400000Y-87299000D01*
X123400000Y-91648900D01*
X123381093Y-91707091D01*
X123331593Y-91743055D01*
X123301000Y-91747900D01*
X120695796Y-91747900D01*
X120637605Y-91728993D01*
X120620798Y-91713524D01*
X120587008Y-91674309D01*
X120587002Y-91674304D01*
X120582400Y-91668963D01*
X120462095Y-91590985D01*
X120324739Y-91549907D01*
X120241497Y-91549398D01*
X120188427Y-91549074D01*
X120188426Y-91549074D01*
X120181376Y-91549031D01*
X120174598Y-91550968D01*
X120167605Y-91551926D01*
X120167185Y-91548856D01*
X120119205Y-91547153D01*
X120071012Y-91509456D01*
X120067013Y-91502997D01*
X120066861Y-91502729D01*
X120064676Y-91497617D01*
X120028712Y-91448117D01*
X120004471Y-91420372D01*
X119925961Y-91373464D01*
X119877709Y-91357786D01*
X119871473Y-91355760D01*
X119871471Y-91355760D01*
X119867770Y-91354557D01*
X119863926Y-91353948D01*
X119863921Y-91353947D01*
X119808116Y-91345109D01*
X119808111Y-91345109D01*
X119804268Y-91344500D01*
X117295881Y-91344500D01*
X117293455Y-91344742D01*
X117293448Y-91344742D01*
X117277933Y-91346288D01*
X117255350Y-91348537D01*
X117252945Y-91349021D01*
X117252944Y-91349021D01*
X117217845Y-91356082D01*
X117217828Y-91356086D01*
X117217066Y-91356239D01*
X117204287Y-91359237D01*
X117123456Y-91402022D01*
X117119245Y-91405650D01*
X117119244Y-91405651D01*
X117083884Y-91436119D01*
X117077104Y-91441961D01*
X117075567Y-91443547D01*
X117075556Y-91443557D01*
X117064119Y-91455357D01*
X117051461Y-91468415D01*
X117037023Y-91497879D01*
X116994439Y-91541811D01*
X116933493Y-91552226D01*
X116931495Y-91551927D01*
X116924739Y-91549907D01*
X116848682Y-91549442D01*
X116788427Y-91549074D01*
X116788426Y-91549074D01*
X116781376Y-91549031D01*
X116774599Y-91550968D01*
X116774598Y-91550968D01*
X116650309Y-91586490D01*
X116650307Y-91586491D01*
X116643529Y-91588428D01*
X116522280Y-91664930D01*
X116517613Y-91670214D01*
X116517611Y-91670216D01*
X116432044Y-91767103D01*
X116432042Y-91767105D01*
X116427377Y-91772388D01*
X116366447Y-91902163D01*
X116344391Y-92043823D01*
X116349121Y-92079990D01*
X116356588Y-92137094D01*
X116345386Y-92197245D01*
X116307282Y-92236035D01*
X116302725Y-92238621D01*
X116297617Y-92240804D01*
X116248117Y-92276768D01*
X116220372Y-92301009D01*
X116173464Y-92379519D01*
X116171748Y-92384802D01*
X116171747Y-92384803D01*
X116155760Y-92434007D01*
X116154557Y-92437710D01*
X116153948Y-92441554D01*
X116153947Y-92441559D01*
X116145109Y-92497364D01*
X116144500Y-92501212D01*
X116144500Y-92976251D01*
X116146989Y-93008140D01*
X116147286Y-93010032D01*
X116147287Y-93010039D01*
X116150732Y-93031966D01*
X116151757Y-93038494D01*
X116188209Y-93126972D01*
X116224047Y-93176563D01*
X116234045Y-93188065D01*
X116241315Y-93196429D01*
X116248216Y-93204369D01*
X116326606Y-93251476D01*
X116384748Y-93270531D01*
X116388584Y-93271149D01*
X116388586Y-93271149D01*
X116406298Y-93274000D01*
X116448226Y-93280750D01*
X116452111Y-93280760D01*
X116452113Y-93280760D01*
X117206185Y-93282674D01*
X117206188Y-93282674D01*
X117208208Y-93282679D01*
X117241681Y-93280021D01*
X117243688Y-93279695D01*
X117267655Y-93275802D01*
X117267658Y-93275801D01*
X117273501Y-93274852D01*
X117363066Y-93236996D01*
X117367818Y-93233467D01*
X117367822Y-93233465D01*
X117410414Y-93201836D01*
X117412189Y-93200518D01*
X117413828Y-93199056D01*
X117413835Y-93199050D01*
X117433864Y-93181180D01*
X117439679Y-93175992D01*
X117485766Y-93096997D01*
X117487430Y-93091690D01*
X117489674Y-93086608D01*
X117492163Y-93087707D01*
X117521383Y-93046609D01*
X117580393Y-93027100D01*
X123301000Y-93027100D01*
X123359191Y-93046007D01*
X123395155Y-93095507D01*
X123400000Y-93126100D01*
X123400000Y-94101000D01*
X123381093Y-94159191D01*
X123331593Y-94195155D01*
X123301000Y-94200000D01*
X117100000Y-94200000D01*
X117100000Y-101550000D01*
X119901000Y-101550000D01*
X119959191Y-101568907D01*
X119995155Y-101618407D01*
X120000000Y-101649000D01*
X120000000Y-108001000D01*
X119981093Y-108059191D01*
X119931593Y-108095155D01*
X119901000Y-108100000D01*
X99299500Y-108100000D01*
X99241309Y-108081093D01*
X99205345Y-108031593D01*
X99200500Y-108001000D01*
X99200500Y-84651000D01*
X103244500Y-84651000D01*
X103247030Y-84683144D01*
X103251875Y-84713737D01*
X103254107Y-84719126D01*
X103254108Y-84719129D01*
X103281002Y-84784059D01*
X103288592Y-84802383D01*
X103324556Y-84851883D01*
X103348797Y-84879628D01*
X103427307Y-84926536D01*
X103432590Y-84928252D01*
X103432591Y-84928253D01*
X103464969Y-84938773D01*
X103485498Y-84945443D01*
X103489342Y-84946052D01*
X103489347Y-84946053D01*
X103545152Y-84954891D01*
X103545157Y-84954891D01*
X103549000Y-84955500D01*
X114501000Y-84955500D01*
X114533144Y-84952970D01*
X114563737Y-84948125D01*
X114569126Y-84945893D01*
X114569129Y-84945892D01*
X114646990Y-84913642D01*
X114646992Y-84913641D01*
X114652383Y-84911408D01*
X114701883Y-84875444D01*
X114729628Y-84851203D01*
X114776536Y-84772693D01*
X114795443Y-84714502D01*
X114796478Y-84707970D01*
X114804891Y-84654848D01*
X114804891Y-84654843D01*
X114805500Y-84651000D01*
X114805500Y-84004500D01*
X114824407Y-83946309D01*
X114873907Y-83910345D01*
X114904500Y-83905500D01*
X115705098Y-83905500D01*
X115763289Y-83924407D01*
X115788322Y-83952579D01*
X115788592Y-83952383D01*
X115824556Y-84001883D01*
X115833753Y-84012409D01*
X115842697Y-84022646D01*
X115848797Y-84029628D01*
X115927307Y-84076536D01*
X115932590Y-84078252D01*
X115932591Y-84078253D01*
X115981795Y-84094240D01*
X115985498Y-84095443D01*
X115989342Y-84096052D01*
X115989347Y-84096053D01*
X116045152Y-84104891D01*
X116045157Y-84104891D01*
X116049000Y-84105500D01*
X116081435Y-84105500D01*
X116110957Y-84110004D01*
X116165655Y-84127093D01*
X116165656Y-84127093D01*
X116172387Y-84129196D01*
X116241194Y-84130458D01*
X116302947Y-84131590D01*
X116302949Y-84131590D01*
X116310001Y-84131719D01*
X116316804Y-84129864D01*
X116316806Y-84129864D01*
X116393385Y-84108986D01*
X116419425Y-84105500D01*
X116681435Y-84105500D01*
X116710957Y-84110004D01*
X116765655Y-84127093D01*
X116765656Y-84127093D01*
X116772387Y-84129196D01*
X116841194Y-84130458D01*
X116902947Y-84131590D01*
X116902949Y-84131590D01*
X116910001Y-84131719D01*
X116916804Y-84129864D01*
X116916806Y-84129864D01*
X116993385Y-84108986D01*
X117019425Y-84105500D01*
X117051000Y-84105500D01*
X117083144Y-84102970D01*
X117093462Y-84101336D01*
X117153894Y-84110911D01*
X117197156Y-84154178D01*
X117206765Y-84214348D01*
X117194391Y-84293823D01*
X117195306Y-84300820D01*
X117195306Y-84300821D01*
X117196814Y-84312354D01*
X117212980Y-84435979D01*
X117215821Y-84442435D01*
X117215821Y-84442436D01*
X117258631Y-84539728D01*
X117270720Y-84567203D01*
X117283792Y-84582754D01*
X117358431Y-84671549D01*
X117358434Y-84671551D01*
X117362970Y-84676948D01*
X117368841Y-84680856D01*
X117368842Y-84680857D01*
X117375170Y-84685069D01*
X117482313Y-84756390D01*
X117570878Y-84784059D01*
X117612425Y-84797039D01*
X117612426Y-84797039D01*
X117619157Y-84799142D01*
X117690828Y-84800456D01*
X117755445Y-84801641D01*
X117755447Y-84801641D01*
X117762499Y-84801770D01*
X117769302Y-84799915D01*
X117769304Y-84799915D01*
X117864732Y-84773898D01*
X117900817Y-84764060D01*
X118022991Y-84689045D01*
X118030403Y-84680857D01*
X118114468Y-84587982D01*
X118119200Y-84582754D01*
X118181710Y-84453733D01*
X118185875Y-84428982D01*
X118204862Y-84316124D01*
X118204862Y-84316120D01*
X118205496Y-84312354D01*
X118205647Y-84300000D01*
X118185323Y-84158082D01*
X118163378Y-84109816D01*
X118154500Y-84068840D01*
X118154500Y-78432614D01*
X118164406Y-78389449D01*
X118178635Y-78360080D01*
X118181710Y-78353733D01*
X118203372Y-78224979D01*
X118213079Y-78206371D01*
X118203000Y-78181517D01*
X118199507Y-78157127D01*
X118185323Y-78058082D01*
X118125984Y-77927572D01*
X118065582Y-77857472D01*
X118037005Y-77824307D01*
X118037004Y-77824306D01*
X118032400Y-77818963D01*
X117912095Y-77740985D01*
X117774739Y-77699907D01*
X117691497Y-77699398D01*
X117638427Y-77699074D01*
X117638426Y-77699074D01*
X117631376Y-77699031D01*
X117624599Y-77700968D01*
X117624598Y-77700968D01*
X117500309Y-77736490D01*
X117500307Y-77736491D01*
X117493529Y-77738428D01*
X117487566Y-77742190D01*
X117481721Y-77744805D01*
X117420882Y-77751306D01*
X117367841Y-77720806D01*
X117348638Y-77686051D01*
X117348125Y-77686263D01*
X117346239Y-77681710D01*
X117323731Y-77627369D01*
X117313642Y-77603010D01*
X117313641Y-77603008D01*
X117311408Y-77597617D01*
X117275444Y-77548117D01*
X117251203Y-77520372D01*
X117172693Y-77473464D01*
X117150937Y-77466395D01*
X117118205Y-77455760D01*
X117118203Y-77455760D01*
X117114502Y-77454557D01*
X117110658Y-77453948D01*
X117110653Y-77453947D01*
X117054848Y-77445109D01*
X117054843Y-77445109D01*
X117051000Y-77444500D01*
X117047106Y-77444500D01*
X108037332Y-77444506D01*
X103549019Y-77444509D01*
X103516854Y-77447042D01*
X103503252Y-77449198D01*
X103492009Y-77450979D01*
X103492007Y-77450980D01*
X103486243Y-77451893D01*
X103476911Y-77455760D01*
X103402980Y-77486395D01*
X103402978Y-77486396D01*
X103397587Y-77488630D01*
X103348094Y-77524603D01*
X103320353Y-77548849D01*
X103273460Y-77627369D01*
X103254564Y-77685564D01*
X103253956Y-77689406D01*
X103253956Y-77689407D01*
X103248237Y-77725564D01*
X103244519Y-77749067D01*
X103244879Y-79651064D01*
X103247412Y-79683189D01*
X103247715Y-79685100D01*
X103250542Y-79702939D01*
X103252257Y-79713763D01*
X103288971Y-79802389D01*
X103324935Y-79851889D01*
X103349176Y-79879634D01*
X103427686Y-79926542D01*
X103432969Y-79928258D01*
X103432970Y-79928259D01*
X103482174Y-79944246D01*
X103485877Y-79945449D01*
X103489721Y-79946058D01*
X103489726Y-79946059D01*
X103545531Y-79954897D01*
X103545536Y-79954897D01*
X103549379Y-79955506D01*
X104010785Y-79955506D01*
X115645808Y-79955500D01*
X115703999Y-79974407D01*
X115739963Y-80023907D01*
X115744808Y-80054528D01*
X115744529Y-81000885D01*
X115747054Y-81033063D01*
X115751899Y-81063683D01*
X115788618Y-81152352D01*
X115824580Y-81201852D01*
X115848819Y-81229597D01*
X115855506Y-81233593D01*
X115855509Y-81233595D01*
X115902035Y-81261394D01*
X115927328Y-81276507D01*
X115985519Y-81295416D01*
X116049022Y-81305475D01*
X116058744Y-81305475D01*
X116081360Y-81305476D01*
X116110879Y-81309980D01*
X116165655Y-81327093D01*
X116165656Y-81327093D01*
X116172387Y-81329196D01*
X116241194Y-81330458D01*
X116302947Y-81331590D01*
X116302949Y-81331590D01*
X116310001Y-81331719D01*
X116393449Y-81308968D01*
X116419486Y-81305483D01*
X116541908Y-81305486D01*
X116681404Y-81305490D01*
X116710923Y-81309994D01*
X116765655Y-81327093D01*
X116765656Y-81327093D01*
X116772387Y-81329196D01*
X116841194Y-81330458D01*
X116902947Y-81331590D01*
X116902949Y-81331590D01*
X116910001Y-81331719D01*
X116993398Y-81308982D01*
X117019435Y-81305497D01*
X117045247Y-81305498D01*
X117050994Y-81305498D01*
X117052938Y-81305345D01*
X117052940Y-81305345D01*
X117081188Y-81303123D01*
X117081195Y-81303122D01*
X117083142Y-81302969D01*
X117085073Y-81302663D01*
X117085083Y-81302662D01*
X117107967Y-81299038D01*
X117107970Y-81299037D01*
X117113736Y-81298124D01*
X117119132Y-81295889D01*
X117119628Y-81295749D01*
X117180766Y-81298151D01*
X117228816Y-81336031D01*
X117245500Y-81391032D01*
X117245500Y-82360859D01*
X117226593Y-82419050D01*
X117177093Y-82455014D01*
X117122385Y-82455010D01*
X117121987Y-82456668D01*
X117118204Y-82455760D01*
X117114502Y-82454557D01*
X117110658Y-82453948D01*
X117110653Y-82453947D01*
X117054848Y-82445109D01*
X117054843Y-82445109D01*
X117051000Y-82444500D01*
X103549000Y-82444500D01*
X103516856Y-82447030D01*
X103486263Y-82451875D01*
X103480874Y-82454107D01*
X103480871Y-82454108D01*
X103403010Y-82486358D01*
X103403008Y-82486359D01*
X103397617Y-82488592D01*
X103348117Y-82524556D01*
X103320372Y-82548797D01*
X103273464Y-82627307D01*
X103254557Y-82685498D01*
X103253948Y-82689342D01*
X103253947Y-82689347D01*
X103245673Y-82741592D01*
X103244500Y-82749000D01*
X103244500Y-84651000D01*
X99200500Y-84651000D01*
X99200500Y-72335964D01*
X100642112Y-72335964D01*
X100642269Y-72340149D01*
X100642269Y-72340152D01*
X100643367Y-72369390D01*
X100650736Y-72565669D01*
X100697939Y-72790637D01*
X100782372Y-73004436D01*
X100901621Y-73200952D01*
X101052276Y-73374566D01*
X101230029Y-73520315D01*
X101429798Y-73634030D01*
X101645871Y-73712461D01*
X101695293Y-73721398D01*
X101868865Y-73752785D01*
X101868871Y-73752786D01*
X101872069Y-73753364D01*
X101891041Y-73754259D01*
X101895011Y-73754446D01*
X101895015Y-73754446D01*
X101896158Y-73754500D01*
X102057712Y-73754500D01*
X102059795Y-73754323D01*
X102059801Y-73754323D01*
X102224873Y-73740316D01*
X102224874Y-73740316D01*
X102229044Y-73739962D01*
X102233094Y-73738911D01*
X102233099Y-73738910D01*
X102447483Y-73683267D01*
X102447486Y-73683266D01*
X102451539Y-73682214D01*
X102661123Y-73587803D01*
X102851803Y-73459430D01*
X102937974Y-73377227D01*
X103015094Y-73303659D01*
X103015098Y-73303654D01*
X103018128Y-73300764D01*
X103155342Y-73116342D01*
X103194124Y-73040063D01*
X103257623Y-72915170D01*
X103257625Y-72915166D01*
X103259520Y-72911438D01*
X103327685Y-72691911D01*
X103350783Y-72517641D01*
X103357338Y-72468187D01*
X103357338Y-72468185D01*
X103357888Y-72464036D01*
X103357552Y-72455072D01*
X103352924Y-72331813D01*
X103349264Y-72234331D01*
X103302061Y-72009363D01*
X103217628Y-71795564D01*
X103098379Y-71599048D01*
X102947724Y-71425434D01*
X102769971Y-71279685D01*
X102570202Y-71165970D01*
X102354129Y-71087539D01*
X102295211Y-71076885D01*
X102131135Y-71047215D01*
X102131129Y-71047214D01*
X102127931Y-71046636D01*
X102108959Y-71045741D01*
X102104989Y-71045554D01*
X102104985Y-71045554D01*
X102103842Y-71045500D01*
X101942288Y-71045500D01*
X101940205Y-71045677D01*
X101940199Y-71045677D01*
X101775127Y-71059684D01*
X101775126Y-71059684D01*
X101770956Y-71060038D01*
X101766906Y-71061089D01*
X101766901Y-71061090D01*
X101552517Y-71116733D01*
X101552514Y-71116734D01*
X101548461Y-71117786D01*
X101338877Y-71212197D01*
X101148197Y-71340570D01*
X101145156Y-71343471D01*
X100984906Y-71496341D01*
X100984902Y-71496346D01*
X100981872Y-71499236D01*
X100844658Y-71683658D01*
X100842756Y-71687399D01*
X100766141Y-71838091D01*
X100740480Y-71888562D01*
X100672315Y-72108089D01*
X100666445Y-72152380D01*
X100642960Y-72329569D01*
X100642112Y-72335964D01*
X99200500Y-72335964D01*
X99200500Y-69699500D01*
X99219407Y-69641309D01*
X99268907Y-69605345D01*
X99299500Y-69600500D01*
X123301000Y-69600500D01*
X123359191Y-69619407D01*
G37*
%TD.AperFunction*%
%TD*%
%TA.AperFunction,Conductor*%
%TO.N,/OUT_{U}*%
G36*
X122459191Y-87668907D02*
G01*
X122495155Y-87718407D01*
X122500000Y-87749000D01*
X122500000Y-89651000D01*
X122481093Y-89709191D01*
X122431593Y-89745155D01*
X122401000Y-89750000D01*
X103549000Y-89750000D01*
X103490809Y-89731093D01*
X103454845Y-89681593D01*
X103450000Y-89651000D01*
X103450000Y-87749000D01*
X103468907Y-87690809D01*
X103518407Y-87654845D01*
X103549000Y-87650000D01*
X122401000Y-87650000D01*
X122459191Y-87668907D01*
G37*
%TD.AperFunction*%
%TD*%
%TA.AperFunction,Conductor*%
%TO.N,GND*%
G36*
X148758691Y-69619407D02*
G01*
X148794655Y-69668907D01*
X148799500Y-69699500D01*
X148799500Y-119100500D01*
X148780593Y-119158691D01*
X148731093Y-119194655D01*
X148700500Y-119199500D01*
X121099000Y-119199500D01*
X121040809Y-119180593D01*
X121004845Y-119131093D01*
X121000000Y-119100500D01*
X121000000Y-111243823D01*
X127894391Y-111243823D01*
X127895306Y-111250820D01*
X127895306Y-111250821D01*
X127896814Y-111262354D01*
X127912980Y-111385979D01*
X127915821Y-111392435D01*
X127915821Y-111392436D01*
X127965585Y-111505532D01*
X127970720Y-111517203D01*
X127983792Y-111532754D01*
X128058431Y-111621549D01*
X128058434Y-111621551D01*
X128062970Y-111626948D01*
X128068841Y-111630856D01*
X128068842Y-111630857D01*
X128081143Y-111639045D01*
X128182313Y-111706390D01*
X128282920Y-111737821D01*
X128312425Y-111747039D01*
X128312426Y-111747039D01*
X128319157Y-111749142D01*
X128390828Y-111750456D01*
X128455445Y-111751641D01*
X128455447Y-111751641D01*
X128462499Y-111751770D01*
X128469302Y-111749915D01*
X128469304Y-111749915D01*
X128544503Y-111729413D01*
X128600817Y-111714060D01*
X128722991Y-111639045D01*
X128730403Y-111630857D01*
X128814468Y-111537982D01*
X128819200Y-111532754D01*
X128881710Y-111403733D01*
X128885875Y-111378982D01*
X128904862Y-111266124D01*
X128904862Y-111266120D01*
X128905496Y-111262354D01*
X128905647Y-111250000D01*
X128885323Y-111108082D01*
X128825984Y-110977572D01*
X128732400Y-110868963D01*
X128612095Y-110790985D01*
X128474739Y-110749907D01*
X128391497Y-110749398D01*
X128338427Y-110749074D01*
X128338426Y-110749074D01*
X128331376Y-110749031D01*
X128324599Y-110750968D01*
X128324598Y-110750968D01*
X128200309Y-110786490D01*
X128200307Y-110786491D01*
X128193529Y-110788428D01*
X128072280Y-110864930D01*
X128067613Y-110870214D01*
X128067611Y-110870216D01*
X127982044Y-110967103D01*
X127982042Y-110967105D01*
X127977377Y-110972388D01*
X127916447Y-111102163D01*
X127915362Y-111109132D01*
X127915361Y-111109135D01*
X127901403Y-111198789D01*
X127894391Y-111243823D01*
X121000000Y-111243823D01*
X121000000Y-106543823D01*
X121844391Y-106543823D01*
X121845306Y-106550820D01*
X121845306Y-106550821D01*
X121846814Y-106562354D01*
X121862980Y-106685979D01*
X121865821Y-106692435D01*
X121865821Y-106692436D01*
X121873586Y-106710082D01*
X121920720Y-106817203D01*
X121933792Y-106832754D01*
X122008431Y-106921549D01*
X122008434Y-106921551D01*
X122012970Y-106926948D01*
X122018841Y-106930856D01*
X122018842Y-106930857D01*
X122031143Y-106939045D01*
X122132313Y-107006390D01*
X122219364Y-107033586D01*
X122262425Y-107047039D01*
X122262426Y-107047039D01*
X122269157Y-107049142D01*
X122340828Y-107050456D01*
X122405445Y-107051641D01*
X122405447Y-107051641D01*
X122412499Y-107051770D01*
X122419302Y-107049915D01*
X122419304Y-107049915D01*
X122496282Y-107028928D01*
X122550817Y-107014060D01*
X122672991Y-106939045D01*
X122680403Y-106930857D01*
X122764468Y-106837982D01*
X122769200Y-106832754D01*
X122831710Y-106703733D01*
X122835875Y-106678982D01*
X122854862Y-106566124D01*
X122854862Y-106566120D01*
X122855496Y-106562354D01*
X122855647Y-106550000D01*
X122835323Y-106408082D01*
X122775984Y-106277572D01*
X122682400Y-106168963D01*
X122562095Y-106090985D01*
X122424739Y-106049907D01*
X122341497Y-106049398D01*
X122288427Y-106049074D01*
X122288426Y-106049074D01*
X122281376Y-106049031D01*
X122274599Y-106050968D01*
X122274598Y-106050968D01*
X122150309Y-106086490D01*
X122150307Y-106086491D01*
X122143529Y-106088428D01*
X122022280Y-106164930D01*
X122017613Y-106170214D01*
X122017611Y-106170216D01*
X121932044Y-106267103D01*
X121932042Y-106267105D01*
X121927377Y-106272388D01*
X121866447Y-106402163D01*
X121865362Y-106409132D01*
X121865361Y-106409135D01*
X121862059Y-106430345D01*
X121844391Y-106543823D01*
X121000000Y-106543823D01*
X121000000Y-105300000D01*
X124444750Y-105300000D01*
X124463670Y-105443709D01*
X124519139Y-105577625D01*
X124607379Y-105692621D01*
X124722375Y-105780861D01*
X124856291Y-105836330D01*
X124862720Y-105837176D01*
X124862722Y-105837177D01*
X124993567Y-105854403D01*
X125000000Y-105855250D01*
X125006433Y-105854403D01*
X125137278Y-105837177D01*
X125137280Y-105837176D01*
X125143709Y-105836330D01*
X125277625Y-105780861D01*
X125392621Y-105692621D01*
X125480861Y-105577625D01*
X125536330Y-105443709D01*
X125555250Y-105300000D01*
X125536330Y-105156291D01*
X125480861Y-105022375D01*
X125392621Y-104907379D01*
X125277625Y-104819139D01*
X125143709Y-104763670D01*
X125137280Y-104762824D01*
X125137278Y-104762823D01*
X125006433Y-104745597D01*
X125000000Y-104744750D01*
X124993567Y-104745597D01*
X124862722Y-104762823D01*
X124862720Y-104762824D01*
X124856291Y-104763670D01*
X124722375Y-104819139D01*
X124607379Y-104907379D01*
X124519139Y-105022375D01*
X124463670Y-105156291D01*
X124444750Y-105300000D01*
X121000000Y-105300000D01*
X121000000Y-104200000D01*
X123294750Y-104200000D01*
X123295597Y-104206433D01*
X123312400Y-104334060D01*
X123313670Y-104343709D01*
X123369139Y-104477625D01*
X123457379Y-104592621D01*
X123572375Y-104680861D01*
X123706291Y-104736330D01*
X123712720Y-104737176D01*
X123712722Y-104737177D01*
X123843567Y-104754403D01*
X123850000Y-104755250D01*
X123856433Y-104754403D01*
X123987278Y-104737177D01*
X123987280Y-104737176D01*
X123993709Y-104736330D01*
X124127625Y-104680861D01*
X124242621Y-104592621D01*
X124330861Y-104477625D01*
X124386330Y-104343709D01*
X124387601Y-104334060D01*
X124404403Y-104206433D01*
X124405250Y-104200000D01*
X124391437Y-104095082D01*
X124387177Y-104062722D01*
X124387176Y-104062720D01*
X124386330Y-104056291D01*
X124330861Y-103922375D01*
X124242621Y-103807379D01*
X124127625Y-103719139D01*
X123993709Y-103663670D01*
X123987280Y-103662824D01*
X123987278Y-103662823D01*
X123856433Y-103645597D01*
X123850000Y-103644750D01*
X123843567Y-103645597D01*
X123712722Y-103662823D01*
X123712720Y-103662824D01*
X123706291Y-103663670D01*
X123572375Y-103719139D01*
X123457379Y-103807379D01*
X123369139Y-103922375D01*
X123313670Y-104056291D01*
X123312824Y-104062720D01*
X123312823Y-104062722D01*
X123308563Y-104095082D01*
X123294750Y-104200000D01*
X121000000Y-104200000D01*
X121000000Y-101100000D01*
X117699000Y-101100000D01*
X117640809Y-101081093D01*
X117604845Y-101031593D01*
X117600000Y-101001000D01*
X117600000Y-100800000D01*
X127394750Y-100800000D01*
X127395597Y-100806433D01*
X127407674Y-100898163D01*
X127413670Y-100943709D01*
X127469139Y-101077625D01*
X127557379Y-101192621D01*
X127672375Y-101280861D01*
X127744368Y-101310681D01*
X127794367Y-101331391D01*
X127840893Y-101371127D01*
X127855177Y-101430622D01*
X127831763Y-101487150D01*
X127794368Y-101514319D01*
X127722375Y-101544139D01*
X127607379Y-101632379D01*
X127519139Y-101747375D01*
X127463670Y-101881291D01*
X127462824Y-101887720D01*
X127462823Y-101887722D01*
X127448786Y-101994344D01*
X127444750Y-102025000D01*
X127463670Y-102168709D01*
X127519139Y-102302625D01*
X127607379Y-102417621D01*
X127722375Y-102505861D01*
X127856291Y-102561330D01*
X127862720Y-102562176D01*
X127862722Y-102562177D01*
X127993567Y-102579403D01*
X128000000Y-102580250D01*
X128006433Y-102579403D01*
X128137278Y-102562177D01*
X128137280Y-102562176D01*
X128143709Y-102561330D01*
X128277625Y-102505861D01*
X128392621Y-102417621D01*
X128480861Y-102302625D01*
X128536330Y-102168709D01*
X128555250Y-102025000D01*
X128551214Y-101994344D01*
X128537177Y-101887722D01*
X128537176Y-101887720D01*
X128536330Y-101881291D01*
X128480861Y-101747375D01*
X128392621Y-101632379D01*
X128277625Y-101544139D01*
X128155633Y-101493609D01*
X128109107Y-101453873D01*
X128094823Y-101394378D01*
X128118237Y-101337850D01*
X128155632Y-101310681D01*
X128227625Y-101280861D01*
X128342621Y-101192621D01*
X128430861Y-101077625D01*
X128486330Y-100943709D01*
X128492327Y-100898163D01*
X128504403Y-100806433D01*
X128505250Y-100800000D01*
X128501593Y-100772221D01*
X128487177Y-100662722D01*
X128487176Y-100662720D01*
X128486330Y-100656291D01*
X128430861Y-100522375D01*
X128342621Y-100407379D01*
X128342463Y-100407258D01*
X128315892Y-100355108D01*
X128325463Y-100294676D01*
X128353406Y-100261079D01*
X128437469Y-100196575D01*
X128437472Y-100196572D01*
X128442621Y-100192621D01*
X128530861Y-100077625D01*
X128586330Y-99943709D01*
X128605250Y-99800000D01*
X130294750Y-99800000D01*
X130313670Y-99943709D01*
X130369139Y-100077625D01*
X130457379Y-100192621D01*
X130567647Y-100277233D01*
X130567648Y-100277234D01*
X130572375Y-100280861D01*
X130571703Y-100281737D01*
X130608441Y-100322534D01*
X130614840Y-100383383D01*
X130584250Y-100436373D01*
X130578271Y-100441347D01*
X130562530Y-100453426D01*
X130562528Y-100453428D01*
X130557379Y-100457379D01*
X130469139Y-100572375D01*
X130413670Y-100706291D01*
X130394750Y-100850000D01*
X130395597Y-100856433D01*
X130410928Y-100972879D01*
X130413670Y-100993709D01*
X130469139Y-101127625D01*
X130557379Y-101242621D01*
X130672375Y-101330861D01*
X130806291Y-101386330D01*
X130812720Y-101387176D01*
X130812722Y-101387177D01*
X130943567Y-101404403D01*
X130950000Y-101405250D01*
X130956433Y-101404403D01*
X131087278Y-101387177D01*
X131087280Y-101387176D01*
X131093709Y-101386330D01*
X131227625Y-101330861D01*
X131342621Y-101242621D01*
X131430861Y-101127625D01*
X131486330Y-100993709D01*
X131489073Y-100972879D01*
X131504403Y-100856433D01*
X131505250Y-100850000D01*
X131486330Y-100706291D01*
X131430861Y-100572375D01*
X131342621Y-100457379D01*
X131227625Y-100369139D01*
X131228297Y-100368263D01*
X131191559Y-100327466D01*
X131185160Y-100266617D01*
X131215750Y-100213627D01*
X131221729Y-100208653D01*
X131237470Y-100196574D01*
X131237472Y-100196572D01*
X131242621Y-100192621D01*
X131330861Y-100077625D01*
X131386330Y-99943709D01*
X131405250Y-99800000D01*
X131401593Y-99772221D01*
X131387177Y-99662722D01*
X131387176Y-99662720D01*
X131386330Y-99656291D01*
X131330861Y-99522375D01*
X131242621Y-99407379D01*
X131127625Y-99319139D01*
X130993709Y-99263670D01*
X130987280Y-99262824D01*
X130987278Y-99262823D01*
X130856433Y-99245597D01*
X130850000Y-99244750D01*
X130843567Y-99245597D01*
X130712722Y-99262823D01*
X130712720Y-99262824D01*
X130706291Y-99263670D01*
X130572375Y-99319139D01*
X130457379Y-99407379D01*
X130369139Y-99522375D01*
X130313670Y-99656291D01*
X130312824Y-99662720D01*
X130312823Y-99662722D01*
X130298407Y-99772221D01*
X130294750Y-99800000D01*
X128605250Y-99800000D01*
X128601593Y-99772221D01*
X128587177Y-99662722D01*
X128587176Y-99662720D01*
X128586330Y-99656291D01*
X128530861Y-99522375D01*
X128442621Y-99407379D01*
X128327625Y-99319139D01*
X128193709Y-99263670D01*
X128187280Y-99262824D01*
X128187278Y-99262823D01*
X128056433Y-99245597D01*
X128050000Y-99244750D01*
X128043567Y-99245597D01*
X127912722Y-99262823D01*
X127912720Y-99262824D01*
X127906291Y-99263670D01*
X127772375Y-99319139D01*
X127657379Y-99407379D01*
X127569139Y-99522375D01*
X127513670Y-99656291D01*
X127512824Y-99662720D01*
X127512823Y-99662722D01*
X127498407Y-99772221D01*
X127494750Y-99800000D01*
X127513670Y-99943709D01*
X127569139Y-100077625D01*
X127657379Y-100192621D01*
X127657537Y-100192742D01*
X127684108Y-100244892D01*
X127674537Y-100305324D01*
X127646594Y-100338921D01*
X127562531Y-100403425D01*
X127562528Y-100403428D01*
X127557379Y-100407379D01*
X127469139Y-100522375D01*
X127413670Y-100656291D01*
X127412824Y-100662720D01*
X127412823Y-100662722D01*
X127398407Y-100772221D01*
X127394750Y-100800000D01*
X117600000Y-100800000D01*
X117600000Y-99793823D01*
X119444391Y-99793823D01*
X119445306Y-99800820D01*
X119445306Y-99800821D01*
X119446814Y-99812354D01*
X119462980Y-99935979D01*
X119465821Y-99942435D01*
X119465821Y-99942436D01*
X119473586Y-99960082D01*
X119520720Y-100067203D01*
X119529481Y-100077625D01*
X119608431Y-100171549D01*
X119608434Y-100171551D01*
X119612970Y-100176948D01*
X119618841Y-100180856D01*
X119618842Y-100180857D01*
X119628780Y-100187472D01*
X119732313Y-100256390D01*
X119804109Y-100278820D01*
X119862425Y-100297039D01*
X119862426Y-100297039D01*
X119869157Y-100299142D01*
X119940828Y-100300456D01*
X120005445Y-100301641D01*
X120005447Y-100301641D01*
X120012499Y-100301770D01*
X120019302Y-100299915D01*
X120019304Y-100299915D01*
X120096678Y-100278820D01*
X120150817Y-100264060D01*
X120272991Y-100189045D01*
X120280403Y-100180857D01*
X120364468Y-100087982D01*
X120369200Y-100082754D01*
X120431710Y-99953733D01*
X120433397Y-99943709D01*
X120454862Y-99816124D01*
X120454862Y-99816120D01*
X120455496Y-99812354D01*
X120455647Y-99800000D01*
X120435323Y-99658082D01*
X120375984Y-99527572D01*
X120282400Y-99418963D01*
X120162095Y-99340985D01*
X120024739Y-99299907D01*
X119941497Y-99299398D01*
X119888427Y-99299074D01*
X119888426Y-99299074D01*
X119881376Y-99299031D01*
X119874599Y-99300968D01*
X119874598Y-99300968D01*
X119750309Y-99336490D01*
X119750307Y-99336491D01*
X119743529Y-99338428D01*
X119622280Y-99414930D01*
X119617613Y-99420214D01*
X119617611Y-99420216D01*
X119532044Y-99517103D01*
X119532042Y-99517105D01*
X119527377Y-99522388D01*
X119466447Y-99652163D01*
X119444391Y-99793823D01*
X117600000Y-99793823D01*
X117600000Y-98493823D01*
X119444391Y-98493823D01*
X119445306Y-98500820D01*
X119445306Y-98500821D01*
X119448611Y-98526093D01*
X119462980Y-98635979D01*
X119465821Y-98642435D01*
X119465821Y-98642436D01*
X119508770Y-98740044D01*
X119520720Y-98767203D01*
X119533792Y-98782754D01*
X119608431Y-98871549D01*
X119608434Y-98871551D01*
X119612970Y-98876948D01*
X119618841Y-98880856D01*
X119618842Y-98880857D01*
X119631143Y-98889045D01*
X119732313Y-98956390D01*
X119832920Y-98987821D01*
X119862425Y-98997039D01*
X119862426Y-98997039D01*
X119869157Y-98999142D01*
X119940828Y-99000456D01*
X120005445Y-99001641D01*
X120005447Y-99001641D01*
X120012499Y-99001770D01*
X120019302Y-98999915D01*
X120019304Y-98999915D01*
X120094503Y-98979413D01*
X120150817Y-98964060D01*
X120272991Y-98889045D01*
X120280403Y-98880857D01*
X120364468Y-98787982D01*
X120369200Y-98782754D01*
X120431710Y-98653733D01*
X120435875Y-98628982D01*
X120454862Y-98516124D01*
X120454862Y-98516120D01*
X120455496Y-98512354D01*
X120455647Y-98500000D01*
X120435323Y-98358082D01*
X120375984Y-98227572D01*
X120282400Y-98118963D01*
X120162095Y-98040985D01*
X120024739Y-97999907D01*
X119941497Y-97999398D01*
X119888427Y-97999074D01*
X119888426Y-97999074D01*
X119881376Y-97999031D01*
X119874599Y-98000968D01*
X119874598Y-98000968D01*
X119750309Y-98036490D01*
X119750307Y-98036491D01*
X119743529Y-98038428D01*
X119622280Y-98114930D01*
X119617613Y-98120214D01*
X119617611Y-98120216D01*
X119532044Y-98217103D01*
X119532042Y-98217105D01*
X119527377Y-98222388D01*
X119466447Y-98352163D01*
X119465362Y-98359132D01*
X119465361Y-98359135D01*
X119450798Y-98452674D01*
X119444391Y-98493823D01*
X117600000Y-98493823D01*
X117600000Y-97193823D01*
X119444391Y-97193823D01*
X119445306Y-97200820D01*
X119445306Y-97200821D01*
X119448685Y-97226663D01*
X119462980Y-97335979D01*
X119465821Y-97342435D01*
X119465821Y-97342436D01*
X119511275Y-97445737D01*
X119520720Y-97467203D01*
X119538110Y-97487891D01*
X119608431Y-97571549D01*
X119608434Y-97571551D01*
X119612970Y-97576948D01*
X119618841Y-97580856D01*
X119618842Y-97580857D01*
X119627860Y-97586860D01*
X119732313Y-97656390D01*
X119832920Y-97687821D01*
X119862425Y-97697039D01*
X119862426Y-97697039D01*
X119869157Y-97699142D01*
X119940828Y-97700456D01*
X120005445Y-97701641D01*
X120005447Y-97701641D01*
X120012499Y-97701770D01*
X120019302Y-97699915D01*
X120019304Y-97699915D01*
X120094503Y-97679413D01*
X120150817Y-97664060D01*
X120272991Y-97589045D01*
X120280403Y-97580857D01*
X120364468Y-97487982D01*
X120369200Y-97482754D01*
X120431710Y-97353733D01*
X120434798Y-97335383D01*
X120454862Y-97216124D01*
X120454862Y-97216120D01*
X120455496Y-97212354D01*
X120455647Y-97200000D01*
X120435323Y-97058082D01*
X120396865Y-96973498D01*
X120378905Y-96933996D01*
X120378904Y-96933995D01*
X120375984Y-96927572D01*
X120297287Y-96836240D01*
X120287005Y-96824307D01*
X120287004Y-96824306D01*
X120282400Y-96818963D01*
X120162095Y-96740985D01*
X120024739Y-96699907D01*
X119941497Y-96699398D01*
X119888427Y-96699074D01*
X119888426Y-96699074D01*
X119881376Y-96699031D01*
X119874599Y-96700968D01*
X119874598Y-96700968D01*
X119750309Y-96736490D01*
X119750307Y-96736491D01*
X119743529Y-96738428D01*
X119622280Y-96814930D01*
X119617613Y-96820214D01*
X119617611Y-96820216D01*
X119532044Y-96917103D01*
X119532042Y-96917105D01*
X119527377Y-96922388D01*
X119524381Y-96928770D01*
X119524380Y-96928771D01*
X119520582Y-96936860D01*
X119466447Y-97052163D01*
X119465362Y-97059132D01*
X119465361Y-97059135D01*
X119458066Y-97105993D01*
X119444391Y-97193823D01*
X117600000Y-97193823D01*
X117600000Y-95893823D01*
X119444391Y-95893823D01*
X119445306Y-95900820D01*
X119445306Y-95900821D01*
X119458771Y-96003794D01*
X119462980Y-96035979D01*
X119465821Y-96042435D01*
X119465821Y-96042436D01*
X119516175Y-96156873D01*
X119520720Y-96167203D01*
X119566845Y-96222075D01*
X119608431Y-96271549D01*
X119608434Y-96271551D01*
X119612970Y-96276948D01*
X119618841Y-96280856D01*
X119618842Y-96280857D01*
X119631143Y-96289045D01*
X119732313Y-96356390D01*
X119832920Y-96387821D01*
X119862425Y-96397039D01*
X119862426Y-96397039D01*
X119869157Y-96399142D01*
X119940828Y-96400456D01*
X120005445Y-96401641D01*
X120005447Y-96401641D01*
X120012499Y-96401770D01*
X120019302Y-96399915D01*
X120019304Y-96399915D01*
X120094503Y-96379413D01*
X120150817Y-96364060D01*
X120272991Y-96289045D01*
X120280403Y-96280857D01*
X120364468Y-96187982D01*
X120369200Y-96182754D01*
X120431710Y-96053733D01*
X120433378Y-96043823D01*
X132794391Y-96043823D01*
X132795306Y-96050820D01*
X132795306Y-96050821D01*
X132810074Y-96163753D01*
X132812980Y-96185979D01*
X132815821Y-96192435D01*
X132815821Y-96192436D01*
X132866688Y-96308039D01*
X132870720Y-96317203D01*
X132910107Y-96364060D01*
X132958431Y-96421549D01*
X132958434Y-96421551D01*
X132962970Y-96426948D01*
X132968841Y-96430856D01*
X132968842Y-96430857D01*
X132986689Y-96442737D01*
X133082313Y-96506390D01*
X133182920Y-96537821D01*
X133212425Y-96547039D01*
X133212426Y-96547039D01*
X133219157Y-96549142D01*
X133290828Y-96550456D01*
X133355445Y-96551641D01*
X133355447Y-96551641D01*
X133362499Y-96551770D01*
X133369302Y-96549915D01*
X133369304Y-96549915D01*
X133444503Y-96529413D01*
X133500817Y-96514060D01*
X133622991Y-96439045D01*
X133630403Y-96430857D01*
X133714468Y-96337982D01*
X133719200Y-96332754D01*
X133781710Y-96203733D01*
X133785875Y-96178982D01*
X133804862Y-96066124D01*
X133804862Y-96066120D01*
X133805496Y-96062354D01*
X133805647Y-96050000D01*
X133785323Y-95908082D01*
X133725984Y-95777572D01*
X133632400Y-95668963D01*
X133512095Y-95590985D01*
X133374739Y-95549907D01*
X133291497Y-95549398D01*
X133238427Y-95549074D01*
X133238426Y-95549074D01*
X133231376Y-95549031D01*
X133224599Y-95550968D01*
X133224598Y-95550968D01*
X133100309Y-95586490D01*
X133100307Y-95586491D01*
X133093529Y-95588428D01*
X132972280Y-95664930D01*
X132967613Y-95670214D01*
X132967611Y-95670216D01*
X132882044Y-95767103D01*
X132882042Y-95767105D01*
X132877377Y-95772388D01*
X132874381Y-95778770D01*
X132874380Y-95778771D01*
X132855469Y-95819050D01*
X132816447Y-95902163D01*
X132815362Y-95909132D01*
X132815361Y-95909135D01*
X132804485Y-95978993D01*
X132794391Y-96043823D01*
X120433378Y-96043823D01*
X120454862Y-95916124D01*
X120454862Y-95916120D01*
X120455496Y-95912354D01*
X120455647Y-95900000D01*
X120435323Y-95758082D01*
X120375984Y-95627572D01*
X120312937Y-95554403D01*
X120287005Y-95524307D01*
X120287004Y-95524306D01*
X120282400Y-95518963D01*
X120162095Y-95440985D01*
X120024739Y-95399907D01*
X119941497Y-95399398D01*
X119888427Y-95399074D01*
X119888426Y-95399074D01*
X119881376Y-95399031D01*
X119874599Y-95400968D01*
X119874598Y-95400968D01*
X119750309Y-95436490D01*
X119750307Y-95436491D01*
X119743529Y-95438428D01*
X119622280Y-95514930D01*
X119617613Y-95520214D01*
X119617611Y-95520216D01*
X119532044Y-95617103D01*
X119532042Y-95617105D01*
X119527377Y-95622388D01*
X119466447Y-95752163D01*
X119465362Y-95759132D01*
X119465361Y-95759135D01*
X119450680Y-95853430D01*
X119444391Y-95893823D01*
X117600000Y-95893823D01*
X117600000Y-95000000D01*
X131919750Y-95000000D01*
X131920597Y-95006433D01*
X131937610Y-95135655D01*
X131938670Y-95143709D01*
X131994139Y-95277625D01*
X132082379Y-95392621D01*
X132197375Y-95480861D01*
X132331291Y-95536330D01*
X132337720Y-95537176D01*
X132337722Y-95537177D01*
X132468567Y-95554403D01*
X132475000Y-95555250D01*
X132481433Y-95554403D01*
X132612278Y-95537177D01*
X132612280Y-95537176D01*
X132618709Y-95536330D01*
X132752625Y-95480861D01*
X132867621Y-95392621D01*
X132955861Y-95277625D01*
X133011330Y-95143709D01*
X133012391Y-95135655D01*
X133029403Y-95006433D01*
X133030250Y-95000000D01*
X133020682Y-94927325D01*
X133012177Y-94862722D01*
X133012176Y-94862720D01*
X133011330Y-94856291D01*
X132955861Y-94722375D01*
X132867621Y-94607379D01*
X132752625Y-94519139D01*
X132618709Y-94463670D01*
X132612280Y-94462824D01*
X132612278Y-94462823D01*
X132481433Y-94445597D01*
X132475000Y-94444750D01*
X132468567Y-94445597D01*
X132337722Y-94462823D01*
X132337720Y-94462824D01*
X132331291Y-94463670D01*
X132197375Y-94519139D01*
X132082379Y-94607379D01*
X131994139Y-94722375D01*
X131938670Y-94856291D01*
X131937824Y-94862720D01*
X131937823Y-94862722D01*
X131929318Y-94927325D01*
X131919750Y-95000000D01*
X117600000Y-95000000D01*
X117600000Y-94799000D01*
X117618907Y-94740809D01*
X117668407Y-94704845D01*
X117699000Y-94700000D01*
X123800000Y-94700000D01*
X123800000Y-93126100D01*
X123818907Y-93067909D01*
X123868407Y-93031945D01*
X123899000Y-93027100D01*
X126042180Y-93027100D01*
X126046359Y-93027407D01*
X126051104Y-93029036D01*
X126100810Y-93027170D01*
X126104523Y-93027100D01*
X126124097Y-93027100D01*
X126128535Y-93026274D01*
X126133801Y-93025932D01*
X126150369Y-93025310D01*
X126163566Y-93024814D01*
X126171962Y-93021207D01*
X126171965Y-93021206D01*
X126174254Y-93020222D01*
X126195206Y-93013857D01*
X126197649Y-93013402D01*
X126197653Y-93013400D01*
X126206639Y-93011727D01*
X126229469Y-92997654D01*
X126242331Y-92990974D01*
X126260545Y-92983149D01*
X126260548Y-92983147D01*
X126266968Y-92980389D01*
X126271877Y-92976357D01*
X126276310Y-92971924D01*
X126294367Y-92957652D01*
X126294660Y-92957471D01*
X126302442Y-92952674D01*
X126307972Y-92945401D01*
X126307976Y-92945398D01*
X126320226Y-92929288D01*
X126329026Y-92919208D01*
X127992211Y-91256023D01*
X135003391Y-91256023D01*
X135004306Y-91263020D01*
X135004306Y-91263021D01*
X135005814Y-91274554D01*
X135021980Y-91398179D01*
X135024821Y-91404635D01*
X135024821Y-91404636D01*
X135063536Y-91492621D01*
X135079720Y-91529403D01*
X135116498Y-91573156D01*
X135167431Y-91633749D01*
X135167434Y-91633751D01*
X135171970Y-91639148D01*
X135177841Y-91643056D01*
X135177842Y-91643057D01*
X135183121Y-91646571D01*
X135291313Y-91718590D01*
X135381229Y-91746681D01*
X135421425Y-91759239D01*
X135421426Y-91759239D01*
X135428157Y-91761342D01*
X135499828Y-91762656D01*
X135564445Y-91763841D01*
X135564447Y-91763841D01*
X135571499Y-91763970D01*
X135578302Y-91762115D01*
X135578304Y-91762115D01*
X135671645Y-91736667D01*
X135709817Y-91726260D01*
X135831991Y-91651245D01*
X135839403Y-91643057D01*
X135923468Y-91550182D01*
X135928200Y-91544954D01*
X135990710Y-91415933D01*
X135992508Y-91405250D01*
X136013862Y-91278324D01*
X136013862Y-91278320D01*
X136014496Y-91274554D01*
X136014647Y-91262200D01*
X135994323Y-91120282D01*
X135934984Y-90989772D01*
X135841400Y-90881163D01*
X135721095Y-90803185D01*
X135583739Y-90762107D01*
X135500497Y-90761598D01*
X135447427Y-90761274D01*
X135447426Y-90761274D01*
X135440376Y-90761231D01*
X135433599Y-90763168D01*
X135433598Y-90763168D01*
X135309309Y-90798690D01*
X135309307Y-90798691D01*
X135302529Y-90800628D01*
X135181280Y-90877130D01*
X135176613Y-90882414D01*
X135176611Y-90882416D01*
X135091044Y-90979303D01*
X135091042Y-90979305D01*
X135086377Y-90984588D01*
X135025447Y-91114363D01*
X135003391Y-91256023D01*
X127992211Y-91256023D01*
X130486618Y-88761616D01*
X130541135Y-88733839D01*
X130601567Y-88743410D01*
X130631174Y-88766482D01*
X130640039Y-88776628D01*
X130718549Y-88823536D01*
X130776740Y-88842443D01*
X130780584Y-88843052D01*
X130780589Y-88843053D01*
X130836394Y-88851891D01*
X130836399Y-88851891D01*
X130840242Y-88852500D01*
X134226872Y-88852500D01*
X134285063Y-88871407D01*
X134296876Y-88881496D01*
X137039981Y-91624601D01*
X137067758Y-91679118D01*
X137068976Y-91694230D01*
X137075017Y-93289533D01*
X137080963Y-94859457D01*
X137080999Y-94869063D01*
X137062312Y-94927325D01*
X137049667Y-94941702D01*
X136976746Y-95009980D01*
X136967363Y-95018766D01*
X136911963Y-95044737D01*
X136899698Y-95045500D01*
X135087000Y-95045500D01*
X135054856Y-95048030D01*
X135024263Y-95052875D01*
X135018874Y-95055107D01*
X135018871Y-95055108D01*
X134941010Y-95087358D01*
X134941008Y-95087359D01*
X134935617Y-95089592D01*
X134886117Y-95125556D01*
X134858372Y-95149797D01*
X134811464Y-95228307D01*
X134809748Y-95233590D01*
X134809747Y-95233591D01*
X134793767Y-95282774D01*
X134792557Y-95286498D01*
X134782500Y-95350000D01*
X134782500Y-95898900D01*
X134763593Y-95957091D01*
X134714093Y-95993055D01*
X134683500Y-95997900D01*
X134671903Y-95997900D01*
X134667465Y-95998726D01*
X134662199Y-95999068D01*
X134645631Y-95999690D01*
X134632434Y-96000186D01*
X134624038Y-96003793D01*
X134624035Y-96003794D01*
X134621746Y-96004778D01*
X134600794Y-96011143D01*
X134598351Y-96011598D01*
X134598347Y-96011600D01*
X134589361Y-96013273D01*
X134566531Y-96027346D01*
X134553669Y-96034026D01*
X134535455Y-96041851D01*
X134535452Y-96041853D01*
X134529032Y-96044611D01*
X134524123Y-96048643D01*
X134519690Y-96053076D01*
X134501633Y-96067348D01*
X134501340Y-96067529D01*
X134493558Y-96072326D01*
X134488028Y-96079598D01*
X134488026Y-96079600D01*
X134487397Y-96080428D01*
X134486190Y-96081265D01*
X134481254Y-96085741D01*
X134480669Y-96085096D01*
X134437124Y-96115303D01*
X134407989Y-96119501D01*
X134341169Y-96119093D01*
X134334118Y-96119050D01*
X134327341Y-96120987D01*
X134327340Y-96120987D01*
X134208560Y-96154935D01*
X134208559Y-96154936D01*
X134201780Y-96156873D01*
X134195818Y-96160635D01*
X134195815Y-96160636D01*
X134127511Y-96203733D01*
X134085376Y-96230318D01*
X134080707Y-96235605D01*
X133998932Y-96328197D01*
X133998930Y-96328199D01*
X133994265Y-96333482D01*
X133991269Y-96339864D01*
X133991268Y-96339865D01*
X133979038Y-96365914D01*
X133935770Y-96458071D01*
X133914595Y-96594069D01*
X133932441Y-96730545D01*
X133935282Y-96737001D01*
X133935282Y-96737002D01*
X133978260Y-96834676D01*
X133987874Y-96856526D01*
X133992411Y-96861923D01*
X133992412Y-96861925D01*
X134032367Y-96909457D01*
X134076438Y-96961885D01*
X134082309Y-96965793D01*
X134082310Y-96965794D01*
X134113778Y-96986741D01*
X134191012Y-97038152D01*
X134197739Y-97040254D01*
X134197742Y-97040255D01*
X134315655Y-97077093D01*
X134315656Y-97077093D01*
X134322387Y-97079196D01*
X134391194Y-97080457D01*
X134452947Y-97081590D01*
X134452949Y-97081590D01*
X134460001Y-97081719D01*
X134466804Y-97079864D01*
X134466806Y-97079864D01*
X134570256Y-97051660D01*
X134592792Y-97045516D01*
X134631699Y-97021627D01*
X134691181Y-97007291D01*
X134747730Y-97030657D01*
X134779744Y-97082798D01*
X134782500Y-97105993D01*
X134782500Y-97184000D01*
X134785030Y-97216144D01*
X134789875Y-97246737D01*
X134792107Y-97252126D01*
X134792108Y-97252129D01*
X134824358Y-97329990D01*
X134826592Y-97335383D01*
X134862556Y-97384883D01*
X134886797Y-97412628D01*
X134965307Y-97459536D01*
X134970590Y-97461252D01*
X134970591Y-97461253D01*
X135019795Y-97477240D01*
X135023498Y-97478443D01*
X135027342Y-97479052D01*
X135027347Y-97479053D01*
X135083152Y-97487891D01*
X135083157Y-97487891D01*
X135087000Y-97488500D01*
X137738654Y-97488500D01*
X137758869Y-97487503D01*
X137760080Y-97487383D01*
X137760084Y-97487383D01*
X137773168Y-97486090D01*
X137773172Y-97486089D01*
X137778252Y-97485587D01*
X137799016Y-97479053D01*
X137853701Y-97461845D01*
X137853703Y-97461844D01*
X137858575Y-97460311D01*
X137865040Y-97456685D01*
X137908544Y-97432281D01*
X137908545Y-97432280D01*
X137911938Y-97430377D01*
X137934420Y-97412628D01*
X137959355Y-97392943D01*
X137959358Y-97392940D01*
X137962402Y-97390537D01*
X137990515Y-97360082D01*
X138274747Y-97052163D01*
X138408156Y-96907637D01*
X138409736Y-96905504D01*
X138409742Y-96905497D01*
X138432892Y-96874247D01*
X138434483Y-96872100D01*
X138455892Y-96835543D01*
X138463712Y-96820856D01*
X138484063Y-96731693D01*
X138484063Y-96701100D01*
X138502970Y-96642909D01*
X138552470Y-96606945D01*
X138583063Y-96602100D01*
X139081658Y-96602100D01*
X139139849Y-96621007D01*
X139175813Y-96670507D01*
X139175813Y-96731693D01*
X139151662Y-96771104D01*
X138028862Y-97893904D01*
X137974345Y-97921681D01*
X137958858Y-97922900D01*
X134794391Y-97922900D01*
X134736200Y-97903993D01*
X134719393Y-97888524D01*
X134694117Y-97859189D01*
X134688200Y-97855354D01*
X134688198Y-97855352D01*
X134584541Y-97788166D01*
X134584539Y-97788165D01*
X134578619Y-97784328D01*
X134446753Y-97744891D01*
X134366888Y-97744403D01*
X134316169Y-97744093D01*
X134316168Y-97744093D01*
X134309118Y-97744050D01*
X134302341Y-97745987D01*
X134302340Y-97745987D01*
X134183560Y-97779935D01*
X134183559Y-97779936D01*
X134176780Y-97781873D01*
X134170818Y-97785635D01*
X134170815Y-97785636D01*
X134084479Y-97840110D01*
X134060376Y-97855318D01*
X134055707Y-97860605D01*
X133973932Y-97953197D01*
X133973930Y-97953199D01*
X133969265Y-97958482D01*
X133910770Y-98083071D01*
X133909685Y-98090042D01*
X133909684Y-98090044D01*
X133896825Y-98172631D01*
X133889595Y-98219069D01*
X133890510Y-98226067D01*
X133890510Y-98226068D01*
X133897924Y-98282766D01*
X133886721Y-98342917D01*
X133842302Y-98384995D01*
X133799155Y-98394600D01*
X133716169Y-98394093D01*
X133716168Y-98394093D01*
X133709118Y-98394050D01*
X133702341Y-98395987D01*
X133702340Y-98395987D01*
X133583560Y-98429935D01*
X133583559Y-98429936D01*
X133576780Y-98431873D01*
X133570818Y-98435635D01*
X133570815Y-98435636D01*
X133478563Y-98493843D01*
X133460376Y-98505318D01*
X133455707Y-98510605D01*
X133373932Y-98603197D01*
X133373930Y-98603199D01*
X133369265Y-98608482D01*
X133310770Y-98733071D01*
X133309685Y-98740042D01*
X133309684Y-98740044D01*
X133304615Y-98772602D01*
X133289595Y-98869069D01*
X133307441Y-99005545D01*
X133310282Y-99012001D01*
X133310282Y-99012002D01*
X133352290Y-99107471D01*
X133362874Y-99131526D01*
X133367411Y-99136923D01*
X133367412Y-99136925D01*
X133402957Y-99179210D01*
X133451438Y-99236885D01*
X133457309Y-99240793D01*
X133457310Y-99240794D01*
X133463253Y-99244750D01*
X133566012Y-99313152D01*
X133572739Y-99315254D01*
X133572742Y-99315255D01*
X133690655Y-99352093D01*
X133690656Y-99352093D01*
X133697387Y-99354196D01*
X133766194Y-99355458D01*
X133827947Y-99356590D01*
X133827949Y-99356590D01*
X133835001Y-99356719D01*
X133841804Y-99354864D01*
X133841806Y-99354864D01*
X133914145Y-99335142D01*
X133967792Y-99320516D01*
X134085084Y-99248498D01*
X134096670Y-99235698D01*
X134120236Y-99209663D01*
X134173304Y-99179210D01*
X134193633Y-99177100D01*
X138496180Y-99177100D01*
X138500359Y-99177407D01*
X138505104Y-99179036D01*
X138554810Y-99177170D01*
X138558523Y-99177100D01*
X138578097Y-99177100D01*
X138582535Y-99176274D01*
X138587801Y-99175932D01*
X138604369Y-99175310D01*
X138617566Y-99174814D01*
X138625962Y-99171207D01*
X138625965Y-99171206D01*
X138628254Y-99170222D01*
X138649206Y-99163857D01*
X138651649Y-99163402D01*
X138651653Y-99163400D01*
X138660639Y-99161727D01*
X138683469Y-99147654D01*
X138696331Y-99140974D01*
X138714545Y-99133149D01*
X138714548Y-99133147D01*
X138720968Y-99130389D01*
X138725877Y-99126357D01*
X138730310Y-99121924D01*
X138748367Y-99107652D01*
X138748660Y-99107471D01*
X138756442Y-99102674D01*
X138761972Y-99095401D01*
X138761976Y-99095398D01*
X138774226Y-99079288D01*
X138783026Y-99069208D01*
X139926541Y-97925693D01*
X139981058Y-97897916D01*
X140041490Y-97907487D01*
X140066280Y-97927190D01*
X140066642Y-97926785D01*
X140071899Y-97931486D01*
X140076438Y-97936885D01*
X140082309Y-97940793D01*
X140082310Y-97940794D01*
X140093884Y-97948498D01*
X140191012Y-98013152D01*
X140197739Y-98015254D01*
X140197742Y-98015255D01*
X140315655Y-98052093D01*
X140315656Y-98052093D01*
X140322387Y-98054196D01*
X140391194Y-98055458D01*
X140452947Y-98056590D01*
X140452949Y-98056590D01*
X140460001Y-98056719D01*
X140466804Y-98054864D01*
X140466806Y-98054864D01*
X140539145Y-98035142D01*
X140592792Y-98020516D01*
X140710084Y-97948498D01*
X140734358Y-97921681D01*
X140797717Y-97851683D01*
X140797717Y-97851682D01*
X140802449Y-97846455D01*
X140862461Y-97722590D01*
X140863631Y-97715637D01*
X140863632Y-97715633D01*
X140884662Y-97590630D01*
X140884662Y-97590627D01*
X140885296Y-97586860D01*
X140885441Y-97575000D01*
X140865929Y-97438753D01*
X140808961Y-97313459D01*
X140746501Y-97240970D01*
X140723722Y-97214533D01*
X140723721Y-97214532D01*
X140719117Y-97209189D01*
X140713200Y-97205354D01*
X140713198Y-97205352D01*
X140609541Y-97138166D01*
X140609539Y-97138165D01*
X140603619Y-97134328D01*
X140471753Y-97094891D01*
X140457761Y-97094806D01*
X140450172Y-97094759D01*
X140392098Y-97075496D01*
X140356438Y-97025777D01*
X140353150Y-96979336D01*
X140359662Y-96940630D01*
X140359662Y-96940627D01*
X140360296Y-96936860D01*
X140360441Y-96925000D01*
X140356096Y-96894662D01*
X140366562Y-96834379D01*
X140410464Y-96791761D01*
X140446121Y-96783823D01*
X140445951Y-96782461D01*
X140452948Y-96781590D01*
X140460001Y-96781719D01*
X140466804Y-96779864D01*
X140466806Y-96779864D01*
X140539145Y-96760142D01*
X140592792Y-96745516D01*
X140710084Y-96673498D01*
X140770325Y-96606945D01*
X140797717Y-96576683D01*
X140797717Y-96576682D01*
X140802449Y-96571455D01*
X140862461Y-96447590D01*
X140863631Y-96440637D01*
X140863632Y-96440633D01*
X140884662Y-96315630D01*
X140884662Y-96315627D01*
X140885296Y-96311860D01*
X140885441Y-96300000D01*
X140865929Y-96163753D01*
X140827667Y-96079600D01*
X140811882Y-96044883D01*
X140811881Y-96044882D01*
X140808961Y-96038459D01*
X140742768Y-95961637D01*
X140723722Y-95939533D01*
X140723721Y-95939532D01*
X140719117Y-95934189D01*
X140713200Y-95930354D01*
X140713198Y-95930352D01*
X140609541Y-95863166D01*
X140609539Y-95863165D01*
X140603619Y-95859328D01*
X140471753Y-95819891D01*
X140391888Y-95819403D01*
X140341169Y-95819093D01*
X140341168Y-95819093D01*
X140334118Y-95819050D01*
X140327341Y-95820987D01*
X140327340Y-95820987D01*
X140208560Y-95854935D01*
X140208559Y-95854936D01*
X140201780Y-95856873D01*
X140195818Y-95860635D01*
X140195815Y-95860636D01*
X140120618Y-95908082D01*
X140085376Y-95930318D01*
X140080709Y-95935602D01*
X140080707Y-95935604D01*
X140055246Y-95964434D01*
X140002554Y-95995534D01*
X139981042Y-95997900D01*
X139474027Y-95997900D01*
X139415836Y-95978993D01*
X139379872Y-95929493D01*
X139379872Y-95868307D01*
X139401281Y-95831750D01*
X139430104Y-95800525D01*
X139430597Y-95799991D01*
X139438747Y-95790608D01*
X139446320Y-95781337D01*
X139482857Y-95714074D01*
X139501537Y-95655810D01*
X139511346Y-95592270D01*
X139511103Y-95529847D01*
X139504983Y-93957585D01*
X139523663Y-93899321D01*
X139573023Y-93863165D01*
X139634208Y-93862927D01*
X139683848Y-93898698D01*
X139685514Y-93901163D01*
X139687874Y-93906526D01*
X139776438Y-94011885D01*
X139891012Y-94088152D01*
X139897739Y-94090254D01*
X139897742Y-94090255D01*
X140015655Y-94127093D01*
X140015656Y-94127093D01*
X140022387Y-94129196D01*
X140057060Y-94129832D01*
X140077849Y-94130213D01*
X140135683Y-94150184D01*
X140146038Y-94159192D01*
X141093504Y-95106659D01*
X141121281Y-95161176D01*
X141122500Y-95176663D01*
X141122500Y-99073337D01*
X141103593Y-99131528D01*
X141093504Y-99143341D01*
X133151592Y-107085254D01*
X133145224Y-107091089D01*
X133115250Y-107116240D01*
X133110922Y-107123737D01*
X133110920Y-107123739D01*
X133095686Y-107150126D01*
X133091044Y-107157413D01*
X133073574Y-107182361D01*
X133073572Y-107182364D01*
X133068606Y-107189457D01*
X133066364Y-107197823D01*
X133063856Y-107203202D01*
X133061832Y-107208763D01*
X133057503Y-107216261D01*
X133055999Y-107224788D01*
X133055999Y-107224789D01*
X133050709Y-107254790D01*
X133048841Y-107263219D01*
X133038713Y-107301016D01*
X133039468Y-107309643D01*
X133042123Y-107339988D01*
X133042500Y-107348617D01*
X133042500Y-116427569D01*
X133023593Y-116485760D01*
X132980583Y-116519361D01*
X132979216Y-116519913D01*
X132974572Y-116521280D01*
X132970290Y-116523519D01*
X132970284Y-116523521D01*
X132889664Y-116565669D01*
X132792002Y-116616726D01*
X132788231Y-116619758D01*
X132635220Y-116742781D01*
X132635217Y-116742783D01*
X132631447Y-116745815D01*
X132628333Y-116749526D01*
X132628332Y-116749527D01*
X132593837Y-116790637D01*
X132499024Y-116903630D01*
X132496689Y-116907878D01*
X132496688Y-116907879D01*
X132489955Y-116920126D01*
X132399776Y-117084162D01*
X132398313Y-117088775D01*
X132398311Y-117088779D01*
X132363865Y-117197369D01*
X132337484Y-117280532D01*
X132336944Y-117285344D01*
X132336944Y-117285345D01*
X132317418Y-117459430D01*
X132314520Y-117485262D01*
X132314925Y-117490082D01*
X132331059Y-117682214D01*
X132331759Y-117690553D01*
X132333092Y-117695201D01*
X132333092Y-117695202D01*
X132349814Y-117753517D01*
X132388544Y-117888586D01*
X132482712Y-118071818D01*
X132610677Y-118233270D01*
X132614357Y-118236402D01*
X132614359Y-118236404D01*
X132727017Y-118332283D01*
X132767564Y-118366791D01*
X132771787Y-118369151D01*
X132771791Y-118369154D01*
X132811342Y-118391258D01*
X132947398Y-118467297D01*
X132951996Y-118468791D01*
X133138724Y-118529463D01*
X133138726Y-118529464D01*
X133143329Y-118530959D01*
X133347894Y-118555351D01*
X133352716Y-118554980D01*
X133352719Y-118554980D01*
X133420541Y-118549761D01*
X133553300Y-118539546D01*
X133751725Y-118484145D01*
X133756038Y-118481966D01*
X133756044Y-118481964D01*
X133931289Y-118393441D01*
X133931291Y-118393440D01*
X133935610Y-118391258D01*
X133970943Y-118363653D01*
X134094135Y-118267406D01*
X134094139Y-118267402D01*
X134097951Y-118264424D01*
X134232564Y-118108472D01*
X134251231Y-118075613D01*
X134331934Y-117933550D01*
X134331935Y-117933547D01*
X134334323Y-117929344D01*
X134347882Y-117888586D01*
X134397824Y-117738454D01*
X134397824Y-117738452D01*
X134399351Y-117733863D01*
X134401961Y-117713207D01*
X134424823Y-117532228D01*
X134425171Y-117529474D01*
X134425583Y-117500000D01*
X134424138Y-117485262D01*
X134854520Y-117485262D01*
X134854925Y-117490082D01*
X134871059Y-117682214D01*
X134871759Y-117690553D01*
X134873092Y-117695201D01*
X134873092Y-117695202D01*
X134889814Y-117753517D01*
X134928544Y-117888586D01*
X135022712Y-118071818D01*
X135150677Y-118233270D01*
X135154357Y-118236402D01*
X135154359Y-118236404D01*
X135267017Y-118332283D01*
X135307564Y-118366791D01*
X135311787Y-118369151D01*
X135311791Y-118369154D01*
X135351342Y-118391258D01*
X135487398Y-118467297D01*
X135491996Y-118468791D01*
X135678724Y-118529463D01*
X135678726Y-118529464D01*
X135683329Y-118530959D01*
X135887894Y-118555351D01*
X135892716Y-118554980D01*
X135892719Y-118554980D01*
X135960541Y-118549761D01*
X136093300Y-118539546D01*
X136291725Y-118484145D01*
X136296038Y-118481966D01*
X136296044Y-118481964D01*
X136471289Y-118393441D01*
X136471291Y-118393440D01*
X136475610Y-118391258D01*
X136510943Y-118363653D01*
X136634135Y-118267406D01*
X136634139Y-118267402D01*
X136637951Y-118264424D01*
X136772564Y-118108472D01*
X136791231Y-118075613D01*
X136871934Y-117933550D01*
X136871935Y-117933547D01*
X136874323Y-117929344D01*
X136887882Y-117888586D01*
X136937824Y-117738454D01*
X136937824Y-117738452D01*
X136939351Y-117733863D01*
X136941961Y-117713207D01*
X136964823Y-117532228D01*
X136965171Y-117529474D01*
X136965583Y-117500000D01*
X136964138Y-117485262D01*
X137394520Y-117485262D01*
X137394925Y-117490082D01*
X137411059Y-117682214D01*
X137411759Y-117690553D01*
X137413092Y-117695201D01*
X137413092Y-117695202D01*
X137429814Y-117753517D01*
X137468544Y-117888586D01*
X137562712Y-118071818D01*
X137690677Y-118233270D01*
X137694357Y-118236402D01*
X137694359Y-118236404D01*
X137807017Y-118332283D01*
X137847564Y-118366791D01*
X137851787Y-118369151D01*
X137851791Y-118369154D01*
X137891342Y-118391258D01*
X138027398Y-118467297D01*
X138031996Y-118468791D01*
X138218724Y-118529463D01*
X138218726Y-118529464D01*
X138223329Y-118530959D01*
X138427894Y-118555351D01*
X138432716Y-118554980D01*
X138432719Y-118554980D01*
X138500541Y-118549761D01*
X138633300Y-118539546D01*
X138831725Y-118484145D01*
X138836038Y-118481966D01*
X138836044Y-118481964D01*
X139011289Y-118393441D01*
X139011291Y-118393440D01*
X139015610Y-118391258D01*
X139050943Y-118363653D01*
X139174135Y-118267406D01*
X139174139Y-118267402D01*
X139177951Y-118264424D01*
X139312564Y-118108472D01*
X139331231Y-118075613D01*
X139411934Y-117933550D01*
X139411935Y-117933547D01*
X139414323Y-117929344D01*
X139427882Y-117888586D01*
X139477824Y-117738454D01*
X139477824Y-117738452D01*
X139479351Y-117733863D01*
X139481961Y-117713207D01*
X139504823Y-117532228D01*
X139505171Y-117529474D01*
X139505583Y-117500000D01*
X139503667Y-117480454D01*
X139485952Y-117299780D01*
X139485951Y-117299776D01*
X139485480Y-117294970D01*
X139425935Y-117097749D01*
X139329218Y-116915849D01*
X139199011Y-116756200D01*
X139040275Y-116624882D01*
X138859055Y-116526897D01*
X138795855Y-116507333D01*
X138666875Y-116467407D01*
X138666871Y-116467406D01*
X138662254Y-116465977D01*
X138657446Y-116465472D01*
X138657443Y-116465471D01*
X138462185Y-116444949D01*
X138462183Y-116444949D01*
X138457369Y-116444443D01*
X138397354Y-116449905D01*
X138257022Y-116462675D01*
X138257017Y-116462676D01*
X138252203Y-116463114D01*
X138054572Y-116521280D01*
X138050288Y-116523519D01*
X138050287Y-116523520D01*
X138039428Y-116529197D01*
X137872002Y-116616726D01*
X137868231Y-116619758D01*
X137715220Y-116742781D01*
X137715217Y-116742783D01*
X137711447Y-116745815D01*
X137708333Y-116749526D01*
X137708332Y-116749527D01*
X137673837Y-116790637D01*
X137579024Y-116903630D01*
X137576689Y-116907878D01*
X137576688Y-116907879D01*
X137569955Y-116920126D01*
X137479776Y-117084162D01*
X137478313Y-117088775D01*
X137478311Y-117088779D01*
X137443865Y-117197369D01*
X137417484Y-117280532D01*
X137416944Y-117285344D01*
X137416944Y-117285345D01*
X137397418Y-117459430D01*
X137394520Y-117485262D01*
X136964138Y-117485262D01*
X136963667Y-117480454D01*
X136945952Y-117299780D01*
X136945951Y-117299776D01*
X136945480Y-117294970D01*
X136885935Y-117097749D01*
X136789218Y-116915849D01*
X136659011Y-116756200D01*
X136500275Y-116624882D01*
X136319055Y-116526897D01*
X136255855Y-116507333D01*
X136126875Y-116467407D01*
X136126871Y-116467406D01*
X136122254Y-116465977D01*
X136117446Y-116465472D01*
X136117443Y-116465471D01*
X135922185Y-116444949D01*
X135922183Y-116444949D01*
X135917369Y-116444443D01*
X135857354Y-116449905D01*
X135717022Y-116462675D01*
X135717017Y-116462676D01*
X135712203Y-116463114D01*
X135514572Y-116521280D01*
X135510288Y-116523519D01*
X135510287Y-116523520D01*
X135499428Y-116529197D01*
X135332002Y-116616726D01*
X135328231Y-116619758D01*
X135175220Y-116742781D01*
X135175217Y-116742783D01*
X135171447Y-116745815D01*
X135168333Y-116749526D01*
X135168332Y-116749527D01*
X135133837Y-116790637D01*
X135039024Y-116903630D01*
X135036689Y-116907878D01*
X135036688Y-116907879D01*
X135029955Y-116920126D01*
X134939776Y-117084162D01*
X134938313Y-117088775D01*
X134938311Y-117088779D01*
X134903865Y-117197369D01*
X134877484Y-117280532D01*
X134876944Y-117285344D01*
X134876944Y-117285345D01*
X134857418Y-117459430D01*
X134854520Y-117485262D01*
X134424138Y-117485262D01*
X134423667Y-117480454D01*
X134405952Y-117299780D01*
X134405951Y-117299776D01*
X134405480Y-117294970D01*
X134345935Y-117097749D01*
X134249218Y-116915849D01*
X134119011Y-116756200D01*
X133960275Y-116624882D01*
X133779055Y-116526897D01*
X133768149Y-116523521D01*
X133767225Y-116523235D01*
X133717228Y-116487965D01*
X133697500Y-116428662D01*
X133697500Y-116335964D01*
X144642112Y-116335964D01*
X144650736Y-116565669D01*
X144697939Y-116790637D01*
X144782372Y-117004436D01*
X144901621Y-117200952D01*
X145052276Y-117374566D01*
X145230029Y-117520315D01*
X145429798Y-117634030D01*
X145645871Y-117712461D01*
X145695293Y-117721398D01*
X145868865Y-117752785D01*
X145868871Y-117752786D01*
X145872069Y-117753364D01*
X145891041Y-117754259D01*
X145895011Y-117754446D01*
X145895015Y-117754446D01*
X145896158Y-117754500D01*
X146057712Y-117754500D01*
X146059795Y-117754323D01*
X146059801Y-117754323D01*
X146224873Y-117740316D01*
X146224874Y-117740316D01*
X146229044Y-117739962D01*
X146233094Y-117738911D01*
X146233099Y-117738910D01*
X146447483Y-117683267D01*
X146447486Y-117683266D01*
X146451539Y-117682214D01*
X146661123Y-117587803D01*
X146851803Y-117459430D01*
X146937974Y-117377227D01*
X147015094Y-117303659D01*
X147015098Y-117303654D01*
X147018128Y-117300764D01*
X147155342Y-117116342D01*
X147173862Y-117079915D01*
X147257623Y-116915170D01*
X147257625Y-116915166D01*
X147259520Y-116911438D01*
X147327685Y-116691911D01*
X147344973Y-116561478D01*
X147357338Y-116468187D01*
X147357338Y-116468185D01*
X147357888Y-116464036D01*
X147357172Y-116444949D01*
X147349421Y-116238522D01*
X147349264Y-116234331D01*
X147302061Y-116009363D01*
X147217628Y-115795564D01*
X147098379Y-115599048D01*
X146947724Y-115425434D01*
X146769971Y-115279685D01*
X146570202Y-115165970D01*
X146354129Y-115087539D01*
X146304707Y-115078602D01*
X146131135Y-115047215D01*
X146131129Y-115047214D01*
X146127931Y-115046636D01*
X146108959Y-115045741D01*
X146104989Y-115045554D01*
X146104985Y-115045554D01*
X146103842Y-115045500D01*
X145942288Y-115045500D01*
X145940205Y-115045677D01*
X145940199Y-115045677D01*
X145775127Y-115059684D01*
X145775126Y-115059684D01*
X145770956Y-115060038D01*
X145766906Y-115061089D01*
X145766901Y-115061090D01*
X145552517Y-115116733D01*
X145552514Y-115116734D01*
X145548461Y-115117786D01*
X145338877Y-115212197D01*
X145148197Y-115340570D01*
X145145156Y-115343471D01*
X144984906Y-115496341D01*
X144984902Y-115496346D01*
X144981872Y-115499236D01*
X144844658Y-115683658D01*
X144842756Y-115687399D01*
X144789583Y-115791984D01*
X144740480Y-115888562D01*
X144672315Y-116108089D01*
X144642112Y-116335964D01*
X133697500Y-116335964D01*
X133697500Y-107506662D01*
X133716407Y-107448471D01*
X133726496Y-107436658D01*
X137693408Y-103469747D01*
X141668414Y-99494741D01*
X141674782Y-99488906D01*
X141698115Y-99469328D01*
X141698117Y-99469326D01*
X141704750Y-99463760D01*
X141724312Y-99429879D01*
X141728952Y-99422595D01*
X141746425Y-99397642D01*
X141746426Y-99397639D01*
X141751395Y-99390543D01*
X141753638Y-99382172D01*
X141756141Y-99376803D01*
X141758166Y-99371240D01*
X141762497Y-99363739D01*
X141769291Y-99325210D01*
X141771160Y-99316780D01*
X141779046Y-99287348D01*
X141781287Y-99278984D01*
X141777877Y-99240007D01*
X141777500Y-99231379D01*
X141777500Y-95018608D01*
X141777877Y-95009980D01*
X141780531Y-94979643D01*
X141781286Y-94971015D01*
X141771162Y-94933233D01*
X141769292Y-94924799D01*
X141764001Y-94894791D01*
X141762497Y-94886261D01*
X141758167Y-94878760D01*
X141756141Y-94873194D01*
X141753636Y-94867822D01*
X141751394Y-94859457D01*
X141728958Y-94827415D01*
X141724318Y-94820131D01*
X141709082Y-94793741D01*
X141709078Y-94793736D01*
X141704750Y-94786240D01*
X141674782Y-94761094D01*
X141668414Y-94755259D01*
X141157433Y-94244278D01*
X140612487Y-93699333D01*
X140584491Y-93643364D01*
X140566929Y-93520737D01*
X140565929Y-93513753D01*
X140508961Y-93388459D01*
X140419117Y-93284189D01*
X140413200Y-93280354D01*
X140413198Y-93280352D01*
X140309541Y-93213166D01*
X140309539Y-93213165D01*
X140303619Y-93209328D01*
X140171753Y-93169891D01*
X140091888Y-93169403D01*
X140041169Y-93169093D01*
X140041168Y-93169093D01*
X140034118Y-93169050D01*
X140027341Y-93170987D01*
X140027340Y-93170987D01*
X139908560Y-93204935D01*
X139908559Y-93204936D01*
X139901780Y-93206873D01*
X139895818Y-93210635D01*
X139895815Y-93210636D01*
X139799423Y-93271455D01*
X139785376Y-93280318D01*
X139780707Y-93285605D01*
X139698932Y-93378197D01*
X139698930Y-93378199D01*
X139694265Y-93383482D01*
X139691224Y-93389960D01*
X139691163Y-93390025D01*
X139687396Y-93395760D01*
X139686400Y-93395106D01*
X139649379Y-93434598D01*
X139589287Y-93446115D01*
X139533902Y-93420112D01*
X139504380Y-93366520D01*
X139502611Y-93348270D01*
X139501246Y-92997660D01*
X139501232Y-92994069D01*
X142564595Y-92994069D01*
X142565510Y-93001066D01*
X142565510Y-93001067D01*
X142578054Y-93096997D01*
X142582441Y-93130545D01*
X142585282Y-93137001D01*
X142585282Y-93137002D01*
X142629281Y-93236996D01*
X142637874Y-93256526D01*
X142642412Y-93261925D01*
X142642413Y-93261926D01*
X142699282Y-93329579D01*
X142722253Y-93386289D01*
X142722500Y-93393282D01*
X142722500Y-94131383D01*
X142722123Y-94140011D01*
X142718713Y-94178984D01*
X142720954Y-94187347D01*
X142728840Y-94216778D01*
X142730709Y-94225210D01*
X142737503Y-94263739D01*
X142741832Y-94271237D01*
X142743856Y-94276798D01*
X142746364Y-94282177D01*
X142748606Y-94290543D01*
X142753572Y-94297636D01*
X142753574Y-94297639D01*
X142771044Y-94322587D01*
X142775686Y-94329874D01*
X142790920Y-94356261D01*
X142790922Y-94356263D01*
X142795250Y-94363760D01*
X142801882Y-94369325D01*
X142825224Y-94388911D01*
X142831592Y-94394746D01*
X145593504Y-97156659D01*
X145621281Y-97211176D01*
X145622500Y-97226663D01*
X145622500Y-100835592D01*
X145603593Y-100893783D01*
X145554093Y-100929747D01*
X145492907Y-100929747D01*
X145446781Y-100898163D01*
X145387071Y-100824952D01*
X145384011Y-100821200D01*
X145358385Y-100800000D01*
X145229002Y-100692965D01*
X145229000Y-100692964D01*
X145225275Y-100689882D01*
X145044055Y-100591897D01*
X144964356Y-100567226D01*
X144851875Y-100532407D01*
X144851871Y-100532406D01*
X144847254Y-100530977D01*
X144842446Y-100530472D01*
X144842443Y-100530471D01*
X144647185Y-100509949D01*
X144647183Y-100509949D01*
X144642369Y-100509443D01*
X144582354Y-100514905D01*
X144442022Y-100527675D01*
X144442017Y-100527676D01*
X144437203Y-100528114D01*
X144239572Y-100586280D01*
X144235288Y-100588519D01*
X144235287Y-100588520D01*
X144224428Y-100594197D01*
X144057002Y-100681726D01*
X144053231Y-100684758D01*
X143900220Y-100807781D01*
X143900217Y-100807783D01*
X143896447Y-100810815D01*
X143893333Y-100814526D01*
X143893332Y-100814527D01*
X143779906Y-100949703D01*
X143764024Y-100968630D01*
X143761689Y-100972878D01*
X143761688Y-100972879D01*
X143746228Y-101001000D01*
X143664776Y-101149162D01*
X143663313Y-101153775D01*
X143663311Y-101153779D01*
X143635129Y-101242621D01*
X143602484Y-101345532D01*
X143601944Y-101350344D01*
X143601944Y-101350345D01*
X143583552Y-101514319D01*
X143579520Y-101550262D01*
X143596759Y-101755553D01*
X143653544Y-101953586D01*
X143747712Y-102136818D01*
X143875677Y-102298270D01*
X143879357Y-102301402D01*
X143879359Y-102301404D01*
X143992017Y-102397283D01*
X144032564Y-102431791D01*
X144036787Y-102434151D01*
X144036791Y-102434154D01*
X144076342Y-102456258D01*
X144212398Y-102532297D01*
X144216996Y-102533791D01*
X144403724Y-102594463D01*
X144403726Y-102594464D01*
X144408329Y-102595959D01*
X144612894Y-102620351D01*
X144617716Y-102619980D01*
X144617719Y-102619980D01*
X144685541Y-102614761D01*
X144818300Y-102604546D01*
X145016725Y-102549145D01*
X145021038Y-102546966D01*
X145021044Y-102546964D01*
X145196289Y-102458441D01*
X145196291Y-102458440D01*
X145200610Y-102456258D01*
X145235943Y-102428653D01*
X145359135Y-102332406D01*
X145359139Y-102332402D01*
X145362951Y-102329424D01*
X145386084Y-102302625D01*
X145448557Y-102230248D01*
X145500893Y-102198552D01*
X145561864Y-102203671D01*
X145608181Y-102243651D01*
X145622500Y-102294936D01*
X145622500Y-103375592D01*
X145603593Y-103433783D01*
X145554093Y-103469747D01*
X145492907Y-103469747D01*
X145446781Y-103438163D01*
X145387071Y-103364952D01*
X145384011Y-103361200D01*
X145225275Y-103229882D01*
X145044055Y-103131897D01*
X144980855Y-103112333D01*
X144851875Y-103072407D01*
X144851871Y-103072406D01*
X144847254Y-103070977D01*
X144842446Y-103070472D01*
X144842443Y-103070471D01*
X144647185Y-103049949D01*
X144647183Y-103049949D01*
X144642369Y-103049443D01*
X144582354Y-103054905D01*
X144442022Y-103067675D01*
X144442017Y-103067676D01*
X144437203Y-103068114D01*
X144239572Y-103126280D01*
X144235288Y-103128519D01*
X144235287Y-103128520D01*
X144224428Y-103134197D01*
X144057002Y-103221726D01*
X144053231Y-103224758D01*
X143900220Y-103347781D01*
X143900217Y-103347783D01*
X143896447Y-103350815D01*
X143893333Y-103354526D01*
X143893332Y-103354527D01*
X143875657Y-103375592D01*
X143764024Y-103508630D01*
X143761689Y-103512878D01*
X143761688Y-103512879D01*
X143754955Y-103525126D01*
X143664776Y-103689162D01*
X143663313Y-103693775D01*
X143663311Y-103693779D01*
X143654013Y-103723090D01*
X143602484Y-103885532D01*
X143601944Y-103890344D01*
X143601944Y-103890345D01*
X143584003Y-104050297D01*
X143579520Y-104090262D01*
X143596759Y-104295553D01*
X143598092Y-104300201D01*
X143598092Y-104300202D01*
X143650444Y-104482774D01*
X143653544Y-104493586D01*
X143747712Y-104676818D01*
X143875677Y-104838270D01*
X143879357Y-104841402D01*
X143879359Y-104841404D01*
X143956880Y-104907379D01*
X144032564Y-104971791D01*
X144036787Y-104974151D01*
X144036791Y-104974154D01*
X144076342Y-104996258D01*
X144212398Y-105072297D01*
X144216996Y-105073791D01*
X144403724Y-105134463D01*
X144403726Y-105134464D01*
X144408329Y-105135959D01*
X144612894Y-105160351D01*
X144617716Y-105159980D01*
X144617719Y-105159980D01*
X144685541Y-105154761D01*
X144818300Y-105144546D01*
X145016725Y-105089145D01*
X145021038Y-105086966D01*
X145021044Y-105086964D01*
X145196289Y-104998441D01*
X145196291Y-104998440D01*
X145200610Y-104996258D01*
X145235943Y-104968653D01*
X145359135Y-104872406D01*
X145359139Y-104872402D01*
X145362951Y-104869424D01*
X145389843Y-104838270D01*
X145448557Y-104770248D01*
X145500893Y-104738552D01*
X145561864Y-104743671D01*
X145608181Y-104783651D01*
X145622500Y-104834936D01*
X145622500Y-105915592D01*
X145603593Y-105973783D01*
X145554093Y-106009747D01*
X145492907Y-106009747D01*
X145446781Y-105978163D01*
X145387071Y-105904952D01*
X145384011Y-105901200D01*
X145305597Y-105836330D01*
X145229002Y-105772965D01*
X145229000Y-105772964D01*
X145225275Y-105769882D01*
X145082383Y-105692621D01*
X145048309Y-105674197D01*
X145048308Y-105674197D01*
X145044055Y-105671897D01*
X144980855Y-105652333D01*
X144851875Y-105612407D01*
X144851871Y-105612406D01*
X144847254Y-105610977D01*
X144842446Y-105610472D01*
X144842443Y-105610471D01*
X144647185Y-105589949D01*
X144647183Y-105589949D01*
X144642369Y-105589443D01*
X144582354Y-105594905D01*
X144442022Y-105607675D01*
X144442017Y-105607676D01*
X144437203Y-105608114D01*
X144239572Y-105666280D01*
X144235288Y-105668519D01*
X144235287Y-105668520D01*
X144224428Y-105674197D01*
X144057002Y-105761726D01*
X144053231Y-105764758D01*
X143900220Y-105887781D01*
X143900217Y-105887783D01*
X143896447Y-105890815D01*
X143893333Y-105894526D01*
X143893332Y-105894527D01*
X143786055Y-106022375D01*
X143764024Y-106048630D01*
X143761689Y-106052878D01*
X143761688Y-106052879D01*
X143743210Y-106086490D01*
X143664776Y-106229162D01*
X143663313Y-106233775D01*
X143663311Y-106233779D01*
X143642305Y-106300000D01*
X143602484Y-106425532D01*
X143601944Y-106430344D01*
X143601944Y-106430345D01*
X143587566Y-106558533D01*
X143579520Y-106630262D01*
X143596759Y-106835553D01*
X143598092Y-106840201D01*
X143598092Y-106840202D01*
X143648477Y-107015914D01*
X143653544Y-107033586D01*
X143747712Y-107216818D01*
X143875677Y-107378270D01*
X143879357Y-107381402D01*
X143879359Y-107381404D01*
X143944283Y-107436658D01*
X144032564Y-107511791D01*
X144036787Y-107514151D01*
X144036791Y-107514154D01*
X144076342Y-107536258D01*
X144212398Y-107612297D01*
X144216996Y-107613791D01*
X144403724Y-107674463D01*
X144403726Y-107674464D01*
X144408329Y-107675959D01*
X144612894Y-107700351D01*
X144617716Y-107699980D01*
X144617719Y-107699980D01*
X144685541Y-107694761D01*
X144818300Y-107684546D01*
X145016725Y-107629145D01*
X145021038Y-107626966D01*
X145021044Y-107626964D01*
X145196289Y-107538441D01*
X145196291Y-107538440D01*
X145200610Y-107536258D01*
X145235943Y-107508653D01*
X145359135Y-107412406D01*
X145359139Y-107412402D01*
X145362951Y-107409424D01*
X145389843Y-107378270D01*
X145448557Y-107310248D01*
X145500893Y-107278552D01*
X145561864Y-107283671D01*
X145608181Y-107323651D01*
X145622500Y-107374936D01*
X145622500Y-108455592D01*
X145603593Y-108513783D01*
X145554093Y-108549747D01*
X145492907Y-108549747D01*
X145446781Y-108518163D01*
X145387071Y-108444952D01*
X145384011Y-108441200D01*
X145225275Y-108309882D01*
X145044055Y-108211897D01*
X144980855Y-108192333D01*
X144851875Y-108152407D01*
X144851871Y-108152406D01*
X144847254Y-108150977D01*
X144842446Y-108150472D01*
X144842443Y-108150471D01*
X144647185Y-108129949D01*
X144647183Y-108129949D01*
X144642369Y-108129443D01*
X144582354Y-108134905D01*
X144442022Y-108147675D01*
X144442017Y-108147676D01*
X144437203Y-108148114D01*
X144239572Y-108206280D01*
X144235288Y-108208519D01*
X144235287Y-108208520D01*
X144224428Y-108214197D01*
X144057002Y-108301726D01*
X144053231Y-108304758D01*
X143900220Y-108427781D01*
X143900217Y-108427783D01*
X143896447Y-108430815D01*
X143893333Y-108434526D01*
X143893332Y-108434527D01*
X143875657Y-108455592D01*
X143764024Y-108588630D01*
X143761689Y-108592878D01*
X143761688Y-108592879D01*
X143730141Y-108650263D01*
X143664776Y-108769162D01*
X143602484Y-108965532D01*
X143579520Y-109170262D01*
X143596759Y-109375553D01*
X143653544Y-109573586D01*
X143747712Y-109756818D01*
X143875677Y-109918270D01*
X143879357Y-109921402D01*
X143879359Y-109921404D01*
X143992017Y-110017283D01*
X144032564Y-110051791D01*
X144036787Y-110054151D01*
X144036791Y-110054154D01*
X144076342Y-110076258D01*
X144212398Y-110152297D01*
X144216996Y-110153791D01*
X144403724Y-110214463D01*
X144403726Y-110214464D01*
X144408329Y-110215959D01*
X144612894Y-110240351D01*
X144617716Y-110239980D01*
X144617719Y-110239980D01*
X144685541Y-110234761D01*
X144818300Y-110224546D01*
X145016725Y-110169145D01*
X145021038Y-110166966D01*
X145021044Y-110166964D01*
X145196289Y-110078441D01*
X145196291Y-110078440D01*
X145200610Y-110076258D01*
X145235943Y-110048653D01*
X145359135Y-109952406D01*
X145359139Y-109952402D01*
X145362951Y-109949424D01*
X145389843Y-109918270D01*
X145448557Y-109850248D01*
X145500893Y-109818552D01*
X145561864Y-109823671D01*
X145608181Y-109863651D01*
X145622500Y-109914936D01*
X145622500Y-110233337D01*
X145603593Y-110291528D01*
X145593504Y-110303340D01*
X145161720Y-110735125D01*
X145107203Y-110762903D01*
X145053742Y-110753778D01*
X145052776Y-110756075D01*
X145048309Y-110754197D01*
X145044055Y-110751897D01*
X144974764Y-110730448D01*
X144851875Y-110692407D01*
X144851871Y-110692406D01*
X144847254Y-110690977D01*
X144842446Y-110690472D01*
X144842443Y-110690471D01*
X144647185Y-110669949D01*
X144647183Y-110669949D01*
X144642369Y-110669443D01*
X144586800Y-110674500D01*
X144442022Y-110687675D01*
X144442017Y-110687676D01*
X144437203Y-110688114D01*
X144239572Y-110746280D01*
X144235288Y-110748519D01*
X144235287Y-110748520D01*
X144220836Y-110756075D01*
X144057002Y-110841726D01*
X144053231Y-110844758D01*
X143900220Y-110967781D01*
X143900217Y-110967783D01*
X143896447Y-110970815D01*
X143893333Y-110974526D01*
X143893332Y-110974527D01*
X143775406Y-111115066D01*
X143764024Y-111128630D01*
X143664776Y-111309162D01*
X143663313Y-111313775D01*
X143663311Y-111313779D01*
X143634776Y-111403733D01*
X143602484Y-111505532D01*
X143601944Y-111510344D01*
X143601944Y-111510345D01*
X143580393Y-111702482D01*
X143579520Y-111710262D01*
X143596759Y-111915553D01*
X143653544Y-112113586D01*
X143747712Y-112296818D01*
X143875677Y-112458270D01*
X143879357Y-112461402D01*
X143879359Y-112461404D01*
X143992017Y-112557283D01*
X144032564Y-112591791D01*
X144036787Y-112594151D01*
X144036791Y-112594154D01*
X144076342Y-112616258D01*
X144212398Y-112692297D01*
X144216996Y-112693791D01*
X144403724Y-112754463D01*
X144403726Y-112754464D01*
X144408329Y-112755959D01*
X144612894Y-112780351D01*
X144617716Y-112779980D01*
X144617719Y-112779980D01*
X144688259Y-112774552D01*
X144818300Y-112764546D01*
X145016725Y-112709145D01*
X145021038Y-112706966D01*
X145021044Y-112706964D01*
X145196289Y-112618441D01*
X145196291Y-112618440D01*
X145200610Y-112616258D01*
X145235943Y-112588653D01*
X145359135Y-112492406D01*
X145359139Y-112492402D01*
X145362951Y-112489424D01*
X145497564Y-112333472D01*
X145516231Y-112300613D01*
X145596934Y-112158550D01*
X145596935Y-112158547D01*
X145599323Y-112154344D01*
X145612882Y-112113586D01*
X145662824Y-111963454D01*
X145662824Y-111963452D01*
X145664351Y-111958863D01*
X145690171Y-111754474D01*
X145690583Y-111725000D01*
X145689611Y-111715082D01*
X145670952Y-111524780D01*
X145670951Y-111524776D01*
X145670480Y-111519970D01*
X145667696Y-111510747D01*
X145612333Y-111327380D01*
X145610935Y-111322749D01*
X145606960Y-111315272D01*
X145596333Y-111255018D01*
X145624366Y-111198789D01*
X145955496Y-110867659D01*
X146010013Y-110839882D01*
X146070445Y-110849453D01*
X146113710Y-110892718D01*
X146124500Y-110937663D01*
X146124500Y-112594748D01*
X146136133Y-112653231D01*
X146180448Y-112719552D01*
X146246769Y-112763867D01*
X146256332Y-112765769D01*
X146256334Y-112765770D01*
X146279005Y-112770279D01*
X146305252Y-112775500D01*
X148044748Y-112775500D01*
X148070995Y-112770279D01*
X148093666Y-112765770D01*
X148093668Y-112765769D01*
X148103231Y-112763867D01*
X148169552Y-112719552D01*
X148213867Y-112653231D01*
X148225500Y-112594748D01*
X148225500Y-110855252D01*
X148213867Y-110796769D01*
X148169552Y-110730448D01*
X148103231Y-110686133D01*
X148093668Y-110684231D01*
X148093666Y-110684230D01*
X148070995Y-110679721D01*
X148044748Y-110674500D01*
X146347199Y-110674500D01*
X146289008Y-110655593D01*
X146253044Y-110606093D01*
X146251580Y-110549849D01*
X146251815Y-110548973D01*
X146255714Y-110539562D01*
X146255205Y-110539377D01*
X146258167Y-110531238D01*
X146262497Y-110523739D01*
X146269291Y-110485210D01*
X146271160Y-110476778D01*
X146279046Y-110447347D01*
X146281287Y-110438984D01*
X146277877Y-110400011D01*
X146277500Y-110391383D01*
X146277500Y-104934928D01*
X146296407Y-104876737D01*
X146345907Y-104840773D01*
X146407093Y-104840773D01*
X146440664Y-104859536D01*
X146568876Y-104968653D01*
X146568881Y-104968656D01*
X146572564Y-104971791D01*
X146576787Y-104974151D01*
X146576791Y-104974154D01*
X146616342Y-104996258D01*
X146752398Y-105072297D01*
X146756996Y-105073791D01*
X146943724Y-105134463D01*
X146943726Y-105134464D01*
X146948329Y-105135959D01*
X147152894Y-105160351D01*
X147157716Y-105159980D01*
X147157719Y-105159980D01*
X147225541Y-105154761D01*
X147358300Y-105144546D01*
X147556725Y-105089145D01*
X147561038Y-105086966D01*
X147561044Y-105086964D01*
X147736289Y-104998441D01*
X147736291Y-104998440D01*
X147740610Y-104996258D01*
X147775943Y-104968653D01*
X147899135Y-104872406D01*
X147899139Y-104872402D01*
X147902951Y-104869424D01*
X147946356Y-104819139D01*
X147976988Y-104783651D01*
X148037564Y-104713472D01*
X148058334Y-104676910D01*
X148136934Y-104538550D01*
X148136935Y-104538547D01*
X148139323Y-104534344D01*
X148152882Y-104493586D01*
X148202824Y-104343454D01*
X148202824Y-104343452D01*
X148204351Y-104338863D01*
X148230171Y-104134474D01*
X148230583Y-104105000D01*
X148225807Y-104056291D01*
X148210952Y-103904780D01*
X148210951Y-103904776D01*
X148210480Y-103899970D01*
X148184080Y-103812528D01*
X148155883Y-103719139D01*
X148150935Y-103702749D01*
X148054218Y-103520849D01*
X147924011Y-103361200D01*
X147765275Y-103229882D01*
X147584055Y-103131897D01*
X147520855Y-103112333D01*
X147391875Y-103072407D01*
X147391871Y-103072406D01*
X147387254Y-103070977D01*
X147382446Y-103070472D01*
X147382443Y-103070471D01*
X147187185Y-103049949D01*
X147187183Y-103049949D01*
X147182369Y-103049443D01*
X147122354Y-103054905D01*
X146982022Y-103067675D01*
X146982017Y-103067676D01*
X146977203Y-103068114D01*
X146779572Y-103126280D01*
X146775288Y-103128519D01*
X146775287Y-103128520D01*
X146764428Y-103134197D01*
X146597002Y-103221726D01*
X146534496Y-103271982D01*
X146438534Y-103349137D01*
X146381336Y-103370864D01*
X146322291Y-103354822D01*
X146283952Y-103307137D01*
X146277500Y-103271982D01*
X146277500Y-97068608D01*
X146277877Y-97059980D01*
X146279787Y-97038152D01*
X146281286Y-97021015D01*
X146279044Y-97012648D01*
X146271162Y-96983233D01*
X146269292Y-96974799D01*
X146264001Y-96944791D01*
X146262497Y-96936261D01*
X146258167Y-96928760D01*
X146256141Y-96923194D01*
X146253636Y-96917822D01*
X146251394Y-96909457D01*
X146228958Y-96877415D01*
X146224318Y-96870131D01*
X146209082Y-96843741D01*
X146209078Y-96843736D01*
X146204750Y-96836240D01*
X146174782Y-96811094D01*
X146168414Y-96805259D01*
X145063987Y-95700832D01*
X145036210Y-95646315D01*
X145045781Y-95585883D01*
X145089046Y-95542618D01*
X145146912Y-95532675D01*
X145288000Y-95551250D01*
X145294433Y-95550403D01*
X145298528Y-95549864D01*
X145315779Y-95547593D01*
X145425278Y-95533177D01*
X145425280Y-95533176D01*
X145431709Y-95532330D01*
X145565625Y-95476861D01*
X145666998Y-95399074D01*
X145675472Y-95392572D01*
X145680621Y-95388621D01*
X145768861Y-95273625D01*
X145824330Y-95139709D01*
X145826194Y-95125556D01*
X145842403Y-95002433D01*
X145843250Y-94996000D01*
X145836102Y-94941704D01*
X145825177Y-94858722D01*
X145825176Y-94858720D01*
X145824330Y-94852291D01*
X145768861Y-94718375D01*
X145680621Y-94603379D01*
X145565625Y-94515139D01*
X145431709Y-94459670D01*
X145425280Y-94458824D01*
X145425278Y-94458823D01*
X145294433Y-94441597D01*
X145288000Y-94440750D01*
X145281567Y-94441597D01*
X145150722Y-94458823D01*
X145150720Y-94458824D01*
X145144291Y-94459670D01*
X145010375Y-94515139D01*
X145009518Y-94513069D01*
X144959381Y-94523723D01*
X144903487Y-94498834D01*
X144872896Y-94445845D01*
X144879250Y-94385421D01*
X144879861Y-94384625D01*
X144935330Y-94250709D01*
X144954250Y-94107000D01*
X144935330Y-93963291D01*
X144879861Y-93829375D01*
X144791621Y-93714379D01*
X144676625Y-93626139D01*
X144542709Y-93570670D01*
X144536280Y-93569824D01*
X144536278Y-93569823D01*
X144405433Y-93552597D01*
X144399000Y-93551750D01*
X144392567Y-93552597D01*
X144261722Y-93569823D01*
X144261720Y-93569824D01*
X144255291Y-93570670D01*
X144121375Y-93626139D01*
X144006379Y-93714379D01*
X143918139Y-93829375D01*
X143862670Y-93963291D01*
X143843750Y-94107000D01*
X143846903Y-94130945D01*
X143862325Y-94248088D01*
X143851175Y-94308248D01*
X143806793Y-94350366D01*
X143746131Y-94358352D01*
X143694168Y-94331014D01*
X143406496Y-94043342D01*
X143378719Y-93988825D01*
X143377500Y-93973338D01*
X143377500Y-93392408D01*
X143396407Y-93334217D01*
X143403103Y-93325971D01*
X143447717Y-93276683D01*
X143447718Y-93276682D01*
X143452449Y-93271455D01*
X143512461Y-93147590D01*
X143513631Y-93140637D01*
X143513632Y-93140633D01*
X143528880Y-93050000D01*
X146394750Y-93050000D01*
X146395597Y-93056433D01*
X146411413Y-93176563D01*
X146413670Y-93193709D01*
X146469139Y-93327625D01*
X146557379Y-93442621D01*
X146672375Y-93530861D01*
X146806291Y-93586330D01*
X146812720Y-93587176D01*
X146812722Y-93587177D01*
X146943567Y-93604403D01*
X146950000Y-93605250D01*
X146956433Y-93604403D01*
X147087278Y-93587177D01*
X147087280Y-93587176D01*
X147093709Y-93586330D01*
X147227625Y-93530861D01*
X147342621Y-93442621D01*
X147430861Y-93327625D01*
X147486330Y-93193709D01*
X147488588Y-93176563D01*
X147504403Y-93056433D01*
X147505250Y-93050000D01*
X147486330Y-92906291D01*
X147430861Y-92772375D01*
X147342621Y-92657379D01*
X147227625Y-92569139D01*
X147093709Y-92513670D01*
X147087280Y-92512824D01*
X147087278Y-92512823D01*
X146956433Y-92495597D01*
X146950000Y-92494750D01*
X146943567Y-92495597D01*
X146812722Y-92512823D01*
X146812720Y-92512824D01*
X146806291Y-92513670D01*
X146672375Y-92569139D01*
X146557379Y-92657379D01*
X146469139Y-92772375D01*
X146413670Y-92906291D01*
X146394750Y-93050000D01*
X143528880Y-93050000D01*
X143534662Y-93015630D01*
X143534662Y-93015627D01*
X143535296Y-93011860D01*
X143535441Y-93000000D01*
X143515929Y-92863753D01*
X143458961Y-92738459D01*
X143369117Y-92634189D01*
X143363200Y-92630354D01*
X143363198Y-92630352D01*
X143259541Y-92563166D01*
X143259539Y-92563165D01*
X143253619Y-92559328D01*
X143121753Y-92519891D01*
X143041888Y-92519403D01*
X142991169Y-92519093D01*
X142991168Y-92519093D01*
X142984118Y-92519050D01*
X142977341Y-92520987D01*
X142977340Y-92520987D01*
X142858560Y-92554935D01*
X142858559Y-92554936D01*
X142851780Y-92556873D01*
X142845818Y-92560635D01*
X142845815Y-92560636D01*
X142832339Y-92569139D01*
X142735376Y-92630318D01*
X142730707Y-92635605D01*
X142648932Y-92728197D01*
X142648930Y-92728199D01*
X142644265Y-92733482D01*
X142585770Y-92858071D01*
X142564595Y-92994069D01*
X139501232Y-92994069D01*
X139493859Y-91100000D01*
X142494750Y-91100000D01*
X142513670Y-91243709D01*
X142569139Y-91377625D01*
X142657379Y-91492621D01*
X142772375Y-91580861D01*
X142906291Y-91636330D01*
X142912720Y-91637176D01*
X142912722Y-91637177D01*
X143043567Y-91654403D01*
X143050000Y-91655250D01*
X143056433Y-91654403D01*
X143187278Y-91637177D01*
X143187280Y-91637176D01*
X143193709Y-91636330D01*
X143327625Y-91580861D01*
X143442621Y-91492621D01*
X143530861Y-91377625D01*
X143586330Y-91243709D01*
X143605250Y-91100000D01*
X143590738Y-90989772D01*
X143587177Y-90962722D01*
X143587176Y-90962720D01*
X143586330Y-90956291D01*
X143530861Y-90822375D01*
X143442621Y-90707379D01*
X143327625Y-90619139D01*
X143193709Y-90563670D01*
X143187280Y-90562824D01*
X143187278Y-90562823D01*
X143056433Y-90545597D01*
X143050000Y-90544750D01*
X143043567Y-90545597D01*
X142912722Y-90562823D01*
X142912720Y-90562824D01*
X142906291Y-90563670D01*
X142772375Y-90619139D01*
X142657379Y-90707379D01*
X142569139Y-90822375D01*
X142513670Y-90956291D01*
X142512824Y-90962720D01*
X142512823Y-90962722D01*
X142509262Y-90989772D01*
X142494750Y-91100000D01*
X139493859Y-91100000D01*
X139493003Y-90880121D01*
X139511683Y-90821858D01*
X139523218Y-90808534D01*
X139571278Y-90762107D01*
X141519275Y-88880297D01*
X141574263Y-88853466D01*
X141588058Y-88852500D01*
X147538200Y-88852500D01*
X147570344Y-88849970D01*
X147600937Y-88845125D01*
X147606326Y-88842893D01*
X147606329Y-88842892D01*
X147684190Y-88810642D01*
X147684192Y-88810641D01*
X147689583Y-88808408D01*
X147739083Y-88772444D01*
X147766828Y-88748203D01*
X147813736Y-88669693D01*
X147832643Y-88611502D01*
X147842700Y-88548000D01*
X147842700Y-84154042D01*
X147837022Y-84106070D01*
X147836343Y-84103240D01*
X147826523Y-84062335D01*
X147826518Y-84062316D01*
X147826232Y-84061125D01*
X147820378Y-84041225D01*
X147771720Y-83963787D01*
X147728455Y-83920522D01*
X147700173Y-83896910D01*
X147699698Y-83896720D01*
X147661868Y-83853418D01*
X147658003Y-83808213D01*
X147654409Y-83808037D01*
X147654856Y-83798905D01*
X147656966Y-83790013D01*
X147653004Y-83760898D01*
X147652100Y-83747549D01*
X147652100Y-79978820D01*
X147652407Y-79974641D01*
X147654036Y-79969896D01*
X147652170Y-79920190D01*
X147652100Y-79916477D01*
X147652100Y-79896903D01*
X147651274Y-79892465D01*
X147650932Y-79887199D01*
X147650157Y-79866570D01*
X147649814Y-79857434D01*
X147646207Y-79849038D01*
X147646206Y-79849035D01*
X147645222Y-79846746D01*
X147638857Y-79825794D01*
X147638402Y-79823351D01*
X147638400Y-79823347D01*
X147636727Y-79814361D01*
X147622654Y-79791531D01*
X147615974Y-79778669D01*
X147608149Y-79760455D01*
X147608147Y-79760452D01*
X147605389Y-79754032D01*
X147601357Y-79749123D01*
X147596924Y-79744690D01*
X147582652Y-79726633D01*
X147582471Y-79726340D01*
X147577674Y-79718558D01*
X147570401Y-79713028D01*
X147570398Y-79713024D01*
X147554288Y-79700774D01*
X147544208Y-79691974D01*
X144276671Y-76424437D01*
X144273935Y-76421267D01*
X144271732Y-76416760D01*
X144235266Y-76382933D01*
X144232590Y-76380356D01*
X144218749Y-76366515D01*
X144215021Y-76363958D01*
X144211077Y-76360495D01*
X144195925Y-76346439D01*
X144195924Y-76346439D01*
X144189224Y-76340223D01*
X144178417Y-76335911D01*
X144159101Y-76325597D01*
X144157052Y-76324191D01*
X144157050Y-76324190D01*
X144149513Y-76319020D01*
X144140620Y-76316910D01*
X144140619Y-76316909D01*
X144123426Y-76312829D01*
X144109607Y-76308459D01*
X144084695Y-76298520D01*
X144078372Y-76297900D01*
X144072105Y-76297900D01*
X144049245Y-76295224D01*
X144048911Y-76295145D01*
X144048907Y-76295145D01*
X144040013Y-76293034D01*
X144010901Y-76296996D01*
X143997551Y-76297900D01*
X129859158Y-76297900D01*
X129800967Y-76278993D01*
X129765003Y-76229493D01*
X129760351Y-76192729D01*
X129760828Y-76185091D01*
X129761314Y-76177310D01*
X129738531Y-76088737D01*
X129710485Y-76034357D01*
X129672438Y-75982528D01*
X129590987Y-75901875D01*
X127422296Y-73754446D01*
X126609885Y-72950000D01*
X129244750Y-72950000D01*
X129263670Y-73093709D01*
X129319139Y-73227625D01*
X129407379Y-73342621D01*
X129522375Y-73430861D01*
X129656291Y-73486330D01*
X129662720Y-73487176D01*
X129662722Y-73487177D01*
X129793567Y-73504403D01*
X129800000Y-73505250D01*
X129806433Y-73504403D01*
X129937278Y-73487177D01*
X129937280Y-73487176D01*
X129943709Y-73486330D01*
X130077625Y-73430861D01*
X130192621Y-73342621D01*
X130280861Y-73227625D01*
X130336330Y-73093709D01*
X130355250Y-72950000D01*
X130336330Y-72806291D01*
X130280861Y-72672375D01*
X130192621Y-72557379D01*
X130077625Y-72469139D01*
X129943709Y-72413670D01*
X129937280Y-72412824D01*
X129937278Y-72412823D01*
X129806433Y-72395597D01*
X129800000Y-72394750D01*
X129793567Y-72395597D01*
X129662722Y-72412823D01*
X129662720Y-72412824D01*
X129656291Y-72413670D01*
X129522375Y-72469139D01*
X129407379Y-72557379D01*
X129319139Y-72672375D01*
X129263670Y-72806291D01*
X129244750Y-72950000D01*
X126609885Y-72950000D01*
X125989769Y-72335964D01*
X144642112Y-72335964D01*
X144642269Y-72340149D01*
X144642269Y-72340152D01*
X144643522Y-72373532D01*
X144650736Y-72565669D01*
X144697939Y-72790637D01*
X144782372Y-73004436D01*
X144784542Y-73008012D01*
X144784544Y-73008016D01*
X144848008Y-73112601D01*
X144901621Y-73200952D01*
X145052276Y-73374566D01*
X145230029Y-73520315D01*
X145429798Y-73634030D01*
X145645871Y-73712461D01*
X145695293Y-73721398D01*
X145868865Y-73752785D01*
X145868871Y-73752786D01*
X145872069Y-73753364D01*
X145891041Y-73754259D01*
X145895011Y-73754446D01*
X145895015Y-73754446D01*
X145896158Y-73754500D01*
X146057712Y-73754500D01*
X146059795Y-73754323D01*
X146059801Y-73754323D01*
X146224873Y-73740316D01*
X146224874Y-73740316D01*
X146229044Y-73739962D01*
X146233094Y-73738911D01*
X146233099Y-73738910D01*
X146447483Y-73683267D01*
X146447486Y-73683266D01*
X146451539Y-73682214D01*
X146661123Y-73587803D01*
X146851803Y-73459430D01*
X146937974Y-73377227D01*
X147015094Y-73303659D01*
X147015098Y-73303654D01*
X147018128Y-73300764D01*
X147155342Y-73116342D01*
X147192270Y-73043709D01*
X147257623Y-72915170D01*
X147257625Y-72915166D01*
X147259520Y-72911438D01*
X147327685Y-72691911D01*
X147357888Y-72464036D01*
X147356477Y-72426438D01*
X147349421Y-72238522D01*
X147349264Y-72234331D01*
X147302061Y-72009363D01*
X147217628Y-71795564D01*
X147098379Y-71599048D01*
X146947724Y-71425434D01*
X146769971Y-71279685D01*
X146570202Y-71165970D01*
X146354129Y-71087539D01*
X146286247Y-71075264D01*
X146131135Y-71047215D01*
X146131129Y-71047214D01*
X146127931Y-71046636D01*
X146108959Y-71045741D01*
X146104989Y-71045554D01*
X146104985Y-71045554D01*
X146103842Y-71045500D01*
X145942288Y-71045500D01*
X145940205Y-71045677D01*
X145940199Y-71045677D01*
X145775127Y-71059684D01*
X145775126Y-71059684D01*
X145770956Y-71060038D01*
X145766906Y-71061089D01*
X145766901Y-71061090D01*
X145552517Y-71116733D01*
X145552514Y-71116734D01*
X145548461Y-71117786D01*
X145338877Y-71212197D01*
X145148197Y-71340570D01*
X145145156Y-71343471D01*
X144984906Y-71496341D01*
X144984902Y-71496346D01*
X144981872Y-71499236D01*
X144844658Y-71683658D01*
X144842756Y-71687399D01*
X144747845Y-71874077D01*
X144740480Y-71888562D01*
X144672315Y-72108089D01*
X144642112Y-72335964D01*
X125989769Y-72335964D01*
X124894637Y-71251568D01*
X126245029Y-71251568D01*
X126284835Y-71417373D01*
X126363042Y-71568896D01*
X126475135Y-71697391D01*
X126480017Y-71700822D01*
X126480018Y-71700823D01*
X126510684Y-71722375D01*
X126614643Y-71795438D01*
X126773511Y-71857378D01*
X126779426Y-71858157D01*
X126779427Y-71858157D01*
X126900351Y-71874077D01*
X126903564Y-71874500D01*
X126992756Y-71874500D01*
X126996252Y-71874077D01*
X127113359Y-71859906D01*
X127113362Y-71859905D01*
X127119281Y-71859189D01*
X127126951Y-71856291D01*
X127173421Y-71838731D01*
X127278789Y-71798916D01*
X127283706Y-71795536D01*
X127283709Y-71795535D01*
X127414398Y-71705714D01*
X127419316Y-71702334D01*
X127532748Y-71575021D01*
X127538801Y-71563590D01*
X127601723Y-71444750D01*
X127612538Y-71424324D01*
X127654078Y-71258946D01*
X127654117Y-71251568D01*
X129245029Y-71251568D01*
X129284835Y-71417373D01*
X129363042Y-71568896D01*
X129475135Y-71697391D01*
X129480017Y-71700822D01*
X129480018Y-71700823D01*
X129510684Y-71722375D01*
X129614643Y-71795438D01*
X129773511Y-71857378D01*
X129779426Y-71858157D01*
X129779427Y-71858157D01*
X129900351Y-71874077D01*
X129903564Y-71874500D01*
X129992756Y-71874500D01*
X129996252Y-71874077D01*
X130113359Y-71859906D01*
X130113362Y-71859905D01*
X130119281Y-71859189D01*
X130126951Y-71856291D01*
X130173421Y-71838731D01*
X130278789Y-71798916D01*
X130283706Y-71795536D01*
X130283709Y-71795535D01*
X130414398Y-71705714D01*
X130419316Y-71702334D01*
X130532748Y-71575021D01*
X130538801Y-71563590D01*
X130601723Y-71444750D01*
X130612538Y-71424324D01*
X130654078Y-71258946D01*
X130654572Y-71164539D01*
X130654940Y-71094398D01*
X130654940Y-71094396D01*
X130654971Y-71088432D01*
X130625574Y-70965983D01*
X130616558Y-70928429D01*
X130616558Y-70928428D01*
X130615165Y-70922627D01*
X130536958Y-70771104D01*
X130424865Y-70642609D01*
X130413023Y-70634286D01*
X130290239Y-70547993D01*
X130290238Y-70547993D01*
X130285357Y-70544562D01*
X130126489Y-70482622D01*
X130120574Y-70481843D01*
X130120573Y-70481843D01*
X129999649Y-70465923D01*
X129996436Y-70465500D01*
X129907244Y-70465500D01*
X129904278Y-70465859D01*
X129904277Y-70465859D01*
X129786641Y-70480094D01*
X129786638Y-70480095D01*
X129780719Y-70480811D01*
X129621211Y-70541084D01*
X129616294Y-70544464D01*
X129616291Y-70544465D01*
X129611158Y-70547993D01*
X129480684Y-70637666D01*
X129367252Y-70764979D01*
X129364462Y-70770249D01*
X129364461Y-70770250D01*
X129348967Y-70799514D01*
X129287462Y-70915676D01*
X129269147Y-70988592D01*
X129250937Y-71061090D01*
X129245922Y-71081054D01*
X129245881Y-71088970D01*
X129245300Y-71199907D01*
X129245029Y-71251568D01*
X127654117Y-71251568D01*
X127654572Y-71164539D01*
X127654940Y-71094398D01*
X127654940Y-71094396D01*
X127654971Y-71088432D01*
X127625574Y-70965983D01*
X127616558Y-70928429D01*
X127616558Y-70928428D01*
X127615165Y-70922627D01*
X127536958Y-70771104D01*
X127424865Y-70642609D01*
X127413023Y-70634286D01*
X127290239Y-70547993D01*
X127290238Y-70547993D01*
X127285357Y-70544562D01*
X127126489Y-70482622D01*
X127120574Y-70481843D01*
X127120573Y-70481843D01*
X126999649Y-70465923D01*
X126996436Y-70465500D01*
X126907244Y-70465500D01*
X126904278Y-70465859D01*
X126904277Y-70465859D01*
X126786641Y-70480094D01*
X126786638Y-70480095D01*
X126780719Y-70480811D01*
X126621211Y-70541084D01*
X126616294Y-70544464D01*
X126616291Y-70544465D01*
X126611158Y-70547993D01*
X126480684Y-70637666D01*
X126367252Y-70764979D01*
X126364462Y-70770249D01*
X126364461Y-70770250D01*
X126348967Y-70799514D01*
X126287462Y-70915676D01*
X126269147Y-70988592D01*
X126250937Y-71061090D01*
X126245922Y-71081054D01*
X126245881Y-71088970D01*
X126245300Y-71199907D01*
X126245029Y-71251568D01*
X124894637Y-71251568D01*
X124673527Y-71032626D01*
X124662008Y-71022056D01*
X124650543Y-71012313D01*
X124580971Y-70973464D01*
X124576373Y-70971970D01*
X124526483Y-70955760D01*
X124526481Y-70955760D01*
X124522780Y-70954557D01*
X124518936Y-70953948D01*
X124518931Y-70953947D01*
X124463126Y-70945109D01*
X124463121Y-70945109D01*
X124459278Y-70944500D01*
X123899000Y-70944500D01*
X123840809Y-70925593D01*
X123804845Y-70876093D01*
X123800000Y-70845500D01*
X123800000Y-69699500D01*
X123818907Y-69641309D01*
X123868407Y-69605345D01*
X123899000Y-69600500D01*
X148700500Y-69600500D01*
X148758691Y-69619407D01*
G37*
%TD.AperFunction*%
%TA.AperFunction,Conductor*%
G36*
X129538262Y-87071007D02*
G01*
X129555853Y-87087397D01*
X129576438Y-87111885D01*
X129691012Y-87188152D01*
X129697743Y-87190255D01*
X129704112Y-87193293D01*
X129703463Y-87194653D01*
X129746792Y-87225387D01*
X129766271Y-87288816D01*
X129766005Y-87294877D01*
X129764451Y-87302512D01*
X129769343Y-87345493D01*
X129757138Y-87405447D01*
X129721110Y-87438227D01*
X129722780Y-87440873D01*
X129606376Y-87514318D01*
X129601707Y-87519605D01*
X129519932Y-87612197D01*
X129519930Y-87612199D01*
X129515265Y-87617482D01*
X129456770Y-87742071D01*
X129435595Y-87878069D01*
X129436510Y-87885067D01*
X129436510Y-87885070D01*
X129436685Y-87886408D01*
X129436480Y-87887507D01*
X129436424Y-87892116D01*
X129435623Y-87892106D01*
X129425479Y-87946558D01*
X129408524Y-87969242D01*
X125658862Y-91718904D01*
X125604345Y-91746681D01*
X125588858Y-91747900D01*
X123899000Y-91747900D01*
X123840809Y-91728993D01*
X123804845Y-91679493D01*
X123800000Y-91648900D01*
X123800000Y-87151100D01*
X123818907Y-87092909D01*
X123868407Y-87056945D01*
X123899000Y-87052100D01*
X129480071Y-87052100D01*
X129538262Y-87071007D01*
G37*
%TD.AperFunction*%
%TA.AperFunction,Conductor*%
G36*
X129154786Y-77371007D02*
G01*
X129190750Y-77420507D01*
X129194615Y-77452540D01*
X129195453Y-77452536D01*
X129207917Y-80094792D01*
X129207924Y-80096361D01*
X129217223Y-82067732D01*
X129221234Y-82107175D01*
X129228711Y-82144454D01*
X129231423Y-82156185D01*
X129234334Y-82161763D01*
X129234334Y-82161764D01*
X129268674Y-82227572D01*
X129273732Y-82237266D01*
X129313398Y-82283852D01*
X129314971Y-82285395D01*
X129314974Y-82285398D01*
X129334136Y-82304192D01*
X129339698Y-82309647D01*
X129346673Y-82313116D01*
X129346674Y-82313117D01*
X129364448Y-82321958D01*
X129408128Y-82364803D01*
X129418178Y-82425828D01*
X129407592Y-82493823D01*
X129404595Y-82513069D01*
X129405510Y-82520068D01*
X129405424Y-82527115D01*
X129402096Y-82527074D01*
X129393470Y-82573541D01*
X129376484Y-82596282D01*
X126103862Y-85868904D01*
X126049345Y-85896681D01*
X126033858Y-85897900D01*
X125572782Y-85897900D01*
X125514591Y-85878993D01*
X125478627Y-85829493D01*
X125478627Y-85768307D01*
X125503902Y-85729240D01*
X125506442Y-85727674D01*
X125511975Y-85720398D01*
X125511977Y-85720396D01*
X125524226Y-85704288D01*
X125533026Y-85694208D01*
X126975563Y-84251671D01*
X126978733Y-84248935D01*
X126983240Y-84246732D01*
X127017067Y-84210266D01*
X127019644Y-84207590D01*
X127033484Y-84193750D01*
X127036041Y-84190022D01*
X127039504Y-84186078D01*
X127053561Y-84170925D01*
X127053561Y-84170924D01*
X127059777Y-84164224D01*
X127064087Y-84153421D01*
X127074404Y-84134099D01*
X127075809Y-84132051D01*
X127075809Y-84132050D01*
X127080980Y-84124513D01*
X127086029Y-84103240D01*
X127087171Y-84098426D01*
X127091541Y-84084607D01*
X127101480Y-84059695D01*
X127102100Y-84053372D01*
X127102100Y-84047106D01*
X127104776Y-84024246D01*
X127104855Y-84023912D01*
X127104855Y-84023908D01*
X127106966Y-84015014D01*
X127103004Y-83985900D01*
X127102100Y-83972551D01*
X127102100Y-82453820D01*
X127102407Y-82449641D01*
X127104036Y-82444896D01*
X127102170Y-82395190D01*
X127102100Y-82391477D01*
X127102100Y-82371903D01*
X127101274Y-82367465D01*
X127100932Y-82362199D01*
X127100157Y-82341567D01*
X127099814Y-82332434D01*
X127096208Y-82324040D01*
X127096207Y-82324037D01*
X127095223Y-82321747D01*
X127088856Y-82300792D01*
X127088401Y-82298346D01*
X127088400Y-82298343D01*
X127086727Y-82289361D01*
X127072659Y-82266538D01*
X127065976Y-82253672D01*
X127058150Y-82235456D01*
X127055390Y-82229032D01*
X127051357Y-82224123D01*
X127046924Y-82219690D01*
X127032652Y-82201633D01*
X127032471Y-82201340D01*
X127027674Y-82193558D01*
X127020401Y-82188028D01*
X127020398Y-82188024D01*
X127004288Y-82175774D01*
X126994208Y-82166974D01*
X126163958Y-81336724D01*
X126136181Y-81282207D01*
X126135492Y-81261862D01*
X126135296Y-81261860D01*
X126135394Y-81253826D01*
X126135441Y-81250000D01*
X126115929Y-81113753D01*
X126058961Y-80988459D01*
X126050119Y-80978197D01*
X125976101Y-80892294D01*
X125952440Y-80835868D01*
X125952100Y-80827671D01*
X125952100Y-80353816D01*
X125952407Y-80349640D01*
X125954036Y-80344895D01*
X125952170Y-80295189D01*
X125952100Y-80291476D01*
X125952100Y-80271903D01*
X125951272Y-80267458D01*
X125950932Y-80262207D01*
X125950157Y-80241568D01*
X125949814Y-80232433D01*
X125946207Y-80224037D01*
X125946206Y-80224034D01*
X125945222Y-80221745D01*
X125938857Y-80200793D01*
X125938402Y-80198348D01*
X125938400Y-80198342D01*
X125936727Y-80189361D01*
X125922656Y-80166534D01*
X125915976Y-80153674D01*
X125905389Y-80129032D01*
X125901356Y-80124122D01*
X125896924Y-80119690D01*
X125882652Y-80101633D01*
X125882471Y-80101340D01*
X125877674Y-80093558D01*
X125870401Y-80088028D01*
X125870398Y-80088024D01*
X125854288Y-80075774D01*
X125844208Y-80066974D01*
X123849938Y-78072704D01*
X123822161Y-78018187D01*
X123831732Y-77957755D01*
X123874997Y-77914490D01*
X123919942Y-77903700D01*
X124194580Y-77903700D01*
X124198759Y-77904007D01*
X124203504Y-77905636D01*
X124253210Y-77903770D01*
X124256923Y-77903700D01*
X124276497Y-77903700D01*
X124280935Y-77902874D01*
X124286197Y-77902532D01*
X124291206Y-77902344D01*
X124295834Y-77902170D01*
X124299545Y-77902100D01*
X127172210Y-77902100D01*
X127230401Y-77921007D01*
X127266365Y-77970507D01*
X127270374Y-77988264D01*
X127282441Y-78080545D01*
X127285282Y-78087001D01*
X127285282Y-78087002D01*
X127332285Y-78193823D01*
X127337874Y-78206526D01*
X127342411Y-78211923D01*
X127342412Y-78211925D01*
X127350423Y-78221455D01*
X127426438Y-78311885D01*
X127432309Y-78315793D01*
X127432310Y-78315794D01*
X127443884Y-78323498D01*
X127541012Y-78388152D01*
X127547739Y-78390254D01*
X127547742Y-78390255D01*
X127665655Y-78427093D01*
X127665656Y-78427093D01*
X127672387Y-78429196D01*
X127741194Y-78430458D01*
X127802947Y-78431590D01*
X127802949Y-78431590D01*
X127810001Y-78431719D01*
X127816804Y-78429864D01*
X127816806Y-78429864D01*
X127890083Y-78409886D01*
X127942792Y-78395516D01*
X128060084Y-78323498D01*
X128070596Y-78311885D01*
X128147717Y-78226683D01*
X128147717Y-78226682D01*
X128152449Y-78221455D01*
X128212461Y-78097590D01*
X128213631Y-78090637D01*
X128213632Y-78090633D01*
X128234662Y-77965630D01*
X128234662Y-77965627D01*
X128235296Y-77961860D01*
X128235441Y-77950000D01*
X128215929Y-77813753D01*
X128158961Y-77688459D01*
X128069117Y-77584189D01*
X127991955Y-77534176D01*
X127953408Y-77486660D01*
X127950152Y-77425561D01*
X127983431Y-77374217D01*
X128045801Y-77352100D01*
X129096595Y-77352100D01*
X129154786Y-77371007D01*
G37*
%TD.AperFunction*%
%TA.AperFunction,Conductor*%
G36*
X123489949Y-78568907D02*
G01*
X123501762Y-78578996D01*
X125318904Y-80396138D01*
X125346681Y-80450655D01*
X125347900Y-80466142D01*
X125347900Y-80828679D01*
X125328993Y-80886870D01*
X125323104Y-80894213D01*
X125248932Y-80978197D01*
X125248930Y-80978199D01*
X125244265Y-80983482D01*
X125185770Y-81108071D01*
X125164595Y-81244069D01*
X125182441Y-81380545D01*
X125237874Y-81506526D01*
X125326438Y-81611885D01*
X125441012Y-81688152D01*
X125447739Y-81690254D01*
X125447742Y-81690255D01*
X125565655Y-81727093D01*
X125565656Y-81727093D01*
X125572387Y-81729196D01*
X125624011Y-81730142D01*
X125664440Y-81730884D01*
X125722274Y-81750855D01*
X125732629Y-81759863D01*
X126468904Y-82496138D01*
X126496681Y-82550655D01*
X126497900Y-82566142D01*
X126497900Y-83833860D01*
X126478993Y-83892051D01*
X126468902Y-83903865D01*
X126436325Y-83936441D01*
X126381809Y-83964217D01*
X126321377Y-83954645D01*
X126278113Y-83911380D01*
X126268323Y-83880470D01*
X126267521Y-83874867D01*
X126265929Y-83863753D01*
X126228283Y-83780956D01*
X126211882Y-83744883D01*
X126211881Y-83744882D01*
X126208961Y-83738459D01*
X126119117Y-83634189D01*
X126113200Y-83630354D01*
X126113198Y-83630352D01*
X126009541Y-83563166D01*
X126009539Y-83563165D01*
X126003619Y-83559328D01*
X125871753Y-83519891D01*
X125791888Y-83519403D01*
X125741169Y-83519093D01*
X125741168Y-83519093D01*
X125734118Y-83519050D01*
X125727341Y-83520987D01*
X125727340Y-83520987D01*
X125608560Y-83554935D01*
X125608559Y-83554936D01*
X125601780Y-83556873D01*
X125595818Y-83560635D01*
X125595815Y-83560636D01*
X125491340Y-83626555D01*
X125485376Y-83630318D01*
X125480707Y-83635605D01*
X125398932Y-83728197D01*
X125398930Y-83728199D01*
X125394265Y-83733482D01*
X125339229Y-83850703D01*
X125297386Y-83895339D01*
X125237295Y-83906856D01*
X125181910Y-83880853D01*
X125159495Y-83849602D01*
X125111882Y-83744883D01*
X125111881Y-83744882D01*
X125108961Y-83738459D01*
X125019117Y-83634189D01*
X125013200Y-83630354D01*
X125013198Y-83630352D01*
X124909541Y-83563166D01*
X124909539Y-83563165D01*
X124903619Y-83559328D01*
X124771753Y-83519891D01*
X124691888Y-83519403D01*
X124641169Y-83519093D01*
X124641168Y-83519093D01*
X124634118Y-83519050D01*
X124627341Y-83520987D01*
X124627340Y-83520987D01*
X124508560Y-83554935D01*
X124508559Y-83554936D01*
X124501780Y-83556873D01*
X124495818Y-83560635D01*
X124495815Y-83560636D01*
X124391340Y-83626555D01*
X124385376Y-83630318D01*
X124380707Y-83635605D01*
X124298932Y-83728197D01*
X124298930Y-83728199D01*
X124294265Y-83733482D01*
X124235770Y-83858071D01*
X124214595Y-83994069D01*
X124215510Y-84001067D01*
X124215510Y-84001070D01*
X124215685Y-84002408D01*
X124215480Y-84003507D01*
X124215424Y-84008116D01*
X124214623Y-84008106D01*
X124204479Y-84062558D01*
X124187524Y-84085242D01*
X124103862Y-84168904D01*
X124049345Y-84196681D01*
X124033858Y-84197900D01*
X123899000Y-84197900D01*
X123840809Y-84178993D01*
X123804845Y-84129493D01*
X123800000Y-84098900D01*
X123800000Y-79800000D01*
X121649000Y-79800000D01*
X121590809Y-79781093D01*
X121554845Y-79731593D01*
X121550000Y-79701000D01*
X121550000Y-78649000D01*
X121568907Y-78590809D01*
X121618407Y-78554845D01*
X121649000Y-78550000D01*
X123431758Y-78550000D01*
X123489949Y-78568907D01*
G37*
%TD.AperFunction*%
%TA.AperFunction,Conductor*%
G36*
X123969460Y-72511598D02*
G01*
X127142073Y-75725955D01*
X127169493Y-75780652D01*
X127159527Y-75841021D01*
X127115981Y-75884002D01*
X127071613Y-75894500D01*
X125944282Y-75894500D01*
X125888782Y-75875661D01*
X125888393Y-75876334D01*
X125885008Y-75874380D01*
X125884016Y-75874043D01*
X125882774Y-75873090D01*
X125877625Y-75869139D01*
X125871632Y-75866656D01*
X125871629Y-75866655D01*
X125773701Y-75826093D01*
X125743709Y-75813670D01*
X125737280Y-75812824D01*
X125737278Y-75812823D01*
X125606433Y-75795597D01*
X125600000Y-75794750D01*
X125593567Y-75795597D01*
X125462722Y-75812823D01*
X125462720Y-75812824D01*
X125456291Y-75813670D01*
X125426299Y-75826093D01*
X125328371Y-75866655D01*
X125328368Y-75866656D01*
X125322375Y-75869139D01*
X125317226Y-75873090D01*
X125315984Y-75874043D01*
X125314992Y-75874380D01*
X125311607Y-75876334D01*
X125311218Y-75875661D01*
X125255718Y-75894500D01*
X123899000Y-75894500D01*
X123840809Y-75875593D01*
X123804845Y-75826093D01*
X123800000Y-75795500D01*
X123800000Y-72581143D01*
X123818907Y-72522952D01*
X123868407Y-72486988D01*
X123929593Y-72486988D01*
X123969460Y-72511598D01*
G37*
%TD.AperFunction*%
%TD*%
M02*
