%TF.GenerationSoftware,KiCad,Pcbnew,(6.0.7)*%
%TF.CreationDate,2023-03-20T18:09:00+01:00*%
%TF.ProjectId,BLDC_driver_small,424c4443-5f64-4726-9976-65725f736d61,1*%
%TF.SameCoordinates,Original*%
%TF.FileFunction,Paste,Top*%
%TF.FilePolarity,Positive*%
%FSLAX46Y46*%
G04 Gerber Fmt 4.6, Leading zero omitted, Abs format (unit mm)*
G04 Created by KiCad (PCBNEW (6.0.7)) date 2023-03-20 18:09:00*
%MOMM*%
%LPD*%
G01*
G04 APERTURE LIST*
G04 Aperture macros list*
%AMRoundRect*
0 Rectangle with rounded corners*
0 $1 Rounding radius*
0 $2 $3 $4 $5 $6 $7 $8 $9 X,Y pos of 4 corners*
0 Add a 4 corners polygon primitive as box body*
4,1,4,$2,$3,$4,$5,$6,$7,$8,$9,$2,$3,0*
0 Add four circle primitives for the rounded corners*
1,1,$1+$1,$2,$3*
1,1,$1+$1,$4,$5*
1,1,$1+$1,$6,$7*
1,1,$1+$1,$8,$9*
0 Add four rect primitives between the rounded corners*
20,1,$1+$1,$2,$3,$4,$5,0*
20,1,$1+$1,$4,$5,$6,$7,0*
20,1,$1+$1,$6,$7,$8,$9,0*
20,1,$1+$1,$8,$9,$2,$3,0*%
G04 Aperture macros list end*
%ADD10C,0.100000*%
%ADD11RoundRect,0.250000X1.950000X1.000000X-1.950000X1.000000X-1.950000X-1.000000X1.950000X-1.000000X0*%
%ADD12RoundRect,0.135000X-0.185000X0.135000X-0.185000X-0.135000X0.185000X-0.135000X0.185000X0.135000X0*%
%ADD13RoundRect,0.135000X-0.135000X-0.185000X0.135000X-0.185000X0.135000X0.185000X-0.135000X0.185000X0*%
%ADD14RoundRect,0.218750X-0.256250X0.218750X-0.256250X-0.218750X0.256250X-0.218750X0.256250X0.218750X0*%
%ADD15RoundRect,0.135000X0.135000X0.185000X-0.135000X0.185000X-0.135000X-0.185000X0.135000X-0.185000X0*%
%ADD16R,0.799998X2.199996*%
%ADD17RoundRect,0.140000X-0.140000X-0.170000X0.140000X-0.170000X0.140000X0.170000X-0.140000X0.170000X0*%
%ADD18RoundRect,0.135000X0.185000X-0.135000X0.185000X0.135000X-0.185000X0.135000X-0.185000X-0.135000X0*%
%ADD19RoundRect,0.250000X-1.075000X0.312500X-1.075000X-0.312500X1.075000X-0.312500X1.075000X0.312500X0*%
%ADD20RoundRect,0.140000X-0.170000X0.140000X-0.170000X-0.140000X0.170000X-0.140000X0.170000X0.140000X0*%
%ADD21R,0.700000X0.600000*%
%ADD22RoundRect,0.140000X0.170000X-0.140000X0.170000X0.140000X-0.170000X0.140000X-0.170000X-0.140000X0*%
%ADD23RoundRect,0.225000X0.250000X-0.225000X0.250000X0.225000X-0.250000X0.225000X-0.250000X-0.225000X0*%
%ADD24R,1.550000X1.300000*%
%ADD25RoundRect,0.218750X0.256250X-0.218750X0.256250X0.218750X-0.256250X0.218750X-0.256250X-0.218750X0*%
%ADD26R,0.900000X0.300000*%
%ADD27R,3.200000X3.200000*%
%ADD28R,0.300000X0.900000*%
%ADD29RoundRect,0.250000X1.075000X-0.312500X1.075000X0.312500X-1.075000X0.312500X-1.075000X-0.312500X0*%
%ADD30RoundRect,0.140000X0.140000X0.170000X-0.140000X0.170000X-0.140000X-0.170000X0.140000X-0.170000X0*%
%ADD31R,1.000000X0.800000*%
%ADD32R,0.700000X1.500000*%
%ADD33RoundRect,0.100000X-0.637500X-0.100000X0.637500X-0.100000X0.637500X0.100000X-0.637500X0.100000X0*%
%ADD34RoundRect,0.150000X0.150000X-0.587500X0.150000X0.587500X-0.150000X0.587500X-0.150000X-0.587500X0*%
%ADD35R,1.200000X0.900000*%
%ADD36R,1.200000X1.400000*%
%ADD37R,1.750000X1.200000*%
%ADD38R,1.750000X1.600000*%
G04 APERTURE END LIST*
%TO.C,U3*%
G36*
X123349997Y-97749797D02*
G01*
X120650003Y-97749797D01*
X120650003Y-94749803D01*
X123349997Y-94749803D01*
X123349997Y-97749797D01*
G37*
D10*
X123349997Y-97749797D02*
X120650003Y-97749797D01*
X120650003Y-94749803D01*
X123349997Y-94749803D01*
X123349997Y-97749797D01*
G36*
X120349997Y-101049797D02*
G01*
X117650003Y-101049797D01*
X117650003Y-98049803D01*
X120349997Y-98049803D01*
X120349997Y-101049797D01*
G37*
X120349997Y-101049797D02*
X117650003Y-101049797D01*
X117650003Y-98049803D01*
X120349997Y-98049803D01*
X120349997Y-101049797D01*
G36*
X120349997Y-97749797D02*
G01*
X117650003Y-97749797D01*
X117650003Y-94749803D01*
X120349997Y-94749803D01*
X120349997Y-97749797D01*
G37*
X120349997Y-97749797D02*
X117650003Y-97749797D01*
X117650003Y-94749803D01*
X120349997Y-94749803D01*
X120349997Y-97749797D01*
G36*
X123349997Y-101049797D02*
G01*
X120650003Y-101049797D01*
X120650003Y-98049803D01*
X123349997Y-98049803D01*
X123349997Y-101049797D01*
G37*
X123349997Y-101049797D02*
X120650003Y-101049797D01*
X120650003Y-98049803D01*
X123349997Y-98049803D01*
X123349997Y-101049797D01*
%TD*%
D11*
%TO.C,C1*%
X110950000Y-99000000D03*
X102550000Y-99000000D03*
%TD*%
D12*
%TO.C,R6*%
X134275000Y-91190000D03*
X134275000Y-92210000D03*
%TD*%
D13*
%TO.C,R7*%
X133265000Y-93900000D03*
X134285000Y-93900000D03*
%TD*%
D14*
%TO.C,D4*%
X126700000Y-102612500D03*
X126700000Y-104187500D03*
%TD*%
D15*
%TO.C,R12*%
X133210000Y-80625000D03*
X132190000Y-80625000D03*
%TD*%
D13*
%TO.C,R8*%
X124640000Y-80350000D03*
X125660000Y-80350000D03*
%TD*%
D16*
%TO.C,U3*%
X122780001Y-104199802D03*
X121640000Y-104199802D03*
X119360000Y-104199802D03*
X118219999Y-104199802D03*
%TD*%
D17*
%TO.C,C16*%
X124670000Y-79250000D03*
X125630000Y-79250000D03*
%TD*%
%TO.C,C20*%
X143345000Y-81575000D03*
X144305000Y-81575000D03*
%TD*%
D18*
%TO.C,R18*%
X133100000Y-84745000D03*
X133100000Y-83725000D03*
%TD*%
D19*
%TO.C,R4*%
X116050000Y-87937500D03*
X116050000Y-90862500D03*
%TD*%
D17*
%TO.C,C15*%
X131270000Y-109150000D03*
X132230000Y-109150000D03*
%TD*%
D12*
%TO.C,R13*%
X133100000Y-81715000D03*
X133100000Y-82735000D03*
%TD*%
D20*
%TO.C,C9*%
X117800000Y-76420000D03*
X117800000Y-77380000D03*
%TD*%
D15*
%TO.C,R15*%
X136910000Y-79525000D03*
X135890000Y-79525000D03*
%TD*%
D21*
%TO.C,D3*%
X116500000Y-77850000D03*
X116500000Y-76450000D03*
%TD*%
D12*
%TO.C,R10*%
X130200000Y-109140000D03*
X130200000Y-110160000D03*
%TD*%
D15*
%TO.C,R14*%
X134210000Y-79525000D03*
X133190000Y-79525000D03*
%TD*%
D22*
%TO.C,C7*%
X115200000Y-81380000D03*
X115200000Y-80420000D03*
%TD*%
D20*
%TO.C,C26*%
X144500000Y-85845000D03*
X144500000Y-86805000D03*
%TD*%
D23*
%TO.C,C2*%
X116000000Y-104174800D03*
X116000000Y-102624800D03*
%TD*%
D18*
%TO.C,R24*%
X143400000Y-86835000D03*
X143400000Y-85815000D03*
%TD*%
D24*
%TO.C,SW3*%
X130225000Y-117850000D03*
X122275000Y-117850000D03*
X130225000Y-113350000D03*
X122275000Y-113350000D03*
%TD*%
D25*
%TO.C,L1*%
X129450000Y-103612500D03*
X129450000Y-102037500D03*
%TD*%
D17*
%TO.C,C10*%
X115520000Y-79100000D03*
X116480000Y-79100000D03*
%TD*%
D22*
%TO.C,C6*%
X129975000Y-100780000D03*
X129975000Y-99820000D03*
%TD*%
D26*
%TO.C,U2*%
X122750000Y-83450000D03*
D27*
X120300000Y-81700000D03*
D26*
X122750000Y-82950000D03*
X122750000Y-82450000D03*
X122750000Y-81950000D03*
X122750000Y-81450000D03*
X122750000Y-80950000D03*
X122750000Y-80450000D03*
X122750000Y-79950000D03*
D28*
X122050000Y-79250000D03*
X121550000Y-79250000D03*
X121050000Y-79250000D03*
X120550000Y-79250000D03*
X120050000Y-79250000D03*
X119550000Y-79250000D03*
X119050000Y-79250000D03*
X118550000Y-79250000D03*
D26*
X117850000Y-79950000D03*
X117850000Y-80450000D03*
X117850000Y-80950000D03*
X117850000Y-81450000D03*
X117850000Y-81950000D03*
X117850000Y-82450000D03*
X117850000Y-82950000D03*
X117850000Y-83450000D03*
D28*
X118550000Y-84150000D03*
X119050000Y-84150000D03*
X119550000Y-84150000D03*
X120050000Y-84150000D03*
X120550000Y-84150000D03*
X121050000Y-84150000D03*
X121550000Y-84150000D03*
X122050000Y-84150000D03*
%TD*%
D18*
%TO.C,R21*%
X145600000Y-83635000D03*
X145600000Y-82615000D03*
%TD*%
D15*
%TO.C,R11*%
X130910000Y-81725000D03*
X129890000Y-81725000D03*
%TD*%
D22*
%TO.C,C4*%
X128012500Y-103855000D03*
X128012500Y-102895000D03*
%TD*%
D17*
%TO.C,C22*%
X133220000Y-78425000D03*
X134180000Y-78425000D03*
%TD*%
D29*
%TO.C,R5*%
X120900000Y-75862500D03*
X120900000Y-72937500D03*
%TD*%
D12*
%TO.C,R26*%
X146950000Y-93940000D03*
X146950000Y-94960000D03*
%TD*%
D30*
%TO.C,C17*%
X130505000Y-95600000D03*
X129545000Y-95600000D03*
%TD*%
D15*
%TO.C,R27*%
X142160000Y-91100000D03*
X141140000Y-91100000D03*
%TD*%
D20*
%TO.C,C8*%
X115200000Y-82520000D03*
X115200000Y-83480000D03*
%TD*%
D15*
%TO.C,R19*%
X134220000Y-88025000D03*
X133200000Y-88025000D03*
%TD*%
D13*
%TO.C,R22*%
X143390000Y-84725000D03*
X144410000Y-84725000D03*
%TD*%
D22*
%TO.C,C14*%
X132461000Y-75791000D03*
X132461000Y-74831000D03*
%TD*%
D23*
%TO.C,C3*%
X125000000Y-104174800D03*
X125000000Y-102624800D03*
%TD*%
D17*
%TO.C,C19*%
X143345000Y-80475000D03*
X144305000Y-80475000D03*
%TD*%
D20*
%TO.C,C12*%
X143275000Y-95020000D03*
X143275000Y-95980000D03*
%TD*%
D31*
%TO.C,SW2*%
X132100000Y-72280000D03*
X124800000Y-72280000D03*
X124800000Y-70070000D03*
X132100000Y-70070000D03*
D32*
X130700000Y-72930000D03*
X127700000Y-72930000D03*
X126200000Y-72930000D03*
%TD*%
D15*
%TO.C,R16*%
X130910000Y-84735000D03*
X129890000Y-84735000D03*
%TD*%
D22*
%TO.C,C21*%
X132000000Y-82705000D03*
X132000000Y-81745000D03*
%TD*%
D13*
%TO.C,R2*%
X125390000Y-101300000D03*
X126410000Y-101300000D03*
%TD*%
D19*
%TO.C,R3*%
X119400000Y-87937500D03*
X119400000Y-90862500D03*
%TD*%
D17*
%TO.C,C24*%
X133220000Y-86925000D03*
X134180000Y-86925000D03*
%TD*%
D15*
%TO.C,R17*%
X133210000Y-85835000D03*
X132190000Y-85835000D03*
%TD*%
%TO.C,R9*%
X130210000Y-111250000D03*
X129190000Y-111250000D03*
%TD*%
D33*
%TO.C,U1*%
X135912500Y-92375000D03*
X135912500Y-93025000D03*
X135912500Y-93675000D03*
X135912500Y-94325000D03*
X135912500Y-94975000D03*
X135912500Y-95625000D03*
X135912500Y-96275000D03*
X135912500Y-96925000D03*
X135912500Y-97575000D03*
X135912500Y-98225000D03*
X141637500Y-98225000D03*
X141637500Y-97575000D03*
X141637500Y-96925000D03*
X141637500Y-96275000D03*
X141637500Y-95625000D03*
X141637500Y-94975000D03*
X141637500Y-94325000D03*
X141637500Y-93675000D03*
X141637500Y-93025000D03*
X141637500Y-92375000D03*
%TD*%
D20*
%TO.C,C25*%
X144500000Y-82645000D03*
X144500000Y-83605000D03*
%TD*%
D34*
%TO.C,Q1*%
X115050000Y-109037500D03*
X116950000Y-109037500D03*
X116000000Y-107162500D03*
%TD*%
D18*
%TO.C,R23*%
X143400000Y-83635000D03*
X143400000Y-82615000D03*
%TD*%
D24*
%TO.C,SW1*%
X134225000Y-70850000D03*
X142175000Y-70850000D03*
X134225000Y-75350000D03*
X142175000Y-75350000D03*
%TD*%
D21*
%TO.C,D2*%
X114950000Y-76450000D03*
X114950000Y-77850000D03*
%TD*%
D18*
%TO.C,R1*%
X113600000Y-111010000D03*
X113600000Y-109990000D03*
%TD*%
D30*
%TO.C,C13*%
X134255000Y-95000000D03*
X133295000Y-95000000D03*
%TD*%
D18*
%TO.C,R25*%
X141700000Y-87835000D03*
X141700000Y-86815000D03*
%TD*%
D20*
%TO.C,C23*%
X132000000Y-83755000D03*
X132000000Y-84715000D03*
%TD*%
D35*
%TO.C,D1*%
X111750000Y-106500000D03*
X111750000Y-109800000D03*
%TD*%
D36*
%TO.C,Y1*%
X129175000Y-91925000D03*
X129175000Y-94125000D03*
X130875000Y-94125000D03*
X130875000Y-91925000D03*
%TD*%
D22*
%TO.C,C5*%
X128925000Y-100780000D03*
X128925000Y-99820000D03*
%TD*%
D17*
%TO.C,C18*%
X129545000Y-90200000D03*
X130505000Y-90200000D03*
%TD*%
D33*
%TO.C,U4*%
X135937500Y-81275000D03*
X135937500Y-81925000D03*
X135937500Y-82575000D03*
X135937500Y-83225000D03*
X135937500Y-83875000D03*
X135937500Y-84525000D03*
X135937500Y-85175000D03*
X141662500Y-85175000D03*
X141662500Y-84525000D03*
X141662500Y-83875000D03*
X141662500Y-83225000D03*
X141662500Y-82575000D03*
X141662500Y-81925000D03*
X141662500Y-81275000D03*
%TD*%
D37*
%TO.C,RV1*%
X122375000Y-107750000D03*
D38*
X126425000Y-108900000D03*
D37*
X122375000Y-110050000D03*
%TD*%
D18*
%TO.C,R20*%
X135900000Y-87835000D03*
X135900000Y-86815000D03*
%TD*%
D20*
%TO.C,C11*%
X144375000Y-95020000D03*
X144375000Y-95980000D03*
%TD*%
M02*
