%TF.GenerationSoftware,KiCad,Pcbnew,(6.0.7)*%
%TF.CreationDate,2023-03-20T18:09:00+01:00*%
%TF.ProjectId,BLDC_driver_small,424c4443-5f64-4726-9976-65725f736d61,1*%
%TF.SameCoordinates,Original*%
%TF.FileFunction,Copper,L5,Inr*%
%TF.FilePolarity,Positive*%
%FSLAX46Y46*%
G04 Gerber Fmt 4.6, Leading zero omitted, Abs format (unit mm)*
G04 Created by KiCad (PCBNEW (6.0.7)) date 2023-03-20 18:09:00*
%MOMM*%
%LPD*%
G01*
G04 APERTURE LIST*
%TA.AperFunction,ComponentPad*%
%ADD10R,1.700000X1.700000*%
%TD*%
%TA.AperFunction,ComponentPad*%
%ADD11O,1.700000X1.700000*%
%TD*%
%TA.AperFunction,ComponentPad*%
%ADD12R,1.980000X3.960000*%
%TD*%
%TA.AperFunction,ComponentPad*%
%ADD13O,1.980000X3.960000*%
%TD*%
%TA.AperFunction,ComponentPad*%
%ADD14R,3.960000X1.980000*%
%TD*%
%TA.AperFunction,ComponentPad*%
%ADD15O,3.960000X1.980000*%
%TD*%
%TA.AperFunction,ViaPad*%
%ADD16C,0.700000*%
%TD*%
%TA.AperFunction,ViaPad*%
%ADD17C,0.600000*%
%TD*%
%TA.AperFunction,ViaPad*%
%ADD18C,0.560000*%
%TD*%
G04 APERTURE END LIST*
D10*
%TO.N,+3V3*%
%TO.C,J3*%
X147175000Y-111725000D03*
D11*
%TO.N,/SWD_{IO}*%
X144635000Y-111725000D03*
%TO.N,GND*%
X147175000Y-109185000D03*
%TO.N,/SWD_{CLK}*%
X144635000Y-109185000D03*
%TO.N,GND*%
X147175000Y-106645000D03*
%TO.N,unconnected-(J3-Pad6)*%
X144635000Y-106645000D03*
%TO.N,unconnected-(J3-Pad7)*%
X147175000Y-104105000D03*
%TO.N,unconnected-(J3-Pad8)*%
X144635000Y-104105000D03*
%TO.N,GND*%
X147175000Y-101565000D03*
%TO.N,/NRST*%
X144635000Y-101565000D03*
%TD*%
D10*
%TO.N,GND*%
%TO.C,J4*%
X140990000Y-117500000D03*
D11*
%TO.N,+3V3*%
X138450000Y-117500000D03*
%TO.N,/I2C_{SCL}*%
X135910000Y-117500000D03*
%TO.N,/I2C_{SDA}*%
X133370000Y-117500000D03*
%TD*%
D12*
%TO.N,/V_{pwr}*%
%TO.C,J1*%
X107365000Y-112900000D03*
D13*
%TO.N,GNDREF*%
X102365000Y-112900000D03*
%TD*%
D14*
%TO.N,/OUT_{U}*%
%TO.C,J2*%
X105510000Y-88695000D03*
D15*
%TO.N,/OUT_{V}*%
X105510000Y-83695000D03*
%TO.N,/OUT_{W}*%
X105510000Y-78695000D03*
%TD*%
D16*
%TO.N,+3V3*%
X129800000Y-72950000D03*
X146950000Y-93050000D03*
X123850000Y-104200000D03*
D17*
X128400000Y-111250000D03*
D16*
X144399000Y-94107000D03*
X143050000Y-91100000D03*
X145288000Y-94996000D03*
X125000000Y-105300000D03*
D17*
X122350000Y-106550000D03*
D16*
%TO.N,GND*%
X125375000Y-100400000D03*
D17*
X125600000Y-75050000D03*
D16*
X123850000Y-110000000D03*
X139000000Y-107500000D03*
X125850000Y-115800000D03*
D17*
X120950000Y-97200000D03*
D16*
X146250000Y-90950000D03*
X145600000Y-75700000D03*
X139900000Y-107500000D03*
X134550000Y-90350000D03*
X146500000Y-75700000D03*
X128725000Y-95600000D03*
X131850000Y-102800000D03*
X137650000Y-72150000D03*
X124650000Y-82450000D03*
D18*
X125250000Y-90600000D03*
D17*
X132250000Y-110050000D03*
D16*
X138550000Y-73050000D03*
X146500000Y-76600000D03*
X129175000Y-94050000D03*
X139000000Y-106600000D03*
X131325000Y-90200000D03*
D17*
X120950000Y-99800000D03*
D16*
X143275000Y-96800000D03*
X128750000Y-105950000D03*
X124550000Y-101525000D03*
D17*
X131572000Y-74803000D03*
D16*
X139900000Y-106600000D03*
X133800000Y-100550000D03*
D17*
X134239000Y-72136000D03*
X122400000Y-111250000D03*
D16*
X126750000Y-115800000D03*
X146250000Y-90050000D03*
X147150000Y-90950000D03*
D17*
X120950000Y-98500000D03*
D16*
X125850000Y-116700000D03*
D17*
X120950000Y-95900000D03*
D16*
X126450000Y-79250000D03*
X145600000Y-76600000D03*
X137650000Y-73050000D03*
X144375000Y-96800000D03*
X130875000Y-91850000D03*
X126750000Y-116700000D03*
X147150000Y-90050000D03*
D17*
X142113000Y-72136000D03*
D16*
X139900000Y-112100000D03*
X138550000Y-72150000D03*
X139000000Y-113000000D03*
X139000000Y-112100000D03*
X139900000Y-113000000D03*
D17*
%TO.N,+3.3VA*%
X134175000Y-83225000D03*
D16*
X127950000Y-100800000D03*
X130950000Y-100850000D03*
D17*
X143350000Y-79600000D03*
X142500000Y-80100000D03*
X133300000Y-96050000D03*
%TO.N,/NRST*%
X135509000Y-91262200D03*
D18*
%TO.N,/SENSE_{U}+*%
X129900000Y-86750000D03*
D17*
X120200000Y-86750000D03*
D18*
%TO.N,/SENSE_{V}+*%
X129890000Y-82519000D03*
D17*
X116050000Y-86750000D03*
D18*
%TO.N,/SENSE_{W}+*%
X146550000Y-82600000D03*
D17*
X120900000Y-77050000D03*
D18*
%TO.N,/PWM_{U}*%
X124700000Y-84000000D03*
X140400000Y-97575000D03*
X133775000Y-98875000D03*
X117150000Y-85800000D03*
%TO.N,/PWM_{W}*%
X125800000Y-84000000D03*
X119950000Y-85150000D03*
X139875000Y-96925000D03*
X134375000Y-98225000D03*
%TO.N,/PWM_{V}*%
X127750000Y-77950000D03*
X119950000Y-77600000D03*
X134400000Y-96600000D03*
X140400000Y-96300000D03*
%TO.N,/SWD_{IO}*%
X143050000Y-93000000D03*
%TO.N,/I2C_{SDA}*%
X140100000Y-93650000D03*
%TO.N,/OUT_{W}*%
X116850000Y-80850000D03*
X116250000Y-80250000D03*
X116850000Y-80250000D03*
X116250000Y-80850000D03*
%TO.N,/OUT_{V}*%
X116250000Y-83050000D03*
X116850000Y-83050000D03*
X116250000Y-83650000D03*
X116850000Y-83650000D03*
%TO.N,/OUT_{U}*%
X121650000Y-88400000D03*
X121650000Y-89000000D03*
X122250000Y-89000000D03*
X122250000Y-88400000D03*
%TO.N,/ENABLE*%
X119200000Y-85500000D03*
X119523900Y-78200000D03*
X125650000Y-81250000D03*
D17*
%TO.N,/V_{CP}*%
X117700000Y-84300000D03*
X117700000Y-78200000D03*
D16*
%TO.N,GNDPWR*%
X115200000Y-90850000D03*
X118550000Y-90850000D03*
D17*
X120300000Y-81700000D03*
D16*
X106000000Y-93000000D03*
X107550000Y-106300000D03*
D17*
X121100000Y-82500000D03*
D16*
X114850000Y-102600000D03*
X101900000Y-89150000D03*
X102950000Y-97100000D03*
X114700000Y-98350000D03*
X102050000Y-100900000D03*
X116100000Y-72000000D03*
X115600000Y-96600000D03*
X116050000Y-90850000D03*
X109500000Y-86200000D03*
X101000000Y-83250000D03*
X107550000Y-107200000D03*
X114700000Y-96600000D03*
X118200000Y-107200000D03*
X101900000Y-88250000D03*
X120250000Y-90850000D03*
X105100000Y-92100000D03*
X101000000Y-79150000D03*
X118200000Y-106300000D03*
X120900000Y-72950000D03*
D17*
X119500000Y-80900000D03*
D16*
X106650000Y-106300000D03*
X115600000Y-97450000D03*
X115600000Y-99200000D03*
D17*
X121100000Y-81700000D03*
D16*
X101000000Y-89150000D03*
D17*
X120300000Y-80900000D03*
D16*
X119400000Y-90850000D03*
X109500000Y-81200000D03*
X114700000Y-99200000D03*
D17*
X119500000Y-82500000D03*
D16*
X119100000Y-107200000D03*
X108500000Y-72900000D03*
X115200000Y-84325000D03*
X103850000Y-100900000D03*
X117000000Y-72900000D03*
X101900000Y-79150000D03*
X120050000Y-72950000D03*
X107600000Y-72900000D03*
X114325000Y-80400000D03*
X103850000Y-97100000D03*
D17*
X121100000Y-80900000D03*
D16*
X101150000Y-97100000D03*
X101900000Y-83250000D03*
X116100000Y-72900000D03*
X114700000Y-97450000D03*
X116900000Y-90850000D03*
X101900000Y-84150000D03*
X102050000Y-97100000D03*
X119100000Y-106300000D03*
X101000000Y-78250000D03*
X106650000Y-107200000D03*
X105100000Y-93000000D03*
X107600000Y-72000000D03*
X101150000Y-100900000D03*
D17*
X120300000Y-82500000D03*
X119500000Y-81700000D03*
D16*
X102950000Y-100900000D03*
X121750000Y-72950000D03*
X106000000Y-92100000D03*
X101000000Y-84150000D03*
X101900000Y-78250000D03*
X117000000Y-72000000D03*
X115600000Y-98350000D03*
X108500000Y-72000000D03*
X101000000Y-88250000D03*
D17*
%TO.N,GNDA*%
X119950000Y-97200000D03*
D16*
X132475000Y-95000000D03*
X134700000Y-80600000D03*
X134600000Y-85900000D03*
X130850000Y-99800000D03*
X131000000Y-86300000D03*
X125600000Y-76350000D03*
X131953000Y-88011000D03*
X139900000Y-87300000D03*
X136017000Y-89357200D03*
D17*
X119950000Y-95900000D03*
D16*
X139750000Y-84800000D03*
X128000000Y-102025000D03*
X131125000Y-82700000D03*
X145175000Y-80475000D03*
X130900000Y-78700000D03*
X128050000Y-99800000D03*
X137300000Y-87300000D03*
X146050000Y-87630000D03*
X131125000Y-83750000D03*
X145175000Y-81575000D03*
D17*
X119950000Y-98500000D03*
X119950000Y-99800000D03*
D16*
X139900000Y-80850000D03*
%TO.N,GNDREF*%
X112400000Y-111200000D03*
X104500000Y-117400000D03*
X113700000Y-116500000D03*
X114600000Y-117400000D03*
X105400000Y-116500000D03*
X104500000Y-116500000D03*
X113700000Y-117400000D03*
X105400000Y-117400000D03*
X114600000Y-116500000D03*
D18*
%TO.N,/SENSE_{U}-*%
X129921000Y-87884000D03*
D17*
X120250000Y-92050000D03*
D18*
%TO.N,/SENSE_{V}-*%
X131300000Y-80600000D03*
D17*
X116850000Y-92050000D03*
%TO.N,/SENSE_{W}-*%
X121700000Y-71700000D03*
D18*
X145325000Y-84725000D03*
%TD*%
%TA.AperFunction,Conductor*%
%TO.N,GNDREF*%
G36*
X119959191Y-108324407D02*
G01*
X119995155Y-108373907D01*
X120000000Y-108404500D01*
X120000000Y-119100500D01*
X119981093Y-119158691D01*
X119931593Y-119194655D01*
X119901000Y-119199500D01*
X99299500Y-119199500D01*
X99241309Y-119180593D01*
X99205345Y-119131093D01*
X99200500Y-119100500D01*
X99200500Y-114899748D01*
X106174500Y-114899748D01*
X106186133Y-114958231D01*
X106230448Y-115024552D01*
X106296769Y-115068867D01*
X106306332Y-115070769D01*
X106306334Y-115070770D01*
X106329005Y-115075279D01*
X106355252Y-115080500D01*
X108374748Y-115080500D01*
X108400995Y-115075279D01*
X108423666Y-115070770D01*
X108423668Y-115070769D01*
X108433231Y-115068867D01*
X108499552Y-115024552D01*
X108543867Y-114958231D01*
X108555500Y-114899748D01*
X108555500Y-110900252D01*
X108543867Y-110841769D01*
X108499552Y-110775448D01*
X108433231Y-110731133D01*
X108423668Y-110729231D01*
X108423666Y-110729230D01*
X108400995Y-110724721D01*
X108374748Y-110719500D01*
X106355252Y-110719500D01*
X106329005Y-110724721D01*
X106306334Y-110729230D01*
X106306332Y-110729231D01*
X106296769Y-110731133D01*
X106230448Y-110775448D01*
X106186133Y-110841769D01*
X106174500Y-110900252D01*
X106174500Y-114899748D01*
X99200500Y-114899748D01*
X99200500Y-108404500D01*
X99219407Y-108346309D01*
X99268907Y-108310345D01*
X99299500Y-108305500D01*
X119901000Y-108305500D01*
X119959191Y-108324407D01*
G37*
%TD.AperFunction*%
%TD*%
%TA.AperFunction,Conductor*%
%TO.N,GND*%
G36*
X148758691Y-69619407D02*
G01*
X148794655Y-69668907D01*
X148799500Y-69699500D01*
X148799500Y-119100500D01*
X148780593Y-119158691D01*
X148731093Y-119194655D01*
X148700500Y-119199500D01*
X121099000Y-119199500D01*
X121040809Y-119180593D01*
X121004845Y-119131093D01*
X121000000Y-119100500D01*
X121000000Y-117485262D01*
X132314520Y-117485262D01*
X132314925Y-117490082D01*
X132331059Y-117682214D01*
X132331759Y-117690553D01*
X132333092Y-117695201D01*
X132333092Y-117695202D01*
X132349814Y-117753517D01*
X132388544Y-117888586D01*
X132482712Y-118071818D01*
X132610677Y-118233270D01*
X132614357Y-118236402D01*
X132614359Y-118236404D01*
X132727017Y-118332283D01*
X132767564Y-118366791D01*
X132771787Y-118369151D01*
X132771791Y-118369154D01*
X132811342Y-118391258D01*
X132947398Y-118467297D01*
X132951996Y-118468791D01*
X133138724Y-118529463D01*
X133138726Y-118529464D01*
X133143329Y-118530959D01*
X133347894Y-118555351D01*
X133352716Y-118554980D01*
X133352719Y-118554980D01*
X133420541Y-118549761D01*
X133553300Y-118539546D01*
X133751725Y-118484145D01*
X133756038Y-118481966D01*
X133756044Y-118481964D01*
X133931289Y-118393441D01*
X133931291Y-118393440D01*
X133935610Y-118391258D01*
X133970943Y-118363653D01*
X134094135Y-118267406D01*
X134094139Y-118267402D01*
X134097951Y-118264424D01*
X134232564Y-118108472D01*
X134251231Y-118075613D01*
X134331934Y-117933550D01*
X134331935Y-117933547D01*
X134334323Y-117929344D01*
X134347882Y-117888586D01*
X134397824Y-117738454D01*
X134397824Y-117738452D01*
X134399351Y-117733863D01*
X134401961Y-117713207D01*
X134424823Y-117532228D01*
X134425171Y-117529474D01*
X134425583Y-117500000D01*
X134424138Y-117485262D01*
X134854520Y-117485262D01*
X134854925Y-117490082D01*
X134871059Y-117682214D01*
X134871759Y-117690553D01*
X134873092Y-117695201D01*
X134873092Y-117695202D01*
X134889814Y-117753517D01*
X134928544Y-117888586D01*
X135022712Y-118071818D01*
X135150677Y-118233270D01*
X135154357Y-118236402D01*
X135154359Y-118236404D01*
X135267017Y-118332283D01*
X135307564Y-118366791D01*
X135311787Y-118369151D01*
X135311791Y-118369154D01*
X135351342Y-118391258D01*
X135487398Y-118467297D01*
X135491996Y-118468791D01*
X135678724Y-118529463D01*
X135678726Y-118529464D01*
X135683329Y-118530959D01*
X135887894Y-118555351D01*
X135892716Y-118554980D01*
X135892719Y-118554980D01*
X135960541Y-118549761D01*
X136093300Y-118539546D01*
X136291725Y-118484145D01*
X136296038Y-118481966D01*
X136296044Y-118481964D01*
X136471289Y-118393441D01*
X136471291Y-118393440D01*
X136475610Y-118391258D01*
X136510943Y-118363653D01*
X136634135Y-118267406D01*
X136634139Y-118267402D01*
X136637951Y-118264424D01*
X136772564Y-118108472D01*
X136791231Y-118075613D01*
X136871934Y-117933550D01*
X136871935Y-117933547D01*
X136874323Y-117929344D01*
X136887882Y-117888586D01*
X136937824Y-117738454D01*
X136937824Y-117738452D01*
X136939351Y-117733863D01*
X136941961Y-117713207D01*
X136964823Y-117532228D01*
X136965171Y-117529474D01*
X136965583Y-117500000D01*
X136964138Y-117485262D01*
X137394520Y-117485262D01*
X137394925Y-117490082D01*
X137411059Y-117682214D01*
X137411759Y-117690553D01*
X137413092Y-117695201D01*
X137413092Y-117695202D01*
X137429814Y-117753517D01*
X137468544Y-117888586D01*
X137562712Y-118071818D01*
X137690677Y-118233270D01*
X137694357Y-118236402D01*
X137694359Y-118236404D01*
X137807017Y-118332283D01*
X137847564Y-118366791D01*
X137851787Y-118369151D01*
X137851791Y-118369154D01*
X137891342Y-118391258D01*
X138027398Y-118467297D01*
X138031996Y-118468791D01*
X138218724Y-118529463D01*
X138218726Y-118529464D01*
X138223329Y-118530959D01*
X138427894Y-118555351D01*
X138432716Y-118554980D01*
X138432719Y-118554980D01*
X138500541Y-118549761D01*
X138633300Y-118539546D01*
X138831725Y-118484145D01*
X138836038Y-118481966D01*
X138836044Y-118481964D01*
X139011289Y-118393441D01*
X139011291Y-118393440D01*
X139015610Y-118391258D01*
X139050943Y-118363653D01*
X139174135Y-118267406D01*
X139174139Y-118267402D01*
X139177951Y-118264424D01*
X139312564Y-118108472D01*
X139331231Y-118075613D01*
X139411934Y-117933550D01*
X139411935Y-117933547D01*
X139414323Y-117929344D01*
X139427882Y-117888586D01*
X139477824Y-117738454D01*
X139477824Y-117738452D01*
X139479351Y-117733863D01*
X139481961Y-117713207D01*
X139504823Y-117532228D01*
X139505171Y-117529474D01*
X139505583Y-117500000D01*
X139503667Y-117480454D01*
X139485952Y-117299780D01*
X139485951Y-117299776D01*
X139485480Y-117294970D01*
X139425935Y-117097749D01*
X139329218Y-116915849D01*
X139199011Y-116756200D01*
X139040275Y-116624882D01*
X138859055Y-116526897D01*
X138795855Y-116507333D01*
X138666875Y-116467407D01*
X138666871Y-116467406D01*
X138662254Y-116465977D01*
X138657446Y-116465472D01*
X138657443Y-116465471D01*
X138462185Y-116444949D01*
X138462183Y-116444949D01*
X138457369Y-116444443D01*
X138397354Y-116449905D01*
X138257022Y-116462675D01*
X138257017Y-116462676D01*
X138252203Y-116463114D01*
X138054572Y-116521280D01*
X138050288Y-116523519D01*
X138050287Y-116523520D01*
X138039428Y-116529197D01*
X137872002Y-116616726D01*
X137868231Y-116619758D01*
X137715220Y-116742781D01*
X137715217Y-116742783D01*
X137711447Y-116745815D01*
X137708333Y-116749526D01*
X137708332Y-116749527D01*
X137673837Y-116790637D01*
X137579024Y-116903630D01*
X137576689Y-116907878D01*
X137576688Y-116907879D01*
X137569955Y-116920126D01*
X137479776Y-117084162D01*
X137478313Y-117088775D01*
X137478311Y-117088779D01*
X137443865Y-117197369D01*
X137417484Y-117280532D01*
X137416944Y-117285344D01*
X137416944Y-117285345D01*
X137397418Y-117459430D01*
X137394520Y-117485262D01*
X136964138Y-117485262D01*
X136963667Y-117480454D01*
X136945952Y-117299780D01*
X136945951Y-117299776D01*
X136945480Y-117294970D01*
X136885935Y-117097749D01*
X136789218Y-116915849D01*
X136659011Y-116756200D01*
X136500275Y-116624882D01*
X136319055Y-116526897D01*
X136255855Y-116507333D01*
X136126875Y-116467407D01*
X136126871Y-116467406D01*
X136122254Y-116465977D01*
X136117446Y-116465472D01*
X136117443Y-116465471D01*
X135922185Y-116444949D01*
X135922183Y-116444949D01*
X135917369Y-116444443D01*
X135857354Y-116449905D01*
X135717022Y-116462675D01*
X135717017Y-116462676D01*
X135712203Y-116463114D01*
X135514572Y-116521280D01*
X135510288Y-116523519D01*
X135510287Y-116523520D01*
X135499428Y-116529197D01*
X135332002Y-116616726D01*
X135328231Y-116619758D01*
X135175220Y-116742781D01*
X135175217Y-116742783D01*
X135171447Y-116745815D01*
X135168333Y-116749526D01*
X135168332Y-116749527D01*
X135133837Y-116790637D01*
X135039024Y-116903630D01*
X135036689Y-116907878D01*
X135036688Y-116907879D01*
X135029955Y-116920126D01*
X134939776Y-117084162D01*
X134938313Y-117088775D01*
X134938311Y-117088779D01*
X134903865Y-117197369D01*
X134877484Y-117280532D01*
X134876944Y-117285344D01*
X134876944Y-117285345D01*
X134857418Y-117459430D01*
X134854520Y-117485262D01*
X134424138Y-117485262D01*
X134423667Y-117480454D01*
X134405952Y-117299780D01*
X134405951Y-117299776D01*
X134405480Y-117294970D01*
X134345935Y-117097749D01*
X134249218Y-116915849D01*
X134119011Y-116756200D01*
X133960275Y-116624882D01*
X133779055Y-116526897D01*
X133715855Y-116507333D01*
X133586875Y-116467407D01*
X133586871Y-116467406D01*
X133582254Y-116465977D01*
X133577446Y-116465472D01*
X133577443Y-116465471D01*
X133382185Y-116444949D01*
X133382183Y-116444949D01*
X133377369Y-116444443D01*
X133317354Y-116449905D01*
X133177022Y-116462675D01*
X133177017Y-116462676D01*
X133172203Y-116463114D01*
X132974572Y-116521280D01*
X132970288Y-116523519D01*
X132970287Y-116523520D01*
X132959428Y-116529197D01*
X132792002Y-116616726D01*
X132788231Y-116619758D01*
X132635220Y-116742781D01*
X132635217Y-116742783D01*
X132631447Y-116745815D01*
X132628333Y-116749526D01*
X132628332Y-116749527D01*
X132593837Y-116790637D01*
X132499024Y-116903630D01*
X132496689Y-116907878D01*
X132496688Y-116907879D01*
X132489955Y-116920126D01*
X132399776Y-117084162D01*
X132398313Y-117088775D01*
X132398311Y-117088779D01*
X132363865Y-117197369D01*
X132337484Y-117280532D01*
X132336944Y-117285344D01*
X132336944Y-117285345D01*
X132317418Y-117459430D01*
X132314520Y-117485262D01*
X121000000Y-117485262D01*
X121000000Y-116335964D01*
X144642112Y-116335964D01*
X144650736Y-116565669D01*
X144697939Y-116790637D01*
X144782372Y-117004436D01*
X144901621Y-117200952D01*
X145052276Y-117374566D01*
X145230029Y-117520315D01*
X145429798Y-117634030D01*
X145645871Y-117712461D01*
X145695293Y-117721398D01*
X145868865Y-117752785D01*
X145868871Y-117752786D01*
X145872069Y-117753364D01*
X145891041Y-117754259D01*
X145895011Y-117754446D01*
X145895015Y-117754446D01*
X145896158Y-117754500D01*
X146057712Y-117754500D01*
X146059795Y-117754323D01*
X146059801Y-117754323D01*
X146224873Y-117740316D01*
X146224874Y-117740316D01*
X146229044Y-117739962D01*
X146233094Y-117738911D01*
X146233099Y-117738910D01*
X146447483Y-117683267D01*
X146447486Y-117683266D01*
X146451539Y-117682214D01*
X146661123Y-117587803D01*
X146851803Y-117459430D01*
X146937974Y-117377227D01*
X147015094Y-117303659D01*
X147015098Y-117303654D01*
X147018128Y-117300764D01*
X147155342Y-117116342D01*
X147173862Y-117079915D01*
X147257623Y-116915170D01*
X147257625Y-116915166D01*
X147259520Y-116911438D01*
X147327685Y-116691911D01*
X147344973Y-116561478D01*
X147357338Y-116468187D01*
X147357338Y-116468185D01*
X147357888Y-116464036D01*
X147357172Y-116444949D01*
X147349421Y-116238522D01*
X147349264Y-116234331D01*
X147302061Y-116009363D01*
X147217628Y-115795564D01*
X147098379Y-115599048D01*
X146947724Y-115425434D01*
X146769971Y-115279685D01*
X146570202Y-115165970D01*
X146354129Y-115087539D01*
X146304707Y-115078602D01*
X146131135Y-115047215D01*
X146131129Y-115047214D01*
X146127931Y-115046636D01*
X146108959Y-115045741D01*
X146104989Y-115045554D01*
X146104985Y-115045554D01*
X146103842Y-115045500D01*
X145942288Y-115045500D01*
X145940205Y-115045677D01*
X145940199Y-115045677D01*
X145775127Y-115059684D01*
X145775126Y-115059684D01*
X145770956Y-115060038D01*
X145766906Y-115061089D01*
X145766901Y-115061090D01*
X145552517Y-115116733D01*
X145552514Y-115116734D01*
X145548461Y-115117786D01*
X145338877Y-115212197D01*
X145148197Y-115340570D01*
X145145156Y-115343471D01*
X144984906Y-115496341D01*
X144984902Y-115496346D01*
X144981872Y-115499236D01*
X144844658Y-115683658D01*
X144842756Y-115687399D01*
X144789583Y-115791984D01*
X144740480Y-115888562D01*
X144672315Y-116108089D01*
X144642112Y-116335964D01*
X121000000Y-116335964D01*
X121000000Y-111243823D01*
X127894391Y-111243823D01*
X127895306Y-111250820D01*
X127895306Y-111250821D01*
X127896814Y-111262354D01*
X127912980Y-111385979D01*
X127915821Y-111392435D01*
X127915821Y-111392436D01*
X127965585Y-111505532D01*
X127970720Y-111517203D01*
X127983792Y-111532754D01*
X128058431Y-111621549D01*
X128058434Y-111621551D01*
X128062970Y-111626948D01*
X128068841Y-111630856D01*
X128068842Y-111630857D01*
X128081143Y-111639045D01*
X128182313Y-111706390D01*
X128282920Y-111737821D01*
X128312425Y-111747039D01*
X128312426Y-111747039D01*
X128319157Y-111749142D01*
X128390828Y-111750456D01*
X128455445Y-111751641D01*
X128455447Y-111751641D01*
X128462499Y-111751770D01*
X128469302Y-111749915D01*
X128469304Y-111749915D01*
X128544503Y-111729413D01*
X128600817Y-111714060D01*
X128607003Y-111710262D01*
X143579520Y-111710262D01*
X143596759Y-111915553D01*
X143653544Y-112113586D01*
X143747712Y-112296818D01*
X143875677Y-112458270D01*
X143879357Y-112461402D01*
X143879359Y-112461404D01*
X143992017Y-112557283D01*
X144032564Y-112591791D01*
X144036787Y-112594151D01*
X144036791Y-112594154D01*
X144076342Y-112616258D01*
X144212398Y-112692297D01*
X144216996Y-112693791D01*
X144403724Y-112754463D01*
X144403726Y-112754464D01*
X144408329Y-112755959D01*
X144612894Y-112780351D01*
X144617716Y-112779980D01*
X144617719Y-112779980D01*
X144688259Y-112774552D01*
X144818300Y-112764546D01*
X145016725Y-112709145D01*
X145021038Y-112706966D01*
X145021044Y-112706964D01*
X145196289Y-112618441D01*
X145196291Y-112618440D01*
X145200610Y-112616258D01*
X145228142Y-112594748D01*
X146124500Y-112594748D01*
X146136133Y-112653231D01*
X146180448Y-112719552D01*
X146246769Y-112763867D01*
X146256332Y-112765769D01*
X146256334Y-112765770D01*
X146279005Y-112770279D01*
X146305252Y-112775500D01*
X148044748Y-112775500D01*
X148070995Y-112770279D01*
X148093666Y-112765770D01*
X148093668Y-112765769D01*
X148103231Y-112763867D01*
X148169552Y-112719552D01*
X148213867Y-112653231D01*
X148225500Y-112594748D01*
X148225500Y-110855252D01*
X148213867Y-110796769D01*
X148169552Y-110730448D01*
X148103231Y-110686133D01*
X148093668Y-110684231D01*
X148093666Y-110684230D01*
X148070995Y-110679721D01*
X148044748Y-110674500D01*
X146305252Y-110674500D01*
X146279005Y-110679721D01*
X146256334Y-110684230D01*
X146256332Y-110684231D01*
X146246769Y-110686133D01*
X146180448Y-110730448D01*
X146136133Y-110796769D01*
X146124500Y-110855252D01*
X146124500Y-112594748D01*
X145228142Y-112594748D01*
X145235943Y-112588653D01*
X145359135Y-112492406D01*
X145359139Y-112492402D01*
X145362951Y-112489424D01*
X145497564Y-112333472D01*
X145516231Y-112300613D01*
X145596934Y-112158550D01*
X145596935Y-112158547D01*
X145599323Y-112154344D01*
X145612882Y-112113586D01*
X145662824Y-111963454D01*
X145662824Y-111963452D01*
X145664351Y-111958863D01*
X145690171Y-111754474D01*
X145690583Y-111725000D01*
X145689611Y-111715082D01*
X145670952Y-111524780D01*
X145670951Y-111524776D01*
X145670480Y-111519970D01*
X145667696Y-111510747D01*
X145612333Y-111327380D01*
X145610935Y-111322749D01*
X145514218Y-111140849D01*
X145384011Y-110981200D01*
X145237639Y-110860110D01*
X145229002Y-110852965D01*
X145229000Y-110852964D01*
X145225275Y-110849882D01*
X145044055Y-110751897D01*
X144974764Y-110730448D01*
X144851875Y-110692407D01*
X144851871Y-110692406D01*
X144847254Y-110690977D01*
X144842446Y-110690472D01*
X144842443Y-110690471D01*
X144647185Y-110669949D01*
X144647183Y-110669949D01*
X144642369Y-110669443D01*
X144586800Y-110674500D01*
X144442022Y-110687675D01*
X144442017Y-110687676D01*
X144437203Y-110688114D01*
X144239572Y-110746280D01*
X144235288Y-110748519D01*
X144235287Y-110748520D01*
X144224428Y-110754197D01*
X144057002Y-110841726D01*
X144053231Y-110844758D01*
X143900220Y-110967781D01*
X143900217Y-110967783D01*
X143896447Y-110970815D01*
X143893333Y-110974526D01*
X143893332Y-110974527D01*
X143775406Y-111115066D01*
X143764024Y-111128630D01*
X143761689Y-111132878D01*
X143761688Y-111132879D01*
X143754955Y-111145126D01*
X143664776Y-111309162D01*
X143663313Y-111313775D01*
X143663311Y-111313779D01*
X143634776Y-111403733D01*
X143602484Y-111505532D01*
X143601944Y-111510344D01*
X143601944Y-111510345D01*
X143580393Y-111702482D01*
X143579520Y-111710262D01*
X128607003Y-111710262D01*
X128722991Y-111639045D01*
X128730403Y-111630857D01*
X128814468Y-111537982D01*
X128819200Y-111532754D01*
X128881710Y-111403733D01*
X128885875Y-111378982D01*
X128904862Y-111266124D01*
X128904862Y-111266120D01*
X128905496Y-111262354D01*
X128905647Y-111250000D01*
X128885323Y-111108082D01*
X128863543Y-111060180D01*
X128828905Y-110983996D01*
X128828904Y-110983995D01*
X128825984Y-110977572D01*
X128732400Y-110868963D01*
X128612095Y-110790985D01*
X128474739Y-110749907D01*
X128391497Y-110749398D01*
X128338427Y-110749074D01*
X128338426Y-110749074D01*
X128331376Y-110749031D01*
X128324599Y-110750968D01*
X128324598Y-110750968D01*
X128200309Y-110786490D01*
X128200307Y-110786491D01*
X128193529Y-110788428D01*
X128072280Y-110864930D01*
X128067613Y-110870214D01*
X128067611Y-110870216D01*
X127982044Y-110967103D01*
X127982042Y-110967105D01*
X127977377Y-110972388D01*
X127916447Y-111102163D01*
X127915362Y-111109132D01*
X127915361Y-111109135D01*
X127909758Y-111145126D01*
X127894391Y-111243823D01*
X121000000Y-111243823D01*
X121000000Y-109170262D01*
X143579520Y-109170262D01*
X143596759Y-109375553D01*
X143653544Y-109573586D01*
X143747712Y-109756818D01*
X143875677Y-109918270D01*
X143879357Y-109921402D01*
X143879359Y-109921404D01*
X143992017Y-110017283D01*
X144032564Y-110051791D01*
X144036787Y-110054151D01*
X144036791Y-110054154D01*
X144076342Y-110076258D01*
X144212398Y-110152297D01*
X144216996Y-110153791D01*
X144403724Y-110214463D01*
X144403726Y-110214464D01*
X144408329Y-110215959D01*
X144612894Y-110240351D01*
X144617716Y-110239980D01*
X144617719Y-110239980D01*
X144685541Y-110234761D01*
X144818300Y-110224546D01*
X145016725Y-110169145D01*
X145021038Y-110166966D01*
X145021044Y-110166964D01*
X145196289Y-110078441D01*
X145196291Y-110078440D01*
X145200610Y-110076258D01*
X145235943Y-110048653D01*
X145359135Y-109952406D01*
X145359139Y-109952402D01*
X145362951Y-109949424D01*
X145497564Y-109793472D01*
X145516231Y-109760613D01*
X145596934Y-109618550D01*
X145596935Y-109618547D01*
X145599323Y-109614344D01*
X145612882Y-109573586D01*
X145662824Y-109423454D01*
X145662824Y-109423452D01*
X145664351Y-109418863D01*
X145690171Y-109214474D01*
X145690583Y-109185000D01*
X145670480Y-108979970D01*
X145610935Y-108782749D01*
X145514218Y-108600849D01*
X145384011Y-108441200D01*
X145225275Y-108309882D01*
X145044055Y-108211897D01*
X144980855Y-108192333D01*
X144851875Y-108152407D01*
X144851871Y-108152406D01*
X144847254Y-108150977D01*
X144842446Y-108150472D01*
X144842443Y-108150471D01*
X144647185Y-108129949D01*
X144647183Y-108129949D01*
X144642369Y-108129443D01*
X144582354Y-108134905D01*
X144442022Y-108147675D01*
X144442017Y-108147676D01*
X144437203Y-108148114D01*
X144239572Y-108206280D01*
X144235288Y-108208519D01*
X144235287Y-108208520D01*
X144224428Y-108214197D01*
X144057002Y-108301726D01*
X144053231Y-108304758D01*
X143900220Y-108427781D01*
X143900217Y-108427783D01*
X143896447Y-108430815D01*
X143893333Y-108434526D01*
X143893332Y-108434527D01*
X143884585Y-108444952D01*
X143764024Y-108588630D01*
X143761689Y-108592878D01*
X143761688Y-108592879D01*
X143754955Y-108605126D01*
X143664776Y-108769162D01*
X143602484Y-108965532D01*
X143601944Y-108970344D01*
X143601944Y-108970345D01*
X143600865Y-108979970D01*
X143579520Y-109170262D01*
X121000000Y-109170262D01*
X121000000Y-106543823D01*
X121844391Y-106543823D01*
X121845306Y-106550820D01*
X121845306Y-106550821D01*
X121846814Y-106562354D01*
X121862980Y-106685979D01*
X121865821Y-106692435D01*
X121865821Y-106692436D01*
X121873586Y-106710082D01*
X121920720Y-106817203D01*
X121933792Y-106832754D01*
X122008431Y-106921549D01*
X122008434Y-106921551D01*
X122012970Y-106926948D01*
X122018841Y-106930856D01*
X122018842Y-106930857D01*
X122031143Y-106939045D01*
X122132313Y-107006390D01*
X122219364Y-107033586D01*
X122262425Y-107047039D01*
X122262426Y-107047039D01*
X122269157Y-107049142D01*
X122340828Y-107050456D01*
X122405445Y-107051641D01*
X122405447Y-107051641D01*
X122412499Y-107051770D01*
X122419302Y-107049915D01*
X122419304Y-107049915D01*
X122496282Y-107028928D01*
X122550817Y-107014060D01*
X122672991Y-106939045D01*
X122680403Y-106930857D01*
X122764468Y-106837982D01*
X122769200Y-106832754D01*
X122831710Y-106703733D01*
X122835875Y-106678982D01*
X122844072Y-106630262D01*
X143579520Y-106630262D01*
X143596759Y-106835553D01*
X143598092Y-106840201D01*
X143598092Y-106840202D01*
X143648477Y-107015914D01*
X143653544Y-107033586D01*
X143747712Y-107216818D01*
X143875677Y-107378270D01*
X143879357Y-107381402D01*
X143879359Y-107381404D01*
X143992017Y-107477283D01*
X144032564Y-107511791D01*
X144036787Y-107514151D01*
X144036791Y-107514154D01*
X144076342Y-107536258D01*
X144212398Y-107612297D01*
X144216996Y-107613791D01*
X144403724Y-107674463D01*
X144403726Y-107674464D01*
X144408329Y-107675959D01*
X144612894Y-107700351D01*
X144617716Y-107699980D01*
X144617719Y-107699980D01*
X144685541Y-107694761D01*
X144818300Y-107684546D01*
X145016725Y-107629145D01*
X145021038Y-107626966D01*
X145021044Y-107626964D01*
X145196289Y-107538441D01*
X145196291Y-107538440D01*
X145200610Y-107536258D01*
X145235943Y-107508653D01*
X145359135Y-107412406D01*
X145359139Y-107412402D01*
X145362951Y-107409424D01*
X145497564Y-107253472D01*
X145516231Y-107220613D01*
X145596934Y-107078550D01*
X145596935Y-107078547D01*
X145599323Y-107074344D01*
X145605329Y-107056291D01*
X145662824Y-106883454D01*
X145662824Y-106883452D01*
X145664351Y-106878863D01*
X145669516Y-106837982D01*
X145687354Y-106696775D01*
X145690171Y-106674474D01*
X145690583Y-106645000D01*
X145688667Y-106625454D01*
X145670952Y-106444780D01*
X145670951Y-106444776D01*
X145670480Y-106439970D01*
X145661171Y-106409135D01*
X145621449Y-106277572D01*
X145610935Y-106242749D01*
X145514218Y-106060849D01*
X145384011Y-105901200D01*
X145305597Y-105836330D01*
X145229002Y-105772965D01*
X145229000Y-105772964D01*
X145225275Y-105769882D01*
X145082383Y-105692621D01*
X145048309Y-105674197D01*
X145048308Y-105674197D01*
X145044055Y-105671897D01*
X144980855Y-105652333D01*
X144851875Y-105612407D01*
X144851871Y-105612406D01*
X144847254Y-105610977D01*
X144842446Y-105610472D01*
X144842443Y-105610471D01*
X144647185Y-105589949D01*
X144647183Y-105589949D01*
X144642369Y-105589443D01*
X144582354Y-105594905D01*
X144442022Y-105607675D01*
X144442017Y-105607676D01*
X144437203Y-105608114D01*
X144239572Y-105666280D01*
X144235288Y-105668519D01*
X144235287Y-105668520D01*
X144224428Y-105674197D01*
X144057002Y-105761726D01*
X144053231Y-105764758D01*
X143900220Y-105887781D01*
X143900217Y-105887783D01*
X143896447Y-105890815D01*
X143893333Y-105894526D01*
X143893332Y-105894527D01*
X143786055Y-106022375D01*
X143764024Y-106048630D01*
X143761689Y-106052878D01*
X143761688Y-106052879D01*
X143754955Y-106065126D01*
X143664776Y-106229162D01*
X143663313Y-106233775D01*
X143663311Y-106233779D01*
X143642305Y-106300000D01*
X143602484Y-106425532D01*
X143601944Y-106430344D01*
X143601944Y-106430345D01*
X143587566Y-106558533D01*
X143579520Y-106630262D01*
X122844072Y-106630262D01*
X122854862Y-106566124D01*
X122854862Y-106566120D01*
X122855496Y-106562354D01*
X122855647Y-106550000D01*
X122835323Y-106408082D01*
X122775984Y-106277572D01*
X122682400Y-106168963D01*
X122562095Y-106090985D01*
X122424739Y-106049907D01*
X122341497Y-106049398D01*
X122288427Y-106049074D01*
X122288426Y-106049074D01*
X122281376Y-106049031D01*
X122274599Y-106050968D01*
X122274598Y-106050968D01*
X122150309Y-106086490D01*
X122150307Y-106086491D01*
X122143529Y-106088428D01*
X122022280Y-106164930D01*
X122017613Y-106170214D01*
X122017611Y-106170216D01*
X121932044Y-106267103D01*
X121932042Y-106267105D01*
X121927377Y-106272388D01*
X121866447Y-106402163D01*
X121865362Y-106409132D01*
X121865361Y-106409135D01*
X121850680Y-106503430D01*
X121844391Y-106543823D01*
X121000000Y-106543823D01*
X121000000Y-105300000D01*
X124444750Y-105300000D01*
X124463670Y-105443709D01*
X124519139Y-105577625D01*
X124607379Y-105692621D01*
X124722375Y-105780861D01*
X124856291Y-105836330D01*
X124862720Y-105837176D01*
X124862722Y-105837177D01*
X124993567Y-105854403D01*
X125000000Y-105855250D01*
X125006433Y-105854403D01*
X125137278Y-105837177D01*
X125137280Y-105837176D01*
X125143709Y-105836330D01*
X125277625Y-105780861D01*
X125392621Y-105692621D01*
X125480861Y-105577625D01*
X125536330Y-105443709D01*
X125555250Y-105300000D01*
X125536330Y-105156291D01*
X125480861Y-105022375D01*
X125392621Y-104907379D01*
X125277625Y-104819139D01*
X125143709Y-104763670D01*
X125137280Y-104762824D01*
X125137278Y-104762823D01*
X125006433Y-104745597D01*
X125000000Y-104744750D01*
X124993567Y-104745597D01*
X124862722Y-104762823D01*
X124862720Y-104762824D01*
X124856291Y-104763670D01*
X124722375Y-104819139D01*
X124607379Y-104907379D01*
X124519139Y-105022375D01*
X124463670Y-105156291D01*
X124444750Y-105300000D01*
X121000000Y-105300000D01*
X121000000Y-104200000D01*
X123294750Y-104200000D01*
X123295597Y-104206433D01*
X123312400Y-104334060D01*
X123313670Y-104343709D01*
X123369139Y-104477625D01*
X123457379Y-104592621D01*
X123572375Y-104680861D01*
X123706291Y-104736330D01*
X123712720Y-104737176D01*
X123712722Y-104737177D01*
X123843567Y-104754403D01*
X123850000Y-104755250D01*
X123856433Y-104754403D01*
X123987278Y-104737177D01*
X123987280Y-104737176D01*
X123993709Y-104736330D01*
X124127625Y-104680861D01*
X124242621Y-104592621D01*
X124330861Y-104477625D01*
X124386330Y-104343709D01*
X124387601Y-104334060D01*
X124404403Y-104206433D01*
X124405250Y-104200000D01*
X124391437Y-104095082D01*
X124390802Y-104090262D01*
X143579520Y-104090262D01*
X143596759Y-104295553D01*
X143598092Y-104300201D01*
X143598092Y-104300202D01*
X143650444Y-104482774D01*
X143653544Y-104493586D01*
X143747712Y-104676818D01*
X143875677Y-104838270D01*
X143879357Y-104841402D01*
X143879359Y-104841404D01*
X143956880Y-104907379D01*
X144032564Y-104971791D01*
X144036787Y-104974151D01*
X144036791Y-104974154D01*
X144076342Y-104996258D01*
X144212398Y-105072297D01*
X144216996Y-105073791D01*
X144403724Y-105134463D01*
X144403726Y-105134464D01*
X144408329Y-105135959D01*
X144612894Y-105160351D01*
X144617716Y-105159980D01*
X144617719Y-105159980D01*
X144685541Y-105154761D01*
X144818300Y-105144546D01*
X145016725Y-105089145D01*
X145021038Y-105086966D01*
X145021044Y-105086964D01*
X145196289Y-104998441D01*
X145196291Y-104998440D01*
X145200610Y-104996258D01*
X145235943Y-104968653D01*
X145359135Y-104872406D01*
X145359139Y-104872402D01*
X145362951Y-104869424D01*
X145406356Y-104819139D01*
X145452091Y-104766153D01*
X145497564Y-104713472D01*
X145518334Y-104676910D01*
X145596934Y-104538550D01*
X145596935Y-104538547D01*
X145599323Y-104534344D01*
X145612882Y-104493586D01*
X145662824Y-104343454D01*
X145662824Y-104343452D01*
X145664351Y-104338863D01*
X145690171Y-104134474D01*
X145690583Y-104105000D01*
X145689138Y-104090262D01*
X146119520Y-104090262D01*
X146136759Y-104295553D01*
X146138092Y-104300201D01*
X146138092Y-104300202D01*
X146190444Y-104482774D01*
X146193544Y-104493586D01*
X146287712Y-104676818D01*
X146415677Y-104838270D01*
X146419357Y-104841402D01*
X146419359Y-104841404D01*
X146496880Y-104907379D01*
X146572564Y-104971791D01*
X146576787Y-104974151D01*
X146576791Y-104974154D01*
X146616342Y-104996258D01*
X146752398Y-105072297D01*
X146756996Y-105073791D01*
X146943724Y-105134463D01*
X146943726Y-105134464D01*
X146948329Y-105135959D01*
X147152894Y-105160351D01*
X147157716Y-105159980D01*
X147157719Y-105159980D01*
X147225541Y-105154761D01*
X147358300Y-105144546D01*
X147556725Y-105089145D01*
X147561038Y-105086966D01*
X147561044Y-105086964D01*
X147736289Y-104998441D01*
X147736291Y-104998440D01*
X147740610Y-104996258D01*
X147775943Y-104968653D01*
X147899135Y-104872406D01*
X147899139Y-104872402D01*
X147902951Y-104869424D01*
X147946356Y-104819139D01*
X147992091Y-104766153D01*
X148037564Y-104713472D01*
X148058334Y-104676910D01*
X148136934Y-104538550D01*
X148136935Y-104538547D01*
X148139323Y-104534344D01*
X148152882Y-104493586D01*
X148202824Y-104343454D01*
X148202824Y-104343452D01*
X148204351Y-104338863D01*
X148230171Y-104134474D01*
X148230583Y-104105000D01*
X148225807Y-104056291D01*
X148210952Y-103904780D01*
X148210951Y-103904776D01*
X148210480Y-103899970D01*
X148184080Y-103812528D01*
X148155883Y-103719139D01*
X148150935Y-103702749D01*
X148054218Y-103520849D01*
X147924011Y-103361200D01*
X147765275Y-103229882D01*
X147584055Y-103131897D01*
X147520855Y-103112333D01*
X147391875Y-103072407D01*
X147391871Y-103072406D01*
X147387254Y-103070977D01*
X147382446Y-103070472D01*
X147382443Y-103070471D01*
X147187185Y-103049949D01*
X147187183Y-103049949D01*
X147182369Y-103049443D01*
X147122354Y-103054905D01*
X146982022Y-103067675D01*
X146982017Y-103067676D01*
X146977203Y-103068114D01*
X146779572Y-103126280D01*
X146775288Y-103128519D01*
X146775287Y-103128520D01*
X146764428Y-103134197D01*
X146597002Y-103221726D01*
X146593231Y-103224758D01*
X146440220Y-103347781D01*
X146440217Y-103347783D01*
X146436447Y-103350815D01*
X146433333Y-103354526D01*
X146433332Y-103354527D01*
X146424585Y-103364952D01*
X146304024Y-103508630D01*
X146301689Y-103512878D01*
X146301688Y-103512879D01*
X146294955Y-103525126D01*
X146204776Y-103689162D01*
X146203313Y-103693775D01*
X146203311Y-103693779D01*
X146194013Y-103723090D01*
X146142484Y-103885532D01*
X146141944Y-103890344D01*
X146141944Y-103890345D01*
X146124003Y-104050297D01*
X146119520Y-104090262D01*
X145689138Y-104090262D01*
X145685807Y-104056291D01*
X145670952Y-103904780D01*
X145670951Y-103904776D01*
X145670480Y-103899970D01*
X145644080Y-103812528D01*
X145615883Y-103719139D01*
X145610935Y-103702749D01*
X145514218Y-103520849D01*
X145384011Y-103361200D01*
X145225275Y-103229882D01*
X145044055Y-103131897D01*
X144980855Y-103112333D01*
X144851875Y-103072407D01*
X144851871Y-103072406D01*
X144847254Y-103070977D01*
X144842446Y-103070472D01*
X144842443Y-103070471D01*
X144647185Y-103049949D01*
X144647183Y-103049949D01*
X144642369Y-103049443D01*
X144582354Y-103054905D01*
X144442022Y-103067675D01*
X144442017Y-103067676D01*
X144437203Y-103068114D01*
X144239572Y-103126280D01*
X144235288Y-103128519D01*
X144235287Y-103128520D01*
X144224428Y-103134197D01*
X144057002Y-103221726D01*
X144053231Y-103224758D01*
X143900220Y-103347781D01*
X143900217Y-103347783D01*
X143896447Y-103350815D01*
X143893333Y-103354526D01*
X143893332Y-103354527D01*
X143884585Y-103364952D01*
X143764024Y-103508630D01*
X143761689Y-103512878D01*
X143761688Y-103512879D01*
X143754955Y-103525126D01*
X143664776Y-103689162D01*
X143663313Y-103693775D01*
X143663311Y-103693779D01*
X143654013Y-103723090D01*
X143602484Y-103885532D01*
X143601944Y-103890344D01*
X143601944Y-103890345D01*
X143584003Y-104050297D01*
X143579520Y-104090262D01*
X124390802Y-104090262D01*
X124387177Y-104062722D01*
X124387176Y-104062720D01*
X124386330Y-104056291D01*
X124330861Y-103922375D01*
X124242621Y-103807379D01*
X124127625Y-103719139D01*
X123993709Y-103663670D01*
X123987280Y-103662824D01*
X123987278Y-103662823D01*
X123856433Y-103645597D01*
X123850000Y-103644750D01*
X123843567Y-103645597D01*
X123712722Y-103662823D01*
X123712720Y-103662824D01*
X123706291Y-103663670D01*
X123572375Y-103719139D01*
X123457379Y-103807379D01*
X123369139Y-103922375D01*
X123313670Y-104056291D01*
X123312824Y-104062720D01*
X123312823Y-104062722D01*
X123308563Y-104095082D01*
X123294750Y-104200000D01*
X121000000Y-104200000D01*
X121000000Y-101100000D01*
X117699000Y-101100000D01*
X117640809Y-101081093D01*
X117604845Y-101031593D01*
X117600000Y-101001000D01*
X117600000Y-100800000D01*
X127394750Y-100800000D01*
X127413670Y-100943709D01*
X127469139Y-101077625D01*
X127557379Y-101192621D01*
X127672375Y-101280861D01*
X127744368Y-101310681D01*
X127794367Y-101331391D01*
X127840893Y-101371127D01*
X127855177Y-101430622D01*
X127831763Y-101487150D01*
X127794368Y-101514319D01*
X127722375Y-101544139D01*
X127607379Y-101632379D01*
X127519139Y-101747375D01*
X127463670Y-101881291D01*
X127462824Y-101887720D01*
X127462823Y-101887722D01*
X127449390Y-101989755D01*
X127444750Y-102025000D01*
X127463670Y-102168709D01*
X127519139Y-102302625D01*
X127607379Y-102417621D01*
X127722375Y-102505861D01*
X127856291Y-102561330D01*
X127862720Y-102562176D01*
X127862722Y-102562177D01*
X127993567Y-102579403D01*
X128000000Y-102580250D01*
X128006433Y-102579403D01*
X128137278Y-102562177D01*
X128137280Y-102562176D01*
X128143709Y-102561330D01*
X128277625Y-102505861D01*
X128392621Y-102417621D01*
X128480861Y-102302625D01*
X128536330Y-102168709D01*
X128555250Y-102025000D01*
X128550610Y-101989755D01*
X128537177Y-101887722D01*
X128537176Y-101887720D01*
X128536330Y-101881291D01*
X128480861Y-101747375D01*
X128392621Y-101632379D01*
X128285605Y-101550262D01*
X143579520Y-101550262D01*
X143596759Y-101755553D01*
X143653544Y-101953586D01*
X143747712Y-102136818D01*
X143875677Y-102298270D01*
X143879357Y-102301402D01*
X143879359Y-102301404D01*
X143992017Y-102397283D01*
X144032564Y-102431791D01*
X144036787Y-102434151D01*
X144036791Y-102434154D01*
X144080248Y-102458441D01*
X144212398Y-102532297D01*
X144216996Y-102533791D01*
X144403724Y-102594463D01*
X144403726Y-102594464D01*
X144408329Y-102595959D01*
X144612894Y-102620351D01*
X144617716Y-102619980D01*
X144617719Y-102619980D01*
X144685541Y-102614761D01*
X144818300Y-102604546D01*
X145016725Y-102549145D01*
X145021038Y-102546966D01*
X145021044Y-102546964D01*
X145196289Y-102458441D01*
X145196291Y-102458440D01*
X145200610Y-102456258D01*
X145235943Y-102428653D01*
X145359135Y-102332406D01*
X145359139Y-102332402D01*
X145362951Y-102329424D01*
X145369036Y-102322375D01*
X145422313Y-102260651D01*
X145497564Y-102173472D01*
X145516231Y-102140613D01*
X145596934Y-101998550D01*
X145596935Y-101998547D01*
X145599323Y-101994344D01*
X145612882Y-101953586D01*
X145662824Y-101803454D01*
X145662824Y-101803452D01*
X145664351Y-101798863D01*
X145670856Y-101747375D01*
X145689823Y-101597228D01*
X145690171Y-101594474D01*
X145690583Y-101565000D01*
X145679687Y-101453873D01*
X145670952Y-101364780D01*
X145670951Y-101364776D01*
X145670480Y-101359970D01*
X145662442Y-101333345D01*
X145612333Y-101167380D01*
X145610935Y-101162749D01*
X145514218Y-100980849D01*
X145384011Y-100821200D01*
X145358385Y-100800000D01*
X145229002Y-100692965D01*
X145229000Y-100692964D01*
X145225275Y-100689882D01*
X145044055Y-100591897D01*
X144964356Y-100567226D01*
X144851875Y-100532407D01*
X144851871Y-100532406D01*
X144847254Y-100530977D01*
X144842446Y-100530472D01*
X144842443Y-100530471D01*
X144647185Y-100509949D01*
X144647183Y-100509949D01*
X144642369Y-100509443D01*
X144582354Y-100514905D01*
X144442022Y-100527675D01*
X144442017Y-100527676D01*
X144437203Y-100528114D01*
X144239572Y-100586280D01*
X144235288Y-100588519D01*
X144235287Y-100588520D01*
X144224428Y-100594197D01*
X144057002Y-100681726D01*
X144053231Y-100684758D01*
X143900220Y-100807781D01*
X143900217Y-100807783D01*
X143896447Y-100810815D01*
X143893333Y-100814526D01*
X143893332Y-100814527D01*
X143779906Y-100949703D01*
X143764024Y-100968630D01*
X143761689Y-100972878D01*
X143761688Y-100972879D01*
X143746228Y-101001000D01*
X143664776Y-101149162D01*
X143663313Y-101153775D01*
X143663311Y-101153779D01*
X143635129Y-101242621D01*
X143602484Y-101345532D01*
X143601944Y-101350344D01*
X143601944Y-101350345D01*
X143583552Y-101514319D01*
X143579520Y-101550262D01*
X128285605Y-101550262D01*
X128277625Y-101544139D01*
X128155633Y-101493609D01*
X128109107Y-101453873D01*
X128094823Y-101394378D01*
X128118237Y-101337850D01*
X128155632Y-101310681D01*
X128227625Y-101280861D01*
X128342621Y-101192621D01*
X128430861Y-101077625D01*
X128486330Y-100943709D01*
X128505250Y-100800000D01*
X128501593Y-100772221D01*
X128487177Y-100662722D01*
X128487176Y-100662720D01*
X128486330Y-100656291D01*
X128430861Y-100522375D01*
X128342621Y-100407379D01*
X128342463Y-100407258D01*
X128315892Y-100355108D01*
X128325463Y-100294676D01*
X128353406Y-100261079D01*
X128437469Y-100196575D01*
X128437472Y-100196572D01*
X128442621Y-100192621D01*
X128530861Y-100077625D01*
X128586330Y-99943709D01*
X128605250Y-99800000D01*
X130294750Y-99800000D01*
X130313670Y-99943709D01*
X130369139Y-100077625D01*
X130457379Y-100192621D01*
X130567647Y-100277233D01*
X130567648Y-100277234D01*
X130572375Y-100280861D01*
X130571703Y-100281737D01*
X130608441Y-100322534D01*
X130614840Y-100383383D01*
X130584250Y-100436373D01*
X130578271Y-100441347D01*
X130562530Y-100453426D01*
X130562528Y-100453428D01*
X130557379Y-100457379D01*
X130469139Y-100572375D01*
X130413670Y-100706291D01*
X130394750Y-100850000D01*
X130395597Y-100856433D01*
X130411483Y-100977095D01*
X130413670Y-100993709D01*
X130469139Y-101127625D01*
X130557379Y-101242621D01*
X130672375Y-101330861D01*
X130806291Y-101386330D01*
X130812720Y-101387176D01*
X130812722Y-101387177D01*
X130943567Y-101404403D01*
X130950000Y-101405250D01*
X130956433Y-101404403D01*
X131087278Y-101387177D01*
X131087280Y-101387176D01*
X131093709Y-101386330D01*
X131227625Y-101330861D01*
X131342621Y-101242621D01*
X131430861Y-101127625D01*
X131486330Y-100993709D01*
X131488518Y-100977095D01*
X131504403Y-100856433D01*
X131505250Y-100850000D01*
X131486330Y-100706291D01*
X131430861Y-100572375D01*
X131342621Y-100457379D01*
X131227625Y-100369139D01*
X131228297Y-100368263D01*
X131191559Y-100327466D01*
X131185160Y-100266617D01*
X131215750Y-100213627D01*
X131221729Y-100208653D01*
X131237470Y-100196574D01*
X131237472Y-100196572D01*
X131242621Y-100192621D01*
X131330861Y-100077625D01*
X131386330Y-99943709D01*
X131405250Y-99800000D01*
X131389565Y-99680861D01*
X131387177Y-99662722D01*
X131387176Y-99662720D01*
X131386330Y-99656291D01*
X131330861Y-99522375D01*
X131242621Y-99407379D01*
X131127625Y-99319139D01*
X130993709Y-99263670D01*
X130987280Y-99262824D01*
X130987278Y-99262823D01*
X130856433Y-99245597D01*
X130850000Y-99244750D01*
X130843567Y-99245597D01*
X130712722Y-99262823D01*
X130712720Y-99262824D01*
X130706291Y-99263670D01*
X130572375Y-99319139D01*
X130457379Y-99407379D01*
X130369139Y-99522375D01*
X130313670Y-99656291D01*
X130312824Y-99662720D01*
X130312823Y-99662722D01*
X130310435Y-99680861D01*
X130294750Y-99800000D01*
X128605250Y-99800000D01*
X128589565Y-99680861D01*
X128587177Y-99662722D01*
X128587176Y-99662720D01*
X128586330Y-99656291D01*
X128530861Y-99522375D01*
X128442621Y-99407379D01*
X128327625Y-99319139D01*
X128193709Y-99263670D01*
X128187280Y-99262824D01*
X128187278Y-99262823D01*
X128056433Y-99245597D01*
X128050000Y-99244750D01*
X128043567Y-99245597D01*
X127912722Y-99262823D01*
X127912720Y-99262824D01*
X127906291Y-99263670D01*
X127772375Y-99319139D01*
X127657379Y-99407379D01*
X127569139Y-99522375D01*
X127513670Y-99656291D01*
X127512824Y-99662720D01*
X127512823Y-99662722D01*
X127510435Y-99680861D01*
X127494750Y-99800000D01*
X127513670Y-99943709D01*
X127569139Y-100077625D01*
X127657379Y-100192621D01*
X127657537Y-100192742D01*
X127684108Y-100244892D01*
X127674537Y-100305324D01*
X127646594Y-100338921D01*
X127562531Y-100403425D01*
X127562528Y-100403428D01*
X127557379Y-100407379D01*
X127469139Y-100522375D01*
X127413670Y-100656291D01*
X127412824Y-100662720D01*
X127412823Y-100662722D01*
X127398407Y-100772221D01*
X127394750Y-100800000D01*
X117600000Y-100800000D01*
X117600000Y-99793823D01*
X119444391Y-99793823D01*
X119445306Y-99800820D01*
X119445306Y-99800821D01*
X119446814Y-99812354D01*
X119462980Y-99935979D01*
X119465821Y-99942435D01*
X119465821Y-99942436D01*
X119473586Y-99960082D01*
X119520720Y-100067203D01*
X119529481Y-100077625D01*
X119608431Y-100171549D01*
X119608434Y-100171551D01*
X119612970Y-100176948D01*
X119618841Y-100180856D01*
X119618842Y-100180857D01*
X119628780Y-100187472D01*
X119732313Y-100256390D01*
X119804109Y-100278820D01*
X119862425Y-100297039D01*
X119862426Y-100297039D01*
X119869157Y-100299142D01*
X119940828Y-100300456D01*
X120005445Y-100301641D01*
X120005447Y-100301641D01*
X120012499Y-100301770D01*
X120019302Y-100299915D01*
X120019304Y-100299915D01*
X120096678Y-100278820D01*
X120150817Y-100264060D01*
X120272991Y-100189045D01*
X120280403Y-100180857D01*
X120364468Y-100087982D01*
X120369200Y-100082754D01*
X120431710Y-99953733D01*
X120433397Y-99943709D01*
X120454862Y-99816124D01*
X120454862Y-99816120D01*
X120455496Y-99812354D01*
X120455647Y-99800000D01*
X120435323Y-99658082D01*
X120375984Y-99527572D01*
X120282400Y-99418963D01*
X120162095Y-99340985D01*
X120024739Y-99299907D01*
X119941497Y-99299398D01*
X119888427Y-99299074D01*
X119888426Y-99299074D01*
X119881376Y-99299031D01*
X119874599Y-99300968D01*
X119874598Y-99300968D01*
X119750309Y-99336490D01*
X119750307Y-99336491D01*
X119743529Y-99338428D01*
X119622280Y-99414930D01*
X119617613Y-99420214D01*
X119617611Y-99420216D01*
X119532044Y-99517103D01*
X119532042Y-99517105D01*
X119527377Y-99522388D01*
X119466447Y-99652163D01*
X119465362Y-99659132D01*
X119465361Y-99659135D01*
X119453342Y-99736330D01*
X119444391Y-99793823D01*
X117600000Y-99793823D01*
X117600000Y-98493823D01*
X119444391Y-98493823D01*
X119445306Y-98500820D01*
X119445306Y-98500821D01*
X119446585Y-98510605D01*
X119462980Y-98635979D01*
X119465821Y-98642435D01*
X119465821Y-98642436D01*
X119509904Y-98742621D01*
X119520720Y-98767203D01*
X119563602Y-98818218D01*
X119608431Y-98871549D01*
X119608434Y-98871551D01*
X119612970Y-98876948D01*
X119618841Y-98880856D01*
X119618842Y-98880857D01*
X119627860Y-98886860D01*
X119732313Y-98956390D01*
X119832920Y-98987821D01*
X119862425Y-98997039D01*
X119862426Y-98997039D01*
X119869157Y-98999142D01*
X119940828Y-99000456D01*
X120005445Y-99001641D01*
X120005447Y-99001641D01*
X120012499Y-99001770D01*
X120019302Y-98999915D01*
X120019304Y-98999915D01*
X120094503Y-98979413D01*
X120150817Y-98964060D01*
X120272991Y-98889045D01*
X120280403Y-98880857D01*
X120291073Y-98869069D01*
X133289595Y-98869069D01*
X133307441Y-99005545D01*
X133310282Y-99012001D01*
X133310282Y-99012002D01*
X133317735Y-99028939D01*
X133362874Y-99131526D01*
X133367411Y-99136923D01*
X133367412Y-99136925D01*
X133375423Y-99146455D01*
X133451438Y-99236885D01*
X133457309Y-99240793D01*
X133457310Y-99240794D01*
X133463253Y-99244750D01*
X133566012Y-99313152D01*
X133572739Y-99315254D01*
X133572742Y-99315255D01*
X133690655Y-99352093D01*
X133690656Y-99352093D01*
X133697387Y-99354196D01*
X133766194Y-99355458D01*
X133827947Y-99356590D01*
X133827949Y-99356590D01*
X133835001Y-99356719D01*
X133841804Y-99354864D01*
X133841806Y-99354864D01*
X133914145Y-99335142D01*
X133967792Y-99320516D01*
X134085084Y-99248498D01*
X134095596Y-99236885D01*
X134172717Y-99151683D01*
X134172717Y-99151682D01*
X134177449Y-99146455D01*
X134237461Y-99022590D01*
X134238631Y-99015637D01*
X134238632Y-99015633D01*
X134259662Y-98890630D01*
X134259662Y-98890627D01*
X134260296Y-98886860D01*
X134260441Y-98875000D01*
X134252309Y-98818217D01*
X134262776Y-98757935D01*
X134306677Y-98715316D01*
X134352123Y-98705200D01*
X134427947Y-98706590D01*
X134427949Y-98706590D01*
X134435001Y-98706719D01*
X134441804Y-98704864D01*
X134441806Y-98704864D01*
X134540649Y-98677916D01*
X134567792Y-98670516D01*
X134685084Y-98598498D01*
X134689819Y-98593267D01*
X134772717Y-98501683D01*
X134772717Y-98501682D01*
X134777449Y-98496455D01*
X134837461Y-98372590D01*
X134838631Y-98365637D01*
X134838632Y-98365633D01*
X134859662Y-98240630D01*
X134859662Y-98240627D01*
X134860296Y-98236860D01*
X134860441Y-98225000D01*
X134840929Y-98088753D01*
X134800533Y-97999907D01*
X134786882Y-97969883D01*
X134786881Y-97969882D01*
X134783961Y-97963459D01*
X134694117Y-97859189D01*
X134688200Y-97855354D01*
X134688198Y-97855352D01*
X134584541Y-97788166D01*
X134584539Y-97788165D01*
X134578619Y-97784328D01*
X134446753Y-97744891D01*
X134366888Y-97744403D01*
X134316169Y-97744093D01*
X134316168Y-97744093D01*
X134309118Y-97744050D01*
X134302341Y-97745987D01*
X134302340Y-97745987D01*
X134183560Y-97779935D01*
X134183559Y-97779936D01*
X134176780Y-97781873D01*
X134170818Y-97785635D01*
X134170815Y-97785636D01*
X134074423Y-97846455D01*
X134060376Y-97855318D01*
X134055707Y-97860605D01*
X133973932Y-97953197D01*
X133973930Y-97953199D01*
X133969265Y-97958482D01*
X133910770Y-98083071D01*
X133909685Y-98090042D01*
X133909684Y-98090044D01*
X133896825Y-98172631D01*
X133889595Y-98219069D01*
X133890510Y-98226067D01*
X133890510Y-98226068D01*
X133897924Y-98282766D01*
X133886721Y-98342917D01*
X133842302Y-98384995D01*
X133799155Y-98394600D01*
X133716169Y-98394093D01*
X133716168Y-98394093D01*
X133709118Y-98394050D01*
X133702341Y-98395987D01*
X133702340Y-98395987D01*
X133583560Y-98429935D01*
X133583559Y-98429936D01*
X133576780Y-98431873D01*
X133570818Y-98435635D01*
X133570815Y-98435636D01*
X133474813Y-98496209D01*
X133460376Y-98505318D01*
X133455707Y-98510605D01*
X133373932Y-98603197D01*
X133373930Y-98603199D01*
X133369265Y-98608482D01*
X133310770Y-98733071D01*
X133309685Y-98740042D01*
X133309684Y-98740044D01*
X133304022Y-98776409D01*
X133289595Y-98869069D01*
X120291073Y-98869069D01*
X120364468Y-98787982D01*
X120369200Y-98782754D01*
X120419993Y-98677916D01*
X120428634Y-98660082D01*
X120431710Y-98653733D01*
X120435875Y-98628982D01*
X120454862Y-98516124D01*
X120454862Y-98516120D01*
X120455496Y-98512354D01*
X120455647Y-98500000D01*
X120435323Y-98358082D01*
X120375984Y-98227572D01*
X120282400Y-98118963D01*
X120162095Y-98040985D01*
X120024739Y-97999907D01*
X119941497Y-97999398D01*
X119888427Y-97999074D01*
X119888426Y-97999074D01*
X119881376Y-97999031D01*
X119874599Y-98000968D01*
X119874598Y-98000968D01*
X119750309Y-98036490D01*
X119750307Y-98036491D01*
X119743529Y-98038428D01*
X119622280Y-98114930D01*
X119617613Y-98120214D01*
X119617611Y-98120216D01*
X119532044Y-98217103D01*
X119532042Y-98217105D01*
X119527377Y-98222388D01*
X119466447Y-98352163D01*
X119465362Y-98359132D01*
X119465361Y-98359135D01*
X119450680Y-98453430D01*
X119444391Y-98493823D01*
X117600000Y-98493823D01*
X117600000Y-97193823D01*
X119444391Y-97193823D01*
X119445306Y-97200820D01*
X119445306Y-97200821D01*
X119450556Y-97240970D01*
X119462980Y-97335979D01*
X119465821Y-97342435D01*
X119465821Y-97342436D01*
X119511275Y-97445737D01*
X119520720Y-97467203D01*
X119538110Y-97487891D01*
X119608431Y-97571549D01*
X119608434Y-97571551D01*
X119612970Y-97576948D01*
X119618841Y-97580856D01*
X119618842Y-97580857D01*
X119627860Y-97586860D01*
X119732313Y-97656390D01*
X119832920Y-97687821D01*
X119862425Y-97697039D01*
X119862426Y-97697039D01*
X119869157Y-97699142D01*
X119940828Y-97700456D01*
X120005445Y-97701641D01*
X120005447Y-97701641D01*
X120012499Y-97701770D01*
X120019302Y-97699915D01*
X120019304Y-97699915D01*
X120094503Y-97679413D01*
X120150817Y-97664060D01*
X120272991Y-97589045D01*
X120280403Y-97580857D01*
X120364468Y-97487982D01*
X120369200Y-97482754D01*
X120431710Y-97353733D01*
X120434798Y-97335383D01*
X120454862Y-97216124D01*
X120454862Y-97216120D01*
X120455496Y-97212354D01*
X120455647Y-97200000D01*
X120435323Y-97058082D01*
X120396865Y-96973498D01*
X120378905Y-96933996D01*
X120378904Y-96933995D01*
X120375984Y-96927572D01*
X120309204Y-96850070D01*
X120287005Y-96824307D01*
X120287004Y-96824306D01*
X120282400Y-96818963D01*
X120162095Y-96740985D01*
X120024739Y-96699907D01*
X119941497Y-96699398D01*
X119888427Y-96699074D01*
X119888426Y-96699074D01*
X119881376Y-96699031D01*
X119874599Y-96700968D01*
X119874598Y-96700968D01*
X119750309Y-96736490D01*
X119750307Y-96736491D01*
X119743529Y-96738428D01*
X119622280Y-96814930D01*
X119617613Y-96820214D01*
X119617611Y-96820216D01*
X119532044Y-96917103D01*
X119532042Y-96917105D01*
X119527377Y-96922388D01*
X119466447Y-97052163D01*
X119465362Y-97059132D01*
X119465361Y-97059135D01*
X119458066Y-97105993D01*
X119444391Y-97193823D01*
X117600000Y-97193823D01*
X117600000Y-95893823D01*
X119444391Y-95893823D01*
X119445306Y-95900820D01*
X119445306Y-95900821D01*
X119446393Y-95909135D01*
X119462980Y-96035979D01*
X119465821Y-96042435D01*
X119465821Y-96042436D01*
X119516175Y-96156873D01*
X119520720Y-96167203D01*
X119566845Y-96222075D01*
X119608431Y-96271549D01*
X119608434Y-96271551D01*
X119612970Y-96276948D01*
X119618841Y-96280856D01*
X119618842Y-96280857D01*
X119628213Y-96287095D01*
X119732313Y-96356390D01*
X119832920Y-96387821D01*
X119862425Y-96397039D01*
X119862426Y-96397039D01*
X119869157Y-96399142D01*
X119940828Y-96400456D01*
X120005445Y-96401641D01*
X120005447Y-96401641D01*
X120012499Y-96401770D01*
X120019302Y-96399915D01*
X120019304Y-96399915D01*
X120094503Y-96379413D01*
X120150817Y-96364060D01*
X120272991Y-96289045D01*
X120280403Y-96280857D01*
X120364468Y-96187982D01*
X120369200Y-96182754D01*
X120431710Y-96053733D01*
X120433222Y-96044750D01*
X120433378Y-96043823D01*
X132794391Y-96043823D01*
X132795306Y-96050820D01*
X132795306Y-96050821D01*
X132811729Y-96176409D01*
X132812980Y-96185979D01*
X132815821Y-96192435D01*
X132815821Y-96192436D01*
X132866688Y-96308039D01*
X132870720Y-96317203D01*
X132910107Y-96364060D01*
X132958431Y-96421549D01*
X132958434Y-96421551D01*
X132962970Y-96426948D01*
X132968841Y-96430856D01*
X132968842Y-96430857D01*
X132991572Y-96445987D01*
X133082313Y-96506390D01*
X133182920Y-96537821D01*
X133212425Y-96547039D01*
X133212426Y-96547039D01*
X133219157Y-96549142D01*
X133290828Y-96550456D01*
X133355445Y-96551641D01*
X133355447Y-96551641D01*
X133362499Y-96551770D01*
X133369302Y-96549915D01*
X133369304Y-96549915D01*
X133444503Y-96529413D01*
X133500817Y-96514060D01*
X133622991Y-96439045D01*
X133630403Y-96430857D01*
X133714468Y-96337982D01*
X133719200Y-96332754D01*
X133781710Y-96203733D01*
X133785875Y-96178982D01*
X133804862Y-96066124D01*
X133804862Y-96066120D01*
X133805496Y-96062354D01*
X133805647Y-96050000D01*
X133785323Y-95908082D01*
X133725984Y-95777572D01*
X133632400Y-95668963D01*
X133512095Y-95590985D01*
X133374739Y-95549907D01*
X133291497Y-95549398D01*
X133238427Y-95549074D01*
X133238426Y-95549074D01*
X133231376Y-95549031D01*
X133224599Y-95550968D01*
X133224598Y-95550968D01*
X133100309Y-95586490D01*
X133100307Y-95586491D01*
X133093529Y-95588428D01*
X132972280Y-95664930D01*
X132967613Y-95670214D01*
X132967611Y-95670216D01*
X132882044Y-95767103D01*
X132882042Y-95767105D01*
X132877377Y-95772388D01*
X132874381Y-95778770D01*
X132874380Y-95778771D01*
X132864417Y-95799992D01*
X132816447Y-95902163D01*
X132815362Y-95909132D01*
X132815361Y-95909135D01*
X132800680Y-96003430D01*
X132794391Y-96043823D01*
X120433378Y-96043823D01*
X120454862Y-95916124D01*
X120454862Y-95916120D01*
X120455496Y-95912354D01*
X120455647Y-95900000D01*
X120435323Y-95758082D01*
X120375984Y-95627572D01*
X120312937Y-95554403D01*
X120287005Y-95524307D01*
X120287004Y-95524306D01*
X120282400Y-95518963D01*
X120162095Y-95440985D01*
X120024739Y-95399907D01*
X119941497Y-95399398D01*
X119888427Y-95399074D01*
X119888426Y-95399074D01*
X119881376Y-95399031D01*
X119874599Y-95400968D01*
X119874598Y-95400968D01*
X119750309Y-95436490D01*
X119750307Y-95436491D01*
X119743529Y-95438428D01*
X119622280Y-95514930D01*
X119617613Y-95520214D01*
X119617611Y-95520216D01*
X119532044Y-95617103D01*
X119532042Y-95617105D01*
X119527377Y-95622388D01*
X119466447Y-95752163D01*
X119465362Y-95759132D01*
X119465361Y-95759135D01*
X119455902Y-95819891D01*
X119444391Y-95893823D01*
X117600000Y-95893823D01*
X117600000Y-95000000D01*
X131919750Y-95000000D01*
X131920597Y-95006433D01*
X131937297Y-95133278D01*
X131938670Y-95143709D01*
X131994139Y-95277625D01*
X132082379Y-95392621D01*
X132197375Y-95480861D01*
X132331291Y-95536330D01*
X132337720Y-95537176D01*
X132337722Y-95537177D01*
X132468567Y-95554403D01*
X132475000Y-95555250D01*
X132481433Y-95554403D01*
X132612278Y-95537177D01*
X132612280Y-95537176D01*
X132618709Y-95536330D01*
X132752625Y-95480861D01*
X132867621Y-95392621D01*
X132955861Y-95277625D01*
X133011330Y-95143709D01*
X133012704Y-95133278D01*
X133029403Y-95006433D01*
X133030250Y-95000000D01*
X133018692Y-94912212D01*
X133012177Y-94862722D01*
X133012176Y-94862720D01*
X133011330Y-94856291D01*
X132955861Y-94722375D01*
X132867621Y-94607379D01*
X132752625Y-94519139D01*
X132618709Y-94463670D01*
X132612280Y-94462824D01*
X132612278Y-94462823D01*
X132481433Y-94445597D01*
X132475000Y-94444750D01*
X132468567Y-94445597D01*
X132337722Y-94462823D01*
X132337720Y-94462824D01*
X132331291Y-94463670D01*
X132197375Y-94519139D01*
X132082379Y-94607379D01*
X131994139Y-94722375D01*
X131938670Y-94856291D01*
X131937824Y-94862720D01*
X131937823Y-94862722D01*
X131931308Y-94912212D01*
X131919750Y-95000000D01*
X117600000Y-95000000D01*
X117600000Y-94798712D01*
X117618907Y-94740521D01*
X117668407Y-94704557D01*
X117698711Y-94699712D01*
X120975362Y-94690138D01*
X120975997Y-94690139D01*
X122797131Y-94696498D01*
X123800000Y-94700000D01*
X123800000Y-93398661D01*
X123818907Y-93340470D01*
X123868407Y-93304506D01*
X123899250Y-93299661D01*
X126157981Y-93305394D01*
X126158978Y-93305355D01*
X126158991Y-93305355D01*
X126173931Y-93304774D01*
X126173934Y-93304774D01*
X126174984Y-93304733D01*
X126176022Y-93304649D01*
X126176030Y-93304649D01*
X126186398Y-93303815D01*
X126186401Y-93303814D01*
X126191303Y-93303420D01*
X126196031Y-93302067D01*
X126196035Y-93302066D01*
X126264482Y-93282475D01*
X126264481Y-93282475D01*
X126269213Y-93281121D01*
X126323562Y-93253017D01*
X126375349Y-93214916D01*
X128310927Y-91256023D01*
X135003391Y-91256023D01*
X135004306Y-91263020D01*
X135004306Y-91263021D01*
X135005814Y-91274554D01*
X135021980Y-91398179D01*
X135024821Y-91404635D01*
X135024821Y-91404636D01*
X135063536Y-91492621D01*
X135079720Y-91529403D01*
X135116498Y-91573156D01*
X135167431Y-91633749D01*
X135167434Y-91633751D01*
X135171970Y-91639148D01*
X135177841Y-91643056D01*
X135177842Y-91643057D01*
X135190143Y-91651245D01*
X135291313Y-91718590D01*
X135391920Y-91750021D01*
X135421425Y-91759239D01*
X135421426Y-91759239D01*
X135428157Y-91761342D01*
X135499828Y-91762656D01*
X135564445Y-91763841D01*
X135564447Y-91763841D01*
X135571499Y-91763970D01*
X135578302Y-91762115D01*
X135578304Y-91762115D01*
X135653503Y-91741613D01*
X135709817Y-91726260D01*
X135831991Y-91651245D01*
X135839403Y-91643057D01*
X135923468Y-91550182D01*
X135928200Y-91544954D01*
X135990710Y-91415933D01*
X135992508Y-91405250D01*
X136013862Y-91278324D01*
X136013862Y-91278320D01*
X136014496Y-91274554D01*
X136014647Y-91262200D01*
X135994323Y-91120282D01*
X135934984Y-90989772D01*
X135841400Y-90881163D01*
X135721095Y-90803185D01*
X135583739Y-90762107D01*
X135500497Y-90761598D01*
X135447427Y-90761274D01*
X135447426Y-90761274D01*
X135440376Y-90761231D01*
X135433599Y-90763168D01*
X135433598Y-90763168D01*
X135309309Y-90798690D01*
X135309307Y-90798691D01*
X135302529Y-90800628D01*
X135181280Y-90877130D01*
X135176613Y-90882414D01*
X135176611Y-90882416D01*
X135091044Y-90979303D01*
X135091042Y-90979305D01*
X135086377Y-90984588D01*
X135025447Y-91114363D01*
X135003391Y-91256023D01*
X128310927Y-91256023D01*
X130656776Y-88881917D01*
X130711125Y-88853813D01*
X130727197Y-88852500D01*
X134226872Y-88852500D01*
X134285063Y-88871407D01*
X134296876Y-88881496D01*
X137039981Y-91624601D01*
X137067758Y-91679118D01*
X137068976Y-91694230D01*
X137075017Y-93289533D01*
X137080960Y-94858722D01*
X137080999Y-94869063D01*
X137062312Y-94927325D01*
X137049667Y-94941702D01*
X136967363Y-95018766D01*
X136911963Y-95044737D01*
X136899698Y-95045500D01*
X135087000Y-95045500D01*
X135054856Y-95048030D01*
X135024263Y-95052875D01*
X135018874Y-95055107D01*
X135018871Y-95055108D01*
X134941010Y-95087358D01*
X134941008Y-95087359D01*
X134935617Y-95089592D01*
X134886117Y-95125556D01*
X134858372Y-95149797D01*
X134811464Y-95228307D01*
X134809748Y-95233590D01*
X134809747Y-95233591D01*
X134793767Y-95282774D01*
X134792557Y-95286498D01*
X134782500Y-95350000D01*
X134782500Y-96093127D01*
X134763593Y-96151318D01*
X134714093Y-96187282D01*
X134652907Y-96187282D01*
X134629653Y-96176202D01*
X134609542Y-96163167D01*
X134603619Y-96159328D01*
X134471753Y-96119891D01*
X134391888Y-96119403D01*
X134341169Y-96119093D01*
X134341168Y-96119093D01*
X134334118Y-96119050D01*
X134327341Y-96120987D01*
X134327340Y-96120987D01*
X134208560Y-96154935D01*
X134208559Y-96154936D01*
X134201780Y-96156873D01*
X134195818Y-96160635D01*
X134195815Y-96160636D01*
X134127511Y-96203733D01*
X134085376Y-96230318D01*
X134080707Y-96235605D01*
X133998932Y-96328197D01*
X133998930Y-96328199D01*
X133994265Y-96333482D01*
X133991269Y-96339864D01*
X133991268Y-96339865D01*
X133979038Y-96365914D01*
X133935770Y-96458071D01*
X133914595Y-96594069D01*
X133932441Y-96730545D01*
X133935282Y-96737001D01*
X133935282Y-96737002D01*
X133969658Y-96815126D01*
X133987874Y-96856526D01*
X133992411Y-96861923D01*
X133992412Y-96861925D01*
X134018949Y-96893494D01*
X134076438Y-96961885D01*
X134191012Y-97038152D01*
X134197739Y-97040254D01*
X134197742Y-97040255D01*
X134315655Y-97077093D01*
X134315656Y-97077093D01*
X134322387Y-97079196D01*
X134391194Y-97080457D01*
X134452947Y-97081590D01*
X134452949Y-97081590D01*
X134460001Y-97081719D01*
X134466804Y-97079864D01*
X134466806Y-97079864D01*
X134570256Y-97051660D01*
X134592792Y-97045516D01*
X134624940Y-97025777D01*
X134631699Y-97021627D01*
X134691181Y-97007291D01*
X134747730Y-97030657D01*
X134779744Y-97082798D01*
X134782500Y-97105993D01*
X134782500Y-97184000D01*
X134785030Y-97216144D01*
X134789875Y-97246737D01*
X134792107Y-97252126D01*
X134792108Y-97252129D01*
X134824358Y-97329990D01*
X134826592Y-97335383D01*
X134862556Y-97384883D01*
X134864019Y-97386557D01*
X134879895Y-97404728D01*
X134886797Y-97412628D01*
X134965307Y-97459536D01*
X134970590Y-97461252D01*
X134970591Y-97461253D01*
X135019795Y-97477240D01*
X135023498Y-97478443D01*
X135027342Y-97479052D01*
X135027347Y-97479053D01*
X135083152Y-97487891D01*
X135083157Y-97487891D01*
X135087000Y-97488500D01*
X137738654Y-97488500D01*
X137758869Y-97487503D01*
X137760080Y-97487383D01*
X137760084Y-97487383D01*
X137773168Y-97486090D01*
X137773172Y-97486089D01*
X137778252Y-97485587D01*
X137799016Y-97479053D01*
X137853701Y-97461845D01*
X137853703Y-97461844D01*
X137858575Y-97460311D01*
X137865040Y-97456685D01*
X137908544Y-97432281D01*
X137908545Y-97432280D01*
X137911938Y-97430377D01*
X137934420Y-97412628D01*
X137959355Y-97392943D01*
X137959358Y-97392940D01*
X137962402Y-97390537D01*
X138397603Y-96919069D01*
X139389595Y-96919069D01*
X139407441Y-97055545D01*
X139410282Y-97062001D01*
X139410282Y-97062002D01*
X139441217Y-97132306D01*
X139462874Y-97181526D01*
X139467411Y-97186923D01*
X139467412Y-97186925D01*
X139493592Y-97218069D01*
X139551438Y-97286885D01*
X139666012Y-97363152D01*
X139672739Y-97365254D01*
X139672742Y-97365255D01*
X139790655Y-97402093D01*
X139790656Y-97402093D01*
X139797387Y-97404196D01*
X139818361Y-97404581D01*
X139826394Y-97404728D01*
X139884229Y-97424699D01*
X139919279Y-97474850D01*
X139922400Y-97518941D01*
X139914595Y-97569069D01*
X139932441Y-97705545D01*
X139935282Y-97712001D01*
X139935282Y-97712002D01*
X139966217Y-97782306D01*
X139987874Y-97831526D01*
X139992411Y-97836923D01*
X139992412Y-97836925D01*
X140015619Y-97864533D01*
X140076438Y-97936885D01*
X140082309Y-97940793D01*
X140082310Y-97940794D01*
X140093884Y-97948498D01*
X140191012Y-98013152D01*
X140197739Y-98015254D01*
X140197742Y-98015255D01*
X140315655Y-98052093D01*
X140315656Y-98052093D01*
X140322387Y-98054196D01*
X140391194Y-98055458D01*
X140452947Y-98056590D01*
X140452949Y-98056590D01*
X140460001Y-98056719D01*
X140466804Y-98054864D01*
X140466806Y-98054864D01*
X140539145Y-98035142D01*
X140592792Y-98020516D01*
X140710084Y-97948498D01*
X140720596Y-97936885D01*
X140797717Y-97851683D01*
X140797717Y-97851682D01*
X140802449Y-97846455D01*
X140862461Y-97722590D01*
X140863631Y-97715637D01*
X140863632Y-97715633D01*
X140884662Y-97590630D01*
X140884662Y-97590627D01*
X140885296Y-97586860D01*
X140885441Y-97575000D01*
X140865929Y-97438753D01*
X140808961Y-97313459D01*
X140746501Y-97240970D01*
X140723722Y-97214533D01*
X140723721Y-97214532D01*
X140719117Y-97209189D01*
X140713200Y-97205354D01*
X140713198Y-97205352D01*
X140609541Y-97138166D01*
X140609539Y-97138165D01*
X140603619Y-97134328D01*
X140471753Y-97094891D01*
X140457761Y-97094806D01*
X140450172Y-97094759D01*
X140392098Y-97075496D01*
X140356438Y-97025777D01*
X140353150Y-96979336D01*
X140359662Y-96940630D01*
X140359662Y-96940627D01*
X140360296Y-96936860D01*
X140360441Y-96925000D01*
X140356096Y-96894662D01*
X140366562Y-96834379D01*
X140410464Y-96791761D01*
X140446121Y-96783823D01*
X140445951Y-96782461D01*
X140452948Y-96781590D01*
X140460001Y-96781719D01*
X140466804Y-96779864D01*
X140466806Y-96779864D01*
X140539145Y-96760142D01*
X140592792Y-96745516D01*
X140710084Y-96673498D01*
X140728460Y-96653197D01*
X140797717Y-96576683D01*
X140797717Y-96576682D01*
X140802449Y-96571455D01*
X140862461Y-96447590D01*
X140863631Y-96440637D01*
X140863632Y-96440633D01*
X140884662Y-96315630D01*
X140884662Y-96315627D01*
X140885296Y-96311860D01*
X140885347Y-96307749D01*
X140885394Y-96303826D01*
X140885441Y-96300000D01*
X140865929Y-96163753D01*
X140820424Y-96063670D01*
X140811882Y-96044883D01*
X140811881Y-96044882D01*
X140808961Y-96038459D01*
X140719117Y-95934189D01*
X140713200Y-95930354D01*
X140713198Y-95930352D01*
X140609541Y-95863166D01*
X140609539Y-95863165D01*
X140603619Y-95859328D01*
X140471753Y-95819891D01*
X140391888Y-95819403D01*
X140341169Y-95819093D01*
X140341168Y-95819093D01*
X140334118Y-95819050D01*
X140327341Y-95820987D01*
X140327340Y-95820987D01*
X140208560Y-95854935D01*
X140208559Y-95854936D01*
X140201780Y-95856873D01*
X140195818Y-95860635D01*
X140195815Y-95860636D01*
X140120618Y-95908082D01*
X140085376Y-95930318D01*
X140080707Y-95935605D01*
X139998932Y-96028197D01*
X139998930Y-96028199D01*
X139994265Y-96033482D01*
X139991269Y-96039864D01*
X139991268Y-96039865D01*
X139988024Y-96046775D01*
X139935770Y-96158071D01*
X139934685Y-96165042D01*
X139934684Y-96165044D01*
X139931222Y-96187282D01*
X139914595Y-96294069D01*
X139919593Y-96332289D01*
X139908391Y-96392438D01*
X139863972Y-96434517D01*
X139820822Y-96444122D01*
X139816761Y-96444097D01*
X139816167Y-96444093D01*
X139816166Y-96444093D01*
X139809118Y-96444050D01*
X139802341Y-96445987D01*
X139802340Y-96445987D01*
X139683560Y-96479935D01*
X139683559Y-96479936D01*
X139676780Y-96481873D01*
X139670818Y-96485635D01*
X139670815Y-96485636D01*
X139570164Y-96549142D01*
X139560376Y-96555318D01*
X139541507Y-96576683D01*
X139473932Y-96653197D01*
X139473930Y-96653199D01*
X139469265Y-96658482D01*
X139466269Y-96664864D01*
X139466268Y-96664865D01*
X139450227Y-96699031D01*
X139410770Y-96783071D01*
X139409685Y-96790042D01*
X139409684Y-96790044D01*
X139402781Y-96834379D01*
X139389595Y-96919069D01*
X138397603Y-96919069D01*
X139036847Y-96226555D01*
X139430098Y-95800533D01*
X139430110Y-95800519D01*
X139430597Y-95799992D01*
X139438747Y-95790608D01*
X139446320Y-95781337D01*
X139482857Y-95714074D01*
X139501537Y-95655810D01*
X139511346Y-95592270D01*
X139511103Y-95529847D01*
X139504983Y-93957585D01*
X139523663Y-93899321D01*
X139573023Y-93863165D01*
X139634208Y-93862927D01*
X139683848Y-93898698D01*
X139685514Y-93901163D01*
X139687874Y-93906526D01*
X139692411Y-93911923D01*
X139692412Y-93911925D01*
X139700423Y-93921455D01*
X139776438Y-94011885D01*
X139782309Y-94015793D01*
X139782310Y-94015794D01*
X139793884Y-94023498D01*
X139891012Y-94088152D01*
X139897739Y-94090254D01*
X139897742Y-94090255D01*
X140015655Y-94127093D01*
X140015656Y-94127093D01*
X140022387Y-94129196D01*
X140091194Y-94130458D01*
X140152947Y-94131590D01*
X140152949Y-94131590D01*
X140160001Y-94131719D01*
X140166804Y-94129864D01*
X140166806Y-94129864D01*
X140250669Y-94107000D01*
X143843750Y-94107000D01*
X143862670Y-94250709D01*
X143918139Y-94384625D01*
X144006379Y-94499621D01*
X144121375Y-94587861D01*
X144255291Y-94643330D01*
X144261720Y-94644176D01*
X144261722Y-94644177D01*
X144392567Y-94661403D01*
X144399000Y-94662250D01*
X144405433Y-94661403D01*
X144536278Y-94644177D01*
X144536280Y-94644176D01*
X144542709Y-94643330D01*
X144676625Y-94587861D01*
X144677482Y-94589931D01*
X144727619Y-94579277D01*
X144783513Y-94604166D01*
X144814104Y-94657155D01*
X144807750Y-94717579D01*
X144807139Y-94718375D01*
X144751670Y-94852291D01*
X144750824Y-94858720D01*
X144750823Y-94858722D01*
X144749462Y-94869063D01*
X144732750Y-94996000D01*
X144733597Y-95002433D01*
X144749807Y-95125556D01*
X144751670Y-95139709D01*
X144807139Y-95273625D01*
X144895379Y-95388621D01*
X144900528Y-95392572D01*
X144909002Y-95399074D01*
X145010375Y-95476861D01*
X145144291Y-95532330D01*
X145150720Y-95533176D01*
X145150722Y-95533177D01*
X145260221Y-95547593D01*
X145277473Y-95549864D01*
X145281567Y-95550403D01*
X145288000Y-95551250D01*
X145294433Y-95550403D01*
X145298528Y-95549864D01*
X145315779Y-95547593D01*
X145425278Y-95533177D01*
X145425280Y-95533176D01*
X145431709Y-95532330D01*
X145565625Y-95476861D01*
X145666998Y-95399074D01*
X145675472Y-95392572D01*
X145680621Y-95388621D01*
X145768861Y-95273625D01*
X145824330Y-95139709D01*
X145826194Y-95125556D01*
X145842403Y-95002433D01*
X145843250Y-94996000D01*
X145826538Y-94869063D01*
X145825177Y-94858722D01*
X145825176Y-94858720D01*
X145824330Y-94852291D01*
X145768861Y-94718375D01*
X145680621Y-94603379D01*
X145565625Y-94515139D01*
X145431709Y-94459670D01*
X145425280Y-94458824D01*
X145425278Y-94458823D01*
X145294433Y-94441597D01*
X145288000Y-94440750D01*
X145281567Y-94441597D01*
X145150722Y-94458823D01*
X145150720Y-94458824D01*
X145144291Y-94459670D01*
X145010375Y-94515139D01*
X145009518Y-94513069D01*
X144959381Y-94523723D01*
X144903487Y-94498834D01*
X144872896Y-94445845D01*
X144879250Y-94385421D01*
X144879861Y-94384625D01*
X144935330Y-94250709D01*
X144954250Y-94107000D01*
X144935330Y-93963291D01*
X144879861Y-93829375D01*
X144791621Y-93714379D01*
X144676625Y-93626139D01*
X144542709Y-93570670D01*
X144536280Y-93569824D01*
X144536278Y-93569823D01*
X144405433Y-93552597D01*
X144399000Y-93551750D01*
X144392567Y-93552597D01*
X144261722Y-93569823D01*
X144261720Y-93569824D01*
X144255291Y-93570670D01*
X144121375Y-93626139D01*
X144006379Y-93714379D01*
X143918139Y-93829375D01*
X143862670Y-93963291D01*
X143843750Y-94107000D01*
X140250669Y-94107000D01*
X140274265Y-94100567D01*
X140292792Y-94095516D01*
X140410084Y-94023498D01*
X140420596Y-94011885D01*
X140497717Y-93926683D01*
X140497717Y-93926682D01*
X140502449Y-93921455D01*
X140562461Y-93797590D01*
X140563631Y-93790637D01*
X140563632Y-93790633D01*
X140584662Y-93665630D01*
X140584662Y-93665627D01*
X140585296Y-93661860D01*
X140585441Y-93650000D01*
X140565929Y-93513753D01*
X140508961Y-93388459D01*
X140436819Y-93304733D01*
X140423722Y-93289533D01*
X140423721Y-93289532D01*
X140419117Y-93284189D01*
X140413200Y-93280354D01*
X140413198Y-93280352D01*
X140309541Y-93213166D01*
X140309539Y-93213165D01*
X140303619Y-93209328D01*
X140171753Y-93169891D01*
X140091888Y-93169403D01*
X140041169Y-93169093D01*
X140041168Y-93169093D01*
X140034118Y-93169050D01*
X140027341Y-93170987D01*
X140027340Y-93170987D01*
X139908560Y-93204935D01*
X139908559Y-93204936D01*
X139901780Y-93206873D01*
X139895818Y-93210635D01*
X139895815Y-93210636D01*
X139799423Y-93271455D01*
X139785376Y-93280318D01*
X139763777Y-93304774D01*
X139698932Y-93378197D01*
X139698930Y-93378199D01*
X139694265Y-93383482D01*
X139691224Y-93389960D01*
X139691163Y-93390025D01*
X139687396Y-93395760D01*
X139686400Y-93395106D01*
X139649379Y-93434598D01*
X139589287Y-93446115D01*
X139533902Y-93420112D01*
X139504380Y-93366520D01*
X139502611Y-93348270D01*
X139501255Y-93000000D01*
X139501232Y-92994069D01*
X142564595Y-92994069D01*
X142565510Y-93001066D01*
X142565510Y-93001067D01*
X142571909Y-93050000D01*
X142582441Y-93130545D01*
X142585282Y-93137001D01*
X142585282Y-93137002D01*
X142616217Y-93207306D01*
X142637874Y-93256526D01*
X142642411Y-93261923D01*
X142642412Y-93261925D01*
X142678952Y-93305394D01*
X142726438Y-93361885D01*
X142732309Y-93365793D01*
X142732310Y-93365794D01*
X142743884Y-93373498D01*
X142841012Y-93438152D01*
X142847739Y-93440254D01*
X142847742Y-93440255D01*
X142965655Y-93477093D01*
X142965656Y-93477093D01*
X142972387Y-93479196D01*
X143041194Y-93480457D01*
X143102947Y-93481590D01*
X143102949Y-93481590D01*
X143110001Y-93481719D01*
X143116804Y-93479864D01*
X143116806Y-93479864D01*
X143189145Y-93460142D01*
X143242792Y-93445516D01*
X143360084Y-93373498D01*
X143370596Y-93361885D01*
X143447717Y-93276683D01*
X143447717Y-93276682D01*
X143452449Y-93271455D01*
X143512461Y-93147590D01*
X143513631Y-93140637D01*
X143513632Y-93140633D01*
X143528880Y-93050000D01*
X146394750Y-93050000D01*
X146395597Y-93056433D01*
X146411413Y-93176563D01*
X146413670Y-93193709D01*
X146469139Y-93327625D01*
X146557379Y-93442621D01*
X146672375Y-93530861D01*
X146806291Y-93586330D01*
X146812720Y-93587176D01*
X146812722Y-93587177D01*
X146943567Y-93604403D01*
X146950000Y-93605250D01*
X146956433Y-93604403D01*
X147087278Y-93587177D01*
X147087280Y-93587176D01*
X147093709Y-93586330D01*
X147227625Y-93530861D01*
X147342621Y-93442621D01*
X147430861Y-93327625D01*
X147486330Y-93193709D01*
X147488588Y-93176563D01*
X147504403Y-93056433D01*
X147505250Y-93050000D01*
X147486330Y-92906291D01*
X147430861Y-92772375D01*
X147342621Y-92657379D01*
X147227625Y-92569139D01*
X147093709Y-92513670D01*
X147087280Y-92512824D01*
X147087278Y-92512823D01*
X146956433Y-92495597D01*
X146950000Y-92494750D01*
X146943567Y-92495597D01*
X146812722Y-92512823D01*
X146812720Y-92512824D01*
X146806291Y-92513670D01*
X146672375Y-92569139D01*
X146557379Y-92657379D01*
X146469139Y-92772375D01*
X146413670Y-92906291D01*
X146394750Y-93050000D01*
X143528880Y-93050000D01*
X143534662Y-93015630D01*
X143534662Y-93015627D01*
X143535296Y-93011860D01*
X143535441Y-93000000D01*
X143515929Y-92863753D01*
X143458961Y-92738459D01*
X143369117Y-92634189D01*
X143363200Y-92630354D01*
X143363198Y-92630352D01*
X143259541Y-92563166D01*
X143259539Y-92563165D01*
X143253619Y-92559328D01*
X143121753Y-92519891D01*
X143041888Y-92519403D01*
X142991169Y-92519093D01*
X142991168Y-92519093D01*
X142984118Y-92519050D01*
X142977341Y-92520987D01*
X142977340Y-92520987D01*
X142858560Y-92554935D01*
X142858559Y-92554936D01*
X142851780Y-92556873D01*
X142845818Y-92560635D01*
X142845815Y-92560636D01*
X142832339Y-92569139D01*
X142735376Y-92630318D01*
X142730707Y-92635605D01*
X142648932Y-92728197D01*
X142648930Y-92728199D01*
X142644265Y-92733482D01*
X142585770Y-92858071D01*
X142564595Y-92994069D01*
X139501232Y-92994069D01*
X139493859Y-91100000D01*
X142494750Y-91100000D01*
X142513670Y-91243709D01*
X142569139Y-91377625D01*
X142657379Y-91492621D01*
X142772375Y-91580861D01*
X142906291Y-91636330D01*
X142912720Y-91637176D01*
X142912722Y-91637177D01*
X143043567Y-91654403D01*
X143050000Y-91655250D01*
X143056433Y-91654403D01*
X143187278Y-91637177D01*
X143187280Y-91637176D01*
X143193709Y-91636330D01*
X143327625Y-91580861D01*
X143442621Y-91492621D01*
X143530861Y-91377625D01*
X143586330Y-91243709D01*
X143605250Y-91100000D01*
X143590738Y-90989772D01*
X143587177Y-90962722D01*
X143587176Y-90962720D01*
X143586330Y-90956291D01*
X143530861Y-90822375D01*
X143442621Y-90707379D01*
X143327625Y-90619139D01*
X143193709Y-90563670D01*
X143187280Y-90562824D01*
X143187278Y-90562823D01*
X143056433Y-90545597D01*
X143050000Y-90544750D01*
X143043567Y-90545597D01*
X142912722Y-90562823D01*
X142912720Y-90562824D01*
X142906291Y-90563670D01*
X142772375Y-90619139D01*
X142657379Y-90707379D01*
X142569139Y-90822375D01*
X142513670Y-90956291D01*
X142512824Y-90962720D01*
X142512823Y-90962722D01*
X142509262Y-90989772D01*
X142494750Y-91100000D01*
X139493859Y-91100000D01*
X139493003Y-90880121D01*
X139511683Y-90821858D01*
X139523218Y-90808534D01*
X139571278Y-90762107D01*
X141519275Y-88880297D01*
X141574263Y-88853466D01*
X141588058Y-88852500D01*
X147538200Y-88852500D01*
X147570344Y-88849970D01*
X147600937Y-88845125D01*
X147606326Y-88842893D01*
X147606329Y-88842892D01*
X147684190Y-88810642D01*
X147684192Y-88810641D01*
X147689583Y-88808408D01*
X147739083Y-88772444D01*
X147766828Y-88748203D01*
X147813736Y-88669693D01*
X147832643Y-88611502D01*
X147842700Y-88548000D01*
X147842700Y-79840293D01*
X147842162Y-79825437D01*
X147841127Y-79811158D01*
X147820404Y-79734985D01*
X147818286Y-79730698D01*
X147818284Y-79730693D01*
X147795022Y-79683614D01*
X147793301Y-79680130D01*
X147756155Y-79627653D01*
X145854244Y-77678197D01*
X144301975Y-76087123D01*
X144301959Y-76087108D01*
X144301228Y-76086358D01*
X144288569Y-76074437D01*
X144275901Y-76063480D01*
X144271599Y-76061053D01*
X144271596Y-76061051D01*
X144209273Y-76025892D01*
X144209272Y-76025892D01*
X144204969Y-76023464D01*
X144200272Y-76021938D01*
X144200270Y-76021937D01*
X144150481Y-76005760D01*
X144150479Y-76005760D01*
X144146778Y-76004557D01*
X144142934Y-76003948D01*
X144142929Y-76003947D01*
X144087124Y-75995109D01*
X144087119Y-75995109D01*
X144083276Y-75994500D01*
X129725250Y-75994500D01*
X129667059Y-75975593D01*
X129655592Y-75965848D01*
X129564512Y-75875661D01*
X126609885Y-72950000D01*
X129244750Y-72950000D01*
X129263670Y-73093709D01*
X129319139Y-73227625D01*
X129407379Y-73342621D01*
X129522375Y-73430861D01*
X129656291Y-73486330D01*
X129662720Y-73487176D01*
X129662722Y-73487177D01*
X129793567Y-73504403D01*
X129800000Y-73505250D01*
X129806433Y-73504403D01*
X129937278Y-73487177D01*
X129937280Y-73487176D01*
X129943709Y-73486330D01*
X130077625Y-73430861D01*
X130192621Y-73342621D01*
X130280861Y-73227625D01*
X130336330Y-73093709D01*
X130355250Y-72950000D01*
X130336330Y-72806291D01*
X130280861Y-72672375D01*
X130192621Y-72557379D01*
X130077625Y-72469139D01*
X129943709Y-72413670D01*
X129937280Y-72412824D01*
X129937278Y-72412823D01*
X129806433Y-72395597D01*
X129800000Y-72394750D01*
X129793567Y-72395597D01*
X129662722Y-72412823D01*
X129662720Y-72412824D01*
X129656291Y-72413670D01*
X129522375Y-72469139D01*
X129407379Y-72557379D01*
X129319139Y-72672375D01*
X129263670Y-72806291D01*
X129244750Y-72950000D01*
X126609885Y-72950000D01*
X125989769Y-72335964D01*
X144642112Y-72335964D01*
X144642269Y-72340149D01*
X144642269Y-72340152D01*
X144643522Y-72373532D01*
X144650736Y-72565669D01*
X144697939Y-72790637D01*
X144782372Y-73004436D01*
X144784542Y-73008012D01*
X144784544Y-73008016D01*
X144848008Y-73112601D01*
X144901621Y-73200952D01*
X145052276Y-73374566D01*
X145230029Y-73520315D01*
X145429798Y-73634030D01*
X145645871Y-73712461D01*
X145695293Y-73721398D01*
X145868865Y-73752785D01*
X145868871Y-73752786D01*
X145872069Y-73753364D01*
X145891041Y-73754259D01*
X145895011Y-73754446D01*
X145895015Y-73754446D01*
X145896158Y-73754500D01*
X146057712Y-73754500D01*
X146059795Y-73754323D01*
X146059801Y-73754323D01*
X146224873Y-73740316D01*
X146224874Y-73740316D01*
X146229044Y-73739962D01*
X146233094Y-73738911D01*
X146233099Y-73738910D01*
X146447483Y-73683267D01*
X146447486Y-73683266D01*
X146451539Y-73682214D01*
X146661123Y-73587803D01*
X146851803Y-73459430D01*
X146937974Y-73377227D01*
X147015094Y-73303659D01*
X147015098Y-73303654D01*
X147018128Y-73300764D01*
X147155342Y-73116342D01*
X147192270Y-73043709D01*
X147257623Y-72915170D01*
X147257625Y-72915166D01*
X147259520Y-72911438D01*
X147327685Y-72691911D01*
X147357888Y-72464036D01*
X147356477Y-72426438D01*
X147349421Y-72238522D01*
X147349264Y-72234331D01*
X147302061Y-72009363D01*
X147217628Y-71795564D01*
X147098379Y-71599048D01*
X146947724Y-71425434D01*
X146769971Y-71279685D01*
X146570202Y-71165970D01*
X146354129Y-71087539D01*
X146286247Y-71075264D01*
X146131135Y-71047215D01*
X146131129Y-71047214D01*
X146127931Y-71046636D01*
X146108959Y-71045741D01*
X146104989Y-71045554D01*
X146104985Y-71045554D01*
X146103842Y-71045500D01*
X145942288Y-71045500D01*
X145940205Y-71045677D01*
X145940199Y-71045677D01*
X145775127Y-71059684D01*
X145775126Y-71059684D01*
X145770956Y-71060038D01*
X145766906Y-71061089D01*
X145766901Y-71061090D01*
X145552517Y-71116733D01*
X145552514Y-71116734D01*
X145548461Y-71117786D01*
X145338877Y-71212197D01*
X145148197Y-71340570D01*
X145145156Y-71343471D01*
X144984906Y-71496341D01*
X144984902Y-71496346D01*
X144981872Y-71499236D01*
X144844658Y-71683658D01*
X144842756Y-71687399D01*
X144747845Y-71874077D01*
X144740480Y-71888562D01*
X144672315Y-72108089D01*
X144665569Y-72158990D01*
X144644514Y-72317844D01*
X144642112Y-72335964D01*
X125989769Y-72335964D01*
X124894637Y-71251568D01*
X126245029Y-71251568D01*
X126284835Y-71417373D01*
X126363042Y-71568896D01*
X126475135Y-71697391D01*
X126480017Y-71700822D01*
X126480018Y-71700823D01*
X126510684Y-71722375D01*
X126614643Y-71795438D01*
X126773511Y-71857378D01*
X126779426Y-71858157D01*
X126779427Y-71858157D01*
X126900351Y-71874077D01*
X126903564Y-71874500D01*
X126992756Y-71874500D01*
X126996252Y-71874077D01*
X127113359Y-71859906D01*
X127113362Y-71859905D01*
X127119281Y-71859189D01*
X127126951Y-71856291D01*
X127173421Y-71838731D01*
X127278789Y-71798916D01*
X127283706Y-71795536D01*
X127283709Y-71795535D01*
X127414398Y-71705714D01*
X127419316Y-71702334D01*
X127532748Y-71575021D01*
X127538801Y-71563590D01*
X127601723Y-71444750D01*
X127612538Y-71424324D01*
X127654078Y-71258946D01*
X127654117Y-71251568D01*
X129245029Y-71251568D01*
X129284835Y-71417373D01*
X129363042Y-71568896D01*
X129475135Y-71697391D01*
X129480017Y-71700822D01*
X129480018Y-71700823D01*
X129510684Y-71722375D01*
X129614643Y-71795438D01*
X129773511Y-71857378D01*
X129779426Y-71858157D01*
X129779427Y-71858157D01*
X129900351Y-71874077D01*
X129903564Y-71874500D01*
X129992756Y-71874500D01*
X129996252Y-71874077D01*
X130113359Y-71859906D01*
X130113362Y-71859905D01*
X130119281Y-71859189D01*
X130126951Y-71856291D01*
X130173421Y-71838731D01*
X130278789Y-71798916D01*
X130283706Y-71795536D01*
X130283709Y-71795535D01*
X130414398Y-71705714D01*
X130419316Y-71702334D01*
X130532748Y-71575021D01*
X130538801Y-71563590D01*
X130601723Y-71444750D01*
X130612538Y-71424324D01*
X130654078Y-71258946D01*
X130654572Y-71164539D01*
X130654940Y-71094398D01*
X130654940Y-71094396D01*
X130654971Y-71088432D01*
X130625572Y-70965975D01*
X130616558Y-70928429D01*
X130616558Y-70928428D01*
X130615165Y-70922627D01*
X130536958Y-70771104D01*
X130424865Y-70642609D01*
X130413023Y-70634286D01*
X130290239Y-70547993D01*
X130290238Y-70547993D01*
X130285357Y-70544562D01*
X130126489Y-70482622D01*
X130120574Y-70481843D01*
X130120573Y-70481843D01*
X129999649Y-70465923D01*
X129996436Y-70465500D01*
X129907244Y-70465500D01*
X129904278Y-70465859D01*
X129904277Y-70465859D01*
X129786641Y-70480094D01*
X129786638Y-70480095D01*
X129780719Y-70480811D01*
X129621211Y-70541084D01*
X129616294Y-70544464D01*
X129616291Y-70544465D01*
X129611158Y-70547993D01*
X129480684Y-70637666D01*
X129367252Y-70764979D01*
X129364462Y-70770249D01*
X129364461Y-70770250D01*
X129348967Y-70799514D01*
X129287462Y-70915676D01*
X129269147Y-70988592D01*
X129250937Y-71061090D01*
X129245922Y-71081054D01*
X129245881Y-71088970D01*
X129245300Y-71199907D01*
X129245029Y-71251568D01*
X127654117Y-71251568D01*
X127654572Y-71164539D01*
X127654940Y-71094398D01*
X127654940Y-71094396D01*
X127654971Y-71088432D01*
X127625572Y-70965975D01*
X127616558Y-70928429D01*
X127616558Y-70928428D01*
X127615165Y-70922627D01*
X127536958Y-70771104D01*
X127424865Y-70642609D01*
X127413023Y-70634286D01*
X127290239Y-70547993D01*
X127290238Y-70547993D01*
X127285357Y-70544562D01*
X127126489Y-70482622D01*
X127120574Y-70481843D01*
X127120573Y-70481843D01*
X126999649Y-70465923D01*
X126996436Y-70465500D01*
X126907244Y-70465500D01*
X126904278Y-70465859D01*
X126904277Y-70465859D01*
X126786641Y-70480094D01*
X126786638Y-70480095D01*
X126780719Y-70480811D01*
X126621211Y-70541084D01*
X126616294Y-70544464D01*
X126616291Y-70544465D01*
X126611158Y-70547993D01*
X126480684Y-70637666D01*
X126367252Y-70764979D01*
X126364462Y-70770249D01*
X126364461Y-70770250D01*
X126348967Y-70799514D01*
X126287462Y-70915676D01*
X126269147Y-70988592D01*
X126250937Y-71061090D01*
X126245922Y-71081054D01*
X126245881Y-71088970D01*
X126245300Y-71199907D01*
X126245029Y-71251568D01*
X124894637Y-71251568D01*
X124673527Y-71032626D01*
X124662008Y-71022056D01*
X124650543Y-71012313D01*
X124580971Y-70973464D01*
X124522780Y-70954557D01*
X124518936Y-70953948D01*
X124518931Y-70953947D01*
X124463126Y-70945109D01*
X124463121Y-70945109D01*
X124459278Y-70944500D01*
X123899000Y-70944500D01*
X123840809Y-70925593D01*
X123804845Y-70876093D01*
X123800000Y-70845500D01*
X123800000Y-69699500D01*
X123818907Y-69641309D01*
X123868407Y-69605345D01*
X123899000Y-69600500D01*
X148700500Y-69600500D01*
X148758691Y-69619407D01*
G37*
%TD.AperFunction*%
%TA.AperFunction,Conductor*%
G36*
X129536942Y-87414941D02*
G01*
X129577495Y-87460757D01*
X129583373Y-87521660D01*
X129560919Y-87565788D01*
X129519932Y-87612197D01*
X129519930Y-87612199D01*
X129515265Y-87617482D01*
X129483908Y-87684270D01*
X129442063Y-87728908D01*
X129379380Y-87740065D01*
X129375927Y-87739539D01*
X129375923Y-87739539D01*
X129373735Y-87739205D01*
X129371544Y-87739070D01*
X129371535Y-87739069D01*
X129348317Y-87737639D01*
X129336963Y-87736939D01*
X129329425Y-87738885D01*
X129329422Y-87738885D01*
X129253794Y-87758407D01*
X129253792Y-87758408D01*
X129248410Y-87759797D01*
X129194057Y-87787888D01*
X129142260Y-87825980D01*
X128134829Y-88845125D01*
X125693246Y-91315098D01*
X125638891Y-91343190D01*
X125622839Y-91344500D01*
X123899000Y-91344500D01*
X123840809Y-91325593D01*
X123804845Y-91276093D01*
X123800000Y-91245500D01*
X123800000Y-87504500D01*
X123818907Y-87446309D01*
X123868407Y-87410345D01*
X123899000Y-87405500D01*
X129437958Y-87405500D01*
X129477206Y-87401712D01*
X129536942Y-87414941D01*
G37*
%TD.AperFunction*%
%TA.AperFunction,Conductor*%
G36*
X121341110Y-77410494D02*
G01*
X121351379Y-77415840D01*
X121369280Y-77426536D01*
X121374563Y-77428252D01*
X121374564Y-77428253D01*
X121423768Y-77444240D01*
X121427471Y-77445443D01*
X121431315Y-77446052D01*
X121431320Y-77446053D01*
X121487125Y-77454891D01*
X121487130Y-77454891D01*
X121490973Y-77455500D01*
X127326096Y-77455500D01*
X127384287Y-77474407D01*
X127420251Y-77523907D01*
X127420251Y-77585093D01*
X127400300Y-77620034D01*
X127348932Y-77678197D01*
X127348930Y-77678199D01*
X127344265Y-77683482D01*
X127285770Y-77808071D01*
X127264595Y-77944069D01*
X127265510Y-77951066D01*
X127265510Y-77951067D01*
X127278103Y-78047370D01*
X127282441Y-78080545D01*
X127285282Y-78087001D01*
X127285282Y-78087002D01*
X127332285Y-78193823D01*
X127337874Y-78206526D01*
X127342411Y-78211923D01*
X127342412Y-78211925D01*
X127350423Y-78221455D01*
X127426438Y-78311885D01*
X127432309Y-78315793D01*
X127432310Y-78315794D01*
X127443884Y-78323498D01*
X127541012Y-78388152D01*
X127547739Y-78390254D01*
X127547742Y-78390255D01*
X127665655Y-78427093D01*
X127665656Y-78427093D01*
X127672387Y-78429196D01*
X127741194Y-78430458D01*
X127802947Y-78431590D01*
X127802949Y-78431590D01*
X127810001Y-78431719D01*
X127816804Y-78429864D01*
X127816806Y-78429864D01*
X127889145Y-78410142D01*
X127942792Y-78395516D01*
X128060084Y-78323498D01*
X128070596Y-78311885D01*
X128147717Y-78226683D01*
X128147717Y-78226682D01*
X128152449Y-78221455D01*
X128212461Y-78097590D01*
X128213631Y-78090637D01*
X128213632Y-78090633D01*
X128234662Y-77965630D01*
X128234662Y-77965627D01*
X128235296Y-77961860D01*
X128235441Y-77950000D01*
X128215929Y-77813753D01*
X128158961Y-77688459D01*
X128099218Y-77619123D01*
X128075557Y-77562697D01*
X128089581Y-77503141D01*
X128135933Y-77463202D01*
X128174217Y-77455500D01*
X129096933Y-77455500D01*
X129155124Y-77474407D01*
X129191088Y-77523907D01*
X129195932Y-77554031D01*
X129207916Y-80094792D01*
X129207923Y-80096361D01*
X129210276Y-80595038D01*
X129210283Y-80596605D01*
X129217223Y-82067732D01*
X129221234Y-82107175D01*
X129228711Y-82144454D01*
X129231423Y-82156185D01*
X129234334Y-82161763D01*
X129234334Y-82161764D01*
X129268674Y-82227572D01*
X129273732Y-82237266D01*
X129313398Y-82283852D01*
X129327858Y-82298034D01*
X129328764Y-82298923D01*
X129357068Y-82353168D01*
X129348083Y-82413690D01*
X129305240Y-82457372D01*
X129283631Y-82465602D01*
X129251696Y-82473648D01*
X129197179Y-82501425D01*
X129194031Y-82503712D01*
X129194028Y-82503714D01*
X129148311Y-82536930D01*
X129145162Y-82539218D01*
X125968876Y-85715504D01*
X125914359Y-85743281D01*
X125898872Y-85744500D01*
X120250589Y-85744500D01*
X120192398Y-85725593D01*
X120156434Y-85676093D01*
X120156434Y-85614907D01*
X120192398Y-85565407D01*
X120198788Y-85561134D01*
X120221619Y-85547116D01*
X120260084Y-85523498D01*
X120286722Y-85494069D01*
X120347717Y-85426683D01*
X120347717Y-85426682D01*
X120352449Y-85421455D01*
X120412461Y-85297590D01*
X120413631Y-85290637D01*
X120413632Y-85290633D01*
X120434662Y-85165630D01*
X120434662Y-85165627D01*
X120435296Y-85161860D01*
X120435441Y-85150000D01*
X120415929Y-85013753D01*
X120358961Y-84888459D01*
X120269117Y-84784189D01*
X120263200Y-84780354D01*
X120263198Y-84780352D01*
X120159541Y-84713166D01*
X120159539Y-84713165D01*
X120153619Y-84709328D01*
X120021753Y-84669891D01*
X119941888Y-84669403D01*
X119891169Y-84669093D01*
X119891168Y-84669093D01*
X119884118Y-84669050D01*
X119877341Y-84670987D01*
X119877340Y-84670987D01*
X119758560Y-84704935D01*
X119758559Y-84704936D01*
X119751780Y-84706873D01*
X119745818Y-84710635D01*
X119745815Y-84710636D01*
X119641340Y-84776555D01*
X119635376Y-84780318D01*
X119630707Y-84785605D01*
X119548932Y-84878197D01*
X119548930Y-84878199D01*
X119544265Y-84883482D01*
X119490806Y-84997345D01*
X119448961Y-85041983D01*
X119388869Y-85053500D01*
X119372831Y-85050120D01*
X119271753Y-85019891D01*
X119191888Y-85019403D01*
X119141169Y-85019093D01*
X119141168Y-85019093D01*
X119134118Y-85019050D01*
X119127341Y-85020987D01*
X119127340Y-85020987D01*
X119008560Y-85054935D01*
X119008559Y-85054936D01*
X119001780Y-85056873D01*
X118995818Y-85060635D01*
X118995815Y-85060636D01*
X118891340Y-85126555D01*
X118885376Y-85130318D01*
X118880707Y-85135605D01*
X118798932Y-85228197D01*
X118798930Y-85228199D01*
X118794265Y-85233482D01*
X118735770Y-85358071D01*
X118714595Y-85494069D01*
X118715510Y-85501066D01*
X118715510Y-85501067D01*
X118732441Y-85630545D01*
X118729715Y-85630901D01*
X118727665Y-85679994D01*
X118689668Y-85727950D01*
X118634869Y-85744500D01*
X117712695Y-85744500D01*
X117654504Y-85725593D01*
X117617674Y-85673283D01*
X117616929Y-85670734D01*
X117615929Y-85663753D01*
X117608580Y-85647590D01*
X117561882Y-85544883D01*
X117561881Y-85544882D01*
X117558961Y-85538459D01*
X117469117Y-85434189D01*
X117463200Y-85430354D01*
X117463198Y-85430352D01*
X117359541Y-85363166D01*
X117359539Y-85363165D01*
X117353619Y-85359328D01*
X117221753Y-85319891D01*
X117141888Y-85319403D01*
X117091169Y-85319093D01*
X117091168Y-85319093D01*
X117084118Y-85319050D01*
X117077341Y-85320987D01*
X117077340Y-85320987D01*
X116958560Y-85354935D01*
X116958559Y-85354936D01*
X116951780Y-85356873D01*
X116945818Y-85360635D01*
X116945815Y-85360636D01*
X116859479Y-85415110D01*
X116835376Y-85430318D01*
X116830707Y-85435605D01*
X116748932Y-85528197D01*
X116748930Y-85528199D01*
X116744265Y-85533482D01*
X116685770Y-85658071D01*
X116684684Y-85665045D01*
X116682623Y-85671786D01*
X116680142Y-85671028D01*
X116657726Y-85715316D01*
X116603284Y-85743239D01*
X116587535Y-85744500D01*
X115649000Y-85744500D01*
X115616856Y-85747030D01*
X115589075Y-85751430D01*
X115528645Y-85741859D01*
X115485380Y-85698594D01*
X115475809Y-85638162D01*
X115503586Y-85583646D01*
X115513452Y-85575008D01*
X116173377Y-85070359D01*
X116233515Y-85050000D01*
X118100000Y-85050000D01*
X118971004Y-84178996D01*
X119025521Y-84151219D01*
X119041008Y-84150000D01*
X123800000Y-84150000D01*
X123800000Y-83994069D01*
X124214595Y-83994069D01*
X124215510Y-84001066D01*
X124215510Y-84001067D01*
X124229010Y-84104310D01*
X124232441Y-84130545D01*
X124235282Y-84137001D01*
X124235282Y-84137002D01*
X124244558Y-84158082D01*
X124287874Y-84256526D01*
X124292411Y-84261923D01*
X124292412Y-84261925D01*
X124324418Y-84300000D01*
X124376438Y-84361885D01*
X124382309Y-84365793D01*
X124382310Y-84365794D01*
X124393884Y-84373498D01*
X124491012Y-84438152D01*
X124497739Y-84440254D01*
X124497742Y-84440255D01*
X124615655Y-84477093D01*
X124615656Y-84477093D01*
X124622387Y-84479196D01*
X124691194Y-84480458D01*
X124752947Y-84481590D01*
X124752949Y-84481590D01*
X124760001Y-84481719D01*
X124766804Y-84479864D01*
X124766806Y-84479864D01*
X124862652Y-84453733D01*
X124892792Y-84445516D01*
X125010084Y-84373498D01*
X125020596Y-84361885D01*
X125097717Y-84276683D01*
X125097717Y-84276682D01*
X125102449Y-84271455D01*
X125162052Y-84148434D01*
X125204440Y-84104310D01*
X125264667Y-84093528D01*
X125319730Y-84120205D01*
X125341761Y-84151727D01*
X125387874Y-84256526D01*
X125392411Y-84261923D01*
X125392412Y-84261925D01*
X125424418Y-84300000D01*
X125476438Y-84361885D01*
X125482309Y-84365793D01*
X125482310Y-84365794D01*
X125493884Y-84373498D01*
X125591012Y-84438152D01*
X125597739Y-84440254D01*
X125597742Y-84440255D01*
X125715655Y-84477093D01*
X125715656Y-84477093D01*
X125722387Y-84479196D01*
X125791194Y-84480458D01*
X125852947Y-84481590D01*
X125852949Y-84481590D01*
X125860001Y-84481719D01*
X125866804Y-84479864D01*
X125866806Y-84479864D01*
X125962652Y-84453733D01*
X125992792Y-84445516D01*
X126110084Y-84373498D01*
X126120596Y-84361885D01*
X126197717Y-84276683D01*
X126197717Y-84276682D01*
X126202449Y-84271455D01*
X126262461Y-84147590D01*
X126263631Y-84140637D01*
X126263632Y-84140633D01*
X126284662Y-84015630D01*
X126284662Y-84015627D01*
X126285296Y-84011860D01*
X126285441Y-84000000D01*
X126265929Y-83863753D01*
X126231791Y-83788670D01*
X126211882Y-83744883D01*
X126211881Y-83744882D01*
X126208961Y-83738459D01*
X126119117Y-83634189D01*
X126113200Y-83630354D01*
X126113198Y-83630352D01*
X126009541Y-83563166D01*
X126009539Y-83563165D01*
X126003619Y-83559328D01*
X125871753Y-83519891D01*
X125791888Y-83519403D01*
X125741169Y-83519093D01*
X125741168Y-83519093D01*
X125734118Y-83519050D01*
X125727341Y-83520987D01*
X125727340Y-83520987D01*
X125608560Y-83554935D01*
X125608559Y-83554936D01*
X125601780Y-83556873D01*
X125595818Y-83560635D01*
X125595815Y-83560636D01*
X125491340Y-83626555D01*
X125485376Y-83630318D01*
X125480707Y-83635605D01*
X125398932Y-83728197D01*
X125398930Y-83728199D01*
X125394265Y-83733482D01*
X125339229Y-83850703D01*
X125297386Y-83895339D01*
X125237295Y-83906856D01*
X125181910Y-83880853D01*
X125159495Y-83849602D01*
X125111882Y-83744883D01*
X125111881Y-83744882D01*
X125108961Y-83738459D01*
X125019117Y-83634189D01*
X125013200Y-83630354D01*
X125013198Y-83630352D01*
X124909541Y-83563166D01*
X124909539Y-83563165D01*
X124903619Y-83559328D01*
X124771753Y-83519891D01*
X124691888Y-83519403D01*
X124641169Y-83519093D01*
X124641168Y-83519093D01*
X124634118Y-83519050D01*
X124627341Y-83520987D01*
X124627340Y-83520987D01*
X124508560Y-83554935D01*
X124508559Y-83554936D01*
X124501780Y-83556873D01*
X124495818Y-83560635D01*
X124495815Y-83560636D01*
X124391340Y-83626555D01*
X124385376Y-83630318D01*
X124380707Y-83635605D01*
X124298932Y-83728197D01*
X124298930Y-83728199D01*
X124294265Y-83733482D01*
X124235770Y-83858071D01*
X124234685Y-83865042D01*
X124234684Y-83865044D01*
X124228174Y-83906856D01*
X124214595Y-83994069D01*
X123800000Y-83994069D01*
X123800000Y-81244069D01*
X125164595Y-81244069D01*
X125182441Y-81380545D01*
X125185282Y-81387001D01*
X125185282Y-81387002D01*
X125192735Y-81403939D01*
X125237874Y-81506526D01*
X125242411Y-81511923D01*
X125242412Y-81511925D01*
X125250423Y-81521455D01*
X125326438Y-81611885D01*
X125332309Y-81615793D01*
X125332310Y-81615794D01*
X125343884Y-81623498D01*
X125441012Y-81688152D01*
X125447739Y-81690254D01*
X125447742Y-81690255D01*
X125565655Y-81727093D01*
X125565656Y-81727093D01*
X125572387Y-81729196D01*
X125641194Y-81730457D01*
X125702947Y-81731590D01*
X125702949Y-81731590D01*
X125710001Y-81731719D01*
X125716804Y-81729864D01*
X125716806Y-81729864D01*
X125789145Y-81710142D01*
X125842792Y-81695516D01*
X125960084Y-81623498D01*
X125970596Y-81611885D01*
X126047717Y-81526683D01*
X126047717Y-81526682D01*
X126052449Y-81521455D01*
X126097935Y-81427572D01*
X126109385Y-81403939D01*
X126112461Y-81397590D01*
X126113631Y-81390637D01*
X126113632Y-81390633D01*
X126134662Y-81265630D01*
X126134662Y-81265627D01*
X126135296Y-81261860D01*
X126135441Y-81250000D01*
X126115929Y-81113753D01*
X126058961Y-80988459D01*
X125969117Y-80884189D01*
X125963200Y-80880354D01*
X125963198Y-80880352D01*
X125859541Y-80813166D01*
X125859539Y-80813165D01*
X125853619Y-80809328D01*
X125721753Y-80769891D01*
X125641888Y-80769403D01*
X125591169Y-80769093D01*
X125591168Y-80769093D01*
X125584118Y-80769050D01*
X125577341Y-80770987D01*
X125577340Y-80770987D01*
X125458560Y-80804935D01*
X125458559Y-80804936D01*
X125451780Y-80806873D01*
X125445818Y-80810635D01*
X125445815Y-80810636D01*
X125383427Y-80850000D01*
X125335376Y-80880318D01*
X125330707Y-80885605D01*
X125248932Y-80978197D01*
X125248930Y-80978199D01*
X125244265Y-80983482D01*
X125185770Y-81108071D01*
X125164595Y-81244069D01*
X123800000Y-81244069D01*
X123800000Y-79240137D01*
X123791777Y-79240152D01*
X118549183Y-79249817D01*
X118490957Y-79231017D01*
X118454902Y-79181583D01*
X118450000Y-79150817D01*
X118450000Y-77554500D01*
X118468907Y-77496309D01*
X118518407Y-77460345D01*
X118549000Y-77455500D01*
X119370563Y-77455500D01*
X119428754Y-77474407D01*
X119464718Y-77523907D01*
X119468385Y-77569728D01*
X119464595Y-77594069D01*
X119467991Y-77620034D01*
X119469052Y-77628151D01*
X119457850Y-77688302D01*
X119413431Y-77730381D01*
X119398093Y-77736177D01*
X119332460Y-77754935D01*
X119332459Y-77754936D01*
X119325680Y-77756873D01*
X119319718Y-77760635D01*
X119319715Y-77760636D01*
X119233484Y-77815044D01*
X119209276Y-77830318D01*
X119204607Y-77835605D01*
X119122832Y-77928197D01*
X119122830Y-77928199D01*
X119118165Y-77933482D01*
X119115169Y-77939864D01*
X119115168Y-77939865D01*
X119110410Y-77950000D01*
X119059670Y-78058071D01*
X119038495Y-78194069D01*
X119039410Y-78201066D01*
X119039410Y-78201067D01*
X119055426Y-78323548D01*
X119056341Y-78330545D01*
X119059182Y-78337001D01*
X119059182Y-78337002D01*
X119100859Y-78431719D01*
X119111774Y-78456526D01*
X119116311Y-78461923D01*
X119116312Y-78461925D01*
X119120749Y-78467203D01*
X119200338Y-78561885D01*
X119206209Y-78565793D01*
X119206210Y-78565794D01*
X119217784Y-78573498D01*
X119314912Y-78638152D01*
X119321639Y-78640254D01*
X119321642Y-78640255D01*
X119439555Y-78677093D01*
X119439556Y-78677093D01*
X119446287Y-78679196D01*
X119515094Y-78680458D01*
X119576847Y-78681590D01*
X119576849Y-78681590D01*
X119583901Y-78681719D01*
X119590704Y-78679864D01*
X119590706Y-78679864D01*
X119663045Y-78660142D01*
X119716692Y-78645516D01*
X119833984Y-78573498D01*
X119844496Y-78561885D01*
X119921617Y-78476683D01*
X119921617Y-78476682D01*
X119926349Y-78471455D01*
X119986361Y-78347590D01*
X119987531Y-78340637D01*
X119987532Y-78340633D01*
X120008562Y-78215630D01*
X120008562Y-78215627D01*
X120009196Y-78211860D01*
X120009341Y-78200000D01*
X120005458Y-78172887D01*
X120015925Y-78112605D01*
X120059826Y-78069986D01*
X120077418Y-78063339D01*
X120120175Y-78051682D01*
X120142792Y-78045516D01*
X120260084Y-77973498D01*
X120280388Y-77951067D01*
X120347717Y-77876683D01*
X120347717Y-77876682D01*
X120352449Y-77871455D01*
X120412461Y-77747590D01*
X120413631Y-77740637D01*
X120413632Y-77740633D01*
X120434662Y-77615630D01*
X120434662Y-77615627D01*
X120435296Y-77611860D01*
X120435441Y-77600000D01*
X120425983Y-77533958D01*
X120436450Y-77473676D01*
X120480351Y-77431057D01*
X120540919Y-77422383D01*
X120578842Y-77437513D01*
X120682313Y-77506390D01*
X120770558Y-77533959D01*
X120812425Y-77547039D01*
X120812426Y-77547039D01*
X120819157Y-77549142D01*
X120890828Y-77550456D01*
X120955445Y-77551641D01*
X120955447Y-77551641D01*
X120962499Y-77551770D01*
X120969302Y-77549915D01*
X120969304Y-77549915D01*
X121064699Y-77523907D01*
X121100817Y-77514060D01*
X121222991Y-77439045D01*
X121227726Y-77433814D01*
X121233151Y-77429310D01*
X121234088Y-77430439D01*
X121280277Y-77403936D01*
X121341110Y-77410494D01*
G37*
%TD.AperFunction*%
%TA.AperFunction,Conductor*%
G36*
X123969460Y-72511598D02*
G01*
X127142073Y-75725955D01*
X127169493Y-75780652D01*
X127159527Y-75841021D01*
X127115981Y-75884002D01*
X127071613Y-75894500D01*
X125944282Y-75894500D01*
X125888782Y-75875661D01*
X125888393Y-75876334D01*
X125885008Y-75874380D01*
X125884016Y-75874043D01*
X125882774Y-75873090D01*
X125877625Y-75869139D01*
X125871632Y-75866656D01*
X125871629Y-75866655D01*
X125773701Y-75826093D01*
X125743709Y-75813670D01*
X125737280Y-75812824D01*
X125737278Y-75812823D01*
X125606433Y-75795597D01*
X125600000Y-75794750D01*
X125593567Y-75795597D01*
X125462722Y-75812823D01*
X125462720Y-75812824D01*
X125456291Y-75813670D01*
X125426299Y-75826093D01*
X125328371Y-75866655D01*
X125328368Y-75866656D01*
X125322375Y-75869139D01*
X125317226Y-75873090D01*
X125315984Y-75874043D01*
X125314992Y-75874380D01*
X125311607Y-75876334D01*
X125311218Y-75875661D01*
X125255718Y-75894500D01*
X123899000Y-75894500D01*
X123840809Y-75875593D01*
X123804845Y-75826093D01*
X123800000Y-75795500D01*
X123800000Y-72581143D01*
X123818907Y-72522952D01*
X123868407Y-72486988D01*
X123929593Y-72486988D01*
X123969460Y-72511598D01*
G37*
%TD.AperFunction*%
%TD*%
%TA.AperFunction,Conductor*%
%TO.N,GNDPWR*%
G36*
X123359191Y-69619407D02*
G01*
X123395155Y-69668907D01*
X123400000Y-69699500D01*
X123400000Y-70845500D01*
X123381093Y-70903691D01*
X123331593Y-70939655D01*
X123301000Y-70944500D01*
X122101278Y-70944500D01*
X122046536Y-70951925D01*
X122032660Y-70955760D01*
X121997307Y-70965530D01*
X121997298Y-70965533D01*
X121995698Y-70965975D01*
X121994125Y-70966526D01*
X121994123Y-70966527D01*
X121976369Y-70972750D01*
X121976368Y-70972751D01*
X121969537Y-70975145D01*
X121963684Y-70979404D01*
X121963682Y-70979405D01*
X121900084Y-71025682D01*
X121895586Y-71028955D01*
X121855363Y-71075061D01*
X121833730Y-71104881D01*
X121831330Y-71112287D01*
X121831326Y-71112294D01*
X121825210Y-71131164D01*
X121789281Y-71180690D01*
X121730429Y-71199636D01*
X121667133Y-71199249D01*
X121609059Y-71179986D01*
X121576707Y-71139163D01*
X121558949Y-71097617D01*
X121522985Y-71048117D01*
X121498744Y-71020372D01*
X121420234Y-70973464D01*
X121395816Y-70965530D01*
X121365746Y-70955760D01*
X121365744Y-70955760D01*
X121362043Y-70954557D01*
X121358199Y-70953948D01*
X121358194Y-70953947D01*
X121302389Y-70945109D01*
X121302384Y-70945109D01*
X121298541Y-70944500D01*
X121099000Y-70944500D01*
X121066856Y-70947030D01*
X121036263Y-70951875D01*
X121030874Y-70954107D01*
X121030871Y-70954108D01*
X120953010Y-70986358D01*
X120953008Y-70986359D01*
X120947617Y-70988592D01*
X120898117Y-71024556D01*
X120870372Y-71048797D01*
X120823464Y-71127307D01*
X120804557Y-71185498D01*
X120803948Y-71189342D01*
X120803947Y-71189347D01*
X120797861Y-71227776D01*
X120794500Y-71249000D01*
X120794500Y-71662986D01*
X120794846Y-71665892D01*
X120797287Y-71686397D01*
X120796762Y-71713583D01*
X120794500Y-71727865D01*
X120794500Y-72151000D01*
X120797030Y-72183144D01*
X120801875Y-72213737D01*
X120804107Y-72219126D01*
X120804108Y-72219129D01*
X120833870Y-72290983D01*
X120838592Y-72302383D01*
X120874556Y-72351883D01*
X120898797Y-72379628D01*
X120977307Y-72426536D01*
X120982590Y-72428252D01*
X120982591Y-72428253D01*
X121031795Y-72444240D01*
X121035498Y-72445443D01*
X121039342Y-72446052D01*
X121039347Y-72446053D01*
X121095152Y-72454891D01*
X121095157Y-72454891D01*
X121099000Y-72455500D01*
X121298763Y-72455500D01*
X121352296Y-72448405D01*
X121380474Y-72440802D01*
X121400555Y-72435384D01*
X121400561Y-72435382D01*
X121402096Y-72434968D01*
X121427161Y-72426438D01*
X121501761Y-72373532D01*
X121505461Y-72369393D01*
X121505465Y-72369390D01*
X121541067Y-72329569D01*
X121541069Y-72329566D01*
X121542542Y-72327919D01*
X121564535Y-72298367D01*
X121574991Y-72267398D01*
X121611519Y-72218314D01*
X121670603Y-72200085D01*
X121731514Y-72201202D01*
X121733263Y-72201234D01*
X121791097Y-72221205D01*
X121822481Y-72261308D01*
X121840037Y-72302383D01*
X121876001Y-72351883D01*
X121900242Y-72379628D01*
X121978752Y-72426536D01*
X121984035Y-72428252D01*
X121984036Y-72428253D01*
X122033240Y-72444240D01*
X122036943Y-72445443D01*
X122040787Y-72446052D01*
X122040792Y-72446053D01*
X122096597Y-72454891D01*
X122096602Y-72454891D01*
X122100445Y-72455500D01*
X123301000Y-72455500D01*
X123359191Y-72474407D01*
X123395155Y-72523907D01*
X123400000Y-72554500D01*
X123400000Y-75795500D01*
X123381093Y-75853691D01*
X123331593Y-75889655D01*
X123301000Y-75894500D01*
X118549000Y-75894500D01*
X118516856Y-75897030D01*
X118486263Y-75901875D01*
X118480874Y-75904107D01*
X118480871Y-75904108D01*
X118403010Y-75936358D01*
X118403008Y-75936359D01*
X118397617Y-75938592D01*
X118348117Y-75974556D01*
X118320372Y-75998797D01*
X118273464Y-76077307D01*
X118254557Y-76135498D01*
X118244500Y-76199000D01*
X118244500Y-77151000D01*
X118247030Y-77183144D01*
X118251875Y-77213737D01*
X118288592Y-77302383D01*
X118291463Y-77306335D01*
X118303329Y-77365988D01*
X118290001Y-77405129D01*
X118273464Y-77432807D01*
X118271748Y-77438090D01*
X118271747Y-77438091D01*
X118255787Y-77487213D01*
X118254557Y-77490998D01*
X118253948Y-77494842D01*
X118253947Y-77494847D01*
X118248875Y-77526874D01*
X118244500Y-77554500D01*
X118244500Y-77798558D01*
X118225593Y-77856749D01*
X118176093Y-77892713D01*
X118114907Y-77892713D01*
X118070503Y-77863183D01*
X118032400Y-77818963D01*
X117912095Y-77740985D01*
X117774739Y-77699907D01*
X117691497Y-77699398D01*
X117638427Y-77699074D01*
X117638426Y-77699074D01*
X117631376Y-77699031D01*
X117624599Y-77700968D01*
X117624598Y-77700968D01*
X117500309Y-77736490D01*
X117500307Y-77736491D01*
X117493529Y-77738428D01*
X117372280Y-77814930D01*
X117367613Y-77820214D01*
X117367611Y-77820216D01*
X117282044Y-77917103D01*
X117282042Y-77917105D01*
X117277377Y-77922388D01*
X117216447Y-78052163D01*
X117215362Y-78059132D01*
X117215361Y-78059135D01*
X117208163Y-78105366D01*
X117194391Y-78193823D01*
X117212980Y-78335979D01*
X117270720Y-78467203D01*
X117283792Y-78482754D01*
X117358431Y-78571549D01*
X117358434Y-78571551D01*
X117362970Y-78576948D01*
X117368841Y-78580856D01*
X117368842Y-78580857D01*
X117381143Y-78589045D01*
X117482313Y-78656390D01*
X117582920Y-78687821D01*
X117612425Y-78697039D01*
X117612426Y-78697039D01*
X117619157Y-78699142D01*
X117690828Y-78700456D01*
X117755445Y-78701641D01*
X117755447Y-78701641D01*
X117762499Y-78701770D01*
X117769302Y-78699915D01*
X117769304Y-78699915D01*
X117844503Y-78679413D01*
X117900817Y-78664060D01*
X118022991Y-78589045D01*
X118027726Y-78583814D01*
X118072102Y-78534788D01*
X118125170Y-78504334D01*
X118186004Y-78510889D01*
X118231366Y-78551949D01*
X118244500Y-78601224D01*
X118244500Y-79150817D01*
X118247060Y-79183152D01*
X118251962Y-79213918D01*
X118288871Y-79302678D01*
X118324926Y-79352112D01*
X118326390Y-79353781D01*
X118326392Y-79353784D01*
X118344082Y-79373957D01*
X118344084Y-79373959D01*
X118349218Y-79379813D01*
X118355914Y-79383797D01*
X118415082Y-79419000D01*
X118427815Y-79426576D01*
X118433102Y-79428283D01*
X118433104Y-79428284D01*
X118454485Y-79435187D01*
X118486041Y-79445376D01*
X118549562Y-79455317D01*
X118553454Y-79455310D01*
X118553456Y-79455310D01*
X123300818Y-79446559D01*
X123359043Y-79465359D01*
X123395098Y-79514793D01*
X123400000Y-79545559D01*
X123400000Y-83845500D01*
X123381093Y-83903691D01*
X123331593Y-83939655D01*
X123301000Y-83944500D01*
X119041008Y-83944500D01*
X119040076Y-83944537D01*
X119040058Y-83944537D01*
X119025838Y-83945096D01*
X119025815Y-83945097D01*
X119024883Y-83945134D01*
X119023943Y-83945208D01*
X119023926Y-83945209D01*
X119014245Y-83945971D01*
X119014242Y-83945972D01*
X119009396Y-83946353D01*
X118932228Y-83968116D01*
X118877711Y-83995893D01*
X118876731Y-83996605D01*
X118874560Y-83998183D01*
X118874559Y-83998183D01*
X118863133Y-84006485D01*
X118825694Y-84033686D01*
X118355435Y-84503945D01*
X118300918Y-84531722D01*
X118240486Y-84522151D01*
X118197221Y-84478886D01*
X118187803Y-84417516D01*
X118204862Y-84316124D01*
X118204862Y-84316120D01*
X118205496Y-84312354D01*
X118205647Y-84300000D01*
X118185323Y-84158082D01*
X118151751Y-84084244D01*
X118128905Y-84033996D01*
X118128904Y-84033995D01*
X118125984Y-84027572D01*
X118055015Y-83945209D01*
X118037005Y-83924307D01*
X118037004Y-83924306D01*
X118032400Y-83918963D01*
X117912095Y-83840985D01*
X117774739Y-83799907D01*
X117691497Y-83799398D01*
X117638427Y-83799074D01*
X117638426Y-83799074D01*
X117631376Y-83799031D01*
X117624599Y-83800968D01*
X117624598Y-83800968D01*
X117500309Y-83836490D01*
X117500307Y-83836491D01*
X117493529Y-83838428D01*
X117479219Y-83847457D01*
X117470445Y-83852993D01*
X117411142Y-83868053D01*
X117354313Y-83845380D01*
X117321664Y-83793633D01*
X117319990Y-83752841D01*
X117334661Y-83665633D01*
X117335296Y-83661860D01*
X117335441Y-83650000D01*
X117315929Y-83513753D01*
X117285664Y-83447189D01*
X117259331Y-83389272D01*
X117252458Y-83328474D01*
X117260359Y-83305131D01*
X117309384Y-83203942D01*
X117309385Y-83203939D01*
X117312461Y-83197590D01*
X117313631Y-83190637D01*
X117313632Y-83190633D01*
X117334662Y-83065630D01*
X117334662Y-83065627D01*
X117335296Y-83061860D01*
X117335441Y-83050000D01*
X117315929Y-82913753D01*
X117276822Y-82827742D01*
X117261882Y-82794883D01*
X117261881Y-82794882D01*
X117258961Y-82788459D01*
X117176093Y-82692285D01*
X117173722Y-82689533D01*
X117173721Y-82689532D01*
X117169117Y-82684189D01*
X117163200Y-82680354D01*
X117163198Y-82680352D01*
X117059541Y-82613166D01*
X117059539Y-82613165D01*
X117053619Y-82609328D01*
X116921753Y-82569891D01*
X116841888Y-82569403D01*
X116791169Y-82569093D01*
X116791168Y-82569093D01*
X116784118Y-82569050D01*
X116777341Y-82570987D01*
X116777340Y-82570987D01*
X116658560Y-82604935D01*
X116658559Y-82604936D01*
X116651780Y-82606873D01*
X116645816Y-82610636D01*
X116645812Y-82610638D01*
X116602992Y-82637655D01*
X116543690Y-82652716D01*
X116496319Y-82637004D01*
X116459541Y-82613166D01*
X116459539Y-82613165D01*
X116453619Y-82609328D01*
X116321753Y-82569891D01*
X116241888Y-82569403D01*
X116191169Y-82569093D01*
X116191168Y-82569093D01*
X116184118Y-82569050D01*
X116177341Y-82570987D01*
X116177340Y-82570987D01*
X116058560Y-82604935D01*
X116058559Y-82604936D01*
X116051780Y-82606873D01*
X116045818Y-82610635D01*
X116045815Y-82610636D01*
X115958349Y-82665823D01*
X115935376Y-82680318D01*
X115924807Y-82692285D01*
X115848932Y-82778197D01*
X115848930Y-82778199D01*
X115844265Y-82783482D01*
X115841269Y-82789864D01*
X115841268Y-82789865D01*
X115838912Y-82794883D01*
X115785770Y-82908071D01*
X115764595Y-83044069D01*
X115782441Y-83180545D01*
X115785282Y-83187001D01*
X115785282Y-83187002D01*
X115837874Y-83306526D01*
X115836292Y-83307222D01*
X115848884Y-83358098D01*
X115839752Y-83393094D01*
X115785770Y-83508071D01*
X115784685Y-83515042D01*
X115784684Y-83515044D01*
X115775417Y-83574565D01*
X115764595Y-83644069D01*
X115765510Y-83651066D01*
X115765510Y-83651067D01*
X115778818Y-83752841D01*
X115782441Y-83780545D01*
X115785282Y-83787001D01*
X115785282Y-83787002D01*
X115813136Y-83850304D01*
X115837874Y-83906526D01*
X115842411Y-83911923D01*
X115842412Y-83911925D01*
X115871031Y-83945971D01*
X115926438Y-84011885D01*
X116041012Y-84088152D01*
X116047739Y-84090254D01*
X116047742Y-84090255D01*
X116165655Y-84127093D01*
X116165656Y-84127093D01*
X116172387Y-84129196D01*
X116241194Y-84130458D01*
X116302947Y-84131590D01*
X116302949Y-84131590D01*
X116310001Y-84131719D01*
X116316804Y-84129864D01*
X116316806Y-84129864D01*
X116389145Y-84110142D01*
X116442792Y-84095516D01*
X116497704Y-84061799D01*
X116557185Y-84047464D01*
X116604359Y-84063754D01*
X116641012Y-84088152D01*
X116647739Y-84090254D01*
X116647742Y-84090255D01*
X116765655Y-84127093D01*
X116765656Y-84127093D01*
X116772387Y-84129196D01*
X116841194Y-84130458D01*
X116902947Y-84131590D01*
X116902949Y-84131590D01*
X116910001Y-84131719D01*
X116916804Y-84129864D01*
X116916806Y-84129864D01*
X116989145Y-84110142D01*
X117042792Y-84095516D01*
X117048802Y-84091826D01*
X117061974Y-84083739D01*
X117121456Y-84069405D01*
X117178004Y-84092771D01*
X117210018Y-84144913D01*
X117211594Y-84183333D01*
X117194391Y-84293823D01*
X117195306Y-84300820D01*
X117195306Y-84300821D01*
X117196814Y-84312354D01*
X117212980Y-84435979D01*
X117215821Y-84442435D01*
X117215821Y-84442436D01*
X117250897Y-84522151D01*
X117270720Y-84567203D01*
X117358695Y-84671862D01*
X117358696Y-84671864D01*
X117362970Y-84676948D01*
X117362087Y-84677690D01*
X117389376Y-84724583D01*
X117383190Y-84785455D01*
X117342407Y-84831065D01*
X117292611Y-84844500D01*
X116233515Y-84844500D01*
X116229534Y-84845156D01*
X116229529Y-84845156D01*
X116171614Y-84854694D01*
X116171613Y-84854694D01*
X116167619Y-84855352D01*
X116107481Y-84875711D01*
X116103923Y-84877607D01*
X116103921Y-84877608D01*
X116084048Y-84888199D01*
X116048546Y-84907119D01*
X115388621Y-85411768D01*
X115378083Y-85420394D01*
X115368217Y-85429032D01*
X115320484Y-85490352D01*
X115292707Y-85544868D01*
X115291888Y-85546910D01*
X115291882Y-85546923D01*
X115281892Y-85571828D01*
X115281891Y-85571831D01*
X115278992Y-85579059D01*
X115272839Y-85670308D01*
X115282410Y-85730740D01*
X115282954Y-85732898D01*
X115282956Y-85732909D01*
X115285877Y-85744500D01*
X115291412Y-85766466D01*
X115295559Y-85773066D01*
X115334826Y-85835558D01*
X115350000Y-85888229D01*
X115350000Y-86006483D01*
X115348781Y-86021969D01*
X115344500Y-86049000D01*
X115344500Y-86298610D01*
X115348414Y-86338528D01*
X115348885Y-86340905D01*
X115348937Y-86341259D01*
X115350000Y-86355729D01*
X115350000Y-86430797D01*
X115331093Y-86488988D01*
X115300718Y-86516131D01*
X115297617Y-86517457D01*
X115248117Y-86553421D01*
X115220372Y-86577662D01*
X115173464Y-86656172D01*
X115154557Y-86714363D01*
X115153948Y-86718207D01*
X115153947Y-86718212D01*
X115148374Y-86753402D01*
X115144500Y-86777865D01*
X115144500Y-87351000D01*
X115147030Y-87383144D01*
X115151875Y-87413737D01*
X115154107Y-87419126D01*
X115154108Y-87419129D01*
X115174726Y-87468907D01*
X115188592Y-87502383D01*
X115224556Y-87551883D01*
X115248797Y-87579628D01*
X115327307Y-87626536D01*
X115332590Y-87628252D01*
X115332591Y-87628253D01*
X115381795Y-87644240D01*
X115385498Y-87645443D01*
X115389342Y-87646052D01*
X115389347Y-87646053D01*
X115445152Y-87654891D01*
X115445157Y-87654891D01*
X115449000Y-87655500D01*
X116229830Y-87655500D01*
X116242541Y-87654500D01*
X116260049Y-87653122D01*
X116260056Y-87653121D01*
X116261977Y-87652970D01*
X116263887Y-87652667D01*
X116263891Y-87652667D01*
X116286799Y-87649039D01*
X116286803Y-87649038D01*
X116292567Y-87648125D01*
X116297961Y-87645891D01*
X116375809Y-87613647D01*
X116375812Y-87613645D01*
X116381204Y-87611412D01*
X116430705Y-87575450D01*
X116447878Y-87560448D01*
X116452583Y-87556338D01*
X116452585Y-87556335D01*
X116458451Y-87551211D01*
X116490113Y-87498221D01*
X116536191Y-87457966D01*
X116575098Y-87450000D01*
X119679595Y-87450000D01*
X119737786Y-87468907D01*
X119764929Y-87499282D01*
X119766255Y-87502383D01*
X119802219Y-87551883D01*
X119826460Y-87579628D01*
X119904970Y-87626536D01*
X119910253Y-87628252D01*
X119910254Y-87628253D01*
X119959458Y-87644240D01*
X119963161Y-87645443D01*
X119967005Y-87646052D01*
X119967010Y-87646053D01*
X120022815Y-87654891D01*
X120022820Y-87654891D01*
X120026663Y-87655500D01*
X120379830Y-87655500D01*
X120392541Y-87654500D01*
X120410049Y-87653122D01*
X120410056Y-87653121D01*
X120411977Y-87652970D01*
X120413887Y-87652667D01*
X120413891Y-87652667D01*
X120436799Y-87649039D01*
X120436803Y-87649038D01*
X120442567Y-87648125D01*
X120447961Y-87645891D01*
X120525809Y-87613647D01*
X120525812Y-87613645D01*
X120531204Y-87611412D01*
X120580705Y-87575450D01*
X120597878Y-87560448D01*
X120602583Y-87556338D01*
X120602585Y-87556335D01*
X120608451Y-87551211D01*
X120640113Y-87498221D01*
X120686191Y-87457966D01*
X120725098Y-87450000D01*
X123301000Y-87450000D01*
X123359191Y-87468907D01*
X123395155Y-87518407D01*
X123400000Y-87549000D01*
X123400000Y-91245500D01*
X123381093Y-91303691D01*
X123331593Y-91339655D01*
X123301000Y-91344500D01*
X120695881Y-91344500D01*
X120693455Y-91344742D01*
X120693448Y-91344742D01*
X120677933Y-91346288D01*
X120655350Y-91348537D01*
X120652945Y-91349021D01*
X120652944Y-91349021D01*
X120617845Y-91356082D01*
X120617828Y-91356086D01*
X120617066Y-91356239D01*
X120604287Y-91359237D01*
X120523456Y-91402022D01*
X120519245Y-91405650D01*
X120519244Y-91405651D01*
X120483884Y-91436119D01*
X120477104Y-91441961D01*
X120475567Y-91443547D01*
X120475556Y-91443557D01*
X120464119Y-91455357D01*
X120451461Y-91468415D01*
X120437023Y-91497879D01*
X120394439Y-91541811D01*
X120333493Y-91552226D01*
X120331495Y-91551927D01*
X120324739Y-91549907D01*
X120248682Y-91549442D01*
X120188427Y-91549074D01*
X120188426Y-91549074D01*
X120181376Y-91549031D01*
X120174598Y-91550968D01*
X120167605Y-91551926D01*
X120167185Y-91548856D01*
X120119205Y-91547153D01*
X120071012Y-91509456D01*
X120067013Y-91502997D01*
X120066861Y-91502729D01*
X120064676Y-91497617D01*
X120028712Y-91448117D01*
X120004471Y-91420372D01*
X119925961Y-91373464D01*
X119877709Y-91357786D01*
X119871473Y-91355760D01*
X119871471Y-91355760D01*
X119867770Y-91354557D01*
X119863926Y-91353948D01*
X119863921Y-91353947D01*
X119808116Y-91345109D01*
X119808111Y-91345109D01*
X119804268Y-91344500D01*
X117295881Y-91344500D01*
X117293455Y-91344742D01*
X117293448Y-91344742D01*
X117277933Y-91346288D01*
X117255350Y-91348537D01*
X117252945Y-91349021D01*
X117252944Y-91349021D01*
X117217845Y-91356082D01*
X117217828Y-91356086D01*
X117217066Y-91356239D01*
X117204287Y-91359237D01*
X117123456Y-91402022D01*
X117119245Y-91405650D01*
X117119244Y-91405651D01*
X117083884Y-91436119D01*
X117077104Y-91441961D01*
X117075567Y-91443547D01*
X117075556Y-91443557D01*
X117064119Y-91455357D01*
X117051461Y-91468415D01*
X117037023Y-91497879D01*
X116994439Y-91541811D01*
X116933493Y-91552226D01*
X116931495Y-91551927D01*
X116924739Y-91549907D01*
X116848682Y-91549442D01*
X116788427Y-91549074D01*
X116788426Y-91549074D01*
X116781376Y-91549031D01*
X116774599Y-91550968D01*
X116774598Y-91550968D01*
X116650309Y-91586490D01*
X116650307Y-91586491D01*
X116643529Y-91588428D01*
X116522280Y-91664930D01*
X116517613Y-91670214D01*
X116517611Y-91670216D01*
X116432044Y-91767103D01*
X116432042Y-91767105D01*
X116427377Y-91772388D01*
X116366447Y-91902163D01*
X116344391Y-92043823D01*
X116345306Y-92050820D01*
X116356588Y-92137094D01*
X116345386Y-92197245D01*
X116307282Y-92236035D01*
X116302725Y-92238621D01*
X116297617Y-92240804D01*
X116248117Y-92276768D01*
X116220372Y-92301009D01*
X116173464Y-92379519D01*
X116154557Y-92437710D01*
X116144500Y-92501212D01*
X116144500Y-92976251D01*
X116146989Y-93008140D01*
X116147286Y-93010032D01*
X116147287Y-93010039D01*
X116148209Y-93015905D01*
X116151757Y-93038494D01*
X116188209Y-93126972D01*
X116224047Y-93176563D01*
X116248216Y-93204369D01*
X116326606Y-93251476D01*
X116384748Y-93270531D01*
X116388584Y-93271149D01*
X116388586Y-93271149D01*
X116406298Y-93274000D01*
X116448226Y-93280750D01*
X116452111Y-93280760D01*
X116452113Y-93280760D01*
X118442406Y-93285811D01*
X123301252Y-93298143D01*
X123359394Y-93317198D01*
X123395232Y-93366789D01*
X123400000Y-93397143D01*
X123400000Y-94101000D01*
X123381093Y-94159191D01*
X123331593Y-94195155D01*
X123301000Y-94200000D01*
X117100000Y-94200000D01*
X117100000Y-101550000D01*
X119901000Y-101550000D01*
X119959191Y-101568907D01*
X119995155Y-101618407D01*
X120000000Y-101649000D01*
X120000000Y-108001000D01*
X119981093Y-108059191D01*
X119931593Y-108095155D01*
X119901000Y-108100000D01*
X99299500Y-108100000D01*
X99241309Y-108081093D01*
X99205345Y-108031593D01*
X99200500Y-108001000D01*
X99200500Y-89704748D01*
X103329500Y-89704748D01*
X103341133Y-89763231D01*
X103385448Y-89829552D01*
X103451769Y-89873867D01*
X103461332Y-89875769D01*
X103461334Y-89875770D01*
X103484005Y-89880279D01*
X103510252Y-89885500D01*
X107509748Y-89885500D01*
X107535995Y-89880279D01*
X107558666Y-89875770D01*
X107558668Y-89875769D01*
X107568231Y-89873867D01*
X107634552Y-89829552D01*
X107678867Y-89763231D01*
X107690500Y-89704748D01*
X107690500Y-88994069D01*
X121164595Y-88994069D01*
X121182441Y-89130545D01*
X121185282Y-89137001D01*
X121185282Y-89137002D01*
X121192735Y-89153939D01*
X121237874Y-89256526D01*
X121242411Y-89261923D01*
X121242412Y-89261925D01*
X121250423Y-89271455D01*
X121326438Y-89361885D01*
X121332309Y-89365793D01*
X121332310Y-89365794D01*
X121343884Y-89373498D01*
X121441012Y-89438152D01*
X121447739Y-89440254D01*
X121447742Y-89440255D01*
X121565655Y-89477093D01*
X121565656Y-89477093D01*
X121572387Y-89479196D01*
X121641194Y-89480457D01*
X121702947Y-89481590D01*
X121702949Y-89481590D01*
X121710001Y-89481719D01*
X121716804Y-89479864D01*
X121716806Y-89479864D01*
X121789145Y-89460142D01*
X121842792Y-89445516D01*
X121897704Y-89411799D01*
X121957185Y-89397464D01*
X122004359Y-89413754D01*
X122041012Y-89438152D01*
X122047739Y-89440254D01*
X122047742Y-89440255D01*
X122165655Y-89477093D01*
X122165656Y-89477093D01*
X122172387Y-89479196D01*
X122241194Y-89480457D01*
X122302947Y-89481590D01*
X122302949Y-89481590D01*
X122310001Y-89481719D01*
X122316804Y-89479864D01*
X122316806Y-89479864D01*
X122389145Y-89460142D01*
X122442792Y-89445516D01*
X122560084Y-89373498D01*
X122570596Y-89361885D01*
X122647717Y-89276683D01*
X122647717Y-89276682D01*
X122652449Y-89271455D01*
X122712461Y-89147590D01*
X122713631Y-89140637D01*
X122713632Y-89140633D01*
X122734662Y-89015630D01*
X122734662Y-89015627D01*
X122735296Y-89011860D01*
X122735441Y-89000000D01*
X122715929Y-88863753D01*
X122703044Y-88835414D01*
X122659331Y-88739272D01*
X122652458Y-88678474D01*
X122660359Y-88655131D01*
X122709384Y-88553942D01*
X122709385Y-88553939D01*
X122712461Y-88547590D01*
X122713631Y-88540637D01*
X122713632Y-88540633D01*
X122734662Y-88415630D01*
X122734662Y-88415627D01*
X122735296Y-88411860D01*
X122735441Y-88400000D01*
X122715929Y-88263753D01*
X122658961Y-88138459D01*
X122569117Y-88034189D01*
X122563200Y-88030354D01*
X122563198Y-88030352D01*
X122459541Y-87963166D01*
X122459539Y-87963165D01*
X122453619Y-87959328D01*
X122321753Y-87919891D01*
X122241888Y-87919403D01*
X122191169Y-87919093D01*
X122191168Y-87919093D01*
X122184118Y-87919050D01*
X122177341Y-87920987D01*
X122177340Y-87920987D01*
X122058560Y-87954935D01*
X122058559Y-87954936D01*
X122051780Y-87956873D01*
X122045816Y-87960636D01*
X122045812Y-87960638D01*
X122002992Y-87987655D01*
X121943690Y-88002716D01*
X121896319Y-87987004D01*
X121859541Y-87963166D01*
X121859539Y-87963165D01*
X121853619Y-87959328D01*
X121721753Y-87919891D01*
X121641888Y-87919403D01*
X121591169Y-87919093D01*
X121591168Y-87919093D01*
X121584118Y-87919050D01*
X121577341Y-87920987D01*
X121577340Y-87920987D01*
X121458560Y-87954935D01*
X121458559Y-87954936D01*
X121451780Y-87956873D01*
X121445818Y-87960635D01*
X121445815Y-87960636D01*
X121349447Y-88021440D01*
X121335376Y-88030318D01*
X121330707Y-88035605D01*
X121248932Y-88128197D01*
X121248930Y-88128199D01*
X121244265Y-88133482D01*
X121185770Y-88258071D01*
X121164595Y-88394069D01*
X121182441Y-88530545D01*
X121185282Y-88537001D01*
X121185282Y-88537002D01*
X121237874Y-88656526D01*
X121236292Y-88657222D01*
X121248884Y-88708098D01*
X121239752Y-88743094D01*
X121185770Y-88858071D01*
X121164595Y-88994069D01*
X107690500Y-88994069D01*
X107690500Y-87685252D01*
X107684079Y-87652970D01*
X107680770Y-87636334D01*
X107680769Y-87636332D01*
X107678867Y-87626769D01*
X107634552Y-87560448D01*
X107568231Y-87516133D01*
X107558668Y-87514231D01*
X107558666Y-87514230D01*
X107535995Y-87509721D01*
X107509748Y-87504500D01*
X103510252Y-87504500D01*
X103484005Y-87509721D01*
X103461334Y-87514230D01*
X103461332Y-87514231D01*
X103451769Y-87516133D01*
X103385448Y-87560448D01*
X103341133Y-87626769D01*
X103339231Y-87636332D01*
X103339230Y-87636334D01*
X103335921Y-87652970D01*
X103329500Y-87685252D01*
X103329500Y-89704748D01*
X99200500Y-89704748D01*
X99200500Y-83788806D01*
X103328086Y-83788806D01*
X103328855Y-83793279D01*
X103328855Y-83793284D01*
X103338164Y-83847457D01*
X103365139Y-84004444D01*
X103440869Y-84209719D01*
X103552739Y-84397756D01*
X103555734Y-84401171D01*
X103555736Y-84401174D01*
X103656109Y-84515627D01*
X103697003Y-84562258D01*
X103868830Y-84697715D01*
X103872845Y-84699827D01*
X103872846Y-84699828D01*
X103904392Y-84716425D01*
X104062464Y-84799590D01*
X104145495Y-84825372D01*
X104267082Y-84863126D01*
X104267085Y-84863127D01*
X104271421Y-84864473D01*
X104275931Y-84865007D01*
X104275932Y-84865007D01*
X104312610Y-84869348D01*
X104449077Y-84885500D01*
X106555504Y-84885500D01*
X106717881Y-84870580D01*
X106928465Y-84811189D01*
X106951986Y-84799590D01*
X107120627Y-84716425D01*
X107120626Y-84716425D01*
X107124699Y-84714417D01*
X107300013Y-84583504D01*
X107448533Y-84422835D01*
X107529934Y-84293823D01*
X107562866Y-84241628D01*
X107565287Y-84237791D01*
X107646365Y-84034569D01*
X107689050Y-83819974D01*
X107690461Y-83712197D01*
X107691855Y-83605734D01*
X107691855Y-83605729D01*
X107691914Y-83601194D01*
X107687339Y-83574565D01*
X107655629Y-83390028D01*
X107654861Y-83385556D01*
X107579131Y-83180281D01*
X107467261Y-82992244D01*
X107445268Y-82967165D01*
X107325991Y-82831156D01*
X107322997Y-82827742D01*
X107151170Y-82692285D01*
X107136328Y-82684476D01*
X107046097Y-82637004D01*
X106957536Y-82590410D01*
X106874505Y-82564628D01*
X106752918Y-82526874D01*
X106752915Y-82526873D01*
X106748579Y-82525527D01*
X106744069Y-82524993D01*
X106744068Y-82524993D01*
X106693475Y-82519005D01*
X106570923Y-82504500D01*
X104464496Y-82504500D01*
X104302119Y-82519420D01*
X104091535Y-82578811D01*
X104087462Y-82580820D01*
X104087461Y-82580820D01*
X104063734Y-82592521D01*
X103895301Y-82675583D01*
X103769158Y-82769778D01*
X103744142Y-82788459D01*
X103719987Y-82806496D01*
X103571467Y-82967165D01*
X103569049Y-82970998D01*
X103569047Y-82971000D01*
X103511719Y-83061860D01*
X103454713Y-83152209D01*
X103373635Y-83355431D01*
X103330950Y-83570026D01*
X103330891Y-83574565D01*
X103328286Y-83773548D01*
X103328086Y-83788806D01*
X99200500Y-83788806D01*
X99200500Y-80844069D01*
X115764595Y-80844069D01*
X115782441Y-80980545D01*
X115785282Y-80987001D01*
X115785282Y-80987002D01*
X115833884Y-81097457D01*
X115837874Y-81106526D01*
X115842411Y-81111923D01*
X115842412Y-81111925D01*
X115850423Y-81121455D01*
X115926438Y-81211885D01*
X115932309Y-81215793D01*
X115932310Y-81215794D01*
X115943884Y-81223498D01*
X116041012Y-81288152D01*
X116047739Y-81290254D01*
X116047742Y-81290255D01*
X116165655Y-81327093D01*
X116165656Y-81327093D01*
X116172387Y-81329196D01*
X116241194Y-81330458D01*
X116302947Y-81331590D01*
X116302949Y-81331590D01*
X116310001Y-81331719D01*
X116316804Y-81329864D01*
X116316806Y-81329864D01*
X116389145Y-81310142D01*
X116442792Y-81295516D01*
X116497704Y-81261799D01*
X116557185Y-81247464D01*
X116604359Y-81263754D01*
X116641012Y-81288152D01*
X116647739Y-81290254D01*
X116647742Y-81290255D01*
X116765655Y-81327093D01*
X116765656Y-81327093D01*
X116772387Y-81329196D01*
X116841194Y-81330458D01*
X116902947Y-81331590D01*
X116902949Y-81331590D01*
X116910001Y-81331719D01*
X116916804Y-81329864D01*
X116916806Y-81329864D01*
X116989145Y-81310142D01*
X117042792Y-81295516D01*
X117160084Y-81223498D01*
X117170596Y-81211885D01*
X117247717Y-81126683D01*
X117247717Y-81126682D01*
X117252449Y-81121455D01*
X117312461Y-80997590D01*
X117313631Y-80990637D01*
X117313632Y-80990633D01*
X117334662Y-80865630D01*
X117334662Y-80865627D01*
X117335296Y-80861860D01*
X117335441Y-80850000D01*
X117315929Y-80713753D01*
X117298182Y-80674720D01*
X117259331Y-80589272D01*
X117252458Y-80528474D01*
X117260359Y-80505131D01*
X117309384Y-80403942D01*
X117309385Y-80403939D01*
X117312461Y-80397590D01*
X117313631Y-80390637D01*
X117313632Y-80390633D01*
X117334662Y-80265630D01*
X117334662Y-80265627D01*
X117335296Y-80261860D01*
X117335350Y-80257500D01*
X117335394Y-80253826D01*
X117335441Y-80250000D01*
X117315929Y-80113753D01*
X117258961Y-79988459D01*
X117202732Y-79923201D01*
X117173722Y-79889533D01*
X117173721Y-79889532D01*
X117169117Y-79884189D01*
X117163200Y-79880354D01*
X117163198Y-79880352D01*
X117059541Y-79813166D01*
X117059539Y-79813165D01*
X117053619Y-79809328D01*
X116921753Y-79769891D01*
X116841888Y-79769403D01*
X116791169Y-79769093D01*
X116791168Y-79769093D01*
X116784118Y-79769050D01*
X116777341Y-79770987D01*
X116777340Y-79770987D01*
X116658560Y-79804935D01*
X116658559Y-79804936D01*
X116651780Y-79806873D01*
X116645816Y-79810636D01*
X116645812Y-79810638D01*
X116602992Y-79837655D01*
X116543690Y-79852716D01*
X116496319Y-79837004D01*
X116459541Y-79813166D01*
X116459539Y-79813165D01*
X116453619Y-79809328D01*
X116321753Y-79769891D01*
X116241888Y-79769403D01*
X116191169Y-79769093D01*
X116191168Y-79769093D01*
X116184118Y-79769050D01*
X116177341Y-79770987D01*
X116177340Y-79770987D01*
X116058560Y-79804935D01*
X116058559Y-79804936D01*
X116051780Y-79806873D01*
X116045818Y-79810635D01*
X116045815Y-79810636D01*
X115946123Y-79873537D01*
X115935376Y-79880318D01*
X115930708Y-79885604D01*
X115848932Y-79978197D01*
X115848930Y-79978199D01*
X115844265Y-79983482D01*
X115785770Y-80108071D01*
X115764595Y-80244069D01*
X115765510Y-80251066D01*
X115765510Y-80251067D01*
X115780934Y-80369017D01*
X115782441Y-80380545D01*
X115785282Y-80387001D01*
X115785282Y-80387002D01*
X115837874Y-80506526D01*
X115836292Y-80507222D01*
X115848884Y-80558098D01*
X115839752Y-80593094D01*
X115785770Y-80708071D01*
X115764595Y-80844069D01*
X99200500Y-80844069D01*
X99200500Y-78788806D01*
X103328086Y-78788806D01*
X103328855Y-78793279D01*
X103328855Y-78793284D01*
X103334207Y-78824428D01*
X103365139Y-79004444D01*
X103440869Y-79209719D01*
X103552739Y-79397756D01*
X103555734Y-79401171D01*
X103555736Y-79401174D01*
X103655377Y-79514793D01*
X103697003Y-79562258D01*
X103868830Y-79697715D01*
X103872845Y-79699827D01*
X103872846Y-79699828D01*
X103904392Y-79716425D01*
X104062464Y-79799590D01*
X104106186Y-79813166D01*
X104267082Y-79863126D01*
X104267085Y-79863127D01*
X104271421Y-79864473D01*
X104275931Y-79865007D01*
X104275932Y-79865007D01*
X104296810Y-79867478D01*
X104449077Y-79885500D01*
X106555504Y-79885500D01*
X106717881Y-79870580D01*
X106928465Y-79811189D01*
X106951986Y-79799590D01*
X107120627Y-79716425D01*
X107120626Y-79716425D01*
X107124699Y-79714417D01*
X107300013Y-79583504D01*
X107448533Y-79422835D01*
X107565287Y-79237791D01*
X107646365Y-79034569D01*
X107689050Y-78819974D01*
X107691091Y-78664060D01*
X107691855Y-78605734D01*
X107691855Y-78605729D01*
X107691914Y-78601194D01*
X107689827Y-78589045D01*
X107655629Y-78390028D01*
X107654861Y-78385556D01*
X107579131Y-78180281D01*
X107467261Y-77992244D01*
X107445268Y-77967165D01*
X107325991Y-77831156D01*
X107322997Y-77827742D01*
X107151170Y-77692285D01*
X107119425Y-77675583D01*
X106961548Y-77592521D01*
X106957536Y-77590410D01*
X106829495Y-77550652D01*
X106752918Y-77526874D01*
X106752915Y-77526873D01*
X106748579Y-77525527D01*
X106744069Y-77524993D01*
X106744068Y-77524993D01*
X106693475Y-77519005D01*
X106570923Y-77504500D01*
X104464496Y-77504500D01*
X104302119Y-77519420D01*
X104091535Y-77578811D01*
X104087462Y-77580820D01*
X104087461Y-77580820D01*
X104063734Y-77592521D01*
X103895301Y-77675583D01*
X103719987Y-77806496D01*
X103571467Y-77967165D01*
X103569049Y-77970998D01*
X103569047Y-77971000D01*
X103528997Y-78034476D01*
X103454713Y-78152209D01*
X103373635Y-78355431D01*
X103330950Y-78570026D01*
X103328086Y-78788806D01*
X99200500Y-78788806D01*
X99200500Y-72335964D01*
X100642112Y-72335964D01*
X100642269Y-72340149D01*
X100642269Y-72340152D01*
X100643367Y-72369390D01*
X100650736Y-72565669D01*
X100697939Y-72790637D01*
X100782372Y-73004436D01*
X100901621Y-73200952D01*
X101052276Y-73374566D01*
X101230029Y-73520315D01*
X101429798Y-73634030D01*
X101645871Y-73712461D01*
X101695293Y-73721398D01*
X101868865Y-73752785D01*
X101868871Y-73752786D01*
X101872069Y-73753364D01*
X101891041Y-73754259D01*
X101895011Y-73754446D01*
X101895015Y-73754446D01*
X101896158Y-73754500D01*
X102057712Y-73754500D01*
X102059795Y-73754323D01*
X102059801Y-73754323D01*
X102224873Y-73740316D01*
X102224874Y-73740316D01*
X102229044Y-73739962D01*
X102233094Y-73738911D01*
X102233099Y-73738910D01*
X102447483Y-73683267D01*
X102447486Y-73683266D01*
X102451539Y-73682214D01*
X102661123Y-73587803D01*
X102851803Y-73459430D01*
X102937974Y-73377227D01*
X103015094Y-73303659D01*
X103015098Y-73303654D01*
X103018128Y-73300764D01*
X103155342Y-73116342D01*
X103194124Y-73040063D01*
X103257623Y-72915170D01*
X103257625Y-72915166D01*
X103259520Y-72911438D01*
X103327685Y-72691911D01*
X103350783Y-72517641D01*
X103357338Y-72468187D01*
X103357338Y-72468185D01*
X103357888Y-72464036D01*
X103357552Y-72455072D01*
X103352924Y-72331813D01*
X103349264Y-72234331D01*
X103302061Y-72009363D01*
X103217628Y-71795564D01*
X103098379Y-71599048D01*
X102947724Y-71425434D01*
X102769971Y-71279685D01*
X102570202Y-71165970D01*
X102354129Y-71087539D01*
X102304707Y-71078602D01*
X102131135Y-71047215D01*
X102131129Y-71047214D01*
X102127931Y-71046636D01*
X102108959Y-71045741D01*
X102104989Y-71045554D01*
X102104985Y-71045554D01*
X102103842Y-71045500D01*
X101942288Y-71045500D01*
X101940205Y-71045677D01*
X101940199Y-71045677D01*
X101775127Y-71059684D01*
X101775126Y-71059684D01*
X101770956Y-71060038D01*
X101766906Y-71061089D01*
X101766901Y-71061090D01*
X101552517Y-71116733D01*
X101552514Y-71116734D01*
X101548461Y-71117786D01*
X101338877Y-71212197D01*
X101148197Y-71340570D01*
X101145156Y-71343471D01*
X100984906Y-71496341D01*
X100984902Y-71496346D01*
X100981872Y-71499236D01*
X100844658Y-71683658D01*
X100842756Y-71687399D01*
X100789583Y-71791984D01*
X100740480Y-71888562D01*
X100672315Y-72108089D01*
X100666445Y-72152380D01*
X100642960Y-72329569D01*
X100642112Y-72335964D01*
X99200500Y-72335964D01*
X99200500Y-69699500D01*
X99219407Y-69641309D01*
X99268907Y-69605345D01*
X99299500Y-69600500D01*
X123301000Y-69600500D01*
X123359191Y-69619407D01*
G37*
%TD.AperFunction*%
%TD*%
%TA.AperFunction,Conductor*%
%TO.N,GNDA*%
G36*
X124517469Y-71168907D02*
G01*
X124528934Y-71178650D01*
X129600000Y-76200000D01*
X144083276Y-76200000D01*
X144141467Y-76218907D01*
X144154135Y-76229864D01*
X145082653Y-77181593D01*
X147609062Y-79771159D01*
X147636165Y-79826014D01*
X147637200Y-79840293D01*
X147637200Y-88548000D01*
X147618293Y-88606191D01*
X147568793Y-88642155D01*
X147538200Y-88647000D01*
X141465000Y-88647000D01*
X139287000Y-90751000D01*
X139287040Y-90761249D01*
X139305848Y-95593070D01*
X139287168Y-95651334D01*
X139279595Y-95660605D01*
X137811400Y-97251150D01*
X137758037Y-97281084D01*
X137738654Y-97283000D01*
X135087000Y-97283000D01*
X135028809Y-97264093D01*
X134992845Y-97214593D01*
X134988000Y-97184000D01*
X134988000Y-95350000D01*
X135006907Y-95291809D01*
X135056407Y-95255845D01*
X135087000Y-95251000D01*
X137020000Y-95251000D01*
X137287000Y-95001000D01*
X137274000Y-91568000D01*
X134353000Y-88647000D01*
X130600000Y-88647000D01*
X126243283Y-93056196D01*
X126229171Y-93070478D01*
X126174822Y-93098582D01*
X126158503Y-93099895D01*
X116448748Y-93075251D01*
X116390606Y-93056196D01*
X116354768Y-93006605D01*
X116350000Y-92976251D01*
X116350000Y-92501212D01*
X116368907Y-92443021D01*
X116418407Y-92407057D01*
X116479593Y-92407057D01*
X116511835Y-92425598D01*
X116512970Y-92426948D01*
X116632313Y-92506390D01*
X116732920Y-92537821D01*
X116762425Y-92547039D01*
X116762426Y-92547039D01*
X116769157Y-92549142D01*
X116840828Y-92550456D01*
X116905445Y-92551641D01*
X116905447Y-92551641D01*
X116912499Y-92551770D01*
X116919302Y-92549915D01*
X116919304Y-92549915D01*
X117029429Y-92519891D01*
X117050817Y-92514060D01*
X117172991Y-92439045D01*
X117180403Y-92430857D01*
X117264468Y-92337982D01*
X117269200Y-92332754D01*
X117331710Y-92203733D01*
X117335875Y-92178982D01*
X117354862Y-92066124D01*
X117354862Y-92066120D01*
X117355496Y-92062354D01*
X117355647Y-92050000D01*
X117335323Y-91908082D01*
X117275984Y-91777572D01*
X117220882Y-91713623D01*
X117197221Y-91657198D01*
X117211245Y-91597641D01*
X117257597Y-91557702D01*
X117295881Y-91550000D01*
X119804268Y-91550000D01*
X119862459Y-91568907D01*
X119898423Y-91618407D01*
X119898423Y-91679593D01*
X119878474Y-91714531D01*
X119827377Y-91772388D01*
X119766447Y-91902163D01*
X119744391Y-92043823D01*
X119745306Y-92050820D01*
X119745306Y-92050821D01*
X119746814Y-92062354D01*
X119762980Y-92185979D01*
X119765821Y-92192435D01*
X119765821Y-92192436D01*
X119773586Y-92210082D01*
X119820720Y-92317203D01*
X119832201Y-92330861D01*
X119908431Y-92421549D01*
X119908434Y-92421551D01*
X119912970Y-92426948D01*
X119918841Y-92430856D01*
X119918842Y-92430857D01*
X119931143Y-92439045D01*
X120032313Y-92506390D01*
X120132920Y-92537821D01*
X120162425Y-92547039D01*
X120162426Y-92547039D01*
X120169157Y-92549142D01*
X120240828Y-92550456D01*
X120305445Y-92551641D01*
X120305447Y-92551641D01*
X120312499Y-92551770D01*
X120319302Y-92549915D01*
X120319304Y-92549915D01*
X120429429Y-92519891D01*
X120450817Y-92514060D01*
X120572991Y-92439045D01*
X120580403Y-92430857D01*
X120664468Y-92337982D01*
X120669200Y-92332754D01*
X120731710Y-92203733D01*
X120735875Y-92178982D01*
X120754862Y-92066124D01*
X120754862Y-92066120D01*
X120755496Y-92062354D01*
X120755647Y-92050000D01*
X120735323Y-91908082D01*
X120675984Y-91777572D01*
X120620882Y-91713623D01*
X120597221Y-91657198D01*
X120611245Y-91597641D01*
X120657597Y-91557702D01*
X120695881Y-91550000D01*
X125750000Y-91550000D01*
X129288408Y-87970448D01*
X129342761Y-87942357D01*
X129403247Y-87951579D01*
X129446761Y-87994593D01*
X129452860Y-88010105D01*
X129453441Y-88014545D01*
X129456279Y-88020996D01*
X129456280Y-88020998D01*
X129506033Y-88134070D01*
X129508874Y-88140526D01*
X129513411Y-88145923D01*
X129513412Y-88145925D01*
X129521423Y-88155455D01*
X129597438Y-88245885D01*
X129603309Y-88249793D01*
X129603310Y-88249794D01*
X129620430Y-88261190D01*
X129712012Y-88322152D01*
X129718739Y-88324254D01*
X129718742Y-88324255D01*
X129836655Y-88361093D01*
X129836656Y-88361093D01*
X129843387Y-88363196D01*
X129912194Y-88364457D01*
X129973947Y-88365590D01*
X129973949Y-88365590D01*
X129981001Y-88365719D01*
X129987804Y-88363864D01*
X129987806Y-88363864D01*
X130060145Y-88344142D01*
X130113792Y-88329516D01*
X130231084Y-88257498D01*
X130241596Y-88245885D01*
X130318717Y-88160683D01*
X130318717Y-88160682D01*
X130323449Y-88155455D01*
X130383461Y-88031590D01*
X130384631Y-88024637D01*
X130384632Y-88024633D01*
X130405662Y-87899630D01*
X130405662Y-87899627D01*
X130406296Y-87895860D01*
X130406441Y-87884000D01*
X130386929Y-87747753D01*
X130329961Y-87622459D01*
X130240117Y-87518189D01*
X130234200Y-87514354D01*
X130234198Y-87514352D01*
X130130541Y-87447166D01*
X130130539Y-87447165D01*
X130124619Y-87443328D01*
X130039291Y-87417809D01*
X129988958Y-87383021D01*
X129968685Y-87325292D01*
X129986217Y-87266672D01*
X129997252Y-87253361D01*
X130021581Y-87228750D01*
X130065946Y-87202835D01*
X130085992Y-87197370D01*
X130085993Y-87197370D01*
X130092792Y-87195516D01*
X130210084Y-87123498D01*
X130282197Y-87043829D01*
X130297717Y-87026683D01*
X130297717Y-87026682D01*
X130302449Y-87021455D01*
X130362461Y-86897590D01*
X130363631Y-86890637D01*
X130363632Y-86890633D01*
X130384662Y-86765630D01*
X130384662Y-86765627D01*
X130385296Y-86761860D01*
X130385441Y-86750000D01*
X130365929Y-86613753D01*
X130308961Y-86488459D01*
X130219117Y-86384189D01*
X130213200Y-86380354D01*
X130213198Y-86380352D01*
X130109541Y-86313166D01*
X130109539Y-86313165D01*
X130103619Y-86309328D01*
X129971753Y-86269891D01*
X129891888Y-86269403D01*
X129841169Y-86269093D01*
X129841168Y-86269093D01*
X129834118Y-86269050D01*
X129827341Y-86270987D01*
X129827340Y-86270987D01*
X129708560Y-86304935D01*
X129708559Y-86304936D01*
X129701780Y-86306873D01*
X129695818Y-86310635D01*
X129695815Y-86310636D01*
X129609454Y-86365126D01*
X129585376Y-86380318D01*
X129580707Y-86385605D01*
X129498932Y-86478197D01*
X129498930Y-86478199D01*
X129494265Y-86483482D01*
X129435770Y-86608071D01*
X129414595Y-86744069D01*
X129432441Y-86880545D01*
X129435282Y-86887001D01*
X129435282Y-86887002D01*
X129445438Y-86910082D01*
X129487874Y-87006526D01*
X129492412Y-87011925D01*
X129492413Y-87011926D01*
X129513740Y-87037297D01*
X129536711Y-87094007D01*
X129521961Y-87153388D01*
X129475125Y-87192758D01*
X129437958Y-87200000D01*
X120690960Y-87200000D01*
X120632769Y-87181093D01*
X120596805Y-87131593D01*
X120596805Y-87070407D01*
X120611726Y-87044640D01*
X120610524Y-87043829D01*
X120614468Y-87037982D01*
X120619200Y-87032754D01*
X120681710Y-86903733D01*
X120685612Y-86880545D01*
X120704862Y-86766124D01*
X120704862Y-86766120D01*
X120705496Y-86762354D01*
X120705647Y-86750000D01*
X120685323Y-86608082D01*
X120625984Y-86477572D01*
X120544437Y-86382932D01*
X120537005Y-86374307D01*
X120537004Y-86374306D01*
X120532400Y-86368963D01*
X120412095Y-86290985D01*
X120274739Y-86249907D01*
X120191497Y-86249398D01*
X120138427Y-86249074D01*
X120138426Y-86249074D01*
X120131376Y-86249031D01*
X120124599Y-86250968D01*
X120124598Y-86250968D01*
X120000309Y-86286490D01*
X120000307Y-86286491D01*
X119993529Y-86288428D01*
X119872280Y-86364930D01*
X119867613Y-86370214D01*
X119867611Y-86370216D01*
X119782044Y-86467103D01*
X119782042Y-86467105D01*
X119777377Y-86472388D01*
X119774381Y-86478770D01*
X119774380Y-86478771D01*
X119769171Y-86489865D01*
X119716447Y-86602163D01*
X119694391Y-86743823D01*
X119695306Y-86750820D01*
X119695306Y-86750821D01*
X119696750Y-86761860D01*
X119712980Y-86885979D01*
X119715821Y-86892435D01*
X119715821Y-86892436D01*
X119723586Y-86910082D01*
X119770720Y-87017203D01*
X119775259Y-87022602D01*
X119775259Y-87022603D01*
X119787611Y-87037297D01*
X119810582Y-87094007D01*
X119795832Y-87153388D01*
X119748996Y-87192758D01*
X119711829Y-87200000D01*
X116540960Y-87200000D01*
X116482769Y-87181093D01*
X116446805Y-87131593D01*
X116446805Y-87070407D01*
X116461726Y-87044640D01*
X116460524Y-87043829D01*
X116464468Y-87037982D01*
X116469200Y-87032754D01*
X116531710Y-86903733D01*
X116535612Y-86880545D01*
X116554862Y-86766124D01*
X116554862Y-86766120D01*
X116555496Y-86762354D01*
X116555647Y-86750000D01*
X116535323Y-86608082D01*
X116475984Y-86477572D01*
X116394437Y-86382932D01*
X116387005Y-86374307D01*
X116387004Y-86374306D01*
X116382400Y-86368963D01*
X116262095Y-86290985D01*
X116124739Y-86249907D01*
X116041497Y-86249398D01*
X115988427Y-86249074D01*
X115988426Y-86249074D01*
X115981376Y-86249031D01*
X115974599Y-86250968D01*
X115974598Y-86250968D01*
X115850309Y-86286490D01*
X115850307Y-86286491D01*
X115843529Y-86288428D01*
X115722280Y-86364930D01*
X115717606Y-86370222D01*
X115713166Y-86374001D01*
X115656598Y-86397318D01*
X115597128Y-86382932D01*
X115557471Y-86336339D01*
X115550000Y-86298610D01*
X115550000Y-86049000D01*
X115568907Y-85990809D01*
X115618407Y-85954845D01*
X115649000Y-85950000D01*
X116626402Y-85950000D01*
X116684593Y-85968907D01*
X116717018Y-86009127D01*
X116737874Y-86056526D01*
X116742411Y-86061923D01*
X116742412Y-86061925D01*
X116750423Y-86071455D01*
X116826438Y-86161885D01*
X116832309Y-86165793D01*
X116832310Y-86165794D01*
X116843884Y-86173498D01*
X116941012Y-86238152D01*
X116947739Y-86240254D01*
X116947742Y-86240255D01*
X117065655Y-86277093D01*
X117065656Y-86277093D01*
X117072387Y-86279196D01*
X117141194Y-86280457D01*
X117202947Y-86281590D01*
X117202949Y-86281590D01*
X117210001Y-86281719D01*
X117216804Y-86279864D01*
X117216806Y-86279864D01*
X117326686Y-86249907D01*
X117342792Y-86245516D01*
X117460084Y-86173498D01*
X117475484Y-86156485D01*
X117547714Y-86076686D01*
X117552449Y-86071455D01*
X117584242Y-86005834D01*
X117626628Y-85961711D01*
X117673335Y-85950000D01*
X119013830Y-85950000D01*
X119043352Y-85954504D01*
X119115655Y-85977093D01*
X119115656Y-85977093D01*
X119122387Y-85979196D01*
X119191194Y-85980457D01*
X119252947Y-85981590D01*
X119252949Y-85981590D01*
X119260001Y-85981719D01*
X119266804Y-85979864D01*
X119266806Y-85979864D01*
X119335074Y-85961252D01*
X119363559Y-85953486D01*
X119389598Y-85950000D01*
X126025000Y-85950000D01*
X127255931Y-84719069D01*
X144839595Y-84719069D01*
X144857441Y-84855545D01*
X144860282Y-84862001D01*
X144860282Y-84862002D01*
X144871924Y-84888459D01*
X144912874Y-84981526D01*
X144917411Y-84986923D01*
X144917412Y-84986925D01*
X144939964Y-85013753D01*
X145001438Y-85086885D01*
X145007309Y-85090793D01*
X145007310Y-85090794D01*
X145038778Y-85111741D01*
X145116012Y-85163152D01*
X145122739Y-85165254D01*
X145122742Y-85165255D01*
X145240655Y-85202093D01*
X145240656Y-85202093D01*
X145247387Y-85204196D01*
X145316194Y-85205458D01*
X145377947Y-85206590D01*
X145377949Y-85206590D01*
X145385001Y-85206719D01*
X145391804Y-85204864D01*
X145391806Y-85204864D01*
X145464145Y-85185142D01*
X145517792Y-85170516D01*
X145635084Y-85098498D01*
X145645596Y-85086885D01*
X145722717Y-85001683D01*
X145722717Y-85001682D01*
X145727449Y-84996455D01*
X145787461Y-84872590D01*
X145788631Y-84865637D01*
X145788632Y-84865633D01*
X145809662Y-84740630D01*
X145809662Y-84740627D01*
X145810296Y-84736860D01*
X145810441Y-84725000D01*
X145790929Y-84588753D01*
X145771714Y-84546492D01*
X145736882Y-84469883D01*
X145736881Y-84469882D01*
X145733961Y-84463459D01*
X145677732Y-84398201D01*
X145648722Y-84364533D01*
X145648721Y-84364532D01*
X145644117Y-84359189D01*
X145638200Y-84355354D01*
X145638198Y-84355352D01*
X145534541Y-84288166D01*
X145534539Y-84288165D01*
X145528619Y-84284328D01*
X145396753Y-84244891D01*
X145316888Y-84244403D01*
X145266169Y-84244093D01*
X145266168Y-84244093D01*
X145259118Y-84244050D01*
X145252341Y-84245987D01*
X145252340Y-84245987D01*
X145133560Y-84279935D01*
X145133559Y-84279936D01*
X145126780Y-84281873D01*
X145120818Y-84285635D01*
X145120815Y-84285636D01*
X145098050Y-84300000D01*
X145010376Y-84355318D01*
X145002238Y-84364533D01*
X144923932Y-84453197D01*
X144923930Y-84453199D01*
X144919265Y-84458482D01*
X144860770Y-84583071D01*
X144839595Y-84719069D01*
X127255931Y-84719069D01*
X128756177Y-83218823D01*
X133669391Y-83218823D01*
X133670306Y-83225820D01*
X133670306Y-83225821D01*
X133671814Y-83237354D01*
X133687980Y-83360979D01*
X133690821Y-83367435D01*
X133690821Y-83367436D01*
X133700072Y-83388459D01*
X133745720Y-83492203D01*
X133768994Y-83519891D01*
X133833431Y-83596549D01*
X133833434Y-83596551D01*
X133837970Y-83601948D01*
X133843841Y-83605856D01*
X133843842Y-83605857D01*
X133856143Y-83614045D01*
X133957313Y-83681390D01*
X134057920Y-83712821D01*
X134087425Y-83722039D01*
X134087426Y-83722039D01*
X134094157Y-83724142D01*
X134165828Y-83725456D01*
X134230445Y-83726641D01*
X134230447Y-83726641D01*
X134237499Y-83726770D01*
X134244302Y-83724915D01*
X134244304Y-83724915D01*
X134319503Y-83704413D01*
X134375817Y-83689060D01*
X134497991Y-83614045D01*
X134505403Y-83605857D01*
X134589468Y-83512982D01*
X134594200Y-83507754D01*
X134656710Y-83378733D01*
X134660875Y-83353982D01*
X134679862Y-83241124D01*
X134679862Y-83241120D01*
X134680496Y-83237354D01*
X134680647Y-83225000D01*
X134660323Y-83083082D01*
X134612177Y-82977190D01*
X134603905Y-82958996D01*
X134603904Y-82958995D01*
X134600984Y-82952572D01*
X134507400Y-82843963D01*
X134387095Y-82765985D01*
X134249739Y-82724907D01*
X134166497Y-82724398D01*
X134113427Y-82724074D01*
X134113426Y-82724074D01*
X134106376Y-82724031D01*
X134099599Y-82725968D01*
X134099598Y-82725968D01*
X133975309Y-82761490D01*
X133975307Y-82761491D01*
X133968529Y-82763428D01*
X133847280Y-82839930D01*
X133842613Y-82845214D01*
X133842611Y-82845216D01*
X133757044Y-82942103D01*
X133757042Y-82942105D01*
X133752377Y-82947388D01*
X133749381Y-82953770D01*
X133749380Y-82953771D01*
X133744549Y-82964060D01*
X133691447Y-83077163D01*
X133669391Y-83218823D01*
X128756177Y-83218823D01*
X129290472Y-82684528D01*
X129344989Y-82656751D01*
X129405421Y-82666322D01*
X129451092Y-82714660D01*
X129475033Y-82769070D01*
X129477874Y-82775526D01*
X129482411Y-82780923D01*
X129482412Y-82780925D01*
X129528848Y-82836167D01*
X129566438Y-82880885D01*
X129572309Y-82884793D01*
X129572310Y-82884794D01*
X129583884Y-82892498D01*
X129681012Y-82957152D01*
X129687739Y-82959254D01*
X129687742Y-82959255D01*
X129805655Y-82996093D01*
X129805656Y-82996093D01*
X129812387Y-82998196D01*
X129881194Y-82999458D01*
X129942947Y-83000590D01*
X129942949Y-83000590D01*
X129950001Y-83000719D01*
X129956804Y-82998864D01*
X129956806Y-82998864D01*
X130069033Y-82968267D01*
X130082792Y-82964516D01*
X130200084Y-82892498D01*
X130214399Y-82876683D01*
X130287717Y-82795683D01*
X130287717Y-82795682D01*
X130292449Y-82790455D01*
X130352461Y-82666590D01*
X130353631Y-82659637D01*
X130353632Y-82659633D01*
X130364662Y-82594069D01*
X146064595Y-82594069D01*
X146082441Y-82730545D01*
X146085282Y-82737001D01*
X146085282Y-82737002D01*
X146134698Y-82849307D01*
X146137874Y-82856526D01*
X146142411Y-82861923D01*
X146142412Y-82861925D01*
X146165209Y-82889045D01*
X146226438Y-82961885D01*
X146232309Y-82965793D01*
X146232310Y-82965794D01*
X146243884Y-82973498D01*
X146341012Y-83038152D01*
X146347739Y-83040254D01*
X146347742Y-83040255D01*
X146465655Y-83077093D01*
X146465656Y-83077093D01*
X146472387Y-83079196D01*
X146541194Y-83080457D01*
X146602947Y-83081590D01*
X146602949Y-83081590D01*
X146610001Y-83081719D01*
X146616804Y-83079864D01*
X146616806Y-83079864D01*
X146689145Y-83060142D01*
X146742792Y-83045516D01*
X146860084Y-82973498D01*
X146874880Y-82957152D01*
X146947717Y-82876683D01*
X146947717Y-82876682D01*
X146952449Y-82871455D01*
X146994767Y-82784110D01*
X147009385Y-82753939D01*
X147012461Y-82747590D01*
X147013631Y-82740637D01*
X147013632Y-82740633D01*
X147034662Y-82615630D01*
X147034662Y-82615627D01*
X147035296Y-82611860D01*
X147035441Y-82600000D01*
X147015929Y-82463753D01*
X146976517Y-82377071D01*
X146961882Y-82344883D01*
X146961881Y-82344882D01*
X146958961Y-82338459D01*
X146869117Y-82234189D01*
X146863200Y-82230354D01*
X146863198Y-82230352D01*
X146759541Y-82163166D01*
X146759539Y-82163165D01*
X146753619Y-82159328D01*
X146621753Y-82119891D01*
X146541888Y-82119403D01*
X146491169Y-82119093D01*
X146491168Y-82119093D01*
X146484118Y-82119050D01*
X146477341Y-82120987D01*
X146477340Y-82120987D01*
X146358560Y-82154935D01*
X146358559Y-82154936D01*
X146351780Y-82156873D01*
X146345818Y-82160635D01*
X146345815Y-82160636D01*
X146247944Y-82222388D01*
X146235376Y-82230318D01*
X146211406Y-82257459D01*
X146148932Y-82328197D01*
X146148930Y-82328199D01*
X146144265Y-82333482D01*
X146085770Y-82458071D01*
X146084685Y-82465042D01*
X146084684Y-82465044D01*
X146076283Y-82519000D01*
X146064595Y-82594069D01*
X130364662Y-82594069D01*
X130374662Y-82534630D01*
X130374662Y-82534627D01*
X130375296Y-82530860D01*
X130375441Y-82519000D01*
X130355929Y-82382753D01*
X130298961Y-82257459D01*
X130209117Y-82153189D01*
X130203200Y-82149354D01*
X130203198Y-82149352D01*
X130099541Y-82082166D01*
X130099539Y-82082165D01*
X130093619Y-82078328D01*
X129961753Y-82038891D01*
X129881888Y-82038403D01*
X129831169Y-82038093D01*
X129831168Y-82038093D01*
X129824118Y-82038050D01*
X129817341Y-82039987D01*
X129817340Y-82039987D01*
X129698560Y-82073935D01*
X129698559Y-82073936D01*
X129691780Y-82075873D01*
X129685818Y-82079635D01*
X129685815Y-82079636D01*
X129575376Y-82149318D01*
X129573722Y-82146697D01*
X129529337Y-82165003D01*
X129469864Y-82150628D01*
X129430198Y-82104042D01*
X129422721Y-82066763D01*
X129415774Y-80594069D01*
X130814595Y-80594069D01*
X130832441Y-80730545D01*
X130835282Y-80737001D01*
X130835282Y-80737002D01*
X130849754Y-80769891D01*
X130887874Y-80856526D01*
X130892411Y-80861923D01*
X130892412Y-80861925D01*
X130924418Y-80900000D01*
X130976438Y-80961885D01*
X130982309Y-80965793D01*
X130982310Y-80965794D01*
X130993884Y-80973498D01*
X131091012Y-81038152D01*
X131097739Y-81040254D01*
X131097742Y-81040255D01*
X131215655Y-81077093D01*
X131215656Y-81077093D01*
X131222387Y-81079196D01*
X131291194Y-81080458D01*
X131352947Y-81081590D01*
X131352949Y-81081590D01*
X131360001Y-81081719D01*
X131366804Y-81079864D01*
X131366806Y-81079864D01*
X131462652Y-81053733D01*
X131492792Y-81045516D01*
X131610084Y-80973498D01*
X131620596Y-80961885D01*
X131697717Y-80876683D01*
X131697717Y-80876682D01*
X131702449Y-80871455D01*
X131762461Y-80747590D01*
X131763631Y-80740637D01*
X131763632Y-80740633D01*
X131784662Y-80615630D01*
X131784662Y-80615627D01*
X131785296Y-80611860D01*
X131785441Y-80600000D01*
X131765929Y-80463753D01*
X131729101Y-80382754D01*
X131711882Y-80344883D01*
X131711881Y-80344882D01*
X131708961Y-80338459D01*
X131619117Y-80234189D01*
X131613200Y-80230354D01*
X131613198Y-80230352D01*
X131509541Y-80163166D01*
X131509539Y-80163165D01*
X131503619Y-80159328D01*
X131371753Y-80119891D01*
X131291888Y-80119403D01*
X131241169Y-80119093D01*
X131241168Y-80119093D01*
X131234118Y-80119050D01*
X131227341Y-80120987D01*
X131227340Y-80120987D01*
X131108560Y-80154935D01*
X131108559Y-80154936D01*
X131101780Y-80156873D01*
X131095818Y-80160635D01*
X131095815Y-80160636D01*
X130991340Y-80226555D01*
X130985376Y-80230318D01*
X130957519Y-80261860D01*
X130898932Y-80328197D01*
X130898930Y-80328199D01*
X130894265Y-80333482D01*
X130835770Y-80458071D01*
X130834685Y-80465042D01*
X130834684Y-80465044D01*
X130826917Y-80514930D01*
X130814595Y-80594069D01*
X129415774Y-80594069D01*
X129413414Y-80093823D01*
X141994391Y-80093823D01*
X141995306Y-80100820D01*
X141995306Y-80100821D01*
X142002382Y-80154935D01*
X142012980Y-80235979D01*
X142015821Y-80242435D01*
X142015821Y-80242436D01*
X142023586Y-80260082D01*
X142070720Y-80367203D01*
X142116845Y-80422076D01*
X142158431Y-80471549D01*
X142158434Y-80471551D01*
X142162970Y-80476948D01*
X142168841Y-80480856D01*
X142168842Y-80480857D01*
X142181143Y-80489045D01*
X142282313Y-80556390D01*
X142369031Y-80583482D01*
X142412425Y-80597039D01*
X142412426Y-80597039D01*
X142419157Y-80599142D01*
X142490828Y-80600456D01*
X142555445Y-80601641D01*
X142555447Y-80601641D01*
X142562499Y-80601770D01*
X142569302Y-80599915D01*
X142569304Y-80599915D01*
X142644503Y-80579413D01*
X142700817Y-80564060D01*
X142822991Y-80489045D01*
X142830403Y-80480857D01*
X142914468Y-80387982D01*
X142919200Y-80382754D01*
X142981710Y-80253733D01*
X142985650Y-80230318D01*
X143002028Y-80132966D01*
X143030328Y-80078719D01*
X143085108Y-80051466D01*
X143131671Y-80058444D01*
X143132313Y-80056390D01*
X143262425Y-80097039D01*
X143262426Y-80097039D01*
X143269157Y-80099142D01*
X143340828Y-80100456D01*
X143405445Y-80101641D01*
X143405447Y-80101641D01*
X143412499Y-80101770D01*
X143419302Y-80099915D01*
X143419304Y-80099915D01*
X143497049Y-80078719D01*
X143550817Y-80064060D01*
X143672991Y-79989045D01*
X143678027Y-79983482D01*
X143764468Y-79887982D01*
X143769200Y-79882754D01*
X143831710Y-79753733D01*
X143838239Y-79714930D01*
X143854862Y-79616124D01*
X143854862Y-79616120D01*
X143855496Y-79612354D01*
X143855647Y-79600000D01*
X143835323Y-79458082D01*
X143775984Y-79327572D01*
X143682400Y-79218963D01*
X143562095Y-79140985D01*
X143424739Y-79099907D01*
X143341497Y-79099398D01*
X143288427Y-79099074D01*
X143288426Y-79099074D01*
X143281376Y-79099031D01*
X143274599Y-79100968D01*
X143274598Y-79100968D01*
X143150309Y-79136490D01*
X143150307Y-79136491D01*
X143143529Y-79138428D01*
X143022280Y-79214930D01*
X143017613Y-79220214D01*
X143017611Y-79220216D01*
X142932044Y-79317103D01*
X142932042Y-79317105D01*
X142927377Y-79322388D01*
X142866447Y-79452163D01*
X142865362Y-79459134D01*
X142848695Y-79566179D01*
X142821061Y-79620768D01*
X142766617Y-79648688D01*
X142712504Y-79641250D01*
X142712095Y-79640985D01*
X142705339Y-79638965D01*
X142705338Y-79638964D01*
X142581500Y-79601929D01*
X142574739Y-79599907D01*
X142491497Y-79599398D01*
X142438427Y-79599074D01*
X142438426Y-79599074D01*
X142431376Y-79599031D01*
X142424599Y-79600968D01*
X142424598Y-79600968D01*
X142300309Y-79636490D01*
X142300307Y-79636491D01*
X142293529Y-79638428D01*
X142172280Y-79714930D01*
X142167613Y-79720214D01*
X142167611Y-79720216D01*
X142082044Y-79817103D01*
X142082042Y-79817105D01*
X142077377Y-79822388D01*
X142074381Y-79828770D01*
X142074380Y-79828771D01*
X142054847Y-79870374D01*
X142016447Y-79952163D01*
X142015362Y-79959132D01*
X142015361Y-79959135D01*
X142000986Y-80051466D01*
X141994391Y-80093823D01*
X129413414Y-80093823D01*
X129400074Y-77265680D01*
X129400000Y-77250000D01*
X121490973Y-77250000D01*
X121432782Y-77231093D01*
X121396818Y-77181593D01*
X121393345Y-77134576D01*
X121405496Y-77062354D01*
X121405647Y-77050000D01*
X121385323Y-76908082D01*
X121325984Y-76777572D01*
X121232400Y-76668963D01*
X121112095Y-76590985D01*
X120974739Y-76549907D01*
X120891497Y-76549398D01*
X120838427Y-76549074D01*
X120838426Y-76549074D01*
X120831376Y-76549031D01*
X120824599Y-76550968D01*
X120824598Y-76550968D01*
X120700309Y-76586490D01*
X120700307Y-76586491D01*
X120693529Y-76588428D01*
X120572280Y-76664930D01*
X120567613Y-76670214D01*
X120567611Y-76670216D01*
X120482044Y-76767103D01*
X120482042Y-76767105D01*
X120477377Y-76772388D01*
X120416447Y-76902163D01*
X120415362Y-76909132D01*
X120415361Y-76909135D01*
X120402363Y-76992621D01*
X120394391Y-77043823D01*
X120395306Y-77050820D01*
X120395306Y-77050821D01*
X120405410Y-77128090D01*
X120394208Y-77188241D01*
X120349788Y-77230319D01*
X120289120Y-77238252D01*
X120253400Y-77224002D01*
X120159541Y-77163166D01*
X120159539Y-77163165D01*
X120153619Y-77159328D01*
X120021753Y-77119891D01*
X119941888Y-77119403D01*
X119891169Y-77119093D01*
X119891168Y-77119093D01*
X119884118Y-77119050D01*
X119877341Y-77120987D01*
X119877340Y-77120987D01*
X119758560Y-77154935D01*
X119758559Y-77154936D01*
X119751780Y-77156873D01*
X119745818Y-77160635D01*
X119745815Y-77160636D01*
X119635376Y-77230318D01*
X119634680Y-77229215D01*
X119584968Y-77249708D01*
X119577368Y-77250000D01*
X118549000Y-77250000D01*
X118490809Y-77231093D01*
X118454845Y-77181593D01*
X118450000Y-77151000D01*
X118450000Y-76199000D01*
X118468907Y-76140809D01*
X118518407Y-76104845D01*
X118549000Y-76100000D01*
X127800000Y-76100000D01*
X124000000Y-72250000D01*
X122100445Y-72250000D01*
X122042254Y-72231093D01*
X122006290Y-72181593D01*
X122006290Y-72120407D01*
X122027047Y-72084564D01*
X122114468Y-71987982D01*
X122119200Y-71982754D01*
X122164836Y-71888562D01*
X122178634Y-71860082D01*
X122181710Y-71853733D01*
X122185341Y-71832156D01*
X122204862Y-71716124D01*
X122204862Y-71716120D01*
X122205496Y-71712354D01*
X122205647Y-71700000D01*
X122185323Y-71558082D01*
X122163543Y-71510180D01*
X122128905Y-71433996D01*
X122128904Y-71433995D01*
X122125984Y-71427572D01*
X122032400Y-71318963D01*
X122033073Y-71318383D01*
X122004776Y-71271099D01*
X122010217Y-71210156D01*
X122050440Y-71164050D01*
X122101278Y-71150000D01*
X124459278Y-71150000D01*
X124517469Y-71168907D01*
G37*
%TD.AperFunction*%
%TD*%
M02*
