M48
; DRILL file {KiCad (6.0.7)} date Mon Mar 20 18:09:03 2023
; FORMAT={-:-/ absolute / inch / decimal}
; #@! TF.CreationDate,2023-03-20T18:09:03+01:00
; #@! TF.GenerationSoftware,Kicad,Pcbnew,(6.0.7)
; #@! TF.FileFunction,Plated,1,6,PTH
FMAT,2
INCH
; #@! TA.AperFunction,Plated,PTH,ViaDrill
T1C0.0118
; #@! TA.AperFunction,Plated,PTH,ComponentDrill
T2C0.0394
; #@! TA.AperFunction,Plated,PTH,ComponentDrill
T3C0.0520
%
G90
G05
T1
X3.9764Y-3.0807
X3.9764Y-3.1161
X3.9764Y-3.2776
X3.9764Y-3.313
X3.9764Y-3.4744
X3.9764Y-3.5098
X3.9823Y-3.8228
X3.9823Y-3.9724
X4.0118Y-3.0807
X4.0118Y-3.1161
X4.0118Y-3.2776
X4.0118Y-3.313
X4.0118Y-3.4744
X4.0118Y-3.5098
X4.0177Y-3.8228
X4.0177Y-3.9724
X4.0531Y-3.8228
X4.0531Y-3.9724
X4.0886Y-3.8228
X4.0886Y-3.9724
X4.1142Y-4.5866
X4.1142Y-4.622
X4.1378Y-3.626
X4.1378Y-3.6614
X4.1496Y-4.5866
X4.1496Y-4.622
X4.1732Y-3.626
X4.1732Y-3.6614
X4.1988Y-4.185
X4.1988Y-4.2205
X4.2343Y-4.185
X4.2343Y-4.2205
X4.2362Y-2.8346
X4.2362Y-2.8701
X4.2717Y-2.8346
X4.2717Y-2.8701
X4.311Y-3.1969
X4.311Y-3.3937
X4.4252Y-4.378
X4.4764Y-4.5866
X4.4764Y-4.622
X4.501Y-3.1654
X4.5118Y-4.5866
X4.5118Y-4.622
X4.5157Y-3.8031
X4.5157Y-3.8366
X4.5157Y-3.872
X4.5157Y-3.9055
X4.5217Y-4.0394
X4.5354Y-3.3199
X4.5354Y-3.5768
X4.5512Y-3.8031
X4.5512Y-3.8366
X4.5512Y-3.872
X4.5512Y-3.9055
X4.5689Y-3.4154
X4.5689Y-3.5768
X4.5709Y-2.8346
X4.5709Y-2.8701
X4.5768Y-3.1594
X4.5768Y-3.1831
X4.5768Y-3.2697
X4.5768Y-3.2933
X4.6004Y-3.1594
X4.6004Y-3.1831
X4.6004Y-3.2697
X4.6004Y-3.2933
X4.6004Y-3.624
X4.6024Y-3.5768
X4.6063Y-2.8346
X4.6063Y-2.8701
X4.6122Y-3.378
X4.6339Y-3.0787
X4.6339Y-3.3189
X4.6535Y-4.185
X4.6535Y-4.2205
X4.6673Y-3.5768
X4.689Y-4.185
X4.689Y-4.2205
X4.6929Y-3.3661
X4.7008Y-3.5768
X4.7047Y-3.185
X4.7047Y-3.2165
X4.7047Y-3.248
X4.7057Y-3.0787
X4.7224Y-3.0551
X4.7224Y-3.3524
X4.7224Y-3.7756
X4.7224Y-3.8268
X4.7224Y-3.878
X4.7224Y-3.9291
X4.7264Y-2.872
X4.7323Y-3.4154
X4.7343Y-3.5768
X4.7343Y-3.624
X4.7362Y-3.185
X4.7362Y-3.2165
X4.7362Y-3.248
X4.7598Y-2.872
X4.7598Y-3.0335
X4.7618Y-3.7756
X4.7618Y-3.8268
X4.7618Y-3.878
X4.7618Y-3.9291
X4.7677Y-3.185
X4.7677Y-3.2165
X4.7677Y-3.248
X4.7894Y-3.4803
X4.7894Y-3.5039
X4.7913Y-2.8228
X4.7933Y-2.872
X4.813Y-3.4803
X4.813Y-3.5039
X4.8169Y-4.1949
X4.8189Y-4.3799
X4.876Y-4.1024
X4.876Y-4.3307
X4.9035Y-3.997
X4.9075Y-3.2461
X4.9094Y-3.3071
X4.9213Y-4.1457
X4.9311Y-3.5669
X4.936Y-3.9528
X4.9449Y-2.9547
X4.9449Y-3.0059
X4.9469Y-3.1988
X4.9528Y-3.3071
X4.9547Y-4.5591
X4.9547Y-4.5945
X4.9783Y-3.1201
X4.9902Y-4.5591
X4.9902Y-4.5945
X5.0295Y-3.0689
X5.0374Y-3.9685
X5.0394Y-4.0167
X5.0413Y-3.9291
X5.0551Y-4.3799
X5.0679Y-3.7638
X5.0689Y-4.1713
X5.0856Y-3.7028
X5.1102Y-2.872
X5.1138Y-3.2488
X5.1142Y-3.4154
X5.115Y-3.46
X5.1516Y-3.9291
X5.1526Y-3.6161
X5.1535Y-3.0984
X5.1555Y-3.9705
X5.1575Y-3.3976
X5.1624Y-3.2559
X5.1624Y-3.2972
X5.1693Y-3.1732
X5.1703Y-3.5512
X5.18Y-2.945
X5.1909Y-4.0472
X5.195Y-3.465
X5.2067Y-4.3327
X5.2156Y-3.7402
X5.248Y-3.7815
X5.2667Y-3.8927
X5.2677Y-3.9587
X5.2825Y-3.2766
X5.285Y-2.84
X5.2904Y-3.8671
X5.2913Y-3.8031
X5.2972Y-3.5571
X5.2992Y-3.3819
X5.3031Y-3.1732
X5.335Y-3.593
X5.355Y-3.518
X5.4055Y-3.437
X5.4193Y-2.8406
X5.4193Y-2.876
X5.4547Y-2.8406
X5.4547Y-2.876
X5.4724Y-4.1969
X5.4724Y-4.2323
X5.4724Y-4.4134
X5.4724Y-4.4488
X5.502Y-3.3386
X5.5069Y-3.8159
X5.5079Y-3.1831
X5.5079Y-3.437
X5.5079Y-4.1969
X5.5079Y-4.2323
X5.5079Y-4.4134
X5.5079Y-4.4488
X5.5157Y-3.687
X5.5276Y-3.7913
X5.5276Y-3.8415
X5.595Y-2.84
X5.6102Y-3.1535
X5.6319Y-3.5866
X5.6319Y-3.6614
X5.6407Y-3.811
X5.6437Y-3.1339
X5.6841Y-3.811
X5.685Y-3.705
X5.7156Y-3.1683
X5.7156Y-3.2116
X5.72Y-3.74
X5.7215Y-3.3356
X5.7323Y-2.9803
X5.7323Y-3.0157
X5.75Y-3.45
X5.7579Y-3.5453
X5.7579Y-3.5807
X5.7677Y-2.9803
X5.7677Y-3.0157
X5.7697Y-3.252
X5.7854Y-3.6634
X5.7933Y-3.5453
X5.7933Y-3.5807
T2
X5.2508Y-4.626
X5.3508Y-4.626
X5.4508Y-4.626
X5.5508Y-4.626
X5.6943Y-3.9986
X5.6943Y-4.0986
X5.6943Y-4.1986
X5.6943Y-4.2986
X5.6943Y-4.3986
X5.7943Y-3.9986
X5.7943Y-4.0986
X5.7943Y-4.1986
X5.7943Y-4.2986
X5.7943Y-4.3986
T3
X4.0301Y-4.4449
X4.1539Y-3.0982
X4.1539Y-3.2951
X4.1539Y-3.4919
X4.227Y-4.4449
T0
M30
